<?xml version="1.0" encoding="UTF-8" standalone="no"?>
<!DOCTYPE svg PUBLIC "-//W3C//DTD SVG 1.1//EN"
 "http://www.w3.org/Graphics/SVG/1.1/DTD/svg11.dtd">
<!-- Generated by graphviz version 12.1.1 (20240910.0053)
 -->
<!-- Title: GVmap Pages: 1 -->
<svg width="1055pt" height="266pt"
 viewBox="0.00 0.00 1055.00 266.00" xmlns="http://www.w3.org/2000/svg" xmlns:xlink="http://www.w3.org/1999/xlink">
<g id="graph0" class="graph" transform="scale(1 1) rotate(0) translate(4 262)">
<title>GVmap</title>
<polygon fill="white" stroke="none" points="-4,4 -4,-262 1051,-262 1051,4 -4,4"/>
<text text-anchor="middle" x="523.5" y="-7.2" font-family="Times,serif" font-size="14.00">ivoa data model</text>
<!-- ivoa:Unit -->
<g id="node1" class="node">
<title>ivoa:Unit</title>
<g id="a_node1"><a xlink:href="../ivoa/Unit" xlink:title="{&amp;lt;&amp;lt;primitive type&amp;gt;&amp;gt;\nUnit}">
<polygon fill="#8dd3c7" stroke="black" points="0,-134.62 0,-170.62 79,-170.62 79,-134.62 0,-134.62"/>
<text text-anchor="middle" x="39.5" y="-155.03" font-family="Times,serif" font-size="8.00">&lt;&lt;primitive type&gt;&gt;</text>
<text text-anchor="middle" x="39.5" y="-145.28" font-family="Times,serif" font-size="8.00">Unit</text>
</a>
</g>
</g>
<!-- ivoa:string -->
<g id="node10" class="node">
<title>ivoa:string</title>
<g id="a_node10"><a xlink:href="../ivoa/string" xlink:title="{&amp;lt;&amp;lt;primitive type&amp;gt;&amp;gt;\nstring}">
<polygon fill="#8dd3c7" stroke="black" points="97,-57 97,-93 176,-93 176,-57 97,-57"/>
<text text-anchor="middle" x="136.5" y="-77.4" font-family="Times,serif" font-size="8.00">&lt;&lt;primitive type&gt;&gt;</text>
<text text-anchor="middle" x="136.5" y="-67.65" font-family="Times,serif" font-size="8.00">string</text>
</a>
</g>
</g>
<!-- ivoa:Unit&#45;&gt;ivoa:string -->
<g id="edge1" class="edge">
<title>ivoa:Unit&#45;&gt;ivoa:string</title>
<path fill="none" stroke="red" d="M61.51,-134.46C74.44,-124.38 91,-111.48 105.26,-100.36"/>
<polygon fill="none" stroke="red" points="107.31,-103.19 113.05,-94.28 103.01,-97.67 107.31,-103.19"/>
</g>
<!-- ivoa:anyURI -->
<g id="node2" class="node">
<title>ivoa:anyURI</title>
<g id="a_node2"><a xlink:href="../ivoa/anyURI" xlink:title="{&amp;lt;&amp;lt;primitive type&amp;gt;&amp;gt;\nanyURI}">
<polygon fill="#8dd3c7" stroke="black" points="97,-134.62 97,-170.62 176,-170.62 176,-134.62 97,-134.62"/>
<text text-anchor="middle" x="136.5" y="-155.03" font-family="Times,serif" font-size="8.00">&lt;&lt;primitive type&gt;&gt;</text>
<text text-anchor="middle" x="136.5" y="-145.28" font-family="Times,serif" font-size="8.00">anyURI</text>
</a>
</g>
</g>
<!-- ivoa:anyURI&#45;&gt;ivoa:string -->
<g id="edge2" class="edge">
<title>ivoa:anyURI&#45;&gt;ivoa:string</title>
<path fill="none" stroke="red" d="M136.5,-134.46C136.5,-125.63 136.5,-114.63 136.5,-104.56"/>
<polygon fill="none" stroke="red" points="140,-104.87 136.5,-94.87 133,-104.87 140,-104.87"/>
</g>
<!-- ivoa:boolean -->
<g id="node3" class="node">
<title>ivoa:boolean</title>
<g id="a_node3"><a xlink:href="../ivoa/boolean" xlink:title="{&amp;lt;&amp;lt;primitive type&amp;gt;&amp;gt;\nboolean}">
<polygon fill="#8dd3c7" stroke="black" points="194,-216.88 194,-252.88 273,-252.88 273,-216.88 194,-216.88"/>
<text text-anchor="middle" x="233.5" y="-237.28" font-family="Times,serif" font-size="8.00">&lt;&lt;primitive type&gt;&gt;</text>
<text text-anchor="middle" x="233.5" y="-227.53" font-family="Times,serif" font-size="8.00">boolean</text>
</a>
</g>
</g>
<!-- ivoa:complex -->
<g id="node4" class="node">
<title>ivoa:complex</title>
<g id="a_node4"><a xlink:href="../ivoa/complex" xlink:title="{&amp;lt;&amp;lt;primitive type&amp;gt;&amp;gt;\ncomplex}">
<polygon fill="#8dd3c7" stroke="black" points="291,-216.88 291,-252.88 370,-252.88 370,-216.88 291,-216.88"/>
<text text-anchor="middle" x="330.5" y="-237.28" font-family="Times,serif" font-size="8.00">&lt;&lt;primitive type&gt;&gt;</text>
<text text-anchor="middle" x="330.5" y="-227.53" font-family="Times,serif" font-size="8.00">complex</text>
</a>
</g>
</g>
<!-- ivoa:datetime -->
<g id="node5" class="node">
<title>ivoa:datetime</title>
<g id="a_node5"><a xlink:href="../ivoa/datetime" xlink:title="{&amp;lt;&amp;lt;primitive type&amp;gt;&amp;gt;\ndatetime}">
<polygon fill="#8dd3c7" stroke="black" points="388,-216.88 388,-252.88 467,-252.88 467,-216.88 388,-216.88"/>
<text text-anchor="middle" x="427.5" y="-237.28" font-family="Times,serif" font-size="8.00">&lt;&lt;primitive type&gt;&gt;</text>
<text text-anchor="middle" x="427.5" y="-227.53" font-family="Times,serif" font-size="8.00">datetime</text>
</a>
</g>
</g>
<!-- ivoa:integer -->
<g id="node6" class="node">
<title>ivoa:integer</title>
<g id="a_node6"><a xlink:href="../ivoa/integer" xlink:title="{&amp;lt;&amp;lt;primitive type&amp;gt;&amp;gt;\ninteger}">
<polygon fill="#8dd3c7" stroke="black" points="485,-134.62 485,-170.62 564,-170.62 564,-134.62 485,-134.62"/>
<text text-anchor="middle" x="524.5" y="-155.03" font-family="Times,serif" font-size="8.00">&lt;&lt;primitive type&gt;&gt;</text>
<text text-anchor="middle" x="524.5" y="-145.28" font-family="Times,serif" font-size="8.00">integer</text>
</a>
</g>
</g>
<!-- ivoa:nonnegativeInteger -->
<g id="node7" class="node">
<title>ivoa:nonnegativeInteger</title>
<g id="a_node7"><a xlink:href="../ivoa/nonnegativeInteger" xlink:title="{&amp;lt;&amp;lt;primitive type&amp;gt;&amp;gt;\nnonnegativeInteger}">
<polygon fill="#8dd3c7" stroke="black" points="582,-216.88 582,-252.88 661,-252.88 661,-216.88 582,-216.88"/>
<text text-anchor="middle" x="621.5" y="-237.28" font-family="Times,serif" font-size="8.00">&lt;&lt;primitive type&gt;&gt;</text>
<text text-anchor="middle" x="621.5" y="-227.53" font-family="Times,serif" font-size="8.00">nonnegativeInteger</text>
</a>
</g>
</g>
<!-- ivoa:rational -->
<g id="node8" class="node">
<title>ivoa:rational</title>
<g id="a_node8"><a xlink:href="../ivoa/rational" xlink:title="{&amp;lt;&amp;lt;primitive type&amp;gt;&amp;gt;\nrational}">
<polygon fill="#8dd3c7" stroke="black" points="679,-216.88 679,-252.88 758,-252.88 758,-216.88 679,-216.88"/>
<text text-anchor="middle" x="718.5" y="-237.28" font-family="Times,serif" font-size="8.00">&lt;&lt;primitive type&gt;&gt;</text>
<text text-anchor="middle" x="718.5" y="-227.53" font-family="Times,serif" font-size="8.00">rational</text>
</a>
</g>
</g>
<!-- ivoa:real -->
<g id="node9" class="node">
<title>ivoa:real</title>
<g id="a_node9"><a xlink:href="../ivoa/real" xlink:title="{&amp;lt;&amp;lt;primitive type&amp;gt;&amp;gt;\nreal}">
<polygon fill="#8dd3c7" stroke="black" points="776,-216.88 776,-252.88 855,-252.88 855,-216.88 776,-216.88"/>
<text text-anchor="middle" x="815.5" y="-237.28" font-family="Times,serif" font-size="8.00">&lt;&lt;primitive type&gt;&gt;</text>
<text text-anchor="middle" x="815.5" y="-227.53" font-family="Times,serif" font-size="8.00">real</text>
</a>
</g>
</g>
<!-- ivoa:intIdentifier -->
<g id="node11" class="node">
<title>ivoa:intIdentifier</title>
<g id="a_node11"><a xlink:href="../ivoa/intIdentifier" xlink:title="{&amp;lt;&amp;lt;primitive type&amp;gt;&amp;gt;\nintIdentifier}">
<polygon fill="#8dd3c7" stroke="black" points="485,-216.88 485,-252.88 564,-252.88 564,-216.88 485,-216.88"/>
<text text-anchor="middle" x="524.5" y="-237.28" font-family="Times,serif" font-size="8.00">&lt;&lt;primitive type&gt;&gt;</text>
<text text-anchor="middle" x="524.5" y="-227.53" font-family="Times,serif" font-size="8.00">intIdentifier</text>
</a>
</g>
</g>
<!-- ivoa:intIdentifier&#45;&gt;ivoa:integer -->
<g id="edge3" class="edge">
<title>ivoa:intIdentifier&#45;&gt;ivoa:integer</title>
<path fill="none" stroke="red" d="M524.5,-216.46C524.5,-206.47 524.5,-193.68 524.5,-182.25"/>
<polygon fill="none" stroke="red" points="528,-182.52 524.5,-172.52 521,-182.52 528,-182.52"/>
</g>
<!-- ivoa:stringIdentifier -->
<g id="node12" class="node">
<title>ivoa:stringIdentifier</title>
<g id="a_node12"><a xlink:href="../ivoa/stringIdentifier" xlink:title="{&amp;lt;&amp;lt;primitive type&amp;gt;&amp;gt;\nstringIdentifier}">
<polygon fill="#8dd3c7" stroke="black" points="194,-134.62 194,-170.62 273,-170.62 273,-134.62 194,-134.62"/>
<text text-anchor="middle" x="233.5" y="-155.03" font-family="Times,serif" font-size="8.00">&lt;&lt;primitive type&gt;&gt;</text>
<text text-anchor="middle" x="233.5" y="-145.28" font-family="Times,serif" font-size="8.00">stringIdentifier</text>
</a>
</g>
</g>
<!-- ivoa:stringIdentifier&#45;&gt;ivoa:string -->
<g id="edge4" class="edge">
<title>ivoa:stringIdentifier&#45;&gt;ivoa:string</title>
<path fill="none" stroke="red" d="M211.49,-134.46C198.56,-124.38 182,-111.48 167.74,-100.36"/>
<polygon fill="none" stroke="red" points="169.99,-97.67 159.95,-94.28 165.69,-103.19 169.99,-97.67"/>
</g>
<!-- ivoa:ivorn -->
<g id="node13" class="node">
<title>ivoa:ivorn</title>
<g id="a_node13"><a xlink:href="../ivoa/ivorn" xlink:title="{&amp;lt;&amp;lt;primitive type&amp;gt;&amp;gt;\nivorn}">
<polygon fill="#8dd3c7" stroke="black" points="97,-216.88 97,-252.88 176,-252.88 176,-216.88 97,-216.88"/>
<text text-anchor="middle" x="136.5" y="-237.28" font-family="Times,serif" font-size="8.00">&lt;&lt;primitive type&gt;&gt;</text>
<text text-anchor="middle" x="136.5" y="-227.53" font-family="Times,serif" font-size="8.00">ivorn</text>
</a>
</g>
</g>
<!-- ivoa:ivorn&#45;&gt;ivoa:anyURI -->
<g id="edge5" class="edge">
<title>ivoa:ivorn&#45;&gt;ivoa:anyURI</title>
<path fill="none" stroke="red" d="M136.5,-216.46C136.5,-206.47 136.5,-193.68 136.5,-182.25"/>
<polygon fill="none" stroke="red" points="140,-182.52 136.5,-172.52 133,-182.52 140,-182.52"/>
</g>
<!-- ivoa:IntegerQuantity -->
<g id="node14" class="node">
<title>ivoa:IntegerQuantity</title>
<g id="a_node14"><a xlink:href="../ivoa/IntegerQuantity" xlink:title="{&amp;lt;&amp;lt;datatype&amp;gt;&amp;gt;\nIntegerQuantity|+value : ivoa:integer\l}">
<polygon fill="#8dd3c7" stroke="black" points="873.12,-212.25 873.12,-257.5 955.88,-257.5 955.88,-212.25 873.12,-212.25"/>
<text text-anchor="middle" x="914.5" y="-245.9" font-family="Times,serif" font-size="8.00">&lt;&lt;datatype&gt;&gt;</text>
<text text-anchor="middle" x="914.5" y="-236.15" font-family="Times,serif" font-size="8.00">IntegerQuantity</text>
<polyline fill="none" stroke="black" points="873.12,-230 955.88,-230"/>
<text text-anchor="start" x="881.12" y="-218.4" font-family="Times,serif" font-size="8.00">+value : ivoa:integer</text>
</a>
</g>
</g>
<!-- ivoa:Quantity -->
<g id="node15" class="node">
<title>ivoa:Quantity</title>
<g id="a_node15"><a xlink:href="../ivoa/Quantity" xlink:title="{&amp;lt;&amp;lt;datatype&amp;gt;&amp;gt;\nQuantity|+unit : ivoa:Unit\l}">
<polygon fill="#8dd3c7" stroke="black" points="927.88,-130 927.88,-175.25 997.12,-175.25 997.12,-130 927.88,-130"/>
<text text-anchor="middle" x="962.5" y="-163.65" font-family="Times,serif" font-size="8.00">&lt;&lt;datatype&gt;&gt;</text>
<text text-anchor="middle" x="962.5" y="-153.9" font-family="Times,serif" font-size="8.00">Quantity</text>
<polyline fill="none" stroke="black" points="927.88,-147.75 997.12,-147.75"/>
<text text-anchor="start" x="935.88" y="-136.15" font-family="Times,serif" font-size="8.00">+unit : ivoa:Unit</text>
</a>
</g>
</g>
<!-- ivoa:IntegerQuantity&#45;&gt;ivoa:Quantity -->
<g id="edge6" class="edge">
<title>ivoa:IntegerQuantity&#45;&gt;ivoa:Quantity</title>
<path fill="none" stroke="red" d="M927.62,-211.95C932.54,-203.72 938.23,-194.2 943.58,-185.26"/>
<polygon fill="none" stroke="red" points="946.49,-187.2 948.62,-176.83 940.49,-183.61 946.49,-187.2"/>
</g>
<!-- ivoa:RealQuantity -->
<g id="node16" class="node">
<title>ivoa:RealQuantity</title>
<g id="a_node16"><a xlink:href="../ivoa/RealQuantity" xlink:title="{&amp;lt;&amp;lt;datatype&amp;gt;&amp;gt;\nRealQuantity|+value : ivoa:real\l}">
<polygon fill="#8dd3c7" stroke="black" points="974,-212.25 974,-257.5 1047,-257.5 1047,-212.25 974,-212.25"/>
<text text-anchor="middle" x="1010.5" y="-245.9" font-family="Times,serif" font-size="8.00">&lt;&lt;datatype&gt;&gt;</text>
<text text-anchor="middle" x="1010.5" y="-236.15" font-family="Times,serif" font-size="8.00">RealQuantity</text>
<polyline fill="none" stroke="black" points="974,-230 1047,-230"/>
<text text-anchor="start" x="982" y="-218.4" font-family="Times,serif" font-size="8.00">+value : ivoa:real</text>
</a>
</g>
</g>
<!-- ivoa:RealQuantity&#45;&gt;ivoa:Quantity -->
<g id="edge7" class="edge">
<title>ivoa:RealQuantity&#45;&gt;ivoa:Quantity</title>
<path fill="none" stroke="red" d="M997.38,-211.95C992.46,-203.72 986.77,-194.2 981.42,-185.26"/>
<polygon fill="none" stroke="red" points="984.51,-183.61 976.38,-176.83 978.51,-187.2 984.51,-183.61"/>
</g>
</g>
</svg>
