<?xml version="1.0" encoding="UTF-8" standalone="no"?>
<!DOCTYPE svg PUBLIC "-//W3C//DTD SVG 1.1//EN"
 "http://www.w3.org/Graphics/SVG/1.1/DTD/svg11.dtd">
<!-- Generated by graphviz version 7.1.0 (20230121.1956)
 -->
<!-- Title: GVmap Pages: 1 -->
<svg width="807pt" height="726pt"
 viewBox="0.00 0.00 806.50 726.00" xmlns="http://www.w3.org/2000/svg" xmlns:xlink="http://www.w3.org/1999/xlink">
<g id="graph0" class="graph" transform="scale(1 1) rotate(0) translate(4 722)">
<title>GVmap</title>
<polygon fill="white" stroke="none" points="-4,4 -4,-722 802.5,-722 802.5,4 -4,4"/>
<text text-anchor="middle" x="399.25" y="-7.8" font-family="Times,serif" font-size="14.00">proposalManagement data model</text>
<!-- proposal:ObservingMode -->
<g id="node1" class="node">
<title>proposal:ObservingMode</title>
<g id="a_node1"><a xlink:href="#ObservingMode" xlink:title="{proposal:ObservingMode}">
<polygon fill="grey" stroke="black" points="336,-146.5 336,-182.5 433,-182.5 433,-146.5 336,-146.5"/>
<text text-anchor="middle" x="384.5" y="-162.6" font-family="Times,serif" font-size="8.00">proposal:ObservingMode</text>
</a>
</g>
</g>
<!-- proposal:Observatory -->
<g id="node2" class="node">
<title>proposal:Observatory</title>
<g id="a_node2"><a xlink:href="#Observatory" xlink:title="{proposal:Observatory}">
<polygon fill="grey" stroke="black" points="103.5,-460 103.5,-496 189.5,-496 189.5,-460 103.5,-460"/>
<text text-anchor="middle" x="146.5" y="-476.1" font-family="Times,serif" font-size="8.00">proposal:Observatory</text>
</a>
</g>
</g>
<!-- proposal:Person -->
<g id="node3" class="node">
<title>proposal:Person</title>
<g id="a_node3"><a xlink:href="#Person" xlink:title="{proposal:Person}">
<polygon fill="grey" stroke="black" points="100.5,-146.5 100.5,-182.5 168.5,-182.5 168.5,-146.5 100.5,-146.5"/>
<text text-anchor="middle" x="134.5" y="-162.6" font-family="Times,serif" font-size="8.00">proposal:Person</text>
</a>
</g>
</g>
<!-- proposal:ObservingProposal -->
<g id="node4" class="node">
<title>proposal:ObservingProposal</title>
<g id="a_node4"><a xlink:href="#ObservingProposal" xlink:title="{proposal:ObservingProposal}">
<polygon fill="grey" stroke="black" points="396,-234 396,-270 503,-270 503,-234 396,-234"/>
<text text-anchor="middle" x="449.5" y="-250.1" font-family="Times,serif" font-size="8.00">proposal:ObservingProposal</text>
</a>
</g>
</g>
<!-- proposalManagement:TacRole -->
<g id="node5" class="node">
<title>proposalManagement:TacRole</title>
<g id="a_node5"><a xlink:href="../proposalManagement/TacRole" xlink:title="{&amp;lt;&amp;lt;enumeration&amp;gt;&amp;gt;\nTacRole|+TechnicalReviewer\l+ScienceReviewer\l+Chair\l}">
<polygon fill="#8dd3c7" stroke="black" points="452,-656.5 452,-717.5 535,-717.5 535,-656.5 452,-656.5"/>
<text text-anchor="middle" x="493.5" y="-707.1" font-family="Times,serif" font-size="8.00">&lt;&lt;enumeration&gt;&gt;</text>
<text text-anchor="middle" x="493.5" y="-698.1" font-family="Times,serif" font-size="8.00">TacRole</text>
<polyline fill="none" stroke="black" points="452,-691.5 535,-691.5"/>
<text text-anchor="start" x="460" y="-681.1" font-family="Times,serif" font-size="8.00">+TechnicalReviewer</text>
<text text-anchor="start" x="460" y="-672.1" font-family="Times,serif" font-size="8.00">+ScienceReviewer</text>
<text text-anchor="start" x="460" y="-663.1" font-family="Times,serif" font-size="8.00">+Chair</text>
</a>
</g>
</g>
<!-- proposalManagement:OfferedCycles -->
<g id="node6" class="node">
<title>proposalManagement:OfferedCycles</title>
<g id="a_node6"><a xlink:href="../proposalManagement/OfferedCycles" xlink:title="{OfferedCycles}">
<polygon fill="#8dd3c7" stroke="black" points="371,-669 371,-705 434,-705 434,-669 371,-669"/>
<text text-anchor="middle" x="402.5" y="-685.1" font-family="Times,serif" font-size="8.00">OfferedCycles</text>
</a>
</g>
</g>
<!-- proposalManagement:ProposalCycle -->
<g id="node7" class="node">
<title>proposalManagement:ProposalCycle</title>
<g id="a_node7"><a xlink:href="../proposalManagement/ProposalCycle" xlink:title="{ProposalCycle|+title : ivoa:string\l+submissionDeadline : ivoa:datetime\l+observationSessionStart : ivoa:datetime\l+observationSessionEnd : ivoa:datetime\l}">
<polygon fill="#8dd3c7" stroke="black" points="328.5,-547.5 328.5,-608.5 476.5,-608.5 476.5,-547.5 328.5,-547.5"/>
<text text-anchor="middle" x="402.5" y="-598.1" font-family="Times,serif" font-size="8.00">ProposalCycle</text>
<polyline fill="none" stroke="black" points="328.5,-591.5 476.5,-591.5"/>
<text text-anchor="start" x="336.5" y="-581.1" font-family="Times,serif" font-size="8.00">+title : ivoa:string</text>
<text text-anchor="start" x="336.5" y="-572.1" font-family="Times,serif" font-size="8.00">+submissionDeadline : ivoa:datetime</text>
<text text-anchor="start" x="336.5" y="-563.1" font-family="Times,serif" font-size="8.00">+observationSessionStart : ivoa:datetime</text>
<text text-anchor="start" x="336.5" y="-554.1" font-family="Times,serif" font-size="8.00">+observationSessionEnd : ivoa:datetime</text>
</a>
</g>
</g>
<!-- proposalManagement:OfferedCycles&#45;&gt;proposalManagement:ProposalCycle -->
<g id="edge2" class="edge">
<title>proposalManagement:OfferedCycles&#45;&gt;proposalManagement:ProposalCycle</title>
<path fill="none" stroke="blue" d="M402.5,-656.52C402.5,-644.61 402.5,-630.71 402.5,-617.98"/>
<polygon fill="blue" stroke="blue" points="402.5,-656.38 406.5,-662.38 402.5,-668.38 398.5,-662.38 402.5,-656.38"/>
<polygon fill="blue" stroke="blue" points="402.5,-608.1 407,-618.1 402.5,-613.1 402.5,-618.1 402.5,-618.1 402.5,-618.1 402.5,-613.1 398,-618.1 402.5,-608.1 402.5,-608.1"/>
<text text-anchor="middle" x="415.5" y="-630" font-family="Times,serif" font-size="10.00">cycles</text>
<text text-anchor="middle" x="394.5" y="-611.1" font-family="Times,serif" font-size="10.00">1..*</text>
</g>
<!-- proposalManagement:ProposalCycle&#45;&gt;proposal:ObservingMode -->
<g id="edge3" class="edge">
<title>proposalManagement:ProposalCycle&#45;&gt;proposal:ObservingMode</title>
<path fill="none" stroke="blue" d="M397.28,-534.94C391.25,-497.73 378.85,-442.96 354.5,-401 348.82,-391.21 340.83,-393.45 336.5,-383 325.95,-357.54 332.39,-348.25 336.5,-321 343.57,-274.11 362,-221.87 373.86,-191.44"/>
<polygon fill="blue" stroke="blue" points="397.29,-535.05 402.14,-540.38 399.08,-546.91 394.23,-541.58 397.29,-535.05"/>
<polygon fill="blue" stroke="blue" points="377.45,-182.37 377.95,-193.32 375.61,-187.01 373.77,-191.66 373.77,-191.66 373.77,-191.66 375.61,-187.01 369.59,-190.01 377.45,-182.37 377.45,-182.37"/>
<text text-anchor="middle" x="371" y="-349.5" font-family="Times,serif" font-size="10.00">observingModes</text>
<text text-anchor="middle" x="369.45" y="-185.37" font-family="Times,serif" font-size="10.00">1..*</text>
</g>
<!-- proposalManagement:ProposalCycle&#45;&gt;proposal:Observatory -->
<g id="edge15" class="edge">
<title>proposalManagement:ProposalCycle&#45;&gt;proposal:Observatory</title>
<path fill="none" stroke="green" d="M328.65,-560.96C297.69,-553.07 261.71,-542.36 230.5,-529 212.73,-521.39 194.14,-510.65 178.98,-501.08"/>
<polygon fill="green" stroke="green" points="170.94,-495.91 181.79,-497.53 175.15,-498.61 179.35,-501.32 179.35,-501.32 179.35,-501.32 175.15,-498.61 176.92,-505.1 170.94,-495.91 170.94,-495.91"/>
<text text-anchor="middle" x="255" y="-521" font-family="Times,serif" font-size="10.00">observatory</text>
<text text-anchor="middle" x="167.94" y="-498.91" font-family="Times,serif" font-size="10.00">1</text>
</g>
<!-- proposalManagement:TAC -->
<g id="node10" class="node">
<title>proposalManagement:TAC</title>
<g id="a_node10"><a xlink:href="../proposalManagement/TAC" xlink:title="{TAC}">
<polygon fill="#8dd3c7" stroke="black" points="31.5,-460 31.5,-496 85.5,-496 85.5,-460 31.5,-460"/>
<text text-anchor="middle" x="58.5" y="-476.1" font-family="Times,serif" font-size="8.00">TAC</text>
</a>
</g>
</g>
<!-- proposalManagement:ProposalCycle&#45;&gt;proposalManagement:TAC -->
<g id="edge6" class="edge">
<title>proposalManagement:ProposalCycle&#45;&gt;proposalManagement:TAC</title>
<path fill="none" stroke="blue" d="M316.05,-563.19C252.93,-551.27 166.21,-530.99 94.5,-500 94.4,-499.96 94.31,-499.92 94.21,-499.88"/>
<polygon fill="blue" stroke="blue" points="316.07,-563.2 322.69,-560.35 327.87,-565.38 321.24,-568.22 316.07,-563.2"/>
<polygon fill="blue" stroke="blue" points="85.26,-495.54 96.22,-495.85 89.76,-497.72 94.26,-499.9 94.26,-499.9 94.26,-499.9 89.76,-497.72 92.3,-503.95 85.26,-495.54 85.26,-495.54"/>
<text text-anchor="middle" x="175" y="-521" font-family="Times,serif" font-size="10.00">tac</text>
<text text-anchor="middle" x="88.26" y="-498.54" font-family="Times,serif" font-size="10.00">1</text>
</g>
<!-- proposalManagement:SubmittedProposal -->
<g id="node11" class="node">
<title>proposalManagement:SubmittedProposal</title>
<g id="a_node11"><a xlink:href="../proposalManagement/SubmittedProposal" xlink:title="{SubmittedProposal|+submissionDate : ivoa:datetime\l}">
<polygon fill="#8dd3c7" stroke="black" points="414.5,-334 414.5,-370 536.5,-370 536.5,-334 414.5,-334"/>
<text text-anchor="middle" x="475.5" y="-359.1" font-family="Times,serif" font-size="8.00">SubmittedProposal</text>
<polyline fill="none" stroke="black" points="414.5,-352 536.5,-352"/>
<text text-anchor="start" x="422.5" y="-341.1" font-family="Times,serif" font-size="8.00">+submissionDate : ivoa:datetime</text>
</a>
</g>
</g>
<!-- proposalManagement:ProposalCycle&#45;&gt;proposalManagement:SubmittedProposal -->
<g id="edge7" class="edge">
<title>proposalManagement:ProposalCycle&#45;&gt;proposalManagement:SubmittedProposal</title>
<path fill="none" stroke="blue" d="M412.24,-535.18C418.04,-511.71 425.92,-482 434.5,-456 443.3,-429.33 455.38,-399.61 464.15,-378.97"/>
<polygon fill="blue" stroke="blue" points="412.21,-535.33 414.68,-542.1 409.38,-546.99 406.9,-540.21 412.21,-535.33"/>
<polygon fill="blue" stroke="blue" points="468.04,-369.9 468.24,-380.86 466.07,-374.5 464.1,-379.09 464.1,-379.09 464.1,-379.09 466.07,-374.5 459.97,-377.32 468.04,-369.9 468.04,-369.9"/>
<text text-anchor="middle" x="474.5" y="-475.5" font-family="Times,serif" font-size="10.00">submittedProposals</text>
<text text-anchor="middle" x="460.04" y="-372.9" font-family="Times,serif" font-size="10.00">0..*</text>
</g>
<!-- proposalManagement:ReviewedProposal -->
<g id="node12" class="node">
<title>proposalManagement:ReviewedProposal</title>
<g id="a_node12"><a xlink:href="../proposalManagement/ReviewedProposal" xlink:title="{ReviewedProposal|+successful : ivoa:boolean\l+reviewsCompleteDate : ivoa:datetime\l}">
<polygon fill="#8dd3c7" stroke="black" points="208,-456.5 208,-499.5 351,-499.5 351,-456.5 208,-456.5"/>
<text text-anchor="middle" x="279.5" y="-489.1" font-family="Times,serif" font-size="8.00">ReviewedProposal</text>
<polyline fill="none" stroke="black" points="208,-482.5 351,-482.5"/>
<text text-anchor="start" x="216" y="-472.1" font-family="Times,serif" font-size="8.00">+successful : ivoa:boolean</text>
<text text-anchor="start" x="216" y="-463.1" font-family="Times,serif" font-size="8.00">+reviewsCompleteDate : ivoa:datetime</text>
</a>
</g>
</g>
<!-- proposalManagement:ProposalCycle&#45;&gt;proposalManagement:ReviewedProposal -->
<g id="edge8" class="edge">
<title>proposalManagement:ProposalCycle&#45;&gt;proposalManagement:ReviewedProposal</title>
<path fill="none" stroke="blue" d="M317.1,-552.57C306.23,-546.37 296.22,-538.64 288.5,-529 283.95,-523.32 281.4,-516.11 280.03,-508.94"/>
<polygon fill="blue" stroke="blue" points="317.2,-552.62 324.36,-551.78 327.89,-558.07 320.72,-558.91 317.2,-552.62"/>
<polygon fill="blue" stroke="blue" points="278.82,-499.35 284.54,-508.7 279.45,-504.31 280.07,-509.27 280.07,-509.27 280.07,-509.27 279.45,-504.31 275.61,-509.83 278.82,-499.35 278.82,-499.35"/>
<text text-anchor="middle" x="327" y="-521" font-family="Times,serif" font-size="10.00">reviewedProposals</text>
<text text-anchor="middle" x="270.82" y="-502.35" font-family="Times,serif" font-size="10.00">0..*</text>
</g>
<!-- proposalManagement:AllocatedProposal -->
<g id="node13" class="node">
<title>proposalManagement:AllocatedProposal</title>
<g id="a_node13"><a xlink:href="../proposalManagement/AllocatedProposal" xlink:title="{AllocatedProposal}">
<polygon fill="#8dd3c7" stroke="black" points="523.5,-460 523.5,-496 599.5,-496 599.5,-460 523.5,-460"/>
<text text-anchor="middle" x="561.5" y="-476.1" font-family="Times,serif" font-size="8.00">AllocatedProposal</text>
</a>
</g>
</g>
<!-- proposalManagement:ProposalCycle&#45;&gt;proposalManagement:AllocatedProposal -->
<g id="edge9" class="edge">
<title>proposalManagement:ProposalCycle&#45;&gt;proposalManagement:AllocatedProposal</title>
<path fill="none" stroke="blue" d="M461.08,-540.89C482.78,-527.52 506.72,-512.76 525.78,-501.01"/>
<polygon fill="blue" stroke="blue" points="461.19,-540.83 458.18,-547.38 450.97,-547.12 453.98,-540.57 461.19,-540.83"/>
<polygon fill="blue" stroke="blue" points="534.17,-495.84 528.02,-504.92 529.92,-498.47 525.66,-501.09 525.66,-501.09 525.66,-501.09 529.92,-498.47 523.3,-497.26 534.17,-495.84 534.17,-495.84"/>
<text text-anchor="middle" x="535" y="-521" font-family="Times,serif" font-size="10.00">allocatedProposals</text>
<text text-anchor="middle" x="526.17" y="-498.84" font-family="Times,serif" font-size="10.00">0..*</text>
</g>
<!-- proposalManagement:AvailableResources -->
<g id="node17" class="node">
<title>proposalManagement:AvailableResources</title>
<g id="a_node17"><a xlink:href="../proposalManagement/AvailableResources" xlink:title="{AvailableResources}">
<polygon fill="#8dd3c7" stroke="black" points="718.5,-401.5 718.5,-437.5 798.5,-437.5 798.5,-401.5 718.5,-401.5"/>
<text text-anchor="middle" x="758.5" y="-417.6" font-family="Times,serif" font-size="8.00">AvailableResources</text>
</a>
</g>
</g>
<!-- proposalManagement:ProposalCycle&#45;&gt;proposalManagement:AvailableResources -->
<g id="edge4" class="edge">
<title>proposalManagement:ProposalCycle&#45;&gt;proposalManagement:AvailableResources</title>
<path fill="none" stroke="blue" d="M489.37,-575.49C542.91,-571.2 611.27,-559.41 664.5,-529 699.54,-508.98 727.86,-470.89 743.94,-445.58"/>
<polygon fill="blue" stroke="blue" points="489.31,-575.5 483.61,-579.91 477.34,-576.35 483.04,-571.93 489.31,-575.5"/>
<polygon fill="blue" stroke="blue" points="749.11,-437.22 747.68,-448.09 746.48,-441.47 743.85,-445.73 743.85,-445.73 743.85,-445.73 746.48,-441.47 740.02,-443.36 749.11,-437.22 749.11,-437.22"/>
<text text-anchor="middle" x="720" y="-521" font-family="Times,serif" font-size="10.00">availableResources</text>
<text text-anchor="middle" x="746.11" y="-440.22" font-family="Times,serif" font-size="10.00">1</text>
</g>
<!-- proposalManagement:AllocationGrade -->
<g id="node18" class="node">
<title>proposalManagement:AllocationGrade</title>
<g id="a_node18"><a xlink:href="../proposalManagement/AllocationGrade" xlink:title="{AllocationGrade|+name : ivoa:string\l+description : ivoa:string\l}">
<polygon fill="#8dd3c7" stroke="black" points="604,-230.5 604,-273.5 701,-273.5 701,-230.5 604,-230.5"/>
<text text-anchor="middle" x="652.5" y="-263.1" font-family="Times,serif" font-size="8.00">AllocationGrade</text>
<polyline fill="none" stroke="black" points="604,-256.5 701,-256.5"/>
<text text-anchor="start" x="612" y="-246.1" font-family="Times,serif" font-size="8.00">+name : ivoa:string</text>
<text text-anchor="start" x="612" y="-237.1" font-family="Times,serif" font-size="8.00">+description : ivoa:string</text>
</a>
</g>
</g>
<!-- proposalManagement:ProposalCycle&#45;&gt;proposalManagement:AllocationGrade -->
<g id="edge5" class="edge">
<title>proposalManagement:ProposalCycle&#45;&gt;proposalManagement:AllocationGrade</title>
<path fill="none" stroke="blue" d="M489.3,-569.91C534.22,-561.07 584.56,-541.77 608.5,-500 648.55,-430.11 653.7,-332.3 653.47,-283.38"/>
<polygon fill="blue" stroke="blue" points="489.2,-569.93 483.99,-574.91 477.38,-572.02 482.59,-567.04 489.2,-569.93"/>
<polygon fill="blue" stroke="blue" points="653.34,-273.43 657.97,-283.37 653.41,-278.43 653.47,-283.43 653.47,-283.43 653.47,-283.43 653.41,-278.43 648.97,-283.49 653.34,-273.43 653.34,-273.43"/>
<text text-anchor="middle" x="674" y="-417" font-family="Times,serif" font-size="10.00">possibleGrades</text>
<text text-anchor="middle" x="645.34" y="-276.43" font-family="Times,serif" font-size="10.00">1..*</text>
</g>
<!-- proposalManagement:Reviewer -->
<g id="node8" class="node">
<title>proposalManagement:Reviewer</title>
<g id="a_node8"><a xlink:href="../proposalManagement/Reviewer" xlink:title="{Reviewer}">
<polygon fill="#8dd3c7" stroke="black" points="107.5,-234 107.5,-270 161.5,-270 161.5,-234 107.5,-234"/>
<text text-anchor="middle" x="134.5" y="-250.1" font-family="Times,serif" font-size="8.00">Reviewer</text>
</a>
</g>
</g>
<!-- proposalManagement:Reviewer&#45;&gt;proposal:Person -->
<g id="edge16" class="edge">
<title>proposalManagement:Reviewer&#45;&gt;proposal:Person</title>
<path fill="none" stroke="green" d="M134.5,-234.11C134.5,-222.16 134.5,-205.9 134.5,-192.21"/>
<polygon fill="green" stroke="green" points="134.5,-182.36 139,-192.36 134.5,-187.36 134.5,-192.36 134.5,-192.36 134.5,-192.36 134.5,-187.36 130,-192.36 134.5,-182.36 134.5,-182.36"/>
<text text-anchor="middle" x="148.5" y="-204" font-family="Times,serif" font-size="10.00">person</text>
<text text-anchor="middle" x="131.5" y="-185.36" font-family="Times,serif" font-size="10.00">1</text>
</g>
<!-- proposalManagement:CommitteeMember -->
<g id="node9" class="node">
<title>proposalManagement:CommitteeMember</title>
<g id="a_node9"><a xlink:href="../proposalManagement/CommitteeMember" xlink:title="{CommitteeMember|+role : proposalManagement:TacRole\l}">
<polygon fill="#8dd3c7" stroke="black" points="0,-334 0,-370 137,-370 137,-334 0,-334"/>
<text text-anchor="middle" x="68.5" y="-359.1" font-family="Times,serif" font-size="8.00">CommitteeMember</text>
<polyline fill="none" stroke="black" points="0,-352 137,-352"/>
<text text-anchor="start" x="8" y="-341.1" font-family="Times,serif" font-size="8.00">+role : proposalManagement:TacRole</text>
</a>
</g>
</g>
<!-- proposalManagement:CommitteeMember&#45;&gt;proposalManagement:Reviewer -->
<g id="edge17" class="edge">
<title>proposalManagement:CommitteeMember&#45;&gt;proposalManagement:Reviewer</title>
<path fill="none" stroke="green" d="M79.7,-334.38C90.13,-318.89 105.82,-295.59 117.74,-277.89"/>
<polygon fill="green" stroke="green" points="123.25,-269.71 121.4,-280.51 120.46,-273.85 117.66,-278 117.66,-278 117.66,-278 120.46,-273.85 113.93,-275.49 123.25,-269.71 123.25,-269.71"/>
<text text-anchor="middle" x="124" y="-295" font-family="Times,serif" font-size="10.00">member</text>
<text text-anchor="middle" x="120.25" y="-272.71" font-family="Times,serif" font-size="10.00">1</text>
</g>
<!-- proposalManagement:TAC&#45;&gt;proposalManagement:CommitteeMember -->
<g id="edge10" class="edge">
<title>proposalManagement:TAC&#45;&gt;proposalManagement:CommitteeMember</title>
<path fill="none" stroke="blue" d="M60.9,-447.3C62.55,-426.73 64.74,-399.59 66.35,-379.71"/>
<polygon fill="blue" stroke="blue" points="60.91,-447.16 64.41,-453.46 59.94,-459.12 56.44,-452.82 60.91,-447.16"/>
<polygon fill="blue" stroke="blue" points="67.15,-369.78 70.83,-380.11 66.75,-374.76 66.34,-379.74 66.34,-379.74 66.34,-379.74 66.75,-374.76 61.86,-379.38 67.15,-369.78 67.15,-369.78"/>
<text text-anchor="middle" x="83" y="-417" font-family="Times,serif" font-size="10.00">members</text>
<text text-anchor="middle" x="59.15" y="-372.78" font-family="Times,serif" font-size="10.00">1..*</text>
</g>
<!-- proposalManagement:SubmittedProposal&#45;&gt;proposal:ObservingProposal -->
<g id="edge18" class="edge">
<title>proposalManagement:SubmittedProposal&#45;&gt;proposal:ObservingProposal</title>
<path fill="none" stroke="green" d="M471.09,-334.38C467.09,-319.31 461.14,-296.86 456.49,-279.35"/>
<polygon fill="green" stroke="green" points="453.93,-269.71 460.85,-278.22 455.21,-274.54 456.5,-279.37 456.5,-279.37 456.5,-279.37 455.21,-274.54 452.15,-280.53 453.93,-269.71 453.93,-269.71"/>
<text text-anchor="middle" x="480.5" y="-295" font-family="Times,serif" font-size="10.00">proposal</text>
<text text-anchor="middle" x="450.93" y="-272.71" font-family="Times,serif" font-size="10.00">1</text>
</g>
<!-- proposalManagement:ReviewedProposal&#45;&gt;proposalManagement:SubmittedProposal -->
<g id="edge19" class="edge">
<title>proposalManagement:ReviewedProposal&#45;&gt;proposalManagement:SubmittedProposal</title>
<path fill="none" stroke="green" d="M300.66,-456.51C318.34,-440.1 344.73,-417.24 370.5,-401 386.82,-390.72 405.7,-381.38 422.92,-373.74"/>
<polygon fill="green" stroke="green" points="431.75,-369.9 424.38,-378.01 427.17,-371.89 422.58,-373.89 422.58,-373.89 422.58,-373.89 427.17,-371.89 420.79,-369.76 431.75,-369.9 431.75,-369.9"/>
<text text-anchor="middle" x="391" y="-417" font-family="Times,serif" font-size="10.00">submitted</text>
<text text-anchor="middle" x="428.75" y="-372.9" font-family="Times,serif" font-size="10.00">1</text>
</g>
<!-- proposalManagement:ProposalReview -->
<g id="node14" class="node">
<title>proposalManagement:ProposalReview</title>
<g id="a_node14"><a xlink:href="../proposalManagement/ProposalReview" xlink:title="{ProposalReview|+comment : ivoa:string\l+score : ivoa:real\l+technicalFeasibility : ivoa:boolean\l+reviewDate : ivoa:datetime\l}">
<polygon fill="#8dd3c7" stroke="black" points="157,-321.5 157,-382.5 288,-382.5 288,-321.5 157,-321.5"/>
<text text-anchor="middle" x="222.5" y="-372.1" font-family="Times,serif" font-size="8.00">ProposalReview</text>
<polyline fill="none" stroke="black" points="157,-365.5 288,-365.5"/>
<text text-anchor="start" x="165" y="-355.1" font-family="Times,serif" font-size="8.00">+comment : ivoa:string</text>
<text text-anchor="start" x="165" y="-346.1" font-family="Times,serif" font-size="8.00">+score : ivoa:real</text>
<text text-anchor="start" x="165" y="-337.1" font-family="Times,serif" font-size="8.00">+technicalFeasibility : ivoa:boolean</text>
<text text-anchor="start" x="165" y="-328.1" font-family="Times,serif" font-size="8.00">+reviewDate : ivoa:datetime</text>
</a>
</g>
</g>
<!-- proposalManagement:ReviewedProposal&#45;&gt;proposalManagement:ProposalReview -->
<g id="edge11" class="edge">
<title>proposalManagement:ReviewedProposal&#45;&gt;proposalManagement:ProposalReview</title>
<path fill="none" stroke="blue" d="M252.6,-446.44C250.74,-443.68 249.01,-440.85 247.5,-438 239.95,-423.72 234.38,-406.86 230.45,-391.93"/>
<polygon fill="blue" stroke="blue" points="252.51,-446.32 259.3,-448.73 259.69,-455.93 252.9,-453.52 252.51,-446.32"/>
<polygon fill="blue" stroke="blue" points="228.09,-382.45 234.87,-391.07 229.3,-387.3 230.51,-392.15 230.51,-392.15 230.51,-392.15 229.3,-387.3 226.14,-393.24 228.09,-382.45 228.09,-382.45"/>
<text text-anchor="middle" x="263.5" y="-417" font-family="Times,serif" font-size="10.00">reviews</text>
<text text-anchor="middle" x="220.09" y="-385.45" font-family="Times,serif" font-size="10.00">1..*</text>
</g>
<!-- proposalManagement:AllocatedProposal&#45;&gt;proposalManagement:SubmittedProposal -->
<g id="edge20" class="edge">
<title>proposalManagement:AllocatedProposal&#45;&gt;proposalManagement:SubmittedProposal</title>
<path fill="none" stroke="green" d="M544,-460.31C537.5,-453.67 530.3,-445.78 524.5,-438 510.36,-419.05 497.15,-395.66 488.02,-378.22"/>
<polygon fill="green" stroke="green" points="483.63,-369.69 492.21,-376.52 485.92,-374.14 488.2,-378.58 488.2,-378.58 488.2,-378.58 485.92,-374.14 484.2,-380.64 483.63,-369.69 483.63,-369.69"/>
<text text-anchor="middle" x="545" y="-417" font-family="Times,serif" font-size="10.00">submitted</text>
<text text-anchor="middle" x="480.63" y="-372.69" font-family="Times,serif" font-size="10.00">1</text>
</g>
<!-- proposalManagement:AllocatedBlock -->
<g id="node20" class="node">
<title>proposalManagement:AllocatedBlock</title>
<g id="a_node20"><a xlink:href="../proposalManagement/AllocatedBlock" xlink:title="{AllocatedBlock}">
<polygon fill="#8dd3c7" stroke="black" points="555,-334 555,-370 622,-370 622,-334 555,-334"/>
<text text-anchor="middle" x="588.5" y="-350.1" font-family="Times,serif" font-size="8.00">AllocatedBlock</text>
</a>
</g>
</g>
<!-- proposalManagement:AllocatedProposal&#45;&gt;proposalManagement:AllocatedBlock -->
<g id="edge12" class="edge">
<title>proposalManagement:AllocatedProposal&#45;&gt;proposalManagement:AllocatedBlock</title>
<path fill="none" stroke="blue" d="M567.97,-447.3C572.47,-426.64 578.41,-399.34 582.74,-379.44"/>
<polygon fill="blue" stroke="blue" points="567.94,-447.41 570.57,-454.13 565.39,-459.14 562.76,-452.42 567.94,-447.41"/>
<polygon fill="blue" stroke="blue" points="584.85,-369.78 587.12,-380.51 583.78,-374.66 582.72,-379.55 582.72,-379.55 582.72,-379.55 583.78,-374.66 578.32,-378.59 584.85,-369.78 584.85,-369.78"/>
<text text-anchor="middle" x="597.5" y="-417" font-family="Times,serif" font-size="10.00">allocation</text>
<text text-anchor="middle" x="576.85" y="-372.78" font-family="Times,serif" font-size="10.00">1..*</text>
</g>
<!-- proposalManagement:ProposalReview&#45;&gt;proposalManagement:Reviewer -->
<g id="edge21" class="edge">
<title>proposalManagement:ProposalReview&#45;&gt;proposalManagement:Reviewer</title>
<path fill="none" stroke="green" d="M196.1,-321.6C183.28,-307.33 168.08,-290.4 155.99,-276.93"/>
<polygon fill="green" stroke="green" points="149.62,-269.84 159.65,-274.28 152.97,-273.56 156.31,-277.28 156.31,-277.28 156.31,-277.28 152.97,-273.56 152.96,-280.29 149.62,-269.84 149.62,-269.84"/>
<text text-anchor="middle" x="196.5" y="-295" font-family="Times,serif" font-size="10.00">reviewer</text>
<text text-anchor="middle" x="146.62" y="-272.84" font-family="Times,serif" font-size="10.00">1</text>
</g>
<!-- proposalManagement:ResourceType -->
<g id="node15" class="node">
<title>proposalManagement:ResourceType</title>
<g id="a_node15"><a xlink:href="../proposalManagement/ResourceType" xlink:title="{ResourceType|+name : ivoa:string\l+unit : ivoa:string\l}">
<polygon fill="#8dd3c7" stroke="black" points="640,-55.5 640,-98.5 719,-98.5 719,-55.5 640,-55.5"/>
<text text-anchor="middle" x="679.5" y="-88.1" font-family="Times,serif" font-size="8.00">ResourceType</text>
<polyline fill="none" stroke="black" points="640,-81.5 719,-81.5"/>
<text text-anchor="start" x="648" y="-71.1" font-family="Times,serif" font-size="8.00">+name : ivoa:string</text>
<text text-anchor="start" x="648" y="-62.1" font-family="Times,serif" font-size="8.00">+unit : ivoa:string</text>
</a>
</g>
</g>
<!-- proposalManagement:Resource -->
<g id="node16" class="node">
<title>proposalManagement:Resource</title>
<g id="a_node16"><a xlink:href="../proposalManagement/Resource" xlink:title="{Resource|+amount : ivoa:real\l}">
<polygon fill="#8dd3c7" stroke="black" points="639.5,-146.5 639.5,-182.5 719.5,-182.5 719.5,-146.5 639.5,-146.5"/>
<text text-anchor="middle" x="679.5" y="-171.6" font-family="Times,serif" font-size="8.00">Resource</text>
<polyline fill="none" stroke="black" points="639.5,-164.5 719.5,-164.5"/>
<text text-anchor="start" x="647.5" y="-153.6" font-family="Times,serif" font-size="8.00">+amount : ivoa:real</text>
</a>
</g>
</g>
<!-- proposalManagement:Resource&#45;&gt;proposalManagement:ResourceType -->
<g id="edge22" class="edge">
<title>proposalManagement:Resource&#45;&gt;proposalManagement:ResourceType</title>
<path fill="none" stroke="green" d="M679.5,-146.61C679.5,-135.7 679.5,-121.2 679.5,-108.34"/>
<polygon fill="green" stroke="green" points="679.5,-98.48 684,-108.48 679.5,-103.48 679.5,-108.48 679.5,-108.48 679.5,-108.48 679.5,-103.48 675,-108.48 679.5,-98.48 679.5,-98.48"/>
<text text-anchor="middle" x="689" y="-120" font-family="Times,serif" font-size="10.00">type</text>
<text text-anchor="middle" x="676.5" y="-101.48" font-family="Times,serif" font-size="10.00">1</text>
</g>
<!-- proposalManagement:AvailableResources&#45;&gt;proposalManagement:Resource -->
<g id="edge13" class="edge">
<title>proposalManagement:AvailableResources&#45;&gt;proposalManagement:Resource</title>
<path fill="none" stroke="blue" d="M752.9,-389.08C745.33,-351.52 730.44,-284.84 710.5,-230 705.71,-216.82 699.12,-202.73 693.25,-191.09"/>
<polygon fill="blue" stroke="blue" points="752.86,-388.86 757.94,-393.98 755.18,-400.64 750.1,-395.52 752.86,-388.86"/>
<polygon fill="blue" stroke="blue" points="688.74,-182.35 697.32,-189.17 691.03,-186.79 693.32,-191.24 693.32,-191.24 693.32,-191.24 691.03,-186.79 689.32,-193.3 688.74,-182.35 688.74,-182.35"/>
<text text-anchor="middle" x="751.5" y="-295" font-family="Times,serif" font-size="10.00">resources</text>
<text text-anchor="middle" x="680.74" y="-185.35" font-family="Times,serif" font-size="10.00">0..*</text>
</g>
<!-- proposalManagement:ResourceBlock -->
<g id="node19" class="node">
<title>proposalManagement:ResourceBlock</title>
<g id="a_node19"><a xlink:href="../proposalManagement/ResourceBlock" xlink:title="{ResourceBlock}">
<polygon fill="#8dd3c7" stroke="black" points="521,-234 521,-270 586,-270 586,-234 521,-234"/>
<text text-anchor="middle" x="553.5" y="-250.1" font-family="Times,serif" font-size="8.00">ResourceBlock</text>
</a>
</g>
</g>
<!-- proposalManagement:ResourceBlock&#45;&gt;proposal:ObservingMode -->
<g id="edge23" class="edge">
<title>proposalManagement:ResourceBlock&#45;&gt;proposal:ObservingMode</title>
<path fill="none" stroke="green" d="M521.28,-234.47C518.31,-232.96 515.35,-231.45 512.5,-230 484.05,-215.54 451.98,-199.39 427.06,-186.86"/>
<polygon fill="green" stroke="green" points="418.22,-182.41 429.17,-182.88 422.69,-184.66 427.15,-186.91 427.15,-186.91 427.15,-186.91 422.69,-184.66 425.13,-190.93 418.22,-182.41 418.22,-182.41"/>
<text text-anchor="middle" x="486" y="-204" font-family="Times,serif" font-size="10.00">mode</text>
<text text-anchor="middle" x="415.22" y="-185.41" font-family="Times,serif" font-size="10.00">1</text>
</g>
<!-- proposalManagement:ResourceBlock&#45;&gt;proposalManagement:Resource -->
<g id="edge14" class="edge">
<title>proposalManagement:ResourceBlock&#45;&gt;proposalManagement:Resource</title>
<path fill="none" stroke="blue" d="M589.12,-226.83C607.25,-214.52 629.15,-199.67 646.85,-187.66"/>
<polygon fill="blue" stroke="blue" points="589.07,-226.86 586.35,-233.54 579.14,-233.6 581.86,-226.92 589.07,-226.86"/>
<polygon fill="blue" stroke="blue" points="654.66,-182.36 648.91,-191.7 650.52,-185.16 646.38,-187.97 646.38,-187.97 646.38,-187.97 650.52,-185.16 643.86,-184.25 654.66,-182.36 654.66,-182.36"/>
<text text-anchor="middle" x="640.5" y="-204" font-family="Times,serif" font-size="10.00">resource</text>
<text text-anchor="middle" x="651.66" y="-185.36" font-family="Times,serif" font-size="10.00">1</text>
</g>
<!-- proposalManagement:AllocatedBlock&#45;&gt;proposalManagement:AllocationGrade -->
<g id="edge24" class="edge">
<title>proposalManagement:AllocatedBlock&#45;&gt;proposalManagement:AllocationGrade</title>
<path fill="none" stroke="green" d="M593.7,-334.11C597.94,-321.82 604.67,-305.1 613.5,-292 616.24,-287.94 619.44,-283.94 622.81,-280.14"/>
<polygon fill="green" stroke="green" points="629.43,-273.13 625.84,-283.49 626,-276.76 622.57,-280.4 622.57,-280.4 622.57,-280.4 626,-276.76 619.3,-277.31 629.43,-273.13 629.43,-273.13"/>
<text text-anchor="middle" x="625" y="-295" font-family="Times,serif" font-size="10.00">grade</text>
<text text-anchor="middle" x="626.43" y="-276.13" font-family="Times,serif" font-size="10.00">1</text>
</g>
<!-- proposalManagement:AllocatedBlock&#45;&gt;proposalManagement:ResourceBlock -->
<g id="edge1" class="edge">
<title>proposalManagement:AllocatedBlock&#45;&gt;proposalManagement:ResourceBlock</title>
<path fill="none" stroke="red" d="M582.56,-334.38C577.28,-319.59 569.46,-297.69 563.26,-280.34"/>
<polygon fill="none" stroke="red" points="566.63,-279.37 559.98,-271.13 560.04,-281.73 566.63,-279.37"/>
</g>
</g>
</svg>
