<?xml version="1.0" encoding="UTF-8" standalone="no"?>
<!DOCTYPE svg PUBLIC "-//W3C//DTD SVG 1.1//EN"
 "http://www.w3.org/Graphics/SVG/1.1/DTD/svg11.dtd">
<!-- Generated by graphviz version 11.0.0 (20240428.1522)
 -->
<!-- Title: GVmap Pages: 1 -->
<svg width="674pt" height="773pt"
 viewBox="0.00 0.00 673.50 773.00" xmlns="http://www.w3.org/2000/svg" xmlns:xlink="http://www.w3.org/1999/xlink">
<g id="graph0" class="graph" transform="scale(1 1) rotate(0) translate(4 769)">
<title>GVmap</title>
<polygon fill="white" stroke="none" points="-4,4 -4,-769 669.5,-769 669.5,4 -4,4"/>
<text text-anchor="middle" x="332.75" y="-7.2" font-family="Times,serif" font-size="14.00">proposalManagement data model</text>
<!-- proposal:ObservingMode -->
<g id="node1" class="node">
<title>proposal:ObservingMode</title>
<g id="a_node1"><a xlink:href="#ObservingMode" xlink:title="{proposal:ObservingMode}">
<polygon fill="grey" stroke="black" points="0,-150.5 0,-186.5 96.25,-186.5 96.25,-150.5 0,-150.5"/>
<text text-anchor="middle" x="48.12" y="-165.9" font-family="Times,serif" font-size="8.00">proposal:ObservingMode</text>
</a>
</g>
</g>
<!-- proposal:Observatory -->
<g id="node2" class="node">
<title>proposal:Observatory</title>
<g id="a_node2"><a xlink:href="#Observatory" xlink:title="{proposal:Observatory}">
<polygon fill="grey" stroke="black" points="182.62,-502.5 182.62,-538.5 267.62,-538.5 267.62,-502.5 182.62,-502.5"/>
<text text-anchor="middle" x="225.12" y="-517.9" font-family="Times,serif" font-size="8.00">proposal:Observatory</text>
</a>
</g>
</g>
<!-- proposal:Person -->
<g id="node3" class="node">
<title>proposal:Person</title>
<g id="a_node3"><a xlink:href="#Person" xlink:title="{proposal:Person}">
<polygon fill="grey" stroke="black" points="542.62,-61.62 542.62,-97.62 609.62,-97.62 609.62,-61.62 542.62,-61.62"/>
<text text-anchor="middle" x="576.12" y="-77.03" font-family="Times,serif" font-size="8.00">proposal:Person</text>
</a>
</g>
</g>
<!-- proposal:ObservingProposal -->
<g id="node4" class="node">
<title>proposal:ObservingProposal</title>
<g id="a_node4"><a xlink:href="#ObservingProposal" xlink:title="{proposal:ObservingProposal}">
<polygon fill="grey" stroke="black" points="312.12,-249.12 312.12,-285.12 418.12,-285.12 418.12,-249.12 312.12,-249.12"/>
<text text-anchor="middle" x="365.12" y="-264.52" font-family="Times,serif" font-size="8.00">proposal:ObservingProposal</text>
</a>
</g>
</g>
<!-- proposalManagement:TacRole -->
<g id="node5" class="node">
<title>proposalManagement:TacRole</title>
<g id="a_node5"><a xlink:href="../proposalManagement/TacRole" xlink:title="{&amp;lt;&amp;lt;enumeration&amp;gt;&amp;gt;\nTacRole|+TechnicalReviewer\l+ScienceReviewer\l+Chair\l}">
<polygon fill="#8dd3c7" stroke="black" points="345.75,-699.75 345.75,-764.5 428.5,-764.5 428.5,-699.75 345.75,-699.75"/>
<text text-anchor="middle" x="387.12" y="-752.9" font-family="Times,serif" font-size="8.00">&lt;&lt;enumeration&gt;&gt;</text>
<text text-anchor="middle" x="387.12" y="-743.15" font-family="Times,serif" font-size="8.00">TacRole</text>
<polyline fill="none" stroke="black" points="345.75,-737 428.5,-737"/>
<text text-anchor="start" x="353.75" y="-725.4" font-family="Times,serif" font-size="8.00">+TechnicalReviewer</text>
<text text-anchor="start" x="353.75" y="-715.65" font-family="Times,serif" font-size="8.00">+ScienceReviewer</text>
<text text-anchor="start" x="353.75" y="-705.9" font-family="Times,serif" font-size="8.00">+Chair</text>
</a>
</g>
</g>
<!-- proposalManagement:OfferedCycles -->
<g id="node6" class="node">
<title>proposalManagement:OfferedCycles</title>
<g id="a_node6"><a xlink:href="../proposalManagement/OfferedCycles" xlink:title="{OfferedCycles}">
<polygon fill="#8dd3c7" stroke="black" points="264.88,-714.12 264.88,-750.12 327.38,-750.12 327.38,-714.12 264.88,-714.12"/>
<text text-anchor="middle" x="296.12" y="-729.52" font-family="Times,serif" font-size="8.00">OfferedCycles</text>
</a>
</g>
</g>
<!-- proposalManagement:ProposalCycle -->
<g id="node7" class="node">
<title>proposalManagement:ProposalCycle</title>
<g id="a_node7"><a xlink:href="../proposalManagement/ProposalCycle" xlink:title="{ProposalCycle|+title : ivoa:string\l+submissionDeadline : ivoa:datetime\l+observationSessionStart : ivoa:datetime\l+observationSessionEnd : ivoa:datetime\l}">
<polygon fill="#8dd3c7" stroke="black" points="222.5,-586.75 222.5,-651.5 369.75,-651.5 369.75,-586.75 222.5,-586.75"/>
<text text-anchor="middle" x="296.12" y="-639.9" font-family="Times,serif" font-size="8.00">ProposalCycle</text>
<polyline fill="none" stroke="black" points="222.5,-633.75 369.75,-633.75"/>
<text text-anchor="start" x="230.5" y="-622.15" font-family="Times,serif" font-size="8.00">+title : ivoa:string</text>
<text text-anchor="start" x="230.5" y="-612.4" font-family="Times,serif" font-size="8.00">+submissionDeadline : ivoa:datetime</text>
<text text-anchor="start" x="230.5" y="-602.65" font-family="Times,serif" font-size="8.00">+observationSessionStart : ivoa:datetime</text>
<text text-anchor="start" x="230.5" y="-592.9" font-family="Times,serif" font-size="8.00">+observationSessionEnd : ivoa:datetime</text>
</a>
</g>
</g>
<!-- proposalManagement:OfferedCycles&#45;&gt;proposalManagement:ProposalCycle -->
<g id="edge2" class="edge">
<title>proposalManagement:OfferedCycles&#45;&gt;proposalManagement:ProposalCycle</title>
<path fill="none" stroke="blue" d="M296.12,-700.85C296.12,-689.04 296.12,-675.29 296.12,-662.53"/>
<polygon fill="blue" stroke="blue" points="296.13,-700.88 300.13,-706.88 296.13,-712.88 292.13,-706.88 296.13,-700.88"/>
<polygon fill="blue" stroke="blue" points="296.13,-652.85 300.63,-662.85 296.13,-656.64 296.13,-662.85 296.13,-662.85 296.13,-662.85 296.13,-656.64 291.63,-662.85 296.13,-652.85"/>
<text text-anchor="middle" x="308.88" y="-671.75" font-family="Times,serif" font-size="10.00">cycles</text>
<text text-anchor="middle" x="288.62" y="-653.39" font-family="Times,serif" font-size="10.00">1..*</text>
</g>
<!-- proposalManagement:ProposalCycle&#45;&gt;proposal:ObservingMode -->
<g id="edge3" class="edge">
<title>proposalManagement:ProposalCycle&#45;&gt;proposal:ObservingMode</title>
<path fill="none" stroke="blue" d="M209.76,-602.18C136.13,-586.04 42.12,-558.24 42.12,-521.5 42.12,-521.5 42.12,-521.5 42.12,-266.12 42.12,-243.16 43.83,-217.18 45.43,-197.95"/>
<polygon fill="blue" stroke="blue" points="209.7,-602.16 216.4,-599.51 221.44,-604.67 214.73,-607.33 209.7,-602.16"/>
<polygon fill="blue" stroke="blue" points="46.28,-188.15 49.9,-198.5 45.95,-191.92 45.41,-198.11 45.41,-198.11 45.41,-198.11 45.95,-191.92 40.93,-197.72 46.28,-188.15"/>
<text text-anchor="middle" x="76.25" y="-397.12" font-family="Times,serif" font-size="10.00">observingModes</text>
<text text-anchor="middle" x="38.89" y="-188.69" font-family="Times,serif" font-size="10.00">1..*</text>
</g>
<!-- proposalManagement:ProposalCycle&#45;&gt;proposal:Observatory -->
<g id="edge14" class="edge">
<title>proposalManagement:ProposalCycle&#45;&gt;proposal:Observatory</title>
<path fill="none" stroke="green" d="M249.03,-586.5C243.32,-580.99 238.11,-574.88 234.12,-568.25 230.82,-562.76 228.69,-556.31 227.33,-549.99"/>
<polygon fill="green" stroke="green" points="225.81,-540.17 231.79,-549.36 226.39,-543.91 227.34,-550.05 227.34,-550.05 227.34,-550.05 226.39,-543.91 222.9,-550.74 225.81,-540.17"/>
<text text-anchor="middle" x="258.12" y="-558.75" font-family="Times,serif" font-size="10.00">observatory</text>
<text text-anchor="middle" x="223" y="-540.72" font-family="Times,serif" font-size="10.00">1</text>
</g>
<!-- proposalManagement:TAC -->
<g id="node10" class="node">
<title>proposalManagement:TAC</title>
<g id="a_node10"><a xlink:href="../proposalManagement/TAC" xlink:title="{TAC}">
<polygon fill="#8dd3c7" stroke="black" points="555.12,-502.5 555.12,-538.5 609.12,-538.5 609.12,-502.5 555.12,-502.5"/>
<text text-anchor="middle" x="582.12" y="-517.9" font-family="Times,serif" font-size="8.00">TAC</text>
</a>
</g>
</g>
<!-- proposalManagement:ProposalCycle&#45;&gt;proposalManagement:TAC -->
<g id="edge6" class="edge">
<title>proposalManagement:ProposalCycle&#45;&gt;proposalManagement:TAC</title>
<path fill="none" stroke="blue" d="M382.28,-590.93C404.74,-583.7 428.88,-575.8 451.12,-568.25 482.78,-557.51 518.51,-544.72 544.64,-535.23"/>
<polygon fill="blue" stroke="blue" points="382.28,-590.93 377.79,-596.58 370.86,-594.6 375.35,-588.96 382.28,-590.93"/>
<polygon fill="blue" stroke="blue" points="553.72,-531.93 545.86,-539.58 550.17,-533.22 544.32,-535.35 544.32,-535.35 544.32,-535.35 550.17,-533.22 542.78,-531.12 553.72,-531.93"/>
<text text-anchor="middle" x="489.12" y="-558.75" font-family="Times,serif" font-size="10.00">tac</text>
<text text-anchor="middle" x="552.24" y="-533.26" font-family="Times,serif" font-size="10.00">1</text>
</g>
<!-- proposalManagement:SubmittedProposal -->
<g id="node11" class="node">
<title>proposalManagement:SubmittedProposal</title>
<g id="a_node11"><a xlink:href="../proposalManagement/SubmittedProposal" xlink:title="{SubmittedProposal|+submissionDate : ivoa:datetime\l+successful : ivoa:boolean\l+reviewsCompleteDate : ivoa:datetime\l}">
<polygon fill="#8dd3c7" stroke="black" points="344.75,-373.5 344.75,-428.5 487.5,-428.5 487.5,-373.5 344.75,-373.5"/>
<text text-anchor="middle" x="416.12" y="-416.9" font-family="Times,serif" font-size="8.00">SubmittedProposal</text>
<polyline fill="none" stroke="black" points="344.75,-410.75 487.5,-410.75"/>
<text text-anchor="start" x="352.75" y="-399.15" font-family="Times,serif" font-size="8.00">+submissionDate : ivoa:datetime</text>
<text text-anchor="start" x="352.75" y="-389.4" font-family="Times,serif" font-size="8.00">+successful : ivoa:boolean</text>
<text text-anchor="start" x="352.75" y="-379.65" font-family="Times,serif" font-size="8.00">+reviewsCompleteDate : ivoa:datetime</text>
</a>
</g>
</g>
<!-- proposalManagement:ProposalCycle&#45;&gt;proposalManagement:SubmittedProposal -->
<g id="edge7" class="edge">
<title>proposalManagement:ProposalCycle&#45;&gt;proposalManagement:SubmittedProposal</title>
<path fill="none" stroke="blue" d="M381.91,-596.95C395.61,-589.94 408.19,-580.63 417.12,-568.25 444,-531.03 437.1,-475.89 428.01,-439.46"/>
<polygon fill="blue" stroke="blue" points="381.93,-596.94 378.14,-603.08 371.02,-601.94 374.81,-595.8 381.93,-596.94"/>
<polygon fill="blue" stroke="blue" points="425.47,-429.97 432.4,-438.47 426.45,-433.63 428.06,-439.63 428.06,-439.63 428.06,-439.63 426.45,-433.63 423.71,-440.8 425.47,-429.97"/>
<text text-anchor="middle" x="474.88" y="-516.62" font-family="Times,serif" font-size="10.00">submittedProposals</text>
<text text-anchor="middle" x="417.66" y="-430.55" font-family="Times,serif" font-size="10.00">0..*</text>
</g>
<!-- proposalManagement:AllocatedProposal -->
<g id="node12" class="node">
<title>proposalManagement:AllocatedProposal</title>
<g id="a_node12"><a xlink:href="../proposalManagement/AllocatedProposal" xlink:title="{AllocatedProposal}">
<polygon fill="#8dd3c7" stroke="black" points="324.5,-502.5 324.5,-538.5 399.75,-538.5 399.75,-502.5 324.5,-502.5"/>
<text text-anchor="middle" x="362.12" y="-517.9" font-family="Times,serif" font-size="8.00">AllocatedProposal</text>
</a>
</g>
</g>
<!-- proposalManagement:ProposalCycle&#45;&gt;proposalManagement:AllocatedProposal -->
<g id="edge8" class="edge">
<title>proposalManagement:ProposalCycle&#45;&gt;proposalManagement:AllocatedProposal</title>
<path fill="none" stroke="blue" d="M325.05,-575.78C331.51,-566.32 338.18,-556.56 344.05,-547.96"/>
<polygon fill="blue" stroke="blue" points="325.01,-575.83 324.93,-583.04 318.24,-585.74 318.33,-578.53 325.01,-575.83"/>
<polygon fill="blue" stroke="blue" points="349.6,-539.84 347.68,-550.63 347.47,-542.96 343.96,-548.09 343.96,-548.09 343.96,-548.09 347.47,-542.96 340.24,-545.56 349.6,-539.84"/>
<text text-anchor="middle" x="374.38" y="-558.75" font-family="Times,serif" font-size="10.00">allocatedProposals</text>
<text text-anchor="middle" x="342.79" y="-540.58" font-family="Times,serif" font-size="10.00">0..*</text>
</g>
<!-- proposalManagement:AvailableResources -->
<g id="node16" class="node">
<title>proposalManagement:AvailableResources</title>
<g id="a_node16"><a xlink:href="../proposalManagement/AvailableResources" xlink:title="{AvailableResources}">
<polygon fill="#8dd3c7" stroke="black" points="110.25,-447.5 110.25,-483.5 190,-483.5 190,-447.5 110.25,-447.5"/>
<text text-anchor="middle" x="150.12" y="-462.9" font-family="Times,serif" font-size="8.00">AvailableResources</text>
</a>
</g>
</g>
<!-- proposalManagement:ProposalCycle&#45;&gt;proposalManagement:AvailableResources -->
<g id="edge4" class="edge">
<title>proposalManagement:ProposalCycle&#45;&gt;proposalManagement:AvailableResources</title>
<path fill="none" stroke="blue" d="M209.53,-608.08C185.54,-600.86 162.07,-588.68 147.38,-568.25 132.17,-547.12 135.38,-516.61 140.84,-494.52"/>
<polygon fill="blue" stroke="blue" points="209.61,-608.1 216.43,-605.78 221.2,-611.19 214.38,-613.51 209.61,-608.1"/>
<polygon fill="blue" stroke="blue" points="143.49,-485 145.14,-495.84 142.47,-488.64 140.81,-494.63 140.81,-494.63 140.81,-494.63 142.47,-488.64 136.47,-493.43 143.49,-485"/>
<text text-anchor="middle" x="187.5" y="-558.75" font-family="Times,serif" font-size="10.00">availableResources</text>
<text text-anchor="middle" x="141.19" y="-485.58" font-family="Times,serif" font-size="10.00">1</text>
</g>
<!-- proposalManagement:AllocationGrade -->
<g id="node17" class="node">
<title>proposalManagement:AllocationGrade</title>
<g id="a_node17"><a xlink:href="../proposalManagement/AllocationGrade" xlink:title="{AllocationGrade|+name : ivoa:string\l+description : ivoa:string\l}">
<polygon fill="#8dd3c7" stroke="black" points="198,-244.5 198,-289.75 294.25,-289.75 294.25,-244.5 198,-244.5"/>
<text text-anchor="middle" x="246.12" y="-278.15" font-family="Times,serif" font-size="8.00">AllocationGrade</text>
<polyline fill="none" stroke="black" points="198,-272 294.25,-272"/>
<text text-anchor="start" x="206" y="-260.4" font-family="Times,serif" font-size="8.00">+name : ivoa:string</text>
<text text-anchor="start" x="206" y="-250.65" font-family="Times,serif" font-size="8.00">+description : ivoa:string</text>
</a>
</g>
</g>
<!-- proposalManagement:ProposalCycle&#45;&gt;proposalManagement:AllocationGrade -->
<g id="edge5" class="edge">
<title>proposalManagement:ProposalCycle&#45;&gt;proposalManagement:AllocationGrade</title>
<path fill="none" stroke="blue" d="M296.39,-573.45C295.72,-514.08 290.89,-406.41 267.12,-318 265.54,-312.1 263.41,-305.98 261.1,-300.14"/>
<polygon fill="blue" stroke="blue" points="296.39,-573.51 300.43,-579.48 296.48,-585.51 292.43,-579.53 296.39,-573.51"/>
<polygon fill="blue" stroke="blue" points="257.33,-291.14 265.35,-298.62 258.79,-294.63 261.2,-300.36 261.2,-300.36 261.2,-300.36 258.79,-294.63 257.05,-302.1 257.33,-291.14"/>
<text text-anchor="middle" x="324.25" y="-461.62" font-family="Times,serif" font-size="10.00">possibleGrades</text>
<text text-anchor="middle" x="264.36" y="-291.76" font-family="Times,serif" font-size="10.00">1..*</text>
</g>
<!-- proposalManagement:Reviewer -->
<g id="node8" class="node">
<title>proposalManagement:Reviewer</title>
<g id="a_node8"><a xlink:href="../proposalManagement/Reviewer" xlink:title="{Reviewer}">
<polygon fill="#8dd3c7" stroke="black" points="549.12,-150.5 549.12,-186.5 603.12,-186.5 603.12,-150.5 549.12,-150.5"/>
<text text-anchor="middle" x="575.88" y="-165.9" font-family="Times,serif" font-size="8.00">Reviewer</text>
</a>
</g>
</g>
<!-- proposalManagement:Reviewer&#45;&gt;proposal:Person -->
<g id="edge15" class="edge">
<title>proposalManagement:Reviewer&#45;&gt;proposal:Person</title>
<path fill="none" stroke="green" d="M576.12,-150.34C576.12,-138.63 576.12,-122.85 576.12,-109.27"/>
<polygon fill="green" stroke="green" points="576.13,-99.27 580.63,-109.27 576.13,-103.05 576.13,-109.27 576.13,-109.27 576.13,-109.27 576.13,-103.05 571.63,-109.27 576.13,-99.27"/>
<text text-anchor="middle" x="589.62" y="-122.5" font-family="Times,serif" font-size="10.00">person</text>
<text text-anchor="middle" x="573.5" y="-99.8" font-family="Times,serif" font-size="10.00">1</text>
</g>
<!-- proposalManagement:CommitteeMember -->
<g id="node9" class="node">
<title>proposalManagement:CommitteeMember</title>
<g id="a_node9"><a xlink:href="../proposalManagement/CommitteeMember" xlink:title="{CommitteeMember|+role : proposalManagement:TacRole\l}">
<polygon fill="#8dd3c7" stroke="black" points="528.75,-318.5 528.75,-354.5 665.5,-354.5 665.5,-318.5 528.75,-318.5"/>
<text text-anchor="middle" x="597.12" y="-342.9" font-family="Times,serif" font-size="8.00">CommitteeMember</text>
<polyline fill="none" stroke="black" points="528.75,-336.75 665.5,-336.75"/>
<text text-anchor="start" x="536.75" y="-325.15" font-family="Times,serif" font-size="8.00">+role : proposalManagement:TacRole</text>
</a>
</g>
</g>
<!-- proposalManagement:CommitteeMember&#45;&gt;proposalManagement:Reviewer -->
<g id="edge16" class="edge">
<title>proposalManagement:CommitteeMember&#45;&gt;proposalManagement:Reviewer</title>
<path fill="none" stroke="green" d="M596.71,-318.05C595.87,-292.89 593.38,-245.05 586.12,-205 585.68,-202.54 585.14,-200.01 584.54,-197.48"/>
<polygon fill="green" stroke="green" points="581.99,-187.86 588.9,-196.37 582.96,-191.51 584.55,-197.52 584.55,-197.52 584.55,-197.52 582.96,-191.51 580.2,-198.68 581.99,-187.86"/>
<text text-anchor="middle" x="611.25" y="-263.25" font-family="Times,serif" font-size="10.00">member</text>
<text text-anchor="middle" x="579.05" y="-188.43" font-family="Times,serif" font-size="10.00">1</text>
</g>
<!-- proposalManagement:TAC&#45;&gt;proposalManagement:CommitteeMember -->
<g id="edge9" class="edge">
<title>proposalManagement:TAC&#45;&gt;proposalManagement:CommitteeMember</title>
<path fill="none" stroke="blue" d="M584.62,-489.21C587.45,-454.85 592.04,-399.25 594.8,-365.75"/>
<polygon fill="blue" stroke="blue" points="584.62,-489.19 588.12,-495.5 583.64,-501.15 580.14,-494.84 584.62,-489.19"/>
<polygon fill="blue" stroke="blue" points="595.59,-356.11 599.25,-366.45 595.28,-359.88 594.77,-366.08 594.77,-366.08 594.77,-366.08 595.28,-359.88 590.28,-365.71 595.59,-356.11"/>
<text text-anchor="middle" x="605.12" y="-461.62" font-family="Times,serif" font-size="10.00">members</text>
<text text-anchor="middle" x="588.19" y="-356.65" font-family="Times,serif" font-size="10.00">1..*</text>
</g>
<!-- proposalManagement:SubmittedProposal&#45;&gt;proposal:ObservingProposal -->
<g id="edge17" class="edge">
<title>proposalManagement:SubmittedProposal&#45;&gt;proposal:ObservingProposal</title>
<path fill="none" stroke="green" d="M405.8,-373.31C397.1,-350.81 384.69,-318.7 375.86,-295.89"/>
<polygon fill="green" stroke="green" points="372.29,-286.66 380.1,-294.37 373.66,-290.19 375.9,-295.99 375.9,-295.99 375.9,-295.99 373.66,-290.19 371.7,-297.61 372.29,-286.66"/>
<text text-anchor="middle" x="415.75" y="-332.62" font-family="Times,serif" font-size="10.00">proposal</text>
<text text-anchor="middle" x="369.23" y="-287.28" font-family="Times,serif" font-size="10.00">1</text>
</g>
<!-- proposalManagement:ProposalReview -->
<g id="node13" class="node">
<title>proposalManagement:ProposalReview</title>
<g id="a_node13"><a xlink:href="../proposalManagement/ProposalReview" xlink:title="{ProposalReview|+comment : ivoa:string\l+score : ivoa:real\l+technicalFeasibility : ivoa:boolean\l+reviewDate : ivoa:datetime\l}">
<polygon fill="#8dd3c7" stroke="black" points="435.75,-234.75 435.75,-299.5 566.5,-299.5 566.5,-234.75 435.75,-234.75"/>
<text text-anchor="middle" x="501.12" y="-287.9" font-family="Times,serif" font-size="8.00">ProposalReview</text>
<polyline fill="none" stroke="black" points="435.75,-281.75 566.5,-281.75"/>
<text text-anchor="start" x="443.75" y="-270.15" font-family="Times,serif" font-size="8.00">+comment : ivoa:string</text>
<text text-anchor="start" x="443.75" y="-260.4" font-family="Times,serif" font-size="8.00">+score : ivoa:real</text>
<text text-anchor="start" x="443.75" y="-250.65" font-family="Times,serif" font-size="8.00">+technicalFeasibility : ivoa:boolean</text>
<text text-anchor="start" x="443.75" y="-240.9" font-family="Times,serif" font-size="8.00">+reviewDate : ivoa:datetime</text>
</a>
</g>
</g>
<!-- proposalManagement:SubmittedProposal&#45;&gt;proposalManagement:ProposalReview -->
<g id="edge10" class="edge">
<title>proposalManagement:SubmittedProposal&#45;&gt;proposalManagement:ProposalReview</title>
<path fill="none" stroke="blue" d="M440.28,-362.52C451.04,-345.84 463.73,-326.14 474.74,-309.06"/>
<polygon fill="blue" stroke="blue" points="440.32,-362.47 440.43,-369.68 433.81,-372.56 433.7,-365.35 440.32,-362.47"/>
<polygon fill="blue" stroke="blue" points="479.99,-300.91 478.36,-311.75 477.94,-304.09 474.58,-309.31 474.58,-309.31 474.58,-309.31 477.94,-304.09 470.79,-306.88 479.99,-300.91"/>
<text text-anchor="middle" x="483.88" y="-332.62" font-family="Times,serif" font-size="10.00">reviews</text>
<text text-anchor="middle" x="473.15" y="-301.64" font-family="Times,serif" font-size="10.00">1..*</text>
</g>
<!-- proposalManagement:AllocatedProposal&#45;&gt;proposalManagement:SubmittedProposal -->
<g id="edge18" class="edge">
<title>proposalManagement:AllocatedProposal&#45;&gt;proposalManagement:SubmittedProposal</title>
<path fill="none" stroke="green" d="M365.18,-502.16C368.26,-487.05 373.84,-464.84 382.62,-447 384.13,-443.95 385.84,-440.9 387.68,-437.9"/>
<polygon fill="green" stroke="green" points="393.21,-429.59 391.42,-440.41 391.12,-432.74 387.67,-437.91 387.67,-437.91 387.67,-437.91 391.12,-432.74 383.93,-435.42 393.21,-429.59"/>
<text text-anchor="middle" x="402.38" y="-461.62" font-family="Times,serif" font-size="10.00">submitted</text>
<text text-anchor="middle" x="391.26" y="-430.32" font-family="Times,serif" font-size="10.00">1</text>
</g>
<!-- proposalManagement:AllocatedBlock -->
<g id="node19" class="node">
<title>proposalManagement:AllocatedBlock</title>
<g id="a_node19"><a xlink:href="../proposalManagement/AllocatedBlock" xlink:title="{AllocatedBlock}">
<polygon fill="#8dd3c7" stroke="black" points="199,-383 199,-419 265.25,-419 265.25,-383 199,-383"/>
<text text-anchor="middle" x="232.12" y="-398.4" font-family="Times,serif" font-size="8.00">AllocatedBlock</text>
</a>
</g>
</g>
<!-- proposalManagement:AllocatedProposal&#45;&gt;proposalManagement:AllocatedBlock -->
<g id="edge11" class="edge">
<title>proposalManagement:AllocatedProposal&#45;&gt;proposalManagement:AllocatedBlock</title>
<path fill="none" stroke="blue" d="M311.6,-508.67C277.55,-500.86 237.94,-490.58 232.88,-484 221.26,-468.91 221.58,-447.22 224.53,-429.93"/>
<polygon fill="blue" stroke="blue" points="311.71,-508.69 318.44,-506.11 323.42,-511.33 316.69,-513.91 311.71,-508.69"/>
<polygon fill="blue" stroke="blue" points="226.5,-420.51 228.85,-431.22 225.72,-424.22 224.45,-430.3 224.45,-430.3 224.45,-430.3 225.72,-424.22 220.04,-429.38 226.5,-420.51"/>
<text text-anchor="middle" x="253.75" y="-461.62" font-family="Times,serif" font-size="10.00">allocation</text>
<text text-anchor="middle" x="219.25" y="-421.07" font-family="Times,serif" font-size="10.00">1..*</text>
</g>
<!-- proposalManagement:ProposalReview&#45;&gt;proposalManagement:Reviewer -->
<g id="edge19" class="edge">
<title>proposalManagement:ProposalReview&#45;&gt;proposalManagement:Reviewer</title>
<path fill="none" stroke="green" d="M525.68,-234.49C535.49,-221.85 546.64,-207.49 555.96,-195.48"/>
<polygon fill="green" stroke="green" points="561.93,-187.79 559.35,-198.45 559.61,-190.78 555.79,-195.69 555.79,-195.69 555.79,-195.69 559.61,-190.78 552.24,-192.93 561.93,-187.79"/>
<text text-anchor="middle" x="564.75" y="-206.75" font-family="Times,serif" font-size="10.00">reviewer</text>
<text text-anchor="middle" x="560.05" y="-188.58" font-family="Times,serif" font-size="10.00">1</text>
</g>
<!-- proposalManagement:ResourceType -->
<g id="node14" class="node">
<title>proposalManagement:ResourceType</title>
<g id="a_node14"><a xlink:href="../proposalManagement/ResourceType" xlink:title="{ResourceType|+name : ivoa:string\l+unit : ivoa:string\l}">
<polygon fill="#8dd3c7" stroke="black" points="120,-57 120,-102.25 198.25,-102.25 198.25,-57 120,-57"/>
<text text-anchor="middle" x="159.12" y="-90.65" font-family="Times,serif" font-size="8.00">ResourceType</text>
<polyline fill="none" stroke="black" points="120,-84.5 198.25,-84.5"/>
<text text-anchor="start" x="128" y="-72.9" font-family="Times,serif" font-size="8.00">+name : ivoa:string</text>
<text text-anchor="start" x="128" y="-63.15" font-family="Times,serif" font-size="8.00">+unit : ivoa:string</text>
</a>
</g>
</g>
<!-- proposalManagement:Resource -->
<g id="node15" class="node">
<title>proposalManagement:Resource</title>
<g id="a_node15"><a xlink:href="../proposalManagement/Resource" xlink:title="{Resource|+amount : ivoa:real\l}">
<polygon fill="#8dd3c7" stroke="black" points="119.62,-150.5 119.62,-186.5 198.62,-186.5 198.62,-150.5 119.62,-150.5"/>
<text text-anchor="middle" x="159.12" y="-174.9" font-family="Times,serif" font-size="8.00">Resource</text>
<polyline fill="none" stroke="black" points="119.62,-168.75 198.62,-168.75"/>
<text text-anchor="start" x="127.62" y="-157.15" font-family="Times,serif" font-size="8.00">+amount : ivoa:real</text>
</a>
</g>
</g>
<!-- proposalManagement:Resource&#45;&gt;proposalManagement:ResourceType -->
<g id="edge20" class="edge">
<title>proposalManagement:Resource&#45;&gt;proposalManagement:ResourceType</title>
<path fill="none" stroke="green" d="M159.12,-150.34C159.12,-139.89 159.12,-126.19 159.12,-113.7"/>
<polygon fill="green" stroke="green" points="159.13,-103.92 163.63,-113.92 159.13,-107.71 159.13,-113.92 159.13,-113.92 159.13,-113.92 159.13,-107.71 154.63,-113.92 159.13,-103.92"/>
<text text-anchor="middle" x="168.12" y="-122.5" font-family="Times,serif" font-size="10.00">type</text>
<text text-anchor="middle" x="156.5" y="-104.46" font-family="Times,serif" font-size="10.00">1</text>
</g>
<!-- proposalManagement:AvailableResources&#45;&gt;proposalManagement:Resource -->
<g id="edge12" class="edge">
<title>proposalManagement:AvailableResources&#45;&gt;proposalManagement:Resource</title>
<path fill="none" stroke="blue" d="M151.04,-434.51C152.78,-377.37 156.56,-253.63 158.26,-197.82"/>
<polygon fill="blue" stroke="blue" points="151.04,-434.47 154.86,-440.59 150.68,-446.46 146.86,-440.34 151.04,-434.47"/>
<polygon fill="blue" stroke="blue" points="158.56,-187.9 162.76,-198.03 158.45,-191.68 158.26,-197.9 158.26,-197.9 158.26,-197.9 158.45,-191.68 153.76,-197.76 158.56,-187.9"/>
<text text-anchor="middle" x="173.88" y="-332.62" font-family="Times,serif" font-size="10.00">resources</text>
<text text-anchor="middle" x="151.1" y="-188.43" font-family="Times,serif" font-size="10.00">0..*</text>
</g>
<!-- proposalManagement:ResourceBlock -->
<g id="node18" class="node">
<title>proposalManagement:ResourceBlock</title>
<g id="a_node18"><a xlink:href="../proposalManagement/ResourceBlock" xlink:title="{ResourceBlock}">
<polygon fill="#8dd3c7" stroke="black" points="77.75,-249.12 77.75,-285.12 142.5,-285.12 142.5,-249.12 77.75,-249.12"/>
<text text-anchor="middle" x="110.12" y="-264.52" font-family="Times,serif" font-size="8.00">ResourceBlock</text>
</a>
</g>
</g>
<!-- proposalManagement:ResourceBlock&#45;&gt;proposal:ObservingMode -->
<g id="edge21" class="edge">
<title>proposalManagement:ResourceBlock&#45;&gt;proposal:ObservingMode</title>
<path fill="none" stroke="green" d="M99.04,-248.85C89.67,-234.24 76.08,-213.06 65.29,-196.26"/>
<polygon fill="green" stroke="green" points="59.98,-187.98 69.17,-193.96 62.02,-191.16 65.38,-196.39 65.38,-196.39 65.38,-196.39 62.02,-191.16 61.59,-198.82 59.98,-187.98"/>
<text text-anchor="middle" x="89.38" y="-206.75" font-family="Times,serif" font-size="10.00">mode</text>
<text text-anchor="middle" x="56.7" y="-188.7" font-family="Times,serif" font-size="10.00">1</text>
</g>
<!-- proposalManagement:ResourceBlock&#45;&gt;proposalManagement:Resource -->
<g id="edge13" class="edge">
<title>proposalManagement:ResourceBlock&#45;&gt;proposalManagement:Resource</title>
<path fill="none" stroke="blue" d="M112.47,-236.1C114.21,-225.77 117.21,-214.44 122.38,-205 124.32,-201.44 126.74,-198.03 129.4,-194.81"/>
<polygon fill="blue" stroke="blue" points="112.48,-236.05 115.68,-242.51 110.95,-247.95 107.75,-241.49 112.48,-236.05"/>
<polygon fill="blue" stroke="blue" points="136.04,-187.71 132.5,-198.09 133.46,-190.47 129.21,-195.02 129.21,-195.02 129.21,-195.02 133.46,-190.47 125.93,-191.94 136.04,-187.71"/>
<text text-anchor="middle" x="140" y="-206.75" font-family="Times,serif" font-size="10.00">resource</text>
<text text-anchor="middle" x="134.25" y="-188.57" font-family="Times,serif" font-size="10.00">1</text>
</g>
<!-- proposalManagement:AllocatedBlock&#45;&gt;proposalManagement:AllocationGrade -->
<g id="edge22" class="edge">
<title>proposalManagement:AllocatedBlock&#45;&gt;proposalManagement:AllocationGrade</title>
<path fill="none" stroke="green" d="M233.96,-382.76C236.15,-362.08 239.88,-326.97 242.63,-301.04"/>
<polygon fill="green" stroke="green" points="243.65,-291.42 247.07,-301.84 243.25,-295.18 242.6,-301.36 242.6,-301.36 242.6,-301.36 243.25,-295.18 238.12,-300.89 243.65,-291.42"/>
<text text-anchor="middle" x="252.38" y="-332.62" font-family="Times,serif" font-size="10.00">grade</text>
<text text-anchor="middle" x="241.16" y="-291.96" font-family="Times,serif" font-size="10.00">1</text>
</g>
<!-- proposalManagement:AllocatedBlock&#45;&gt;proposalManagement:ResourceBlock -->
<g id="edge1" class="edge">
<title>proposalManagement:AllocatedBlock&#45;&gt;proposalManagement:ResourceBlock</title>
<path fill="none" stroke="red" d="M198.84,-388.29C181.86,-380.92 161.93,-369.95 148.12,-355 132.84,-338.45 123.04,-314.78 117.23,-296.32"/>
<polygon fill="none" stroke="red" points="120.61,-295.42 114.46,-286.8 113.89,-297.38 120.61,-295.42"/>
</g>
</g>
</svg>
