<?xml version="1.0" encoding="UTF-8" standalone="no"?>
<!DOCTYPE svg PUBLIC "-//W3C//DTD SVG 1.1//EN"
 "http://www.w3.org/Graphics/SVG/1.1/DTD/svg11.dtd">
<!-- Generated by graphviz version 2.43.0 (0)
 -->
<!-- Title: GVmap Pages: 1 -->
<svg width="939pt" height="726pt"
 viewBox="0.00 0.00 939.00 726.00" xmlns="http://www.w3.org/2000/svg" xmlns:xlink="http://www.w3.org/1999/xlink">
<g id="graph0" class="graph" transform="scale(1 1) rotate(0) translate(4 722)">
<title>GVmap</title>
<polygon fill="white" stroke="transparent" points="-4,4 -4,-722 935,-722 935,4 -4,4"/>
<text text-anchor="middle" x="465.5" y="-7.8" font-family="Times,serif" font-size="14.00">proposalManagement data model</text>
<!-- proposal:ObservingMode -->
<g id="node1" class="node">
<title>proposal:ObservingMode</title>
<g id="a_node1"><a xlink:href="#ObservingMode" xlink:title="{proposal:ObservingMode}">
<polygon fill="grey" stroke="black" points="392.5,-146.5 392.5,-182.5 509.5,-182.5 509.5,-146.5 392.5,-146.5"/>
<text text-anchor="middle" x="451" y="-162.6" font-family="Times,serif" font-size="8.00">proposal:ObservingMode</text>
</a>
</g>
</g>
<!-- proposal:Observatory -->
<g id="node2" class="node">
<title>proposal:Observatory</title>
<g id="a_node2"><a xlink:href="#Observatory" xlink:title="{proposal:Observatory}">
<polygon fill="grey" stroke="black" points="122,-460 122,-496 224,-496 224,-460 122,-460"/>
<text text-anchor="middle" x="173" y="-476.1" font-family="Times,serif" font-size="8.00">proposal:Observatory</text>
</a>
</g>
</g>
<!-- proposal:Person -->
<g id="node3" class="node">
<title>proposal:Person</title>
<g id="a_node3"><a xlink:href="#Person" xlink:title="{proposal:Person}">
<polygon fill="grey" stroke="black" points="120,-146.5 120,-182.5 200,-182.5 200,-146.5 120,-146.5"/>
<text text-anchor="middle" x="160" y="-162.6" font-family="Times,serif" font-size="8.00">proposal:Person</text>
</a>
</g>
</g>
<!-- proposal:ObservingProposal -->
<g id="node4" class="node">
<title>proposal:ObservingProposal</title>
<g id="a_node4"><a xlink:href="#ObservingProposal" xlink:title="{proposal:ObservingProposal}">
<polygon fill="grey" stroke="black" points="464,-234 464,-270 592,-270 592,-234 464,-234"/>
<text text-anchor="middle" x="528" y="-250.1" font-family="Times,serif" font-size="8.00">proposal:ObservingProposal</text>
</a>
</g>
</g>
<!-- proposalManagement:TacRole -->
<g id="node5" class="node">
<title>proposalManagement:TacRole</title>
<g id="a_node5"><a xlink:href="../proposalManagement/TacRole" xlink:title="{&amp;lt;&amp;lt;enumeration&amp;gt;&amp;gt;\nTacRole|+TechnicalReviewer\l+ScienceReviewer\l+Chair\l}">
<polygon fill="#8dd3c7" stroke="black" points="518,-656.5 518,-717.5 616,-717.5 616,-656.5 518,-656.5"/>
<text text-anchor="middle" x="567" y="-707.1" font-family="Times,serif" font-size="8.00">&lt;&lt;enumeration&gt;&gt;</text>
<text text-anchor="middle" x="567" y="-698.1" font-family="Times,serif" font-size="8.00">TacRole</text>
<polyline fill="none" stroke="black" points="518,-691.5 616,-691.5 "/>
<text text-anchor="start" x="526" y="-681.1" font-family="Times,serif" font-size="8.00">+TechnicalReviewer</text>
<text text-anchor="start" x="526" y="-672.1" font-family="Times,serif" font-size="8.00">+ScienceReviewer</text>
<text text-anchor="start" x="526" y="-663.1" font-family="Times,serif" font-size="8.00">+Chair</text>
</a>
</g>
</g>
<!-- proposalManagement:OfferedCycles -->
<g id="node6" class="node">
<title>proposalManagement:OfferedCycles</title>
<g id="a_node6"><a xlink:href="../proposalManagement/OfferedCycles" xlink:title="{OfferedCycles}">
<polygon fill="#8dd3c7" stroke="black" points="426.5,-669 426.5,-705 499.5,-705 499.5,-669 426.5,-669"/>
<text text-anchor="middle" x="463" y="-685.1" font-family="Times,serif" font-size="8.00">OfferedCycles</text>
</a>
</g>
</g>
<!-- proposalManagement:ProposalCycle -->
<g id="node7" class="node">
<title>proposalManagement:ProposalCycle</title>
<g id="a_node7"><a xlink:href="../proposalManagement/ProposalCycle" xlink:title="{ProposalCycle|+title : ivoa:string\l+submissionDeadline : ivoa:datetime\l+observationSessionStart : ivoa:datetime\l+observationSessionEnd : ivoa:datetime\l}">
<polygon fill="#8dd3c7" stroke="black" points="373.5,-547.5 373.5,-608.5 552.5,-608.5 552.5,-547.5 373.5,-547.5"/>
<text text-anchor="middle" x="463" y="-598.1" font-family="Times,serif" font-size="8.00">ProposalCycle</text>
<polyline fill="none" stroke="black" points="373.5,-591.5 552.5,-591.5 "/>
<text text-anchor="start" x="381.5" y="-581.1" font-family="Times,serif" font-size="8.00">+title : ivoa:string</text>
<text text-anchor="start" x="381.5" y="-572.1" font-family="Times,serif" font-size="8.00">+submissionDeadline : ivoa:datetime</text>
<text text-anchor="start" x="381.5" y="-563.1" font-family="Times,serif" font-size="8.00">+observationSessionStart : ivoa:datetime</text>
<text text-anchor="start" x="381.5" y="-554.1" font-family="Times,serif" font-size="8.00">+observationSessionEnd : ivoa:datetime</text>
</a>
</g>
</g>
<!-- proposalManagement:OfferedCycles&#45;&gt;proposalManagement:ProposalCycle -->
<g id="edge2" class="edge">
<title>proposalManagement:OfferedCycles&#45;&gt;proposalManagement:ProposalCycle</title>
<path fill="none" stroke="blue" d="M463,-656.67C463,-645.02 463,-631.42 463,-618.89"/>
<polygon fill="blue" stroke="blue" points="463,-656.81 467,-662.81 463,-668.81 459,-662.81 463,-656.81"/>
<polygon fill="blue" stroke="blue" points="463,-608.68 467.5,-618.68 463,-613.68 463,-618.68 463,-618.68 463,-618.68 463,-613.68 458.5,-618.68 463,-608.68 463,-608.68"/>
<text text-anchor="middle" x="478.5" y="-630" font-family="Times,serif" font-size="10.00">cycles</text>
<text text-anchor="middle" x="454" y="-611.68" font-family="Times,serif" font-size="10.00">1..*</text>
</g>
<!-- proposalManagement:ProposalCycle&#45;&gt;proposal:ObservingMode -->
<g id="edge3" class="edge">
<title>proposalManagement:ProposalCycle&#45;&gt;proposal:ObservingMode</title>
<path fill="none" stroke="blue" d="M459.12,-535.18C453.96,-497.44 442.09,-441.76 415,-401 407.82,-390.19 397.69,-394.67 392,-383 379.93,-358.23 387.03,-348.1 392,-321 400.69,-273.59 423.14,-221.89 437.7,-191.65"/>
<polygon fill="blue" stroke="blue" points="459.14,-535.33 463.85,-540.79 460.63,-547.24 455.91,-541.78 459.14,-535.33"/>
<polygon fill="blue" stroke="blue" points="442.13,-182.62 441.77,-193.58 439.93,-187.11 437.73,-191.6 437.73,-191.6 437.73,-191.6 439.93,-187.11 433.68,-189.62 442.13,-182.62 442.13,-182.62"/>
<text text-anchor="middle" x="435" y="-349.5" font-family="Times,serif" font-size="10.00">observingModes</text>
<text text-anchor="middle" x="433.13" y="-185.62" font-family="Times,serif" font-size="10.00">1..*</text>
</g>
<!-- proposalManagement:ProposalCycle&#45;&gt;proposal:Observatory -->
<g id="edge15" class="edge">
<title>proposalManagement:ProposalCycle&#45;&gt;proposal:Observatory</title>
<path fill="none" stroke="green" d="M373.36,-561.64C337.4,-553.99 296.03,-543.26 260,-529 241.72,-521.76 222.65,-511.19 207.04,-501.63"/>
<polygon fill="green" stroke="green" points="198.28,-496.15 209.14,-497.64 202.52,-498.8 206.76,-501.45 206.76,-501.45 206.76,-501.45 202.52,-498.8 204.37,-505.27 198.28,-496.15 198.28,-496.15"/>
<text text-anchor="middle" x="290.5" y="-521" font-family="Times,serif" font-size="10.00">observatory</text>
<text text-anchor="middle" x="194.78" y="-499.15" font-family="Times,serif" font-size="10.00">1</text>
</g>
<!-- proposalManagement:TAC -->
<g id="node10" class="node">
<title>proposalManagement:TAC</title>
<g id="a_node10"><a xlink:href="../proposalManagement/TAC" xlink:title="{TAC}">
<polygon fill="#8dd3c7" stroke="black" points="50,-460 50,-496 104,-496 104,-460 50,-460"/>
<text text-anchor="middle" x="77" y="-476.1" font-family="Times,serif" font-size="8.00">TAC</text>
</a>
</g>
</g>
<!-- proposalManagement:ProposalCycle&#45;&gt;proposalManagement:TAC -->
<g id="edge6" class="edge">
<title>proposalManagement:ProposalCycle&#45;&gt;proposalManagement:TAC</title>
<path fill="none" stroke="blue" d="M361.11,-564.6C292.15,-553.91 199.71,-535.07 113.53,-499.74"/>
<polygon fill="blue" stroke="blue" points="361.39,-564.64 367.92,-561.58 373.25,-566.43 366.72,-569.49 361.39,-564.64"/>
<polygon fill="blue" stroke="blue" points="104.14,-495.81 115.1,-495.52 108.75,-497.74 113.36,-499.67 113.36,-499.67 113.36,-499.67 108.75,-497.74 111.63,-503.82 104.14,-495.81 104.14,-495.81"/>
<text text-anchor="middle" x="195" y="-521" font-family="Times,serif" font-size="10.00">tac</text>
<text text-anchor="middle" x="107.64" y="-498.81" font-family="Times,serif" font-size="10.00">1</text>
</g>
<!-- proposalManagement:SubmittedProposal -->
<g id="node11" class="node">
<title>proposalManagement:SubmittedProposal</title>
<g id="a_node11"><a xlink:href="../proposalManagement/SubmittedProposal" xlink:title="{SubmittedProposal|+submissionDate : ivoa:datetime\l}">
<polygon fill="#8dd3c7" stroke="black" points="487,-334 487,-370 633,-370 633,-334 487,-334"/>
<text text-anchor="middle" x="560" y="-359.1" font-family="Times,serif" font-size="8.00">SubmittedProposal</text>
<polyline fill="none" stroke="black" points="487,-352 633,-352 "/>
<text text-anchor="start" x="495" y="-341.1" font-family="Times,serif" font-size="8.00">+submissionDate : ivoa:datetime</text>
</a>
</g>
</g>
<!-- proposalManagement:ProposalCycle&#45;&gt;proposalManagement:SubmittedProposal -->
<g id="edge7" class="edge">
<title>proposalManagement:ProposalCycle&#45;&gt;proposalManagement:SubmittedProposal</title>
<path fill="none" stroke="blue" d="M471.18,-535.51C476.65,-511.67 484.89,-481.5 496,-456 508.24,-427.93 527.23,-398.5 541.36,-378.32"/>
<polygon fill="blue" stroke="blue" points="471.16,-535.62 473.77,-542.34 468.57,-547.34 465.96,-540.62 471.16,-535.62"/>
<polygon fill="blue" stroke="blue" points="547.27,-370.01 545.14,-380.76 544.37,-374.08 541.47,-378.16 541.47,-378.16 541.47,-378.16 544.37,-374.08 537.81,-375.55 547.27,-370.01 547.27,-370.01"/>
<text text-anchor="middle" x="547" y="-475.5" font-family="Times,serif" font-size="10.00">submittedProposals</text>
<text text-anchor="middle" x="538.27" y="-373.01" font-family="Times,serif" font-size="10.00">0..*</text>
</g>
<!-- proposalManagement:ReviewedProposal -->
<g id="node12" class="node">
<title>proposalManagement:ReviewedProposal</title>
<g id="a_node12"><a xlink:href="../proposalManagement/ReviewedProposal" xlink:title="{ReviewedProposal|+successful : ivoa:boolean\l+reviewsCompleteDate : ivoa:datetime\l}">
<polygon fill="#8dd3c7" stroke="black" points="242,-456.5 242,-499.5 412,-499.5 412,-456.5 242,-456.5"/>
<text text-anchor="middle" x="327" y="-489.1" font-family="Times,serif" font-size="8.00">ReviewedProposal</text>
<polyline fill="none" stroke="black" points="242,-482.5 412,-482.5 "/>
<text text-anchor="start" x="250" y="-472.1" font-family="Times,serif" font-size="8.00">+successful : ivoa:boolean</text>
<text text-anchor="start" x="250" y="-463.1" font-family="Times,serif" font-size="8.00">+reviewsCompleteDate : ivoa:datetime</text>
</a>
</g>
</g>
<!-- proposalManagement:ProposalCycle&#45;&gt;proposalManagement:ReviewedProposal -->
<g id="edge8" class="edge">
<title>proposalManagement:ProposalCycle&#45;&gt;proposalManagement:ReviewedProposal</title>
<path fill="none" stroke="blue" d="M362.13,-556.21C349.24,-549.51 337.57,-540.67 329,-529 325.02,-523.58 323.26,-516.86 322.75,-510.13"/>
<polygon fill="blue" stroke="blue" points="362.33,-556.3 369.45,-555.2 373.22,-561.35 366.09,-562.45 362.33,-556.3"/>
<polygon fill="blue" stroke="blue" points="322.83,-499.72 327.25,-509.75 322.79,-504.72 322.75,-509.72 322.75,-509.72 322.75,-509.72 322.79,-504.72 318.25,-509.69 322.83,-499.72 322.83,-499.72"/>
<text text-anchor="middle" x="377.5" y="-521" font-family="Times,serif" font-size="10.00">reviewedProposals</text>
<text text-anchor="middle" x="313.83" y="-502.72" font-family="Times,serif" font-size="10.00">0..*</text>
</g>
<!-- proposalManagement:AllocatedProposal -->
<g id="node13" class="node">
<title>proposalManagement:AllocatedProposal</title>
<g id="a_node13"><a xlink:href="../proposalManagement/AllocatedProposal" xlink:title="{AllocatedProposal}">
<polygon fill="#8dd3c7" stroke="black" points="606.5,-460 606.5,-496 693.5,-496 693.5,-460 606.5,-460"/>
<text text-anchor="middle" x="650" y="-476.1" font-family="Times,serif" font-size="8.00">AllocatedProposal</text>
</a>
</g>
</g>
<!-- proposalManagement:ProposalCycle&#45;&gt;proposalManagement:AllocatedProposal -->
<g id="edge9" class="edge">
<title>proposalManagement:ProposalCycle&#45;&gt;proposalManagement:AllocatedProposal</title>
<path fill="none" stroke="blue" d="M530.1,-541.84C556.2,-528.16 585.29,-512.91 608.28,-500.87"/>
<polygon fill="blue" stroke="blue" points="529.99,-541.89 526.53,-548.22 519.36,-547.46 522.82,-541.14 529.99,-541.89"/>
<polygon fill="blue" stroke="blue" points="617.41,-496.08 610.64,-504.71 612.98,-498.4 608.55,-500.72 608.55,-500.72 608.55,-500.72 612.98,-498.4 606.46,-496.74 617.41,-496.08 617.41,-496.08"/>
<text text-anchor="middle" x="622" y="-521" font-family="Times,serif" font-size="10.00">allocatedProposals</text>
<text text-anchor="middle" x="608.41" y="-499.08" font-family="Times,serif" font-size="10.00">0..*</text>
</g>
<!-- proposalManagement:AvailableResources -->
<g id="node17" class="node">
<title>proposalManagement:AvailableResources</title>
<g id="a_node17"><a xlink:href="../proposalManagement/AvailableResources" xlink:title="{AvailableResources}">
<polygon fill="#8dd3c7" stroke="black" points="839,-401.5 839,-437.5 931,-437.5 931,-401.5 839,-401.5"/>
<text text-anchor="middle" x="885" y="-417.6" font-family="Times,serif" font-size="8.00">AvailableResources</text>
</a>
</g>
</g>
<!-- proposalManagement:ProposalCycle&#45;&gt;proposalManagement:AvailableResources -->
<g id="edge4" class="edge">
<title>proposalManagement:ProposalCycle&#45;&gt;proposalManagement:AvailableResources</title>
<path fill="none" stroke="blue" d="M564.95,-567.5C639.61,-559.34 733.8,-546.17 769,-529 809.08,-509.45 844.81,-471.3 865.7,-445.85"/>
<polygon fill="blue" stroke="blue" points="564.6,-567.54 559.06,-572.15 552.67,-568.82 558.21,-564.2 564.6,-567.54"/>
<polygon fill="blue" stroke="blue" points="872.19,-437.76 869.45,-448.37 869.07,-441.66 865.94,-445.56 865.94,-445.56 865.94,-445.56 869.07,-441.66 862.43,-442.74 872.19,-437.76 872.19,-437.76"/>
<text text-anchor="middle" x="836.5" y="-521" font-family="Times,serif" font-size="10.00">availableResources</text>
<text text-anchor="middle" x="868.69" y="-440.76" font-family="Times,serif" font-size="10.00">1</text>
</g>
<!-- proposalManagement:AllocationGrade -->
<g id="node18" class="node">
<title>proposalManagement:AllocationGrade</title>
<g id="a_node18"><a xlink:href="../proposalManagement/AllocationGrade" xlink:title="{AllocationGrade|+name : ivoa:string\l+description : ivoa:string\l}">
<polygon fill="#8dd3c7" stroke="black" points="703.5,-230.5 703.5,-273.5 820.5,-273.5 820.5,-230.5 703.5,-230.5"/>
<text text-anchor="middle" x="762" y="-263.1" font-family="Times,serif" font-size="8.00">AllocationGrade</text>
<polyline fill="none" stroke="black" points="703.5,-256.5 820.5,-256.5 "/>
<text text-anchor="start" x="711.5" y="-246.1" font-family="Times,serif" font-size="8.00">+name : ivoa:string</text>
<text text-anchor="start" x="711.5" y="-237.1" font-family="Times,serif" font-size="8.00">+description : ivoa:string</text>
</a>
</g>
</g>
<!-- proposalManagement:ProposalCycle&#45;&gt;proposalManagement:AllocationGrade -->
<g id="edge5" class="edge">
<title>proposalManagement:ProposalCycle&#45;&gt;proposalManagement:AllocationGrade</title>
<path fill="none" stroke="blue" d="M564.78,-565.71C600.88,-558.7 640.76,-547.36 674,-529 689.96,-520.19 693.27,-515.41 703,-500 746.53,-431.06 757.96,-332.83 760.95,-283.6"/>
<polygon fill="blue" stroke="blue" points="564.5,-565.76 559.32,-570.77 552.69,-567.92 557.87,-562.9 564.5,-565.76"/>
<polygon fill="blue" stroke="blue" points="761.48,-273.59 765.44,-283.81 761.21,-278.58 760.95,-283.57 760.95,-283.57 760.95,-283.57 761.21,-278.58 756.46,-283.33 761.48,-273.59 761.48,-273.59"/>
<text text-anchor="middle" x="781.5" y="-417" font-family="Times,serif" font-size="10.00">possibleGrades</text>
<text text-anchor="middle" x="752.48" y="-276.59" font-family="Times,serif" font-size="10.00">1..*</text>
</g>
<!-- proposalManagement:Reviewer -->
<g id="node8" class="node">
<title>proposalManagement:Reviewer</title>
<g id="a_node8"><a xlink:href="../proposalManagement/Reviewer" xlink:title="{Reviewer}">
<polygon fill="#8dd3c7" stroke="black" points="133,-234 133,-270 187,-270 187,-234 133,-234"/>
<text text-anchor="middle" x="160" y="-250.1" font-family="Times,serif" font-size="8.00">Reviewer</text>
</a>
</g>
</g>
<!-- proposalManagement:Reviewer&#45;&gt;proposal:Person -->
<g id="edge16" class="edge">
<title>proposalManagement:Reviewer&#45;&gt;proposal:Person</title>
<path fill="none" stroke="green" d="M160,-233.7C160,-221.99 160,-206.29 160,-192.9"/>
<polygon fill="green" stroke="green" points="160,-182.78 164.5,-192.78 160,-187.78 160,-192.78 160,-192.78 160,-192.78 160,-187.78 155.5,-192.78 160,-182.78 160,-182.78"/>
<text text-anchor="middle" x="178" y="-204" font-family="Times,serif" font-size="10.00">person</text>
<text text-anchor="middle" x="156.5" y="-185.78" font-family="Times,serif" font-size="10.00">1</text>
</g>
<!-- proposalManagement:CommitteeMember -->
<g id="node9" class="node">
<title>proposalManagement:CommitteeMember</title>
<g id="a_node9"><a xlink:href="../proposalManagement/CommitteeMember" xlink:title="{CommitteeMember|+role : proposalManagement:TacRole\l}">
<polygon fill="#8dd3c7" stroke="black" points="0,-334 0,-370 166,-370 166,-334 0,-334"/>
<text text-anchor="middle" x="83" y="-359.1" font-family="Times,serif" font-size="8.00">CommitteeMember</text>
<polyline fill="none" stroke="black" points="0,-352 166,-352 "/>
<text text-anchor="start" x="8" y="-341.1" font-family="Times,serif" font-size="8.00">+role : proposalManagement:TacRole</text>
</a>
</g>
</g>
<!-- proposalManagement:CommitteeMember&#45;&gt;proposalManagement:Reviewer -->
<g id="edge17" class="edge">
<title>proposalManagement:CommitteeMember&#45;&gt;proposalManagement:Reviewer</title>
<path fill="none" stroke="green" d="M96.41,-333.93C108.48,-318.57 126.38,-295.79 140.12,-278.3"/>
<polygon fill="green" stroke="green" points="146.48,-270.2 143.84,-280.85 143.39,-274.14 140.3,-278.07 140.3,-278.07 140.3,-278.07 143.39,-274.14 136.77,-275.29 146.48,-270.2 146.48,-270.2"/>
<text text-anchor="middle" x="150.5" y="-295" font-family="Times,serif" font-size="10.00">member</text>
<text text-anchor="middle" x="142.98" y="-273.2" font-family="Times,serif" font-size="10.00">1</text>
</g>
<!-- proposalManagement:TAC&#45;&gt;proposalManagement:CommitteeMember -->
<g id="edge10" class="edge">
<title>proposalManagement:TAC&#45;&gt;proposalManagement:CommitteeMember</title>
<path fill="none" stroke="blue" d="M78.41,-447.76C79.41,-427.28 80.72,-400.1 81.69,-380.1"/>
<polygon fill="blue" stroke="blue" points="78.41,-447.77 82.12,-453.96 77.83,-459.76 74.13,-453.57 78.41,-447.77"/>
<polygon fill="blue" stroke="blue" points="82.17,-370.1 86.18,-380.3 81.93,-375.09 81.69,-380.08 81.69,-380.08 81.69,-380.08 81.93,-375.09 77.19,-379.87 82.17,-370.1 82.17,-370.1"/>
<text text-anchor="middle" x="105.5" y="-417" font-family="Times,serif" font-size="10.00">members</text>
<text text-anchor="middle" x="73.17" y="-373.1" font-family="Times,serif" font-size="10.00">1..*</text>
</g>
<!-- proposalManagement:SubmittedProposal&#45;&gt;proposal:ObservingProposal -->
<g id="edge18" class="edge">
<title>proposalManagement:SubmittedProposal&#45;&gt;proposal:ObservingProposal</title>
<path fill="none" stroke="green" d="M554.43,-333.93C549.55,-318.99 542.37,-297.02 536.73,-279.75"/>
<polygon fill="green" stroke="green" points="533.62,-270.2 541,-278.31 535.17,-274.96 536.72,-279.71 536.72,-279.71 536.72,-279.71 535.17,-274.96 532.44,-281.11 533.62,-270.2 533.62,-270.2"/>
<text text-anchor="middle" x="566.5" y="-295" font-family="Times,serif" font-size="10.00">proposal</text>
<text text-anchor="middle" x="530.12" y="-273.2" font-family="Times,serif" font-size="10.00">1</text>
</g>
<!-- proposalManagement:ReviewedProposal&#45;&gt;proposalManagement:SubmittedProposal -->
<g id="edge19" class="edge">
<title>proposalManagement:ReviewedProposal&#45;&gt;proposalManagement:SubmittedProposal</title>
<path fill="none" stroke="green" d="M347.92,-456.16C365.78,-439.34 392.83,-416.07 420,-401 441.76,-388.94 449.46,-391.05 473,-383 482.09,-379.89 491.7,-376.59 501.1,-373.35"/>
<polygon fill="green" stroke="green" points="510.78,-370.02 502.79,-377.53 506.06,-371.64 501.33,-373.27 501.33,-373.27 501.33,-373.27 506.06,-371.64 499.86,-369.02 510.78,-370.02 510.78,-370.02"/>
<text text-anchor="middle" x="446" y="-417" font-family="Times,serif" font-size="10.00">submitted</text>
<text text-anchor="middle" x="507.28" y="-373.02" font-family="Times,serif" font-size="10.00">1</text>
</g>
<!-- proposalManagement:ProposalReview -->
<g id="node14" class="node">
<title>proposalManagement:ProposalReview</title>
<g id="a_node14"><a xlink:href="../proposalManagement/ProposalReview" xlink:title="{ProposalReview|+comment : ivoa:string\l+score : ivoa:real\l+technicalFeasibility : ivoa:boolean\l+reviewDate : ivoa:datetime\l}">
<polygon fill="#8dd3c7" stroke="black" points="185,-321.5 185,-382.5 341,-382.5 341,-321.5 185,-321.5"/>
<text text-anchor="middle" x="263" y="-372.1" font-family="Times,serif" font-size="8.00">ProposalReview</text>
<polyline fill="none" stroke="black" points="185,-365.5 341,-365.5 "/>
<text text-anchor="start" x="193" y="-355.1" font-family="Times,serif" font-size="8.00">+comment : ivoa:string</text>
<text text-anchor="start" x="193" y="-346.1" font-family="Times,serif" font-size="8.00">+score : ivoa:real</text>
<text text-anchor="start" x="193" y="-337.1" font-family="Times,serif" font-size="8.00">+technicalFeasibility : ivoa:boolean</text>
<text text-anchor="start" x="193" y="-328.1" font-family="Times,serif" font-size="8.00">+reviewDate : ivoa:datetime</text>
</a>
</g>
</g>
<!-- proposalManagement:ReviewedProposal&#45;&gt;proposalManagement:ProposalReview -->
<g id="edge11" class="edge">
<title>proposalManagement:ReviewedProposal&#45;&gt;proposalManagement:ProposalReview</title>
<path fill="none" stroke="blue" d="M294.5,-447.3C292.11,-444.31 289.89,-441.19 288,-438 279.83,-424.24 274.18,-407.64 270.34,-392.76"/>
<polygon fill="blue" stroke="blue" points="294.61,-447.42 301.59,-449.24 302.59,-456.39 295.61,-454.57 294.61,-447.42"/>
<polygon fill="blue" stroke="blue" points="267.96,-382.8 274.66,-391.49 269.12,-387.67 270.28,-392.53 270.28,-392.53 270.28,-392.53 269.12,-387.67 265.9,-393.57 267.96,-382.8 267.96,-382.8"/>
<text text-anchor="middle" x="308" y="-417" font-family="Times,serif" font-size="10.00">reviews</text>
<text text-anchor="middle" x="258.96" y="-385.8" font-family="Times,serif" font-size="10.00">1..*</text>
</g>
<!-- proposalManagement:AllocatedProposal&#45;&gt;proposalManagement:SubmittedProposal -->
<g id="edge20" class="edge">
<title>proposalManagement:AllocatedProposal&#45;&gt;proposalManagement:SubmittedProposal</title>
<path fill="none" stroke="green" d="M627.51,-459.72C620.12,-453.39 612.22,-445.84 606,-438 591.66,-419.92 579.45,-396.74 571.22,-379.15"/>
<polygon fill="green" stroke="green" points="567.07,-370.02 575.31,-377.26 569.14,-374.57 571.21,-379.12 571.21,-379.12 571.21,-379.12 569.14,-374.57 567.11,-380.99 567.07,-370.02 567.07,-370.02"/>
<text text-anchor="middle" x="632" y="-417" font-family="Times,serif" font-size="10.00">submitted</text>
<text text-anchor="middle" x="563.57" y="-373.02" font-family="Times,serif" font-size="10.00">1</text>
</g>
<!-- proposalManagement:AllocatedBlock -->
<g id="node20" class="node">
<title>proposalManagement:AllocatedBlock</title>
<g id="a_node20"><a xlink:href="../proposalManagement/AllocatedBlock" xlink:title="{AllocatedBlock}">
<polygon fill="#8dd3c7" stroke="black" points="651.5,-334 651.5,-370 726.5,-370 726.5,-334 651.5,-334"/>
<text text-anchor="middle" x="689" y="-350.1" font-family="Times,serif" font-size="8.00">AllocatedBlock</text>
</a>
</g>
</g>
<!-- proposalManagement:AllocatedProposal&#45;&gt;proposalManagement:AllocatedBlock -->
<g id="edge12" class="edge">
<title>proposalManagement:AllocatedProposal&#45;&gt;proposalManagement:AllocatedBlock</title>
<path fill="none" stroke="blue" d="M659.09,-448.1C665.57,-427.5 674.22,-400 680.55,-379.87"/>
<polygon fill="blue" stroke="blue" points="659.02,-448.31 661.04,-455.23 655.42,-459.76 653.41,-452.83 659.02,-448.31"/>
<polygon fill="blue" stroke="blue" points="683.62,-370.1 684.92,-380.98 682.12,-374.86 680.62,-379.63 680.62,-379.63 680.62,-379.63 682.12,-374.86 676.33,-378.28 683.62,-370.1 683.62,-370.1"/>
<text text-anchor="middle" x="696.5" y="-417" font-family="Times,serif" font-size="10.00">allocation</text>
<text text-anchor="middle" x="674.62" y="-373.1" font-family="Times,serif" font-size="10.00">1..*</text>
</g>
<!-- proposalManagement:ProposalReview&#45;&gt;proposalManagement:Reviewer -->
<g id="edge21" class="edge">
<title>proposalManagement:ProposalReview&#45;&gt;proposalManagement:Reviewer</title>
<path fill="none" stroke="green" d="M231.82,-321.33C216.93,-307.17 199.34,-290.43 185.3,-277.07"/>
<polygon fill="green" stroke="green" points="177.9,-270.03 188.25,-273.67 181.53,-273.48 185.15,-276.93 185.15,-276.93 185.15,-276.93 181.53,-273.48 182.05,-280.19 177.9,-270.03 177.9,-270.03"/>
<text text-anchor="middle" x="234.5" y="-295" font-family="Times,serif" font-size="10.00">reviewer</text>
<text text-anchor="middle" x="174.4" y="-273.03" font-family="Times,serif" font-size="10.00">1</text>
</g>
<!-- proposalManagement:ResourceType -->
<g id="node15" class="node">
<title>proposalManagement:ResourceType</title>
<g id="a_node15"><a xlink:href="../proposalManagement/ResourceType" xlink:title="{ResourceType|+name : ivoa:string\l+unit : ivoa:string\l}">
<polygon fill="#8dd3c7" stroke="black" points="748.5,-55.5 748.5,-98.5 843.5,-98.5 843.5,-55.5 748.5,-55.5"/>
<text text-anchor="middle" x="796" y="-88.1" font-family="Times,serif" font-size="8.00">ResourceType</text>
<polyline fill="none" stroke="black" points="748.5,-81.5 843.5,-81.5 "/>
<text text-anchor="start" x="756.5" y="-71.1" font-family="Times,serif" font-size="8.00">+name : ivoa:string</text>
<text text-anchor="start" x="756.5" y="-62.1" font-family="Times,serif" font-size="8.00">+unit : ivoa:string</text>
</a>
</g>
</g>
<!-- proposalManagement:Resource -->
<g id="node16" class="node">
<title>proposalManagement:Resource</title>
<g id="a_node16"><a xlink:href="../proposalManagement/Resource" xlink:title="{Resource|+amount : ivoa:real\l}">
<polygon fill="#8dd3c7" stroke="black" points="748.5,-146.5 748.5,-182.5 843.5,-182.5 843.5,-146.5 748.5,-146.5"/>
<text text-anchor="middle" x="796" y="-171.6" font-family="Times,serif" font-size="8.00">Resource</text>
<polyline fill="none" stroke="black" points="748.5,-164.5 843.5,-164.5 "/>
<text text-anchor="start" x="756.5" y="-153.6" font-family="Times,serif" font-size="8.00">+amount : ivoa:real</text>
</a>
</g>
</g>
<!-- proposalManagement:Resource&#45;&gt;proposalManagement:ResourceType -->
<g id="edge22" class="edge">
<title>proposalManagement:Resource&#45;&gt;proposalManagement:ResourceType</title>
<path fill="none" stroke="green" d="M796,-146.2C796,-135.45 796,-121.32 796,-108.72"/>
<polygon fill="green" stroke="green" points="796,-98.59 800.5,-108.59 796,-103.59 796,-108.59 796,-108.59 796,-108.59 796,-103.59 791.5,-108.59 796,-98.59 796,-98.59"/>
<text text-anchor="middle" x="807.5" y="-120" font-family="Times,serif" font-size="10.00">type</text>
<text text-anchor="middle" x="792.5" y="-101.59" font-family="Times,serif" font-size="10.00">1</text>
</g>
<!-- proposalManagement:AvailableResources&#45;&gt;proposalManagement:Resource -->
<g id="edge13" class="edge">
<title>proposalManagement:AvailableResources&#45;&gt;proposalManagement:Resource</title>
<path fill="none" stroke="blue" d="M878.46,-389.5C869.57,-351.95 852.19,-284.84 830,-230 824.73,-216.98 817.65,-203.13 811.3,-191.62"/>
<polygon fill="blue" stroke="blue" points="878.53,-389.79 883.79,-394.72 881.25,-401.47 875.99,-396.54 878.53,-389.79"/>
<polygon fill="blue" stroke="blue" points="806.21,-182.57 815.04,-189.08 808.66,-186.92 811.11,-191.28 811.11,-191.28 811.11,-191.28 808.66,-186.92 807.19,-193.49 806.21,-182.57 806.21,-182.57"/>
<text text-anchor="middle" x="879" y="-295" font-family="Times,serif" font-size="10.00">resources</text>
<text text-anchor="middle" x="797.21" y="-185.57" font-family="Times,serif" font-size="10.00">0..*</text>
</g>
<!-- proposalManagement:ResourceBlock -->
<g id="node19" class="node">
<title>proposalManagement:ResourceBlock</title>
<g id="a_node19"><a xlink:href="../proposalManagement/ResourceBlock" xlink:title="{ResourceBlock}">
<polygon fill="#8dd3c7" stroke="black" points="610.5,-234 610.5,-270 685.5,-270 685.5,-234 610.5,-234"/>
<text text-anchor="middle" x="648" y="-250.1" font-family="Times,serif" font-size="8.00">ResourceBlock</text>
</a>
</g>
</g>
<!-- proposalManagement:ResourceBlock&#45;&gt;proposal:ObservingMode -->
<g id="edge23" class="edge">
<title>proposalManagement:ResourceBlock&#45;&gt;proposal:ObservingMode</title>
<path fill="none" stroke="green" d="M610.31,-234.1C607.16,-232.71 604.03,-231.33 601,-230 567.64,-215.38 529.99,-199.19 500.75,-186.68"/>
<polygon fill="green" stroke="green" points="491.18,-182.59 502.14,-182.38 495.77,-184.56 500.37,-186.52 500.37,-186.52 500.37,-186.52 495.77,-184.56 498.6,-190.66 491.18,-182.59 491.18,-182.59"/>
<text text-anchor="middle" x="570.5" y="-204" font-family="Times,serif" font-size="10.00">mode</text>
<text text-anchor="middle" x="487.68" y="-185.59" font-family="Times,serif" font-size="10.00">1</text>
</g>
<!-- proposalManagement:ResourceBlock&#45;&gt;proposalManagement:Resource -->
<g id="edge14" class="edge">
<title>proposalManagement:ResourceBlock&#45;&gt;proposalManagement:Resource</title>
<path fill="none" stroke="blue" d="M688.1,-227.84C709.73,-215.34 736.29,-199.99 757.65,-187.65"/>
<polygon fill="blue" stroke="blue" points="687.99,-227.9 684.79,-234.37 677.59,-233.9 680.79,-227.44 687.99,-227.9"/>
<polygon fill="blue" stroke="blue" points="766.46,-182.57 760.05,-191.47 762.13,-185.07 757.8,-187.57 757.8,-187.57 757.8,-187.57 762.13,-185.07 755.55,-183.67 766.46,-182.57 766.46,-182.57"/>
<text text-anchor="middle" x="752.5" y="-204" font-family="Times,serif" font-size="10.00">resource</text>
<text text-anchor="middle" x="762.96" y="-185.57" font-family="Times,serif" font-size="10.00">1</text>
</g>
<!-- proposalManagement:AllocatedBlock&#45;&gt;proposalManagement:AllocationGrade -->
<g id="edge24" class="edge">
<title>proposalManagement:AllocatedBlock&#45;&gt;proposalManagement:AllocationGrade</title>
<path fill="none" stroke="green" d="M692.27,-333.98C695.31,-321.46 700.78,-304.52 710,-292 713.06,-287.85 716.68,-283.93 720.57,-280.31"/>
<polygon fill="green" stroke="green" points="728.3,-273.7 723.62,-283.62 724.5,-276.95 720.7,-280.2 720.7,-280.2 720.7,-280.2 724.5,-276.95 717.77,-276.78 728.3,-273.7 728.3,-273.7"/>
<text text-anchor="middle" x="725.5" y="-295" font-family="Times,serif" font-size="10.00">grade</text>
<text text-anchor="middle" x="724.8" y="-276.7" font-family="Times,serif" font-size="10.00">1</text>
</g>
<!-- proposalManagement:AllocatedBlock&#45;&gt;proposalManagement:ResourceBlock -->
<g id="edge1" class="edge">
<title>proposalManagement:AllocatedBlock&#45;&gt;proposalManagement:ResourceBlock</title>
<path fill="none" stroke="red" d="M681.86,-333.93C675.61,-318.99 666.42,-297.02 659.19,-279.75"/>
<polygon fill="none" stroke="red" points="662.29,-278.08 655.2,-270.2 655.83,-280.78 662.29,-278.08"/>
</g>
</g>
</svg>
