<?xml version="1.0" encoding="UTF-8" standalone="no"?>
<!DOCTYPE svg PUBLIC "-//W3C//DTD SVG 1.1//EN"
 "http://www.w3.org/Graphics/SVG/1.1/DTD/svg11.dtd">
<!-- Generated by graphviz version 11.0.0 (20240428.1522)
 -->
<!-- Title: GVmap Pages: 1 -->
<svg width="782pt" height="773pt"
 viewBox="0.00 0.00 781.88 773.00" xmlns="http://www.w3.org/2000/svg" xmlns:xlink="http://www.w3.org/1999/xlink">
<g id="graph0" class="graph" transform="scale(1 1) rotate(0) translate(4 769)">
<title>GVmap</title>
<polygon fill="white" stroke="none" points="-4,4 -4,-769 777.88,-769 777.88,4 -4,4"/>
<text text-anchor="middle" x="386.94" y="-7.2" font-family="Times,serif" font-size="14.00">proposalManagement data model</text>
<!-- proposal:Observatory -->
<g id="node1" class="node">
<title>proposal:Observatory</title>
<g id="a_node1"><a xlink:href="#Observatory" xlink:title="{proposal:Observatory}">
<polygon fill="grey" stroke="black" points="0,-502.5 0,-538.5 85,-538.5 85,-502.5 0,-502.5"/>
<text text-anchor="middle" x="42.5" y="-517.9" font-family="Times,serif" font-size="8.00">proposal:Observatory</text>
</a>
</g>
</g>
<!-- proposal:ObservingMode -->
<g id="node2" class="node">
<title>proposal:ObservingMode</title>
<g id="a_node2"><a xlink:href="#ObservingMode" xlink:title="{proposal:ObservingMode}">
<polygon fill="grey" stroke="black" points="95.38,-150.5 95.38,-186.5 191.62,-186.5 191.62,-150.5 95.38,-150.5"/>
<text text-anchor="middle" x="143.5" y="-165.9" font-family="Times,serif" font-size="8.00">proposal:ObservingMode</text>
</a>
</g>
</g>
<!-- proposal:Person -->
<g id="node3" class="node">
<title>proposal:Person</title>
<g id="a_node3"><a xlink:href="#Person" xlink:title="{proposal:Person}">
<polygon fill="grey" stroke="black" points="665,-61.62 665,-97.62 732,-97.62 732,-61.62 665,-61.62"/>
<text text-anchor="middle" x="698.5" y="-77.03" font-family="Times,serif" font-size="8.00">proposal:Person</text>
</a>
</g>
</g>
<!-- proposal:ObservingProposal -->
<g id="node4" class="node">
<title>proposal:ObservingProposal</title>
<g id="a_node4"><a xlink:href="#ObservingProposal" xlink:title="{proposal:ObservingProposal}">
<polygon fill="grey" stroke="black" points="434.5,-249.12 434.5,-285.12 540.5,-285.12 540.5,-249.12 434.5,-249.12"/>
<text text-anchor="middle" x="487.5" y="-264.52" font-family="Times,serif" font-size="8.00">proposal:ObservingProposal</text>
</a>
</g>
</g>
<!-- proposalManagement:TacRole -->
<g id="node5" class="node">
<title>proposalManagement:TacRole</title>
<g id="a_node5"><a xlink:href="../proposalManagement/TacRole" xlink:title="{&amp;lt;&amp;lt;enumeration&amp;gt;&amp;gt;\nTacRole|+TechnicalReviewer\l+ScienceReviewer\l+Chair\l}">
<polygon fill="#8dd3c7" stroke="black" points="335.12,-699.75 335.12,-764.5 417.88,-764.5 417.88,-699.75 335.12,-699.75"/>
<text text-anchor="middle" x="376.5" y="-752.9" font-family="Times,serif" font-size="8.00">&lt;&lt;enumeration&gt;&gt;</text>
<text text-anchor="middle" x="376.5" y="-743.15" font-family="Times,serif" font-size="8.00">TacRole</text>
<polyline fill="none" stroke="black" points="335.12,-737 417.88,-737"/>
<text text-anchor="start" x="343.12" y="-725.4" font-family="Times,serif" font-size="8.00">+TechnicalReviewer</text>
<text text-anchor="start" x="343.12" y="-715.65" font-family="Times,serif" font-size="8.00">+ScienceReviewer</text>
<text text-anchor="start" x="343.12" y="-705.9" font-family="Times,serif" font-size="8.00">+Chair</text>
</a>
</g>
</g>
<!-- proposalManagement:OfferedCycles -->
<g id="node6" class="node">
<title>proposalManagement:OfferedCycles</title>
<g id="a_node6"><a xlink:href="../proposalManagement/OfferedCycles" xlink:title="{OfferedCycles}">
<polygon fill="#8dd3c7" stroke="black" points="254.25,-714.12 254.25,-750.12 316.75,-750.12 316.75,-714.12 254.25,-714.12"/>
<text text-anchor="middle" x="285.5" y="-729.52" font-family="Times,serif" font-size="8.00">OfferedCycles</text>
</a>
</g>
</g>
<!-- proposalManagement:ProposalCycle -->
<g id="node7" class="node">
<title>proposalManagement:ProposalCycle</title>
<g id="a_node7"><a xlink:href="../proposalManagement/ProposalCycle" xlink:title="{ProposalCycle|+title : ivoa:string\l+submissionDeadline : ivoa:datetime\l+observationSessionStart : ivoa:datetime\l+observationSessionEnd : ivoa:datetime\l}">
<polygon fill="#8dd3c7" stroke="black" points="211.88,-586.75 211.88,-651.5 359.12,-651.5 359.12,-586.75 211.88,-586.75"/>
<text text-anchor="middle" x="285.5" y="-639.9" font-family="Times,serif" font-size="8.00">ProposalCycle</text>
<polyline fill="none" stroke="black" points="211.88,-633.75 359.12,-633.75"/>
<text text-anchor="start" x="219.88" y="-622.15" font-family="Times,serif" font-size="8.00">+title : ivoa:string</text>
<text text-anchor="start" x="219.88" y="-612.4" font-family="Times,serif" font-size="8.00">+submissionDeadline : ivoa:datetime</text>
<text text-anchor="start" x="219.88" y="-602.65" font-family="Times,serif" font-size="8.00">+observationSessionStart : ivoa:datetime</text>
<text text-anchor="start" x="219.88" y="-592.9" font-family="Times,serif" font-size="8.00">+observationSessionEnd : ivoa:datetime</text>
</a>
</g>
</g>
<!-- proposalManagement:OfferedCycles&#45;&gt;proposalManagement:ProposalCycle -->
<g id="edge2" class="edge">
<title>proposalManagement:OfferedCycles&#45;&gt;proposalManagement:ProposalCycle</title>
<path fill="none" stroke="blue" d="M285.5,-700.85C285.5,-689.04 285.5,-675.29 285.5,-662.53"/>
<polygon fill="blue" stroke="blue" points="285.5,-700.88 289.5,-706.88 285.5,-712.88 281.5,-706.88 285.5,-700.88"/>
<polygon fill="blue" stroke="blue" points="285.5,-652.85 290,-662.85 285.5,-656.64 285.5,-662.85 285.5,-662.85 285.5,-662.85 285.5,-656.64 281,-662.85 285.5,-652.85"/>
<text text-anchor="middle" x="298.25" y="-671.75" font-family="Times,serif" font-size="10.00">cycles</text>
<text text-anchor="middle" x="278" y="-653.39" font-family="Times,serif" font-size="10.00">1..*</text>
</g>
<!-- proposalManagement:ProposalCycle&#45;&gt;proposal:Observatory -->
<g id="edge14" class="edge">
<title>proposalManagement:ProposalCycle&#45;&gt;proposal:Observatory</title>
<path fill="none" stroke="green" d="M211.67,-611.24C151.69,-604.1 73.56,-590.76 51.5,-568.25 46.56,-563.21 43.92,-556.34 42.58,-549.42"/>
<polygon fill="green" stroke="green" points="41.56,-539.96 47.11,-549.42 41.97,-543.72 42.64,-549.9 42.64,-549.9 42.64,-549.9 41.97,-543.72 38.16,-550.39 41.56,-539.96"/>
<text text-anchor="middle" x="75.5" y="-558.75" font-family="Times,serif" font-size="10.00">observatory</text>
<text text-anchor="middle" x="38.8" y="-540.5" font-family="Times,serif" font-size="10.00">1</text>
</g>
<!-- proposalManagement:ProposalCycle&#45;&gt;proposal:ObservingMode -->
<g id="edge3" class="edge">
<title>proposalManagement:ProposalCycle&#45;&gt;proposal:ObservingMode</title>
<path fill="none" stroke="blue" d="M199.19,-602.6C156.3,-589.38 113.5,-565.24 113.5,-521.5 113.5,-521.5 113.5,-521.5 113.5,-266.12 113.5,-241.93 122.18,-215.8 130.21,-196.82"/>
<polygon fill="blue" stroke="blue" points="199.15,-602.59 206.02,-600.38 210.69,-605.88 203.82,-608.08 199.15,-602.59"/>
<polygon fill="blue" stroke="blue" points="134.17,-187.92 134.21,-198.89 132.63,-191.38 130.1,-197.06 130.1,-197.06 130.1,-197.06 132.63,-191.38 125.99,-195.23 134.17,-187.92"/>
<text text-anchor="middle" x="147.62" y="-397.12" font-family="Times,serif" font-size="10.00">observingModes</text>
<text text-anchor="middle" x="127.16" y="-188.56" font-family="Times,serif" font-size="10.00">1..*</text>
</g>
<!-- proposalManagement:TAC -->
<g id="node10" class="node">
<title>proposalManagement:TAC</title>
<g id="a_node10"><a xlink:href="../proposalManagement/TAC" xlink:title="{TAC}">
<polygon fill="#8dd3c7" stroke="black" points="605.5,-502.5 605.5,-538.5 659.5,-538.5 659.5,-502.5 605.5,-502.5"/>
<text text-anchor="middle" x="632.5" y="-517.9" font-family="Times,serif" font-size="8.00">TAC</text>
</a>
</g>
</g>
<!-- proposalManagement:ProposalCycle&#45;&gt;proposalManagement:TAC -->
<g id="edge6" class="edge">
<title>proposalManagement:ProposalCycle&#45;&gt;proposalManagement:TAC</title>
<path fill="none" stroke="blue" d="M372.17,-601.02C412.68,-592.36 461.38,-580.98 504.5,-568.25 535.47,-559.11 569.81,-546.42 595.11,-536.57"/>
<polygon fill="blue" stroke="blue" points="372.22,-601.01 367.18,-606.17 360.48,-603.49 365.52,-598.34 372.22,-601.01"/>
<polygon fill="blue" stroke="blue" points="604.23,-532.99 596.57,-540.83 600.71,-534.37 594.93,-536.65 594.93,-536.65 594.93,-536.65 600.71,-534.37 593.28,-532.46 604.23,-532.99"/>
<text text-anchor="middle" x="542.5" y="-558.75" font-family="Times,serif" font-size="10.00">tac</text>
<text text-anchor="middle" x="602.74" y="-534.29" font-family="Times,serif" font-size="10.00">1</text>
</g>
<!-- proposalManagement:SubmittedProposal -->
<g id="node11" class="node">
<title>proposalManagement:SubmittedProposal</title>
<g id="a_node11"><a xlink:href="../proposalManagement/SubmittedProposal" xlink:title="{SubmittedProposal|+submissionDate : ivoa:datetime\l+successful : ivoa:boolean\l+reviewsCompleteDate : ivoa:datetime\l}">
<polygon fill="#8dd3c7" stroke="black" points="419.12,-373.5 419.12,-428.5 561.88,-428.5 561.88,-373.5 419.12,-373.5"/>
<text text-anchor="middle" x="490.5" y="-416.9" font-family="Times,serif" font-size="8.00">SubmittedProposal</text>
<polyline fill="none" stroke="black" points="419.12,-410.75 561.88,-410.75"/>
<text text-anchor="start" x="427.12" y="-399.15" font-family="Times,serif" font-size="8.00">+submissionDate : ivoa:datetime</text>
<text text-anchor="start" x="427.12" y="-389.4" font-family="Times,serif" font-size="8.00">+successful : ivoa:boolean</text>
<text text-anchor="start" x="427.12" y="-379.65" font-family="Times,serif" font-size="8.00">+reviewsCompleteDate : ivoa:datetime</text>
</a>
</g>
</g>
<!-- proposalManagement:ProposalCycle&#45;&gt;proposalManagement:SubmittedProposal -->
<g id="edge7" class="edge">
<title>proposalManagement:ProposalCycle&#45;&gt;proposalManagement:SubmittedProposal</title>
<path fill="none" stroke="blue" d="M371.44,-594.7C388.05,-587.82 404.58,-579.12 418.5,-568.25 454.32,-540.26 459.38,-526.11 476.5,-484 482.16,-470.06 485.54,-453.89 487.54,-439.62"/>
<polygon fill="blue" stroke="blue" points="371.4,-594.72 367.26,-600.62 360.21,-599.07 364.35,-593.17 371.4,-594.72"/>
<polygon fill="blue" stroke="blue" points="488.73,-429.86 491.99,-440.33 488.28,-433.61 487.52,-439.78 487.52,-439.78 487.52,-439.78 488.28,-433.61 483.06,-439.24 488.73,-429.86"/>
<text text-anchor="middle" x="508.25" y="-516.62" font-family="Times,serif" font-size="10.00">submittedProposals</text>
<text text-anchor="middle" x="481.38" y="-430.4" font-family="Times,serif" font-size="10.00">0..*</text>
</g>
<!-- proposalManagement:AllocatedProposal -->
<g id="node12" class="node">
<title>proposalManagement:AllocatedProposal</title>
<g id="a_node12"><a xlink:href="../proposalManagement/AllocatedProposal" xlink:title="{AllocatedProposal}">
<polygon fill="#8dd3c7" stroke="black" points="332.88,-502.5 332.88,-538.5 408.12,-538.5 408.12,-502.5 332.88,-502.5"/>
<text text-anchor="middle" x="370.5" y="-517.9" font-family="Times,serif" font-size="8.00">AllocatedProposal</text>
</a>
</g>
</g>
<!-- proposalManagement:ProposalCycle&#45;&gt;proposalManagement:AllocatedProposal -->
<g id="edge8" class="edge">
<title>proposalManagement:ProposalCycle&#45;&gt;proposalManagement:AllocatedProposal</title>
<path fill="none" stroke="blue" d="M321.72,-576.95C330.63,-566.82 339.92,-556.26 347.97,-547.11"/>
<polygon fill="blue" stroke="blue" points="321.85,-576.8 320.89,-583.95 313.93,-585.81 314.89,-578.66 321.85,-576.8"/>
<polygon fill="blue" stroke="blue" points="354.45,-539.75 351.22,-550.23 351.95,-542.58 347.84,-547.25 347.84,-547.25 347.84,-547.25 351.95,-542.58 344.47,-544.28 354.45,-539.75"/>
<text text-anchor="middle" x="375.75" y="-558.75" font-family="Times,serif" font-size="10.00">allocatedProposals</text>
<text text-anchor="middle" x="347.75" y="-540.58" font-family="Times,serif" font-size="10.00">0..*</text>
</g>
<!-- proposalManagement:AvailableResources -->
<g id="node16" class="node">
<title>proposalManagement:AvailableResources</title>
<g id="a_node16"><a xlink:href="../proposalManagement/AvailableResources" xlink:title="{AvailableResources}">
<polygon fill="#8dd3c7" stroke="black" points="160.62,-447.5 160.62,-483.5 240.38,-483.5 240.38,-447.5 160.62,-447.5"/>
<text text-anchor="middle" x="200.5" y="-462.9" font-family="Times,serif" font-size="8.00">AvailableResources</text>
</a>
</g>
</g>
<!-- proposalManagement:ProposalCycle&#45;&gt;proposalManagement:AvailableResources -->
<g id="edge4" class="edge">
<title>proposalManagement:ProposalCycle&#45;&gt;proposalManagement:AvailableResources</title>
<path fill="none" stroke="blue" d="M202.04,-580.32C198.51,-576.64 195.37,-572.63 192.75,-568.25 179.44,-545.98 183.9,-515.88 190.15,-494.21"/>
<polygon fill="blue" stroke="blue" points="201.91,-580.2 209.05,-581.22 210.86,-588.2 203.72,-587.18 201.91,-580.2"/>
<polygon fill="blue" stroke="blue" points="193.12,-484.89 194.37,-495.78 191.97,-488.49 190.08,-494.41 190.08,-494.41 190.08,-494.41 191.97,-488.49 185.79,-493.04 193.12,-484.89"/>
<text text-anchor="middle" x="232.88" y="-558.75" font-family="Times,serif" font-size="10.00">availableResources</text>
<text text-anchor="middle" x="190.87" y="-485.48" font-family="Times,serif" font-size="10.00">1</text>
</g>
<!-- proposalManagement:AllocationGrade -->
<g id="node17" class="node">
<title>proposalManagement:AllocationGrade</title>
<g id="a_node17"><a xlink:href="../proposalManagement/AllocationGrade" xlink:title="{AllocationGrade|+name : ivoa:string\l+description : ivoa:string\l}">
<polygon fill="#8dd3c7" stroke="black" points="237.38,-244.5 237.38,-289.75 333.62,-289.75 333.62,-244.5 237.38,-244.5"/>
<text text-anchor="middle" x="285.5" y="-278.15" font-family="Times,serif" font-size="8.00">AllocationGrade</text>
<polyline fill="none" stroke="black" points="237.38,-272 333.62,-272"/>
<text text-anchor="start" x="245.38" y="-260.4" font-family="Times,serif" font-size="8.00">+name : ivoa:string</text>
<text text-anchor="start" x="245.38" y="-250.65" font-family="Times,serif" font-size="8.00">+description : ivoa:string</text>
</a>
</g>
</g>
<!-- proposalManagement:ProposalCycle&#45;&gt;proposalManagement:AllocationGrade -->
<g id="edge5" class="edge">
<title>proposalManagement:ProposalCycle&#45;&gt;proposalManagement:AllocationGrade</title>
<path fill="none" stroke="blue" d="M285.5,-573.66C285.5,-502.38 285.5,-364.13 285.5,-301"/>
<polygon fill="blue" stroke="blue" points="285.5,-573.55 289.5,-579.55 285.5,-585.55 281.5,-579.55 285.5,-573.55"/>
<polygon fill="blue" stroke="blue" points="285.5,-291.34 290,-301.34 285.5,-295.12 285.5,-301.34 285.5,-301.34 285.5,-301.34 285.5,-295.12 281,-301.34 285.5,-291.34"/>
<text text-anchor="middle" x="316.62" y="-461.62" font-family="Times,serif" font-size="10.00">possibleGrades</text>
<text text-anchor="middle" x="278" y="-291.87" font-family="Times,serif" font-size="10.00">1..*</text>
</g>
<!-- proposalManagement:Reviewer -->
<g id="node8" class="node">
<title>proposalManagement:Reviewer</title>
<g id="a_node8"><a xlink:href="../proposalManagement/Reviewer" xlink:title="{Reviewer}">
<polygon fill="#8dd3c7" stroke="black" points="671.5,-150.5 671.5,-186.5 725.5,-186.5 725.5,-150.5 671.5,-150.5"/>
<text text-anchor="middle" x="698.25" y="-165.9" font-family="Times,serif" font-size="8.00">Reviewer</text>
</a>
</g>
</g>
<!-- proposalManagement:Reviewer&#45;&gt;proposal:Person -->
<g id="edge15" class="edge">
<title>proposalManagement:Reviewer&#45;&gt;proposal:Person</title>
<path fill="none" stroke="green" d="M698.5,-150.34C698.5,-138.63 698.5,-122.85 698.5,-109.27"/>
<polygon fill="green" stroke="green" points="698.5,-99.27 703,-109.27 698.5,-103.05 698.5,-109.27 698.5,-109.27 698.5,-109.27 698.5,-103.05 694,-109.27 698.5,-99.27"/>
<text text-anchor="middle" x="712" y="-122.5" font-family="Times,serif" font-size="10.00">person</text>
<text text-anchor="middle" x="695.88" y="-99.8" font-family="Times,serif" font-size="10.00">1</text>
</g>
<!-- proposalManagement:CommitteeMember -->
<g id="node9" class="node">
<title>proposalManagement:CommitteeMember</title>
<g id="a_node9"><a xlink:href="../proposalManagement/CommitteeMember" xlink:title="{CommitteeMember|+role : proposalManagement:TacRole\l}">
<polygon fill="#8dd3c7" stroke="black" points="637.12,-318.5 637.12,-354.5 773.88,-354.5 773.88,-318.5 637.12,-318.5"/>
<text text-anchor="middle" x="705.5" y="-342.9" font-family="Times,serif" font-size="8.00">CommitteeMember</text>
<polyline fill="none" stroke="black" points="637.12,-336.75 773.88,-336.75"/>
<text text-anchor="start" x="645.12" y="-325.15" font-family="Times,serif" font-size="8.00">+role : proposalManagement:TacRole</text>
</a>
</g>
</g>
<!-- proposalManagement:CommitteeMember&#45;&gt;proposalManagement:Reviewer -->
<g id="edge16" class="edge">
<title>proposalManagement:CommitteeMember&#45;&gt;proposalManagement:Reviewer</title>
<path fill="none" stroke="green" d="M707.66,-318.09C710.37,-292.98 714.05,-245.18 708.5,-205 708.17,-202.58 707.71,-200.09 707.17,-197.61"/>
<polygon fill="green" stroke="green" points="704.76,-188.17 711.6,-196.75 705.7,-191.84 707.24,-197.86 707.24,-197.86 707.24,-197.86 705.7,-191.84 702.88,-198.98 704.76,-188.17"/>
<text text-anchor="middle" x="726.62" y="-263.25" font-family="Times,serif" font-size="10.00">member</text>
<text text-anchor="middle" x="701.83" y="-188.74" font-family="Times,serif" font-size="10.00">1</text>
</g>
<!-- proposalManagement:TAC&#45;&gt;proposalManagement:CommitteeMember -->
<g id="edge9" class="edge">
<title>proposalManagement:TAC&#45;&gt;proposalManagement:CommitteeMember</title>
<path fill="none" stroke="blue" d="M644.35,-489.96C658.21,-455.39 680.99,-398.6 694.49,-364.95"/>
<polygon fill="blue" stroke="blue" points="644.3,-490.07 645.78,-497.13 639.84,-501.21 638.36,-494.15 644.3,-490.07"/>
<polygon fill="blue" stroke="blue" points="698.07,-356.03 698.52,-366.99 696.66,-359.54 694.35,-365.31 694.35,-365.31 694.35,-365.31 696.66,-359.54 690.17,-363.63 698.07,-356.03"/>
<text text-anchor="middle" x="678.5" y="-461.62" font-family="Times,serif" font-size="10.00">members</text>
<text text-anchor="middle" x="691.02" y="-356.65" font-family="Times,serif" font-size="10.00">1..*</text>
</g>
<!-- proposalManagement:SubmittedProposal&#45;&gt;proposal:ObservingProposal -->
<g id="edge17" class="edge">
<title>proposalManagement:SubmittedProposal&#45;&gt;proposal:ObservingProposal</title>
<path fill="none" stroke="green" d="M489.89,-373.31C489.39,-351.01 488.66,-319.29 488.15,-296.52"/>
<polygon fill="green" stroke="green" points="487.92,-286.74 492.65,-296.64 488.01,-290.53 488.15,-296.74 488.15,-296.74 488.15,-296.74 488.01,-290.53 483.65,-296.84 487.92,-286.74"/>
<text text-anchor="middle" x="506.12" y="-332.62" font-family="Times,serif" font-size="10.00">proposal</text>
<text text-anchor="middle" x="485.27" y="-287.28" font-family="Times,serif" font-size="10.00">1</text>
</g>
<!-- proposalManagement:ProposalReview -->
<g id="node13" class="node">
<title>proposalManagement:ProposalReview</title>
<g id="a_node13"><a xlink:href="../proposalManagement/ProposalReview" xlink:title="{ProposalReview|+comment : ivoa:string\l+score : ivoa:real\l+technicalFeasibility : ivoa:boolean\l+reviewDate : ivoa:datetime\l}">
<polygon fill="#8dd3c7" stroke="black" points="558.12,-234.75 558.12,-299.5 688.88,-299.5 688.88,-234.75 558.12,-234.75"/>
<text text-anchor="middle" x="623.5" y="-287.9" font-family="Times,serif" font-size="8.00">ProposalReview</text>
<polyline fill="none" stroke="black" points="558.12,-281.75 688.88,-281.75"/>
<text text-anchor="start" x="566.12" y="-270.15" font-family="Times,serif" font-size="8.00">+comment : ivoa:string</text>
<text text-anchor="start" x="566.12" y="-260.4" font-family="Times,serif" font-size="8.00">+score : ivoa:real</text>
<text text-anchor="start" x="566.12" y="-250.65" font-family="Times,serif" font-size="8.00">+technicalFeasibility : ivoa:boolean</text>
<text text-anchor="start" x="566.12" y="-240.9" font-family="Times,serif" font-size="8.00">+reviewDate : ivoa:datetime</text>
</a>
</g>
</g>
<!-- proposalManagement:SubmittedProposal&#45;&gt;proposalManagement:ProposalReview -->
<g id="edge10" class="edge">
<title>proposalManagement:SubmittedProposal&#45;&gt;proposalManagement:ProposalReview</title>
<path fill="none" stroke="blue" d="M526.64,-364.17C544.36,-346.6 565.74,-325.4 583.9,-307.39"/>
<polygon fill="blue" stroke="blue" points="526.58,-364.23 525.13,-371.29 518.05,-372.68 519.5,-365.61 526.58,-364.23"/>
<polygon fill="blue" stroke="blue" points="590.6,-300.74 586.67,-310.98 587.92,-303.41 583.5,-307.78 583.5,-307.78 583.5,-307.78 587.92,-303.41 580.33,-304.59 590.6,-300.74"/>
<text text-anchor="middle" x="588.25" y="-332.62" font-family="Times,serif" font-size="10.00">reviews</text>
<text text-anchor="middle" x="583.97" y="-301.64" font-family="Times,serif" font-size="10.00">1..*</text>
</g>
<!-- proposalManagement:AllocatedProposal&#45;&gt;proposalManagement:SubmittedProposal -->
<g id="edge18" class="edge">
<title>proposalManagement:AllocatedProposal&#45;&gt;proposalManagement:SubmittedProposal</title>
<path fill="none" stroke="green" d="M393.45,-502.24C399.98,-496.78 406.85,-490.47 412.5,-484 425.31,-469.32 423.11,-461.6 436,-447 439.24,-443.33 442.79,-439.71 446.48,-436.22"/>
<polygon fill="green" stroke="green" points="453.81,-429.61 449.4,-439.65 451,-432.14 446.38,-436.31 446.38,-436.31 446.38,-436.31 451,-432.14 443.37,-432.97 453.81,-429.61"/>
<text text-anchor="middle" x="455.75" y="-461.62" font-family="Times,serif" font-size="10.00">submitted</text>
<text text-anchor="middle" x="452.09" y="-430.54" font-family="Times,serif" font-size="10.00">1</text>
</g>
<!-- proposalManagement:AllocatedBlock -->
<g id="node19" class="node">
<title>proposalManagement:AllocatedBlock</title>
<g id="a_node19"><a xlink:href="../proposalManagement/AllocatedBlock" xlink:title="{AllocatedBlock}">
<polygon fill="#8dd3c7" stroke="black" points="334.38,-383 334.38,-419 400.62,-419 400.62,-383 334.38,-383"/>
<text text-anchor="middle" x="367.5" y="-398.4" font-family="Times,serif" font-size="8.00">AllocatedBlock</text>
</a>
</g>
</g>
<!-- proposalManagement:AllocatedProposal&#45;&gt;proposalManagement:AllocatedBlock -->
<g id="edge11" class="edge">
<title>proposalManagement:AllocatedProposal&#45;&gt;proposalManagement:AllocatedBlock</title>
<path fill="none" stroke="blue" d="M369.72,-489.13C369.26,-471.05 368.68,-448.24 368.23,-430.5"/>
<polygon fill="blue" stroke="blue" points="369.73,-489.27 373.88,-495.16 370.03,-501.26 365.88,-495.37 369.73,-489.27"/>
<polygon fill="blue" stroke="blue" points="367.98,-420.63 372.73,-430.51 368.07,-424.41 368.23,-430.62 368.23,-430.62 368.23,-430.62 368.07,-424.41 363.73,-430.74 367.98,-420.63"/>
<text text-anchor="middle" x="390.12" y="-461.62" font-family="Times,serif" font-size="10.00">allocation</text>
<text text-anchor="middle" x="360.44" y="-421.16" font-family="Times,serif" font-size="10.00">1..*</text>
</g>
<!-- proposalManagement:ProposalReview&#45;&gt;proposalManagement:Reviewer -->
<g id="edge19" class="edge">
<title>proposalManagement:ProposalReview&#45;&gt;proposalManagement:Reviewer</title>
<path fill="none" stroke="green" d="M648.06,-234.49C657.86,-221.85 669.01,-207.49 678.33,-195.48"/>
<polygon fill="green" stroke="green" points="684.3,-187.79 681.72,-198.45 681.98,-190.78 678.17,-195.69 678.17,-195.69 678.17,-195.69 681.98,-190.78 674.61,-192.93 684.3,-187.79"/>
<text text-anchor="middle" x="687.12" y="-206.75" font-family="Times,serif" font-size="10.00">reviewer</text>
<text text-anchor="middle" x="682.42" y="-188.58" font-family="Times,serif" font-size="10.00">1</text>
</g>
<!-- proposalManagement:ResourceType -->
<g id="node14" class="node">
<title>proposalManagement:ResourceType</title>
<g id="a_node14"><a xlink:href="../proposalManagement/ResourceType" xlink:title="{ResourceType|+name : ivoa:string\l+unit : ivoa:string\l}">
<polygon fill="#8dd3c7" stroke="black" points="268.38,-57 268.38,-102.25 346.62,-102.25 346.62,-57 268.38,-57"/>
<text text-anchor="middle" x="307.5" y="-90.65" font-family="Times,serif" font-size="8.00">ResourceType</text>
<polyline fill="none" stroke="black" points="268.38,-84.5 346.62,-84.5"/>
<text text-anchor="start" x="276.38" y="-72.9" font-family="Times,serif" font-size="8.00">+name : ivoa:string</text>
<text text-anchor="start" x="276.38" y="-63.15" font-family="Times,serif" font-size="8.00">+unit : ivoa:string</text>
</a>
</g>
</g>
<!-- proposalManagement:Resource -->
<g id="node15" class="node">
<title>proposalManagement:Resource</title>
<g id="a_node15"><a xlink:href="../proposalManagement/Resource" xlink:title="{Resource|+amount : ivoa:real\l}">
<polygon fill="#8dd3c7" stroke="black" points="268,-150.5 268,-186.5 347,-186.5 347,-150.5 268,-150.5"/>
<text text-anchor="middle" x="307.5" y="-174.9" font-family="Times,serif" font-size="8.00">Resource</text>
<polyline fill="none" stroke="black" points="268,-168.75 347,-168.75"/>
<text text-anchor="start" x="276" y="-157.15" font-family="Times,serif" font-size="8.00">+amount : ivoa:real</text>
</a>
</g>
</g>
<!-- proposalManagement:Resource&#45;&gt;proposalManagement:ResourceType -->
<g id="edge20" class="edge">
<title>proposalManagement:Resource&#45;&gt;proposalManagement:ResourceType</title>
<path fill="none" stroke="green" d="M307.5,-150.34C307.5,-139.89 307.5,-126.19 307.5,-113.7"/>
<polygon fill="green" stroke="green" points="307.5,-103.92 312,-113.92 307.5,-107.71 307.5,-113.92 307.5,-113.92 307.5,-113.92 307.5,-107.71 303,-113.92 307.5,-103.92"/>
<text text-anchor="middle" x="316.5" y="-122.5" font-family="Times,serif" font-size="10.00">type</text>
<text text-anchor="middle" x="304.88" y="-104.46" font-family="Times,serif" font-size="10.00">1</text>
</g>
<!-- proposalManagement:AvailableResources&#45;&gt;proposalManagement:Resource -->
<g id="edge12" class="edge">
<title>proposalManagement:AvailableResources&#45;&gt;proposalManagement:Resource</title>
<path fill="none" stroke="blue" d="M197.33,-434.12C193.94,-387.91 193.17,-298.53 228.5,-234.25 237.56,-217.78 252.66,-203.84 267.24,-193.17"/>
<polygon fill="blue" stroke="blue" points="197.33,-434.15 201.82,-439.79 198.35,-446.11 193.85,-440.47 197.33,-434.15"/>
<polygon fill="blue" stroke="blue" points="275.2,-187.65 269.55,-197.05 272.09,-189.81 266.98,-193.35 266.98,-193.35 266.98,-193.35 272.09,-189.81 264.42,-189.66 275.2,-187.65"/>
<text text-anchor="middle" x="220.25" y="-332.62" font-family="Times,serif" font-size="10.00">resources</text>
<text text-anchor="middle" x="268.7" y="-188.71" font-family="Times,serif" font-size="10.00">0..*</text>
</g>
<!-- proposalManagement:ResourceBlock -->
<g id="node18" class="node">
<title>proposalManagement:ResourceBlock</title>
<g id="a_node18"><a xlink:href="../proposalManagement/ResourceBlock" xlink:title="{ResourceBlock}">
<polygon fill="#8dd3c7" stroke="black" points="352.12,-249.12 352.12,-285.12 416.88,-285.12 416.88,-249.12 352.12,-249.12"/>
<text text-anchor="middle" x="384.5" y="-264.52" font-family="Times,serif" font-size="8.00">ResourceBlock</text>
</a>
</g>
</g>
<!-- proposalManagement:ResourceBlock&#45;&gt;proposal:ObservingMode -->
<g id="edge21" class="edge">
<title>proposalManagement:ResourceBlock&#45;&gt;proposal:ObservingMode</title>
<path fill="none" stroke="green" d="M364.49,-248.78C357.81,-243.59 350.12,-238.24 342.5,-234.25 297.97,-210.96 243.47,-193.94 202.76,-183.2"/>
<polygon fill="green" stroke="green" points="193.12,-180.72 203.92,-178.86 196.78,-181.66 202.8,-183.21 202.8,-183.21 202.8,-183.21 196.78,-181.66 201.67,-187.57 193.12,-180.72"/>
<text text-anchor="middle" x="311.75" y="-206.75" font-family="Times,serif" font-size="10.00">mode</text>
<text text-anchor="middle" x="194.56" y="-182.16" font-family="Times,serif" font-size="10.00">1</text>
</g>
<!-- proposalManagement:ResourceBlock&#45;&gt;proposalManagement:Resource -->
<g id="edge13" class="edge">
<title>proposalManagement:ResourceBlock&#45;&gt;proposalManagement:Resource</title>
<path fill="none" stroke="blue" d="M362.96,-239.1C352.05,-225.41 338.87,-208.86 328.09,-195.34"/>
<polygon fill="blue" stroke="blue" points="362.69,-238.76 369.56,-240.96 370.17,-248.15 363.3,-245.95 362.69,-238.76"/>
<polygon fill="blue" stroke="blue" points="322.17,-187.9 331.92,-192.92 324.52,-190.86 328.4,-195.72 328.4,-195.72 328.4,-195.72 324.52,-190.86 324.88,-198.53 322.17,-187.9"/>
<text text-anchor="middle" x="360.38" y="-206.75" font-family="Times,serif" font-size="10.00">resource</text>
<text text-anchor="middle" x="318.78" y="-188.7" font-family="Times,serif" font-size="10.00">1</text>
</g>
<!-- proposalManagement:AllocatedBlock&#45;&gt;proposalManagement:AllocationGrade -->
<g id="edge22" class="edge">
<title>proposalManagement:AllocatedBlock&#45;&gt;proposalManagement:AllocationGrade</title>
<path fill="none" stroke="green" d="M356.78,-382.76C343.69,-361.71 321.3,-325.7 305.1,-299.65"/>
<polygon fill="green" stroke="green" points="299.87,-291.24 308.98,-297.36 301.87,-294.45 305.15,-299.73 305.15,-299.73 305.15,-299.73 301.87,-294.45 301.33,-302.11 299.87,-291.24"/>
<text text-anchor="middle" x="349.75" y="-332.62" font-family="Times,serif" font-size="10.00">grade</text>
<text text-anchor="middle" x="296.61" y="-291.96" font-family="Times,serif" font-size="10.00">1</text>
</g>
<!-- proposalManagement:AllocatedBlock&#45;&gt;proposalManagement:ResourceBlock -->
<g id="edge1" class="edge">
<title>proposalManagement:AllocatedBlock&#45;&gt;proposalManagement:ResourceBlock</title>
<path fill="none" stroke="red" d="M369.72,-382.76C372.55,-360.84 377.46,-322.71 380.84,-296.48"/>
<polygon fill="none" stroke="red" points="384.28,-297.24 382.08,-286.87 377.33,-296.34 384.28,-297.24"/>
</g>
</g>
</svg>
