<?xml version="1.0" encoding="UTF-8" standalone="no"?>
<!DOCTYPE svg PUBLIC "-//W3C//DTD SVG 1.1//EN"
 "http://www.w3.org/Graphics/SVG/1.1/DTD/svg11.dtd">
<!-- Generated by graphviz version 12.1.1 (20240910.0053)
 -->
<!-- Title: GVmap Pages: 1 -->
<svg width="1148pt" height="718pt"
 viewBox="0.00 0.00 1147.56 718.00" xmlns="http://www.w3.org/2000/svg" xmlns:xlink="http://www.w3.org/1999/xlink">
<g id="graph0" class="graph" transform="scale(1 1) rotate(0) translate(4 714)">
<title>GVmap</title>
<polygon fill="white" stroke="none" points="-4,4 -4,-714 1143.56,-714 1143.56,4 -4,4"/>
<text text-anchor="middle" x="569.78" y="-7.2" font-family="Times,serif" font-size="14.00">proposalManagement data model</text>
<!-- proposal:Organization -->
<g id="node1" class="node">
<title>proposal:Organization</title>
<g id="a_node1"><a xlink:href="#Organization" xlink:title="{proposal:Organization}">
<polygon fill="grey" stroke="black" points="232.44,-431.25 232.44,-467.25 318.94,-467.25 318.94,-431.25 232.44,-431.25"/>
<text text-anchor="middle" x="275.69" y="-446.65" font-family="Times,serif" font-size="8.00">proposal:Organization</text>
</a>
</g>
</g>
<!-- proposal:Person -->
<g id="node2" class="node">
<title>proposal:Person</title>
<g id="a_node2"><a xlink:href="#Person" xlink:title="{proposal:Person}">
<polygon fill="grey" stroke="black" points="742.19,-76.25 742.19,-112.25 809.19,-112.25 809.19,-76.25 742.19,-76.25"/>
<text text-anchor="middle" x="775.69" y="-91.65" font-family="Times,serif" font-size="8.00">proposal:Person</text>
</a>
</g>
</g>
<!-- proposal:Observation -->
<g id="node3" class="node">
<title>proposal:Observation</title>
<g id="a_node3"><a xlink:href="#Observation" xlink:title="{proposal:Observation}">
<polygon fill="grey" stroke="black" points="374.56,-189.25 374.56,-225.25 458.81,-225.25 458.81,-189.25 374.56,-189.25"/>
<text text-anchor="middle" x="416.69" y="-204.65" font-family="Times,serif" font-size="8.00">proposal:Observation</text>
</a>
</g>
</g>
<!-- proposal:AbstractProposal -->
<g id="node4" class="node">
<title>proposal:AbstractProposal</title>
<g id="a_node4"><a xlink:href="#AbstractProposal" xlink:title="{proposal:AbstractProposal}">
<polygon fill="grey" stroke="black" points="558.31,-297.38 558.31,-333.38 659.06,-333.38 659.06,-297.38 558.31,-297.38"/>
<text text-anchor="middle" x="608.69" y="-312.77" font-family="Times,serif" font-size="8.00">proposal:AbstractProposal</text>
</a>
</g>
</g>
<!-- proposalManagement:InstrumentKind -->
<g id="node5" class="node">
<title>proposalManagement:InstrumentKind</title>
<g id="a_node5"><a xlink:href="../proposalManagement/InstrumentKind" xlink:title="{&amp;lt;&amp;lt;enumeration&amp;gt;&amp;gt;\nInstrumentKind|+continuum\l+spectroscopic\l}">
<polygon fill="#8dd3c7" stroke="black" points="928.81,-644.75 928.81,-699.75 1002.56,-699.75 1002.56,-644.75 928.81,-644.75"/>
<text text-anchor="middle" x="965.69" y="-688.15" font-family="Times,serif" font-size="8.00">&lt;&lt;enumeration&gt;&gt;</text>
<text text-anchor="middle" x="965.69" y="-678.4" font-family="Times,serif" font-size="8.00">InstrumentKind</text>
<polyline fill="none" stroke="black" points="928.81,-672.25 1002.56,-672.25"/>
<text text-anchor="start" x="936.81" y="-660.65" font-family="Times,serif" font-size="8.00">+continuum</text>
<text text-anchor="start" x="936.81" y="-650.9" font-family="Times,serif" font-size="8.00">+spectroscopic</text>
</a>
</g>
</g>
<!-- proposalManagement:TacRole -->
<g id="node6" class="node">
<title>proposalManagement:TacRole</title>
<g id="a_node6"><a xlink:href="../proposalManagement/TacRole" xlink:title="{&amp;lt;&amp;lt;enumeration&amp;gt;&amp;gt;\nTacRole|+TechnicalReviewer\l+ScienceReviewer\l+Chair\l}">
<polygon fill="#8dd3c7" stroke="black" points="1020.31,-639.88 1020.31,-704.62 1103.06,-704.62 1103.06,-639.88 1020.31,-639.88"/>
<text text-anchor="middle" x="1061.69" y="-693.02" font-family="Times,serif" font-size="8.00">&lt;&lt;enumeration&gt;&gt;</text>
<text text-anchor="middle" x="1061.69" y="-683.27" font-family="Times,serif" font-size="8.00">TacRole</text>
<polyline fill="none" stroke="black" points="1020.31,-677.12 1103.06,-677.12"/>
<text text-anchor="start" x="1028.31" y="-665.52" font-family="Times,serif" font-size="8.00">+TechnicalReviewer</text>
<text text-anchor="start" x="1028.31" y="-655.77" font-family="Times,serif" font-size="8.00">+ScienceReviewer</text>
<text text-anchor="start" x="1028.31" y="-646.02" font-family="Times,serif" font-size="8.00">+Chair</text>
</a>
</g>
</g>
<!-- proposalManagement:Observatory -->
<g id="node7" class="node">
<title>proposalManagement:Observatory</title>
<g id="a_node7"><a xlink:href="../proposalManagement/Observatory" xlink:title="{Observatory|+homePage : ivoa:anyURI\l}">
<polygon fill="#8dd3c7" stroke="black" points="189.94,-550.75 189.94,-586.75 291.44,-586.75 291.44,-550.75 189.94,-550.75"/>
<text text-anchor="middle" x="240.69" y="-575.15" font-family="Times,serif" font-size="8.00">Observatory</text>
<polyline fill="none" stroke="black" points="189.94,-569 291.44,-569"/>
<text text-anchor="start" x="197.94" y="-557.4" font-family="Times,serif" font-size="8.00">+homePage : ivoa:anyURI</text>
</a>
</g>
</g>
<!-- proposalManagement:Observatory&#45;&gt;proposal:Organization -->
<g id="edge1" class="edge">
<title>proposalManagement:Observatory&#45;&gt;proposal:Organization</title>
<path fill="none" stroke="red" d="M245.85,-550.41C251.49,-531.49 260.59,-500.92 267.27,-478.52"/>
<polygon fill="none" stroke="red" points="270.57,-479.69 270.07,-469.11 263.86,-477.69 270.57,-479.69"/>
</g>
<!-- proposalManagement:Telescope -->
<g id="node9" class="node">
<title>proposalManagement:Telescope</title>
<g id="a_node9"><a xlink:href="../proposalManagement/Telescope" xlink:title="{Telescope|+name : ivoa:string\l+wikiId : proposal:WikiDataId\l+location : coords:RealCartesianPoint\l}">
<polygon fill="#8dd3c7" stroke="black" points="25.56,-179.75 25.56,-234.75 163.81,-234.75 163.81,-179.75 25.56,-179.75"/>
<text text-anchor="middle" x="94.69" y="-223.15" font-family="Times,serif" font-size="8.00">Telescope</text>
<polyline fill="none" stroke="black" points="25.56,-217 163.81,-217"/>
<text text-anchor="start" x="33.56" y="-205.4" font-family="Times,serif" font-size="8.00">+name : ivoa:string</text>
<text text-anchor="start" x="33.56" y="-195.65" font-family="Times,serif" font-size="8.00">+wikiId : proposal:WikiDataId</text>
<text text-anchor="start" x="33.56" y="-185.9" font-family="Times,serif" font-size="8.00">+location : coords:RealCartesianPoint</text>
</a>
</g>
</g>
<!-- proposalManagement:Observatory&#45;&gt;proposalManagement:Telescope -->
<g id="edge6" class="edge">
<title>proposalManagement:Observatory&#45;&gt;proposalManagement:Telescope</title>
<path fill="none" stroke="blue" d="M199.78,-542.3C196.43,-539.19 193.32,-535.83 190.69,-532.25 154.97,-483.67 162.25,-462 148.69,-403.25 133.54,-337.66 153.03,-315.62 127.69,-253.25 126.49,-250.3 125.06,-247.38 123.47,-244.51"/>
<polygon fill="blue" stroke="blue" points="199.71,-542.24 206.88,-542.94 209,-549.83 201.82,-549.13 199.71,-542.24"/>
<polygon fill="blue" stroke="blue" points="118.24,-236.08 127.34,-242.2 120.23,-239.29 123.51,-244.57 123.51,-244.57 123.51,-244.57 120.23,-239.29 119.69,-246.95 118.24,-236.08"/>
<text text-anchor="middle" x="169.69" y="-380.88" font-family="Times,serif" font-size="10.00">telescopes</text>
<text text-anchor="middle" x="110.09" y="-236.8" font-family="Times,serif" font-size="10.00">1..*</text>
</g>
<!-- proposalManagement:TelescopeArray -->
<g id="node11" class="node">
<title>proposalManagement:TelescopeArray</title>
<g id="a_node11"><a xlink:href="../proposalManagement/TelescopeArray" xlink:title="{TelescopeArray|+name : ivoa:string\l}">
<polygon fill="#8dd3c7" stroke="black" points="27.56,-431.25 27.56,-467.25 105.81,-467.25 105.81,-431.25 27.56,-431.25"/>
<text text-anchor="middle" x="66.69" y="-455.65" font-family="Times,serif" font-size="8.00">TelescopeArray</text>
<polyline fill="none" stroke="black" points="27.56,-449.5 105.81,-449.5"/>
<text text-anchor="start" x="35.56" y="-437.9" font-family="Times,serif" font-size="8.00">+name : ivoa:string</text>
</a>
</g>
</g>
<!-- proposalManagement:Observatory&#45;&gt;proposalManagement:TelescopeArray -->
<g id="edge9" class="edge">
<title>proposalManagement:Observatory&#45;&gt;proposalManagement:TelescopeArray</title>
<path fill="none" stroke="blue" d="M177.05,-561.26C153.9,-556.29 128.76,-547.55 109.69,-532.25 92.56,-518.5 81.46,-496.07 74.84,-478.14"/>
<polygon fill="blue" stroke="blue" points="176.98,-561.24 183.62,-558.43 188.77,-563.48 182.13,-566.29 176.98,-561.24"/>
<polygon fill="blue" stroke="blue" points="71.68,-468.83 79.16,-476.85 72.89,-472.41 74.89,-478.3 74.89,-478.3 74.89,-478.3 72.89,-472.41 70.63,-479.75 71.68,-468.83"/>
<text text-anchor="middle" x="121.69" y="-509.88" font-family="Times,serif" font-size="10.00">arrays</text>
<text text-anchor="middle" x="63.78" y="-469.43" font-family="Times,serif" font-size="10.00">0..*</text>
</g>
<!-- proposalManagement:Instrument -->
<g id="node12" class="node">
<title>proposalManagement:Instrument</title>
<g id="a_node12"><a xlink:href="../proposalManagement/Instrument" xlink:title="{Instrument|+name : ivoa:string\l+description : ivoa:string\l+wikiId : proposal:WikiDataId\l+reference : ivoa:anyURI\l+kind : proposalManagement:InstrumentKind\l}">
<polygon fill="#8dd3c7" stroke="black" points="144.94,-57 144.94,-131.5 306.44,-131.5 306.44,-57 144.94,-57"/>
<text text-anchor="middle" x="225.69" y="-119.9" font-family="Times,serif" font-size="8.00">Instrument</text>
<polyline fill="none" stroke="black" points="144.94,-113.75 306.44,-113.75"/>
<text text-anchor="start" x="152.94" y="-102.15" font-family="Times,serif" font-size="8.00">+name : ivoa:string</text>
<text text-anchor="start" x="152.94" y="-92.4" font-family="Times,serif" font-size="8.00">+description : ivoa:string</text>
<text text-anchor="start" x="152.94" y="-82.65" font-family="Times,serif" font-size="8.00">+wikiId : proposal:WikiDataId</text>
<text text-anchor="start" x="152.94" y="-72.9" font-family="Times,serif" font-size="8.00">+reference : ivoa:anyURI</text>
<text text-anchor="start" x="152.94" y="-63.15" font-family="Times,serif" font-size="8.00">+kind : proposalManagement:InstrumentKind</text>
</a>
</g>
</g>
<!-- proposalManagement:Observatory&#45;&gt;proposalManagement:Instrument -->
<g id="edge7" class="edge">
<title>proposalManagement:Observatory&#45;&gt;proposalManagement:Instrument</title>
<path fill="none" stroke="blue" d="M226.45,-538.55C216.39,-515.22 204.69,-481.39 204.69,-450.25 204.69,-450.25 204.69,-450.25 204.69,-206.25 204.69,-185.17 208.39,-162.22 212.69,-142.69"/>
<polygon fill="blue" stroke="blue" points="226.47,-538.59 232.59,-542.41 231.42,-549.52 225.3,-545.71 226.47,-538.59"/>
<polygon fill="blue" stroke="blue" points="214.91,-133.11 217.03,-143.87 214.06,-136.79 212.65,-142.85 212.65,-142.85 212.65,-142.85 214.06,-136.79 208.27,-141.83 214.91,-133.11"/>
<text text-anchor="middle" x="228.31" y="-311.5" font-family="Times,serif" font-size="10.00">instruments</text>
<text text-anchor="middle" x="207.69" y="-133.67" font-family="Times,serif" font-size="10.00">1..*</text>
</g>
<!-- proposalManagement:Backend -->
<g id="node14" class="node">
<title>proposalManagement:Backend</title>
<g id="a_node14"><a xlink:href="../proposalManagement/Backend" xlink:title="{Backend|+name : ivoa:string\l+parallel : ivoa:boolean\l}">
<polygon fill="#8dd3c7" stroke="black" points="324.44,-71.62 324.44,-116.88 416.94,-116.88 416.94,-71.62 324.44,-71.62"/>
<text text-anchor="middle" x="370.69" y="-105.28" font-family="Times,serif" font-size="8.00">Backend</text>
<polyline fill="none" stroke="black" points="324.44,-99.12 416.94,-99.12"/>
<text text-anchor="start" x="332.44" y="-87.53" font-family="Times,serif" font-size="8.00">+name : ivoa:string</text>
<text text-anchor="start" x="332.44" y="-77.78" font-family="Times,serif" font-size="8.00">+parallel : ivoa:boolean</text>
</a>
</g>
</g>
<!-- proposalManagement:Observatory&#45;&gt;proposalManagement:Backend -->
<g id="edge8" class="edge">
<title>proposalManagement:Observatory&#45;&gt;proposalManagement:Backend</title>
<path fill="none" stroke="blue" d="M282.81,-543.37C312.39,-522.77 346.69,-490.26 346.69,-450.25 346.69,-450.25 346.69,-450.25 346.69,-206.25 346.69,-179.39 353.49,-149.68 359.85,-127.76"/>
<polygon fill="blue" stroke="blue" points="282.95,-543.27 280.17,-549.92 272.95,-549.91 275.74,-543.26 282.95,-543.27"/>
<polygon fill="blue" stroke="blue" points="362.74,-118.23 364.14,-129.1 361.64,-121.85 359.83,-127.8 359.83,-127.8 359.83,-127.8 361.64,-121.85 355.53,-126.49 362.74,-118.23"/>
<text text-anchor="middle" x="365.81" y="-311.5" font-family="Times,serif" font-size="10.00">backends</text>
<text text-anchor="middle" x="355.59" y="-118.81" font-family="Times,serif" font-size="10.00">1..*</text>
</g>
<!-- proposalManagement:ObservingPlatform -->
<g id="node8" class="node">
<title>proposalManagement:ObservingPlatform</title>
<g id="a_node8"><a xlink:href="../proposalManagement/ObservingPlatform" xlink:title="{ObservingPlatform}">
<polygon fill="#8dd3c7" stroke="black" points="48.94,-76.25 48.94,-112.25 126.44,-112.25 126.44,-76.25 48.94,-76.25"/>
<text text-anchor="middle" x="87.69" y="-91.65" font-family="Times,serif" font-size="8.00">ObservingPlatform</text>
</a>
</g>
</g>
<!-- proposalManagement:Telescope&#45;&gt;proposalManagement:ObservingPlatform -->
<g id="edge2" class="edge">
<title>proposalManagement:Telescope&#45;&gt;proposalManagement:ObservingPlatform</title>
<path fill="none" stroke="red" d="M92.99,-179.38C91.93,-162.49 90.56,-140.73 89.47,-123.57"/>
<polygon fill="none" stroke="red" points="93,-123.81 88.87,-114.05 86.01,-124.25 93,-123.81"/>
</g>
<!-- proposalManagement:TelescopeArrayMember -->
<g id="node10" class="node">
<title>proposalManagement:TelescopeArrayMember</title>
<g id="a_node10"><a xlink:href="../proposalManagement/TelescopeArrayMember" xlink:title="{TelescopeArrayMember}">
<polygon fill="#8dd3c7" stroke="black" points="25.69,-297.38 25.69,-333.38 119.69,-333.38 119.69,-297.38 25.69,-297.38"/>
<text text-anchor="middle" x="72.69" y="-312.77" font-family="Times,serif" font-size="8.00">TelescopeArrayMember</text>
</a>
</g>
</g>
<!-- proposalManagement:TelescopeArrayMember&#45;&gt;proposalManagement:Telescope -->
<g id="edge24" class="edge">
<title>proposalManagement:TelescopeArrayMember&#45;&gt;proposalManagement:Telescope</title>
<path fill="none" stroke="green" d="M76.22,-297.32C79.1,-283.45 83.27,-263.35 86.91,-245.75"/>
<polygon fill="green" stroke="green" points="88.85,-236.39 91.23,-247.1 88.09,-240.1 86.82,-246.18 86.82,-246.18 86.82,-246.18 88.09,-240.1 82.42,-245.27 88.85,-236.39"/>
<text text-anchor="middle" x="104.13" y="-255" font-family="Times,serif" font-size="10.00">telescope</text>
<text text-anchor="middle" x="86.48" y="-236.95" font-family="Times,serif" font-size="10.00">1</text>
</g>
<!-- proposalManagement:TelescopeArray&#45;&gt;proposalManagement:ObservingPlatform -->
<g id="edge3" class="edge">
<title>proposalManagement:TelescopeArray&#45;&gt;proposalManagement:ObservingPlatform</title>
<path fill="none" stroke="red" d="M54.79,-430.79C42.46,-411.56 24,-379.23 16.69,-348.25 -0.57,-275.15 -9.13,-249.79 16.69,-179.25 24.99,-156.56 42.44,-135.77 57.96,-120.55"/>
<polygon fill="none" stroke="red" points="60.33,-123.13 65.21,-113.73 55.53,-118.03 60.33,-123.13"/>
</g>
<!-- proposalManagement:TelescopeArray&#45;&gt;proposalManagement:TelescopeArrayMember -->
<g id="edge10" class="edge">
<title>proposalManagement:TelescopeArray&#45;&gt;proposalManagement:TelescopeArrayMember</title>
<path fill="none" stroke="blue" d="M66.57,-417.93C66.66,-402.46 66.99,-383.34 67.94,-366.25 68.33,-359.15 68.95,-351.51 69.62,-344.38"/>
<polygon fill="blue" stroke="blue" points="66.57,-418.06 70.56,-424.06 66.55,-430.06 62.56,-424.05 66.57,-418.06"/>
<polygon fill="blue" stroke="blue" points="70.6,-334.64 74.08,-345.04 70.22,-338.41 69.6,-344.59 69.6,-344.59 69.6,-344.59 70.22,-338.41 65.13,-344.14 70.6,-334.64"/>
<text text-anchor="middle" x="96.81" y="-380.88" font-family="Times,serif" font-size="10.00">arrayMembers</text>
<text text-anchor="middle" x="63.22" y="-335.18" font-family="Times,serif" font-size="10.00">1..*</text>
</g>
<!-- proposalManagement:Filter -->
<g id="node13" class="node">
<title>proposalManagement:Filter</title>
<g id="a_node13"><a xlink:href="../proposalManagement/Filter" xlink:title="{Filter|+name : ivoa:string\l+description : ivoa:string\l+frequencyCoverage : proposal:SpectralWindowSetup\l}">
<polygon fill="#8dd3c7" stroke="black" points="434.94,-66.75 434.94,-121.75 626.44,-121.75 626.44,-66.75 434.94,-66.75"/>
<text text-anchor="middle" x="530.69" y="-110.15" font-family="Times,serif" font-size="8.00">Filter</text>
<polyline fill="none" stroke="black" points="434.94,-104 626.44,-104"/>
<text text-anchor="start" x="442.94" y="-92.4" font-family="Times,serif" font-size="8.00">+name : ivoa:string</text>
<text text-anchor="start" x="442.94" y="-82.65" font-family="Times,serif" font-size="8.00">+description : ivoa:string</text>
<text text-anchor="start" x="442.94" y="-72.9" font-family="Times,serif" font-size="8.00">+frequencyCoverage : proposal:SpectralWindowSetup</text>
</a>
</g>
</g>
<!-- proposalManagement:ObservingMode -->
<g id="node15" class="node">
<title>proposalManagement:ObservingMode</title>
<g id="a_node15"><a xlink:href="../proposalManagement/ObservingMode" xlink:title="{ObservingMode|+name : ivoa:string\l+description : ivoa:string\l}">
<polygon fill="#8dd3c7" stroke="black" points="476.56,-184.62 476.56,-229.88 572.81,-229.88 572.81,-184.62 476.56,-184.62"/>
<text text-anchor="middle" x="524.69" y="-218.28" font-family="Times,serif" font-size="8.00">ObservingMode</text>
<polyline fill="none" stroke="black" points="476.56,-212.12 572.81,-212.12"/>
<text text-anchor="start" x="484.56" y="-200.53" font-family="Times,serif" font-size="8.00">+name : ivoa:string</text>
<text text-anchor="start" x="484.56" y="-190.78" font-family="Times,serif" font-size="8.00">+description : ivoa:string</text>
</a>
</g>
</g>
<!-- proposalManagement:ObservingMode&#45;&gt;proposalManagement:ObservingPlatform -->
<g id="edge25" class="edge">
<title>proposalManagement:ObservingMode&#45;&gt;proposalManagement:ObservingPlatform</title>
<path fill="none" stroke="green" d="M481.68,-184.14C477.03,-182.28 472.31,-180.6 467.69,-179.25 324.6,-137.53 272.76,-190.53 135.69,-132 128.26,-128.83 120.95,-124.24 114.37,-119.37"/>
<polygon fill="green" stroke="green" points="106.86,-113.43 117.49,-116.1 109.82,-115.77 114.7,-119.63 114.7,-119.63 114.7,-119.63 109.82,-115.77 111.91,-123.16 106.86,-113.43"/>
<text text-anchor="middle" x="272" y="-151.75" font-family="Times,serif" font-size="10.00">telescope</text>
<text text-anchor="middle" x="103.28" y="-114.42" font-family="Times,serif" font-size="10.00">1</text>
</g>
<!-- proposalManagement:ObservingMode&#45;&gt;proposalManagement:Instrument -->
<g id="edge26" class="edge">
<title>proposalManagement:ObservingMode&#45;&gt;proposalManagement:Instrument</title>
<path fill="none" stroke="green" d="M480.21,-184.24C476.02,-182.45 471.8,-180.76 467.69,-179.25 438.54,-168.56 429.88,-170.33 400.19,-161.25 365.15,-150.53 354.51,-146.63 316.77,-132.37"/>
<polygon fill="green" stroke="green" points="307.7,-128.95 318.64,-128.27 311.24,-130.28 317.05,-132.48 317.05,-132.48 317.05,-132.48 311.24,-130.28 315.46,-136.69 307.7,-128.95"/>
<text text-anchor="middle" x="421.94" y="-151.75" font-family="Times,serif" font-size="10.00">instrument</text>
<text text-anchor="middle" x="309.18" y="-130.26" font-family="Times,serif" font-size="10.00">1</text>
</g>
<!-- proposalManagement:ObservingMode&#45;&gt;proposalManagement:Filter -->
<g id="edge11" class="edge">
<title>proposalManagement:ObservingMode&#45;&gt;proposalManagement:Filter</title>
<path fill="none" stroke="blue" d="M526.55,-171.71C527.21,-159.5 527.96,-145.71 528.63,-133.24"/>
<polygon fill="blue" stroke="blue" points="526.57,-171.44 530.24,-177.64 525.92,-183.42 522.25,-177.21 526.57,-171.44"/>
<polygon fill="blue" stroke="blue" points="529.16,-123.45 533.12,-133.68 528.96,-127.23 528.62,-133.44 528.62,-133.44 528.62,-133.44 528.96,-127.23 524.13,-133.2 529.16,-123.45"/>
<text text-anchor="middle" x="537.44" y="-151.75" font-family="Times,serif" font-size="10.00">filter</text>
<text text-anchor="middle" x="526.6" y="-123.99" font-family="Times,serif" font-size="10.00">1</text>
</g>
<!-- proposalManagement:ObservingMode&#45;&gt;proposalManagement:Backend -->
<g id="edge27" class="edge">
<title>proposalManagement:ObservingMode&#45;&gt;proposalManagement:Backend</title>
<path fill="none" stroke="green" d="M494.26,-184.32C470.19,-166.97 436.39,-142.61 410.22,-123.75"/>
<polygon fill="green" stroke="green" points="402.3,-118.04 413.04,-120.23 405.37,-120.25 410.41,-123.88 410.41,-123.88 410.41,-123.88 405.37,-120.25 407.78,-127.53 402.3,-118.04"/>
<text text-anchor="middle" x="478.73" y="-151.75" font-family="Times,serif" font-size="10.00">backend</text>
<text text-anchor="middle" x="398.69" y="-119.07" font-family="Times,serif" font-size="10.00">1</text>
</g>
<!-- proposalManagement:ProposalCycle -->
<g id="node16" class="node">
<title>proposalManagement:ProposalCycle</title>
<g id="a_node16"><a xlink:href="../proposalManagement/ProposalCycle" xlink:title="{ProposalCycle|+title : ivoa:string\l+instructions : ivoa:anyURI\l+submissionDeadline : ivoa:datetime\l+observationSessionStart : ivoa:datetime\l+observationSessionEnd : ivoa:datetime\l}">
<polygon fill="#8dd3c7" stroke="black" points="763.06,-635 763.06,-709.5 910.31,-709.5 910.31,-635 763.06,-635"/>
<text text-anchor="middle" x="836.69" y="-697.9" font-family="Times,serif" font-size="8.00">ProposalCycle</text>
<polyline fill="none" stroke="black" points="763.06,-691.75 910.31,-691.75"/>
<text text-anchor="start" x="771.06" y="-680.15" font-family="Times,serif" font-size="8.00">+title : ivoa:string</text>
<text text-anchor="start" x="771.06" y="-670.4" font-family="Times,serif" font-size="8.00">+instructions : ivoa:anyURI</text>
<text text-anchor="start" x="771.06" y="-660.65" font-family="Times,serif" font-size="8.00">+submissionDeadline : ivoa:datetime</text>
<text text-anchor="start" x="771.06" y="-650.9" font-family="Times,serif" font-size="8.00">+observationSessionStart : ivoa:datetime</text>
<text text-anchor="start" x="771.06" y="-641.15" font-family="Times,serif" font-size="8.00">+observationSessionEnd : ivoa:datetime</text>
</a>
</g>
</g>
<!-- proposalManagement:ProposalCycle&#45;&gt;proposalManagement:Observatory -->
<g id="edge28" class="edge">
<title>proposalManagement:ProposalCycle&#45;&gt;proposalManagement:Observatory</title>
<path fill="none" stroke="green" d="M762.61,-669.54C666.25,-665.82 493.37,-654 350.69,-616.5 328.13,-610.57 304.17,-600.84 284.4,-591.78"/>
<polygon fill="green" stroke="green" points="275.57,-587.65 286.53,-587.81 278.99,-589.25 284.62,-591.89 284.62,-591.89 284.62,-591.89 278.99,-589.25 282.72,-595.96 275.57,-587.65"/>
<text text-anchor="middle" x="374.69" y="-607" font-family="Times,serif" font-size="10.00">observatory</text>
<text text-anchor="middle" x="271.84" y="-588.88" font-family="Times,serif" font-size="10.00">1</text>
</g>
<!-- proposalManagement:ProposalCycle&#45;&gt;proposalManagement:ObservingMode -->
<g id="edge12" class="edge">
<title>proposalManagement:ProposalCycle&#45;&gt;proposalManagement:ObservingMode</title>
<path fill="none" stroke="blue" d="M750.01,-667.93C625.99,-660.77 412.69,-638.47 412.69,-569.75 412.69,-569.75 412.69,-569.75 412.69,-314.38 412.69,-283.91 422.56,-275.19 443.69,-253.25 448.35,-248.4 458.62,-241.92 470.32,-235.39"/>
<polygon fill="blue" stroke="blue" points="749.95,-667.92 756.16,-664.26 761.93,-668.58 755.72,-672.25 749.95,-667.92"/>
<polygon fill="blue" stroke="blue" points="478.87,-230.75 472.23,-239.47 475.55,-232.55 470.08,-235.52 470.08,-235.52 470.08,-235.52 475.55,-232.55 467.93,-231.56 478.87,-230.75"/>
<text text-anchor="middle" x="446.81" y="-445.38" font-family="Times,serif" font-size="10.00">observingModes</text>
<text text-anchor="middle" x="472.44" y="-231.92" font-family="Times,serif" font-size="10.00">1..*</text>
</g>
<!-- proposalManagement:TAC -->
<g id="node19" class="node">
<title>proposalManagement:TAC</title>
<g id="a_node19"><a xlink:href="../proposalManagement/TAC" xlink:title="{TAC}">
<polygon fill="#8dd3c7" stroke="black" points="971.69,-550.75 971.69,-586.75 1025.69,-586.75 1025.69,-550.75 971.69,-550.75"/>
<text text-anchor="middle" x="998.69" y="-566.15" font-family="Times,serif" font-size="8.00">TAC</text>
</a>
</g>
</g>
<!-- proposalManagement:ProposalCycle&#45;&gt;proposalManagement:TAC -->
<g id="edge15" class="edge">
<title>proposalManagement:ProposalCycle&#45;&gt;proposalManagement:TAC</title>
<path fill="none" stroke="blue" d="M921.89,-629.36C929.04,-625.21 936.06,-620.9 942.69,-616.5 952.58,-609.93 962.74,-601.9 971.64,-594.37"/>
<polygon fill="blue" stroke="blue" points="921.82,-629.4 918.56,-635.83 911.37,-635.3 914.63,-628.86 921.82,-629.4"/>
<polygon fill="blue" stroke="blue" points="979.14,-587.86 974.53,-597.81 976.28,-590.34 971.58,-594.41 971.58,-594.41 971.58,-594.41 976.28,-590.34 968.64,-591.01 979.14,-587.86"/>
<text text-anchor="middle" x="963.28" y="-607" font-family="Times,serif" font-size="10.00">tac</text>
<text text-anchor="middle" x="977.44" y="-588.82" font-family="Times,serif" font-size="10.00">1</text>
</g>
<!-- proposalManagement:SubmittedProposal -->
<g id="node21" class="node">
<title>proposalManagement:SubmittedProposal</title>
<g id="a_node21"><a xlink:href="../proposalManagement/SubmittedProposal" xlink:title="{SubmittedProposal|+submissionDate : ivoa:datetime\l+successful : ivoa:boolean\l+reviewsCompleteDate : ivoa:datetime\l}">
<polygon fill="#8dd3c7" stroke="black" points="636.31,-421.75 636.31,-476.75 779.06,-476.75 779.06,-421.75 636.31,-421.75"/>
<text text-anchor="middle" x="707.69" y="-465.15" font-family="Times,serif" font-size="8.00">SubmittedProposal</text>
<polyline fill="none" stroke="black" points="636.31,-459 779.06,-459"/>
<text text-anchor="start" x="644.31" y="-447.4" font-family="Times,serif" font-size="8.00">+submissionDate : ivoa:datetime</text>
<text text-anchor="start" x="644.31" y="-437.65" font-family="Times,serif" font-size="8.00">+successful : ivoa:boolean</text>
<text text-anchor="start" x="644.31" y="-427.9" font-family="Times,serif" font-size="8.00">+reviewsCompleteDate : ivoa:datetime</text>
</a>
</g>
</g>
<!-- proposalManagement:ProposalCycle&#45;&gt;proposalManagement:SubmittedProposal -->
<g id="edge16" class="edge">
<title>proposalManagement:ProposalCycle&#45;&gt;proposalManagement:SubmittedProposal</title>
<path fill="none" stroke="blue" d="M752.56,-627.63C738.16,-616.41 725.02,-602.96 716.19,-587.25 699.23,-557.08 698.78,-517.05 701.56,-488.06"/>
<polygon fill="blue" stroke="blue" points="752.28,-627.43 759.48,-627.74 761.96,-634.52 754.76,-634.2 752.28,-627.43"/>
<polygon fill="blue" stroke="blue" points="702.67,-478.36 706,-488.8 702.24,-482.11 701.53,-488.29 701.53,-488.29 701.53,-488.29 702.24,-482.11 697.06,-487.78 702.67,-478.36"/>
<text text-anchor="middle" x="755.94" y="-564.88" font-family="Times,serif" font-size="10.00">submittedProposals</text>
<text text-anchor="middle" x="695.31" y="-478.9" font-family="Times,serif" font-size="10.00">0..*</text>
</g>
<!-- proposalManagement:AllocatedProposal -->
<g id="node22" class="node">
<title>proposalManagement:AllocatedProposal</title>
<g id="a_node22"><a xlink:href="../proposalManagement/AllocatedProposal" xlink:title="{AllocatedProposal}">
<polygon fill="#8dd3c7" stroke="black" points="805.06,-550.75 805.06,-586.75 880.31,-586.75 880.31,-550.75 805.06,-550.75"/>
<text text-anchor="middle" x="842.69" y="-566.15" font-family="Times,serif" font-size="8.00">AllocatedProposal</text>
</a>
</g>
</g>
<!-- proposalManagement:ProposalCycle&#45;&gt;proposalManagement:AllocatedProposal -->
<g id="edge17" class="edge">
<title>proposalManagement:ProposalCycle&#45;&gt;proposalManagement:AllocatedProposal</title>
<path fill="none" stroke="blue" d="M837.26,-621.74C837.49,-616.17 837.79,-610.59 838.19,-605.25 838.36,-602.93 838.58,-600.52 838.83,-598.11"/>
<polygon fill="blue" stroke="blue" points="837.26,-621.67 841.07,-627.79 836.88,-633.66 833.07,-627.54 837.26,-621.67"/>
<polygon fill="blue" stroke="blue" points="839.99,-588.26 843.29,-598.72 839.55,-592.01 838.82,-598.19 838.82,-598.19 838.82,-598.19 839.55,-592.01 834.35,-597.66 839.99,-588.26"/>
<text text-anchor="middle" x="876.44" y="-607" font-family="Times,serif" font-size="10.00">allocatedProposals</text>
<text text-anchor="middle" x="832.63" y="-588.8" font-family="Times,serif" font-size="10.00">0..*</text>
</g>
<!-- proposalManagement:AvailableResources -->
<g id="node26" class="node">
<title>proposalManagement:AvailableResources</title>
<g id="a_node26"><a xlink:href="../proposalManagement/AvailableResources" xlink:title="{AvailableResources}">
<polygon fill="#8dd3c7" stroke="black" points="1059.81,-495.75 1059.81,-531.75 1139.56,-531.75 1139.56,-495.75 1059.81,-495.75"/>
<text text-anchor="middle" x="1099.69" y="-511.15" font-family="Times,serif" font-size="8.00">AvailableResources</text>
</a>
</g>
</g>
<!-- proposalManagement:ProposalCycle&#45;&gt;proposalManagement:AvailableResources -->
<g id="edge13" class="edge">
<title>proposalManagement:ProposalCycle&#45;&gt;proposalManagement:AvailableResources</title>
<path fill="none" stroke="blue" d="M922.92,-633.5C974.05,-615.18 993.59,-618.07 1034.69,-587.25 1052.16,-574.15 1068.55,-555.81 1080.5,-540.85"/>
<polygon fill="blue" stroke="blue" points="922.84,-633.53 918.62,-639.37 911.6,-637.72 915.82,-631.88 922.84,-633.53"/>
<polygon fill="blue" stroke="blue" points="1086.59,-533.01 1084.01,-543.67 1084.27,-536 1080.45,-540.91 1080.45,-540.91 1080.45,-540.91 1084.27,-536 1076.9,-538.15 1086.59,-533.01"/>
<text text-anchor="middle" x="1045.45" y="-607" font-family="Times,serif" font-size="10.00">availableResources</text>
<text text-anchor="middle" x="1084.71" y="-533.8" font-family="Times,serif" font-size="10.00">1</text>
</g>
<!-- proposalManagement:AllocationGrade -->
<g id="node27" class="node">
<title>proposalManagement:AllocationGrade</title>
<g id="a_node27"><a xlink:href="../proposalManagement/AllocationGrade" xlink:title="{AllocationGrade|+name : ivoa:string\l+description : ivoa:string\l}">
<polygon fill="#8dd3c7" stroke="black" points="909.56,-292.75 909.56,-338 1005.81,-338 1005.81,-292.75 909.56,-292.75"/>
<text text-anchor="middle" x="957.69" y="-326.4" font-family="Times,serif" font-size="8.00">AllocationGrade</text>
<polyline fill="none" stroke="black" points="909.56,-320.25 1005.81,-320.25"/>
<text text-anchor="start" x="917.56" y="-308.65" font-family="Times,serif" font-size="8.00">+name : ivoa:string</text>
<text text-anchor="start" x="917.56" y="-298.9" font-family="Times,serif" font-size="8.00">+description : ivoa:string</text>
</a>
</g>
</g>
<!-- proposalManagement:ProposalCycle&#45;&gt;proposalManagement:AllocationGrade -->
<g id="edge14" class="edge">
<title>proposalManagement:ProposalCycle&#45;&gt;proposalManagement:AllocationGrade</title>
<path fill="none" stroke="blue" d="M908.63,-625.22C910.85,-622.44 912.89,-619.53 914.69,-616.5 943.22,-568.36 931.47,-421.07 942.69,-366.25 943.86,-360.53 945.39,-354.52 947.03,-348.73"/>
<polygon fill="blue" stroke="blue" points="908.59,-625.26 907.46,-632.38 900.45,-634.07 901.58,-626.95 908.59,-625.26"/>
<polygon fill="blue" stroke="blue" points="949.9,-339.17 951.34,-350.05 948.81,-342.8 947.03,-348.75 947.03,-348.75 947.03,-348.75 948.81,-342.8 942.72,-347.46 949.9,-339.17"/>
<text text-anchor="middle" x="966.21" y="-509.88" font-family="Times,serif" font-size="10.00">possibleGrades</text>
<text text-anchor="middle" x="942.75" y="-339.76" font-family="Times,serif" font-size="10.00">1..*</text>
</g>
<!-- proposalManagement:Reviewer -->
<g id="node17" class="node">
<title>proposalManagement:Reviewer</title>
<g id="a_node17"><a xlink:href="../proposalManagement/Reviewer" xlink:title="{Reviewer}">
<polygon fill="#8dd3c7" stroke="black" points="748.69,-189.25 748.69,-225.25 802.69,-225.25 802.69,-189.25 748.69,-189.25"/>
<text text-anchor="middle" x="775.44" y="-204.65" font-family="Times,serif" font-size="8.00">Reviewer</text>
</a>
</g>
</g>
<!-- proposalManagement:Reviewer&#45;&gt;proposal:Person -->
<g id="edge29" class="edge">
<title>proposalManagement:Reviewer&#45;&gt;proposal:Person</title>
<path fill="none" stroke="green" d="M775.69,-188.91C775.69,-171.39 775.69,-144.05 775.69,-123.43"/>
<polygon fill="green" stroke="green" points="775.69,-113.69 780.19,-123.69 775.69,-117.47 775.69,-123.69 775.69,-123.69 775.69,-123.69 775.69,-117.47 771.19,-123.69 775.69,-113.69"/>
<text text-anchor="middle" x="789.19" y="-151.75" font-family="Times,serif" font-size="10.00">person</text>
<text text-anchor="middle" x="778.31" y="-114.22" font-family="Times,serif" font-size="10.00">1</text>
</g>
<!-- proposalManagement:CommitteeMember -->
<g id="node18" class="node">
<title>proposalManagement:CommitteeMember</title>
<g id="a_node18"><a xlink:href="../proposalManagement/CommitteeMember" xlink:title="{CommitteeMember|+role : proposalManagement:TacRole\l}">
<polygon fill="#8dd3c7" stroke="black" points="944.31,-366.75 944.31,-402.75 1081.06,-402.75 1081.06,-366.75 944.31,-366.75"/>
<text text-anchor="middle" x="1012.69" y="-391.15" font-family="Times,serif" font-size="8.00">CommitteeMember</text>
<polyline fill="none" stroke="black" points="944.31,-385 1081.06,-385"/>
<text text-anchor="start" x="952.31" y="-373.4" font-family="Times,serif" font-size="8.00">+role : proposalManagement:TacRole</text>
</a>
</g>
</g>
<!-- proposalManagement:CommitteeMember&#45;&gt;proposalManagement:Reviewer -->
<g id="edge30" class="edge">
<title>proposalManagement:CommitteeMember&#45;&gt;proposalManagement:Reviewer</title>
<path fill="none" stroke="green" d="M1017.56,-366.28C1022.44,-345.28 1027.53,-309.49 1014.69,-282.5 1005.83,-263.89 997.25,-262.22 978.69,-253.25 925.06,-227.33 856.24,-216.13 814.08,-211.44"/>
<polygon fill="green" stroke="green" points="804.15,-210.41 814.56,-206.97 807.91,-210.8 814.09,-211.44 814.09,-211.44 814.09,-211.44 807.91,-210.8 813.63,-215.92 804.15,-210.41"/>
<text text-anchor="middle" x="1038.92" y="-311.5" font-family="Times,serif" font-size="10.00">member</text>
<text text-anchor="middle" x="805.56" y="-212.03" font-family="Times,serif" font-size="10.00">1</text>
</g>
<!-- proposalManagement:TAC&#45;&gt;proposalManagement:CommitteeMember -->
<g id="edge18" class="edge">
<title>proposalManagement:TAC&#45;&gt;proposalManagement:CommitteeMember</title>
<path fill="none" stroke="blue" d="M1001.02,-537.46C1003.66,-503.1 1007.94,-447.5 1010.51,-414"/>
<polygon fill="blue" stroke="blue" points="1001.02,-537.44 1004.55,-543.72 1000.1,-549.4 996.57,-543.11 1001.02,-537.44"/>
<polygon fill="blue" stroke="blue" points="1011.26,-404.36 1014.98,-414.68 1010.97,-408.13 1010.49,-414.33 1010.49,-414.33 1010.49,-414.33 1010.97,-408.13 1006,-413.99 1011.26,-404.36"/>
<text text-anchor="middle" x="1022.2" y="-509.88" font-family="Times,serif" font-size="10.00">members</text>
<text text-anchor="middle" x="1003.85" y="-404.9" font-family="Times,serif" font-size="10.00">1..*</text>
</g>
<!-- proposalManagement:ObservationConfiguration -->
<g id="node20" class="node">
<title>proposalManagement:ObservationConfiguration</title>
<g id="a_node20"><a xlink:href="../proposalManagement/ObservationConfiguration" xlink:title="{ObservationConfiguration}">
<polygon fill="#8dd3c7" stroke="black" points="441.06,-297.38 441.06,-333.38 540.31,-333.38 540.31,-297.38 441.06,-297.38"/>
<text text-anchor="middle" x="490.69" y="-312.77" font-family="Times,serif" font-size="8.00">ObservationConfiguration</text>
</a>
</g>
</g>
<!-- proposalManagement:ObservationConfiguration&#45;&gt;proposal:Observation -->
<g id="edge31" class="edge">
<title>proposalManagement:ObservationConfiguration&#45;&gt;proposal:Observation</title>
<path fill="none" stroke="green" d="M477.89,-296.93C470.95,-287.4 462.27,-275.36 454.69,-264.5 447.98,-254.89 440.74,-244.26 434.41,-234.85"/>
<polygon fill="green" stroke="green" points="428.87,-226.59 438.18,-232.39 430.98,-229.73 434.44,-234.89 434.44,-234.89 434.44,-234.89 430.98,-229.73 430.7,-237.4 428.87,-226.59"/>
<text text-anchor="middle" x="478.69" y="-255" font-family="Times,serif" font-size="10.00">observation</text>
<text text-anchor="middle" x="420.69" y="-227.33" font-family="Times,serif" font-size="10.00">1..*</text>
</g>
<!-- proposalManagement:ObservationConfiguration&#45;&gt;proposalManagement:ObservingMode -->
<g id="edge32" class="edge">
<title>proposalManagement:ObservationConfiguration&#45;&gt;proposalManagement:ObservingMode</title>
<path fill="none" stroke="green" d="M496.15,-297.32C501.05,-282.04 508.36,-259.22 514.36,-240.5"/>
<polygon fill="green" stroke="green" points="517.34,-231.2 518.57,-242.09 516.18,-234.8 514.28,-240.72 514.28,-240.72 514.28,-240.72 516.18,-234.8 510,-239.35 517.34,-231.2"/>
<text text-anchor="middle" x="520.97" y="-255" font-family="Times,serif" font-size="10.00">mode</text>
<text text-anchor="middle" x="515.08" y="-231.79" font-family="Times,serif" font-size="10.00">1</text>
</g>
<!-- proposalManagement:SubmittedProposal&#45;&gt;proposal:AbstractProposal -->
<g id="edge4" class="edge">
<title>proposalManagement:SubmittedProposal&#45;&gt;proposal:AbstractProposal</title>
<path fill="none" stroke="red" d="M687.65,-421.56C670.45,-398.65 645.78,-365.78 628.61,-342.91"/>
<polygon fill="none" stroke="red" points="631.46,-340.88 622.66,-334.99 625.86,-345.09 631.46,-340.88"/>
</g>
<!-- proposalManagement:SubmittedProposal&#45;&gt;proposalManagement:ObservationConfiguration -->
<g id="edge19" class="edge">
<title>proposalManagement:SubmittedProposal&#45;&gt;proposalManagement:ObservationConfiguration</title>
<path fill="none" stroke="blue" d="M638.59,-415.52C631.03,-411.54 623.52,-407.41 616.44,-403.25 583.37,-383.82 547.56,-358.63 522.64,-340.39"/>
<polygon fill="blue" stroke="blue" points="638.59,-415.52 645.75,-414.71 649.25,-421.01 642.09,-421.82 638.59,-415.52"/>
<polygon fill="blue" stroke="blue" points="514.63,-334.49 525.35,-336.8 517.68,-336.73 522.68,-340.42 522.68,-340.42 522.68,-340.42 517.68,-336.73 520.01,-344.04 514.63,-334.49"/>
<text text-anchor="middle" x="629.56" y="-380.88" font-family="Times,serif" font-size="10.00">config</text>
<text text-anchor="middle" x="506.15" y="-335.51" font-family="Times,serif" font-size="10.00">0..*</text>
</g>
<!-- proposalManagement:ProposalReview -->
<g id="node23" class="node">
<title>proposalManagement:ProposalReview</title>
<g id="a_node23"><a xlink:href="../proposalManagement/ProposalReview" xlink:title="{ProposalReview|+comment : ivoa:string\l+score : ivoa:real\l+technicalFeasibility : ivoa:boolean\l+reviewDate : ivoa:datetime\l}">
<polygon fill="#8dd3c7" stroke="black" points="677.31,-283 677.31,-347.75 808.06,-347.75 808.06,-283 677.31,-283"/>
<text text-anchor="middle" x="742.69" y="-336.15" font-family="Times,serif" font-size="8.00">ProposalReview</text>
<polyline fill="none" stroke="black" points="677.31,-330 808.06,-330"/>
<text text-anchor="start" x="685.31" y="-318.4" font-family="Times,serif" font-size="8.00">+comment : ivoa:string</text>
<text text-anchor="start" x="685.31" y="-308.65" font-family="Times,serif" font-size="8.00">+score : ivoa:real</text>
<text text-anchor="start" x="685.31" y="-298.9" font-family="Times,serif" font-size="8.00">+technicalFeasibility : ivoa:boolean</text>
<text text-anchor="start" x="685.31" y="-289.15" font-family="Times,serif" font-size="8.00">+reviewDate : ivoa:datetime</text>
</a>
</g>
</g>
<!-- proposalManagement:SubmittedProposal&#45;&gt;proposalManagement:ProposalReview -->
<g id="edge20" class="edge">
<title>proposalManagement:SubmittedProposal&#45;&gt;proposalManagement:ProposalReview</title>
<path fill="none" stroke="blue" d="M718.08,-409.11C722.27,-393.31 727.12,-375.03 731.4,-358.9"/>
<polygon fill="blue" stroke="blue" points="718.08,-409.09 720.41,-415.92 715,-420.69 712.67,-413.87 718.08,-409.09"/>
<polygon fill="blue" stroke="blue" points="733.95,-349.31 735.73,-360.13 732.98,-352.97 731.38,-358.98 731.38,-358.98 731.38,-358.98 732.98,-352.97 727.03,-357.82 733.95,-349.31"/>
<text text-anchor="middle" x="745.1" y="-380.88" font-family="Times,serif" font-size="10.00">reviews</text>
<text text-anchor="middle" x="726.76" y="-349.89" font-family="Times,serif" font-size="10.00">0..*</text>
</g>
<!-- proposalManagement:AllocatedProposal&#45;&gt;proposalManagement:SubmittedProposal -->
<g id="edge33" class="edge">
<title>proposalManagement:AllocatedProposal&#45;&gt;proposalManagement:SubmittedProposal</title>
<path fill="none" stroke="green" d="M822.77,-550.41C802.87,-533.09 771.74,-506 746.87,-484.36"/>
<polygon fill="green" stroke="green" points="739.63,-478.05 750.12,-481.22 742.48,-480.53 747.17,-484.61 747.17,-484.61 747.17,-484.61 742.48,-480.53 744.21,-488.01 739.63,-478.05"/>
<text text-anchor="middle" x="819.27" y="-509.88" font-family="Times,serif" font-size="10.00">submitted</text>
<text text-anchor="middle" x="736.08" y="-479" font-family="Times,serif" font-size="10.00">1</text>
</g>
<!-- proposalManagement:AllocatedBlock -->
<g id="node29" class="node">
<title>proposalManagement:AllocatedBlock</title>
<g id="a_node29"><a xlink:href="../proposalManagement/AllocatedBlock" xlink:title="{AllocatedBlock}">
<polygon fill="#8dd3c7" stroke="black" points="824.56,-431.25 824.56,-467.25 890.81,-467.25 890.81,-431.25 824.56,-431.25"/>
<text text-anchor="middle" x="857.69" y="-446.65" font-family="Times,serif" font-size="8.00">AllocatedBlock</text>
</a>
</g>
</g>
<!-- proposalManagement:AllocatedProposal&#45;&gt;proposalManagement:AllocatedBlock -->
<g id="edge21" class="edge">
<title>proposalManagement:AllocatedProposal&#45;&gt;proposalManagement:AllocatedBlock</title>
<path fill="none" stroke="blue" d="M846.52,-537.7C848.85,-519.5 851.79,-496.43 854.07,-478.55"/>
<polygon fill="blue" stroke="blue" points="846.53,-537.61 849.74,-544.07 845.01,-549.52 841.81,-543.06 846.53,-537.61"/>
<polygon fill="blue" stroke="blue" points="855.31,-468.87 858.51,-479.36 854.83,-472.62 854.04,-478.79 854.04,-478.79 854.04,-478.79 854.83,-472.62 849.58,-478.22 855.31,-468.87"/>
<text text-anchor="middle" x="872.16" y="-509.88" font-family="Times,serif" font-size="10.00">allocation</text>
<text text-anchor="middle" x="847.97" y="-469.41" font-family="Times,serif" font-size="10.00">1..*</text>
</g>
<!-- proposalManagement:ProposalReview&#45;&gt;proposalManagement:Reviewer -->
<g id="edge34" class="edge">
<title>proposalManagement:ProposalReview&#45;&gt;proposalManagement:Reviewer</title>
<path fill="none" stroke="green" d="M752.59,-282.53C757.17,-267.79 762.57,-250.43 766.99,-236.21"/>
<polygon fill="green" stroke="green" points="769.94,-226.74 771.27,-237.62 768.82,-230.35 766.97,-236.29 766.97,-236.29 766.97,-236.29 768.82,-230.35 762.67,-234.95 769.94,-226.74"/>
<text text-anchor="middle" x="778.79" y="-255" font-family="Times,serif" font-size="10.00">reviewer</text>
<text text-anchor="middle" x="767.67" y="-227.33" font-family="Times,serif" font-size="10.00">1</text>
</g>
<!-- proposalManagement:ResourceType -->
<g id="node24" class="node">
<title>proposalManagement:ResourceType</title>
<g id="a_node24"><a xlink:href="../proposalManagement/ResourceType" xlink:title="{ResourceType|+name : ivoa:string\l+unit : ivoa:string\l}">
<polygon fill="#8dd3c7" stroke="black" points="965.56,-71.62 965.56,-116.88 1043.81,-116.88 1043.81,-71.62 965.56,-71.62"/>
<text text-anchor="middle" x="1004.69" y="-105.28" font-family="Times,serif" font-size="8.00">ResourceType</text>
<polyline fill="none" stroke="black" points="965.56,-99.12 1043.81,-99.12"/>
<text text-anchor="start" x="973.56" y="-87.53" font-family="Times,serif" font-size="8.00">+name : ivoa:string</text>
<text text-anchor="start" x="973.56" y="-77.78" font-family="Times,serif" font-size="8.00">+unit : ivoa:string</text>
</a>
</g>
</g>
<!-- proposalManagement:Resource -->
<g id="node25" class="node">
<title>proposalManagement:Resource</title>
<g id="a_node25"><a xlink:href="../proposalManagement/Resource" xlink:title="{Resource|+amount : ivoa:real\l}">
<polygon fill="#8dd3c7" stroke="black" points="965.19,-189.25 965.19,-225.25 1044.19,-225.25 1044.19,-189.25 965.19,-189.25"/>
<text text-anchor="middle" x="1004.69" y="-213.65" font-family="Times,serif" font-size="8.00">Resource</text>
<polyline fill="none" stroke="black" points="965.19,-207.5 1044.19,-207.5"/>
<text text-anchor="start" x="973.19" y="-195.9" font-family="Times,serif" font-size="8.00">+amount : ivoa:real</text>
</a>
</g>
</g>
<!-- proposalManagement:Resource&#45;&gt;proposalManagement:ResourceType -->
<g id="edge35" class="edge">
<title>proposalManagement:Resource&#45;&gt;proposalManagement:ResourceType</title>
<path fill="none" stroke="green" d="M1004.69,-188.91C1004.69,-172.7 1004.69,-148.07 1004.69,-128.14"/>
<polygon fill="green" stroke="green" points="1004.69,-118.27 1009.19,-128.27 1004.69,-122.05 1004.69,-128.27 1004.69,-128.27 1004.69,-128.27 1004.69,-122.05 1000.19,-128.27 1004.69,-118.27"/>
<text text-anchor="middle" x="1013.69" y="-151.75" font-family="Times,serif" font-size="10.00">type</text>
<text text-anchor="middle" x="1002.06" y="-118.8" font-family="Times,serif" font-size="10.00">1</text>
</g>
<!-- proposalManagement:AvailableResources&#45;&gt;proposalManagement:Resource -->
<g id="edge22" class="edge">
<title>proposalManagement:AvailableResources&#45;&gt;proposalManagement:Resource</title>
<path fill="none" stroke="blue" d="M1099.4,-482.33C1097.88,-436.71 1090.6,-348.84 1058.69,-282.5 1050.35,-265.18 1037.89,-247.7 1027.04,-234.06"/>
<polygon fill="blue" stroke="blue" points="1099.41,-482.42 1103.55,-488.32 1099.7,-494.42 1095.55,-488.52 1099.41,-482.42"/>
<polygon fill="blue" stroke="blue" points="1020.97,-226.63 1030.78,-231.53 1023.36,-229.56 1027.29,-234.37 1027.29,-234.37 1027.29,-234.37 1023.36,-229.56 1023.81,-237.22 1020.97,-226.63"/>
<text text-anchor="middle" x="1110.94" y="-380.88" font-family="Times,serif" font-size="10.00">resources</text>
<text text-anchor="middle" x="1012.7" y="-227.44" font-family="Times,serif" font-size="10.00">0..*</text>
</g>
<!-- proposalManagement:ResourceBlock -->
<g id="node28" class="node">
<title>proposalManagement:ResourceBlock</title>
<g id="a_node28"><a xlink:href="../proposalManagement/ResourceBlock" xlink:title="{ResourceBlock}">
<polygon fill="#8dd3c7" stroke="black" points="826.31,-297.38 826.31,-333.38 891.06,-333.38 891.06,-297.38 826.31,-297.38"/>
<text text-anchor="middle" x="858.69" y="-312.77" font-family="Times,serif" font-size="8.00">ResourceBlock</text>
</a>
</g>
</g>
<!-- proposalManagement:ResourceBlock&#45;&gt;proposalManagement:ObservingMode -->
<g id="edge36" class="edge">
<title>proposalManagement:ResourceBlock&#45;&gt;proposalManagement:ObservingMode</title>
<path fill="none" stroke="green" d="M847.07,-296.89C836.66,-282.73 820.08,-263.51 800.69,-253.25 781.87,-243.3 659.31,-225.86 583.97,-215.87"/>
<polygon fill="green" stroke="green" points="574.43,-214.61 584.93,-211.45 578.18,-215.1 584.34,-215.92 584.34,-215.92 584.34,-215.92 578.18,-215.1 583.75,-220.38 574.43,-214.61"/>
<text text-anchor="middle" x="827.13" y="-255" font-family="Times,serif" font-size="10.00">mode</text>
<text text-anchor="middle" x="575.84" y="-216.2" font-family="Times,serif" font-size="10.00">1</text>
</g>
<!-- proposalManagement:ResourceBlock&#45;&gt;proposalManagement:Resource -->
<g id="edge23" class="edge">
<title>proposalManagement:ResourceBlock&#45;&gt;proposalManagement:Resource</title>
<path fill="none" stroke="blue" d="M891.56,-289.28C894.64,-286.98 897.72,-284.69 900.69,-282.5 924.08,-265.28 950.75,-246.25 971.23,-231.76"/>
<polygon fill="blue" stroke="blue" points="891.56,-289.28 889.18,-296.09 881.99,-296.51 884.37,-289.7 891.56,-289.28"/>
<polygon fill="blue" stroke="blue" points="979.17,-226.16 973.6,-235.6 976.08,-228.34 971,-231.92 971,-231.92 971,-231.92 976.08,-228.34 968.41,-228.25 979.17,-226.16"/>
<text text-anchor="middle" x="957.37" y="-255" font-family="Times,serif" font-size="10.00">resource</text>
<text text-anchor="middle" x="977.54" y="-227.2" font-family="Times,serif" font-size="10.00">1</text>
</g>
<!-- proposalManagement:AllocatedBlock&#45;&gt;proposalManagement:AllocationGrade -->
<g id="edge37" class="edge">
<title>proposalManagement:AllocatedBlock&#45;&gt;proposalManagement:AllocationGrade</title>
<path fill="none" stroke="green" d="M862.12,-430.88C867.24,-413.27 876.96,-385.91 892.19,-366.25 898.23,-358.45 905.78,-351.23 913.58,-344.84"/>
<polygon fill="green" stroke="green" points="921.12,-339 915.97,-348.68 918.13,-341.32 913.21,-345.13 913.21,-345.13 913.21,-345.13 918.13,-341.32 910.46,-341.57 921.12,-339"/>
<text text-anchor="middle" x="903.44" y="-380.88" font-family="Times,serif" font-size="10.00">grade</text>
<text text-anchor="middle" x="919.46" y="-340.01" font-family="Times,serif" font-size="10.00">1</text>
</g>
<!-- proposalManagement:AllocatedBlock&#45;&gt;proposalManagement:ResourceBlock -->
<g id="edge5" class="edge">
<title>proposalManagement:AllocatedBlock&#45;&gt;proposalManagement:ResourceBlock</title>
<path fill="none" stroke="red" d="M857.82,-431.01C857.98,-409.19 858.27,-371.3 858.47,-345.09"/>
<polygon fill="none" stroke="red" points="861.97,-345.16 858.55,-335.13 854.97,-345.11 861.97,-345.16"/>
</g>
</g>
</svg>
