<?xml version="1.0" encoding="UTF-8" standalone="no"?>
<!DOCTYPE svg PUBLIC "-//W3C//DTD SVG 1.1//EN"
 "http://www.w3.org/Graphics/SVG/1.1/DTD/svg11.dtd">
<!-- Generated by graphviz version 12.1.1 (20240910.0053)
 -->
<!-- Title: GVmap Pages: 1 -->
<svg width="867pt" height="660pt"
 viewBox="0.00 0.00 866.80 660.00" xmlns="http://www.w3.org/2000/svg" xmlns:xlink="http://www.w3.org/1999/xlink">
<g id="graph0" class="graph" transform="scale(1 1) rotate(0) translate(4 656)">
<title>GVmap</title>
<polygon fill="white" stroke="none" points="-4,4 -4,-656 862.8,-656 862.8,4 -4,4"/>
<text text-anchor="middle" x="429.4" y="-7.2" font-family="Times,serif" font-size="14.00">proposalManagement data model</text>
<!-- proposal:Observatory -->
<g id="node1" class="node">
<title>proposal:Observatory</title>
<g id="a_node1"><a xlink:href="#Observatory" xlink:title="{proposal:Observatory}">
<polygon fill="grey" stroke="black" points="0,-502.5 0,-538.5 85,-538.5 85,-502.5 0,-502.5"/>
<text text-anchor="middle" x="42.5" y="-517.9" font-family="Times,serif" font-size="8.00">proposal:Observatory</text>
</a>
</g>
</g>
<!-- proposal:ObservingMode -->
<g id="node2" class="node">
<title>proposal:ObservingMode</title>
<g id="a_node2"><a xlink:href="#ObservingMode" xlink:title="{proposal:ObservingMode}">
<polygon fill="grey" stroke="black" points="513.38,-150.5 513.38,-186.5 609.62,-186.5 609.62,-150.5 513.38,-150.5"/>
<text text-anchor="middle" x="561.5" y="-165.9" font-family="Times,serif" font-size="8.00">proposal:ObservingMode</text>
</a>
</g>
</g>
<!-- proposal:Person -->
<g id="node3" class="node">
<title>proposal:Person</title>
<g id="a_node3"><a xlink:href="#Person" xlink:title="{proposal:Person}">
<polygon fill="grey" stroke="black" points="86,-61.62 86,-97.62 153,-97.62 153,-61.62 86,-61.62"/>
<text text-anchor="middle" x="119.5" y="-77.03" font-family="Times,serif" font-size="8.00">proposal:Person</text>
</a>
</g>
</g>
<!-- proposal:Observation -->
<g id="node4" class="node">
<title>proposal:Observation</title>
<g id="a_node4"><a xlink:href="#Observation" xlink:title="{proposal:Observation}">
<polygon fill="grey" stroke="black" points="411.38,-150.5 411.38,-186.5 495.62,-186.5 495.62,-150.5 411.38,-150.5"/>
<text text-anchor="middle" x="453.5" y="-165.9" font-family="Times,serif" font-size="8.00">proposal:Observation</text>
</a>
</g>
</g>
<!-- proposal:ObservingProposal -->
<g id="node5" class="node">
<title>proposal:ObservingProposal</title>
<g id="a_node5"><a xlink:href="#ObservingProposal" xlink:title="{proposal:ObservingProposal}">
<polygon fill="grey" stroke="black" points="361.5,-249.12 361.5,-285.12 467.5,-285.12 467.5,-249.12 361.5,-249.12"/>
<text text-anchor="middle" x="414.5" y="-264.52" font-family="Times,serif" font-size="8.00">proposal:ObservingProposal</text>
</a>
</g>
</g>
<!-- proposalManagement:TacRole -->
<g id="node6" class="node">
<title>proposalManagement:TacRole</title>
<g id="a_node6"><a xlink:href="../proposalManagement/TacRole" xlink:title="{&amp;lt;&amp;lt;enumeration&amp;gt;&amp;gt;\nTacRole|+TechnicalReviewer\l+ScienceReviewer\l+Chair\l}">
<polygon fill="#8dd3c7" stroke="black" points="460.12,-586.75 460.12,-651.5 542.88,-651.5 542.88,-586.75 460.12,-586.75"/>
<text text-anchor="middle" x="501.5" y="-639.9" font-family="Times,serif" font-size="8.00">&lt;&lt;enumeration&gt;&gt;</text>
<text text-anchor="middle" x="501.5" y="-630.15" font-family="Times,serif" font-size="8.00">TacRole</text>
<polyline fill="none" stroke="black" points="460.12,-624 542.88,-624"/>
<text text-anchor="start" x="468.12" y="-612.4" font-family="Times,serif" font-size="8.00">+TechnicalReviewer</text>
<text text-anchor="start" x="468.12" y="-602.65" font-family="Times,serif" font-size="8.00">+ScienceReviewer</text>
<text text-anchor="start" x="468.12" y="-592.9" font-family="Times,serif" font-size="8.00">+Chair</text>
</a>
</g>
</g>
<!-- proposalManagement:ProposalCycle -->
<g id="node7" class="node">
<title>proposalManagement:ProposalCycle</title>
<g id="a_node7"><a xlink:href="../proposalManagement/ProposalCycle" xlink:title="{ProposalCycle|+title : ivoa:string\l+submissionDeadline : ivoa:datetime\l+observationSessionStart : ivoa:datetime\l+observationSessionEnd : ivoa:datetime\l}">
<polygon fill="#8dd3c7" stroke="black" points="294.88,-586.75 294.88,-651.5 442.12,-651.5 442.12,-586.75 294.88,-586.75"/>
<text text-anchor="middle" x="368.5" y="-639.9" font-family="Times,serif" font-size="8.00">ProposalCycle</text>
<polyline fill="none" stroke="black" points="294.88,-633.75 442.12,-633.75"/>
<text text-anchor="start" x="302.88" y="-622.15" font-family="Times,serif" font-size="8.00">+title : ivoa:string</text>
<text text-anchor="start" x="302.88" y="-612.4" font-family="Times,serif" font-size="8.00">+submissionDeadline : ivoa:datetime</text>
<text text-anchor="start" x="302.88" y="-602.65" font-family="Times,serif" font-size="8.00">+observationSessionStart : ivoa:datetime</text>
<text text-anchor="start" x="302.88" y="-592.9" font-family="Times,serif" font-size="8.00">+observationSessionEnd : ivoa:datetime</text>
</a>
</g>
</g>
<!-- proposalManagement:ProposalCycle&#45;&gt;proposal:Observatory -->
<g id="edge15" class="edge">
<title>proposalManagement:ProposalCycle&#45;&gt;proposal:Observatory</title>
<path fill="none" stroke="green" d="M294.54,-615.09C237.91,-610.33 159.15,-598.32 96.5,-568.25 85.32,-562.88 74.63,-554.57 65.76,-546.44"/>
<polygon fill="green" stroke="green" points="58.72,-539.64 69.04,-543.36 61.44,-542.27 65.91,-546.59 65.91,-546.59 65.91,-546.59 61.44,-542.27 62.79,-549.83 58.72,-539.64"/>
<text text-anchor="middle" x="120.5" y="-558.75" font-family="Times,serif" font-size="10.00">observatory</text>
<text text-anchor="middle" x="55.22" y="-540.54" font-family="Times,serif" font-size="10.00">1</text>
</g>
<!-- proposalManagement:ProposalCycle&#45;&gt;proposal:ObservingMode -->
<g id="edge2" class="edge">
<title>proposalManagement:ProposalCycle&#45;&gt;proposal:ObservingMode</title>
<path fill="none" stroke="blue" d="M281.98,-605.64C234.63,-593.37 185.5,-569.16 185.5,-521.5 185.5,-521.5 185.5,-521.5 185.5,-266.12 185.5,-127.17 148.6,-266.55 502.27,-187.34"/>
<polygon fill="blue" stroke="blue" points="282.05,-605.65 288.81,-603.15 293.72,-608.44 286.95,-610.94 282.05,-605.65"/>
<polygon fill="blue" stroke="blue" points="511.93,-185.14 503.18,-191.74 508.24,-185.98 502.18,-187.36 502.18,-187.36 502.18,-187.36 508.24,-185.98 501.18,-182.97 511.93,-185.14"/>
<text text-anchor="middle" x="219.62" y="-397.12" font-family="Times,serif" font-size="10.00">observingModes</text>
<text text-anchor="middle" x="505.62" y="-186.62" font-family="Times,serif" font-size="10.00">1..*</text>
</g>
<!-- proposalManagement:TAC -->
<g id="node10" class="node">
<title>proposalManagement:TAC</title>
<g id="a_node10"><a xlink:href="../proposalManagement/TAC" xlink:title="{TAC}">
<polygon fill="#8dd3c7" stroke="black" points="103.5,-502.5 103.5,-538.5 157.5,-538.5 157.5,-502.5 103.5,-502.5"/>
<text text-anchor="middle" x="130.5" y="-517.9" font-family="Times,serif" font-size="8.00">TAC</text>
</a>
</g>
</g>
<!-- proposalManagement:ProposalCycle&#45;&gt;proposalManagement:TAC -->
<g id="edge5" class="edge">
<title>proposalManagement:ProposalCycle&#45;&gt;proposalManagement:TAC</title>
<path fill="none" stroke="blue" d="M281.72,-612.54C241.48,-606.36 194.85,-593.75 159.5,-568.25 152.47,-563.18 146.78,-555.83 142.36,-548.45"/>
<polygon fill="blue" stroke="blue" points="281.76,-612.55 288.25,-609.41 293.64,-614.2 287.15,-617.34 281.76,-612.55"/>
<polygon fill="blue" stroke="blue" points="137.7,-539.66 146.36,-546.38 139.47,-543 142.39,-548.5 142.39,-548.5 142.39,-548.5 139.47,-543 138.41,-550.61 137.7,-539.66"/>
<text text-anchor="middle" x="165.5" y="-558.75" font-family="Times,serif" font-size="10.00">tac</text>
<text text-anchor="middle" x="134.5" y="-540.34" font-family="Times,serif" font-size="10.00">1</text>
</g>
<!-- proposalManagement:SubmittedProposal -->
<g id="node12" class="node">
<title>proposalManagement:SubmittedProposal</title>
<g id="a_node12"><a xlink:href="../proposalManagement/SubmittedProposal" xlink:title="{SubmittedProposal|+submissionDate : ivoa:datetime\l+successful : ivoa:boolean\l+reviewsCompleteDate : ivoa:datetime\l}">
<polygon fill="#8dd3c7" stroke="black" points="343.12,-373.5 343.12,-428.5 485.88,-428.5 485.88,-373.5 343.12,-373.5"/>
<text text-anchor="middle" x="414.5" y="-416.9" font-family="Times,serif" font-size="8.00">SubmittedProposal</text>
<polyline fill="none" stroke="black" points="343.12,-410.75 485.88,-410.75"/>
<text text-anchor="start" x="351.12" y="-399.15" font-family="Times,serif" font-size="8.00">+submissionDate : ivoa:datetime</text>
<text text-anchor="start" x="351.12" y="-389.4" font-family="Times,serif" font-size="8.00">+successful : ivoa:boolean</text>
<text text-anchor="start" x="351.12" y="-379.65" font-family="Times,serif" font-size="8.00">+reviewsCompleteDate : ivoa:datetime</text>
</a>
</g>
</g>
<!-- proposalManagement:ProposalCycle&#45;&gt;proposalManagement:SubmittedProposal -->
<g id="edge6" class="edge">
<title>proposalManagement:ProposalCycle&#45;&gt;proposalManagement:SubmittedProposal</title>
<path fill="none" stroke="blue" d="M442.28,-577.58C444.94,-574.65 447.37,-571.54 449.5,-568.25 478.9,-522.82 481.48,-496.88 460.5,-447 459.11,-443.7 457.36,-440.53 455.34,-437.5"/>
<polygon fill="blue" stroke="blue" points="442.43,-577.44 440.86,-584.48 433.76,-585.73 435.33,-578.7 442.43,-577.44"/>
<polygon fill="blue" stroke="blue" points="449.38,-429.81 459.06,-434.96 451.7,-432.8 455.51,-437.71 455.51,-437.71 455.51,-437.71 451.7,-432.8 451.95,-440.47 449.38,-429.81"/>
<text text-anchor="middle" x="513.98" y="-516.62" font-family="Times,serif" font-size="10.00">submittedProposals</text>
<text text-anchor="middle" x="441.13" y="-430.6" font-family="Times,serif" font-size="10.00">0..*</text>
</g>
<!-- proposalManagement:AllocatedProposal -->
<g id="node13" class="node">
<title>proposalManagement:AllocatedProposal</title>
<g id="a_node13"><a xlink:href="../proposalManagement/AllocatedProposal" xlink:title="{AllocatedProposal}">
<polygon fill="#8dd3c7" stroke="black" points="330.88,-502.5 330.88,-538.5 406.12,-538.5 406.12,-502.5 330.88,-502.5"/>
<text text-anchor="middle" x="368.5" y="-517.9" font-family="Times,serif" font-size="8.00">AllocatedProposal</text>
</a>
</g>
</g>
<!-- proposalManagement:ProposalCycle&#45;&gt;proposalManagement:AllocatedProposal -->
<g id="edge7" class="edge">
<title>proposalManagement:ProposalCycle&#45;&gt;proposalManagement:AllocatedProposal</title>
<path fill="none" stroke="blue" d="M368.5,-573.82C368.5,-565.68 368.5,-557.38 368.5,-549.86"/>
<polygon fill="blue" stroke="blue" points="368.5,-573.58 372.5,-579.59 368.5,-585.58 364.5,-579.58 368.5,-573.58"/>
<polygon fill="blue" stroke="blue" points="368.5,-540.05 373,-550.05 368.5,-543.83 368.5,-550.05 368.5,-550.05 368.5,-550.05 368.5,-543.83 364,-550.05 368.5,-540.05"/>
<text text-anchor="middle" x="406.75" y="-558.75" font-family="Times,serif" font-size="10.00">allocatedProposals</text>
<text text-anchor="middle" x="361" y="-540.58" font-family="Times,serif" font-size="10.00">0..*</text>
</g>
<!-- proposalManagement:AvailableResources -->
<g id="node17" class="node">
<title>proposalManagement:AvailableResources</title>
<g id="a_node17"><a xlink:href="../proposalManagement/AvailableResources" xlink:title="{AvailableResources}">
<polygon fill="#8dd3c7" stroke="black" points="770.62,-447.5 770.62,-483.5 850.38,-483.5 850.38,-447.5 770.62,-447.5"/>
<text text-anchor="middle" x="810.5" y="-462.9" font-family="Times,serif" font-size="8.00">AvailableResources</text>
</a>
</g>
</g>
<!-- proposalManagement:ProposalCycle&#45;&gt;proposalManagement:AvailableResources -->
<g id="edge3" class="edge">
<title>proposalManagement:ProposalCycle&#45;&gt;proposalManagement:AvailableResources</title>
<path fill="none" stroke="blue" d="M455.01,-586.21C527.14,-575.73 667.25,-592.46 717.5,-568.25 751.23,-552 778.47,-517.61 794.55,-493.32"/>
<polygon fill="blue" stroke="blue" points="455.07,-586.2 449.88,-591.2 443.26,-588.34 448.45,-583.33 455.07,-586.2"/>
<polygon fill="blue" stroke="blue" points="799.89,-484.96 798.3,-495.81 797.86,-488.15 794.51,-493.39 794.51,-493.39 794.51,-493.39 797.86,-488.15 790.72,-490.96 799.89,-484.96"/>
<text text-anchor="middle" x="775.09" y="-558.75" font-family="Times,serif" font-size="10.00">availableResources</text>
<text text-anchor="middle" x="797.92" y="-485.68" font-family="Times,serif" font-size="10.00">1</text>
</g>
<!-- proposalManagement:AllocationGrade -->
<g id="node18" class="node">
<title>proposalManagement:AllocationGrade</title>
<g id="a_node18"><a xlink:href="../proposalManagement/AllocationGrade" xlink:title="{AllocationGrade|+name : ivoa:string\l+description : ivoa:string\l}">
<polygon fill="#8dd3c7" stroke="black" points="686.38,-244.5 686.38,-289.75 782.62,-289.75 782.62,-244.5 686.38,-244.5"/>
<text text-anchor="middle" x="734.5" y="-278.15" font-family="Times,serif" font-size="8.00">AllocationGrade</text>
<polyline fill="none" stroke="black" points="686.38,-272 782.62,-272"/>
<text text-anchor="start" x="694.38" y="-260.4" font-family="Times,serif" font-size="8.00">+name : ivoa:string</text>
<text text-anchor="start" x="694.38" y="-250.65" font-family="Times,serif" font-size="8.00">+description : ivoa:string</text>
</a>
</g>
</g>
<!-- proposalManagement:ProposalCycle&#45;&gt;proposalManagement:AllocationGrade -->
<g id="edge4" class="edge">
<title>proposalManagement:ProposalCycle&#45;&gt;proposalManagement:AllocationGrade</title>
<path fill="none" stroke="blue" d="M454.57,-583.72C499.81,-565.35 547.86,-545.25 557.5,-539 617.38,-500.15 634.99,-488.44 674.5,-429 701.26,-388.74 718.19,-334.93 727.01,-300.89"/>
<polygon fill="blue" stroke="blue" points="454.5,-583.75 450.44,-589.71 443.38,-588.26 447.44,-582.3 454.5,-583.75"/>
<polygon fill="blue" stroke="blue" points="729.4,-291.34 731.34,-302.13 728.48,-295.01 726.97,-301.04 726.97,-301.04 726.97,-301.04 728.48,-295.01 722.61,-299.95 729.4,-291.34"/>
<text text-anchor="middle" x="692.73" y="-461.62" font-family="Times,serif" font-size="10.00">possibleGrades</text>
<text text-anchor="middle" x="722.19" y="-291.91" font-family="Times,serif" font-size="10.00">1..*</text>
</g>
<!-- proposalManagement:Reviewer -->
<g id="node8" class="node">
<title>proposalManagement:Reviewer</title>
<g id="a_node8"><a xlink:href="../proposalManagement/Reviewer" xlink:title="{Reviewer}">
<polygon fill="#8dd3c7" stroke="black" points="92.5,-150.5 92.5,-186.5 146.5,-186.5 146.5,-150.5 92.5,-150.5"/>
<text text-anchor="middle" x="119.25" y="-165.9" font-family="Times,serif" font-size="8.00">Reviewer</text>
</a>
</g>
</g>
<!-- proposalManagement:Reviewer&#45;&gt;proposal:Person -->
<g id="edge16" class="edge">
<title>proposalManagement:Reviewer&#45;&gt;proposal:Person</title>
<path fill="none" stroke="green" d="M119.5,-150.34C119.5,-138.63 119.5,-122.85 119.5,-109.27"/>
<polygon fill="green" stroke="green" points="119.5,-99.27 124,-109.27 119.5,-103.05 119.5,-109.27 119.5,-109.27 119.5,-109.27 119.5,-103.05 115,-109.27 119.5,-99.27"/>
<text text-anchor="middle" x="133" y="-122.5" font-family="Times,serif" font-size="10.00">person</text>
<text text-anchor="middle" x="116.88" y="-99.8" font-family="Times,serif" font-size="10.00">1</text>
</g>
<!-- proposalManagement:CommitteeMember -->
<g id="node9" class="node">
<title>proposalManagement:CommitteeMember</title>
<g id="a_node9"><a xlink:href="../proposalManagement/CommitteeMember" xlink:title="{CommitteeMember|+role : proposalManagement:TacRole\l}">
<polygon fill="#8dd3c7" stroke="black" points="34.12,-318.5 34.12,-354.5 170.88,-354.5 170.88,-318.5 34.12,-318.5"/>
<text text-anchor="middle" x="102.5" y="-342.9" font-family="Times,serif" font-size="8.00">CommitteeMember</text>
<polyline fill="none" stroke="black" points="34.12,-336.75 170.88,-336.75"/>
<text text-anchor="start" x="42.12" y="-325.15" font-family="Times,serif" font-size="8.00">+role : proposalManagement:TacRole</text>
</a>
</g>
</g>
<!-- proposalManagement:CommitteeMember&#45;&gt;proposalManagement:Reviewer -->
<g id="edge17" class="edge">
<title>proposalManagement:CommitteeMember&#45;&gt;proposalManagement:Reviewer</title>
<path fill="none" stroke="green" d="M104.29,-318.05C107.22,-289.41 113.08,-232.17 116.61,-197.71"/>
<polygon fill="green" stroke="green" points="117.59,-188.18 121.04,-198.58 117.2,-191.94 116.57,-198.13 116.57,-198.13 116.57,-198.13 117.2,-191.94 112.09,-197.67 117.59,-188.18"/>
<text text-anchor="middle" x="128.93" y="-263.25" font-family="Times,serif" font-size="10.00">member</text>
<text text-anchor="middle" x="115.09" y="-188.72" font-family="Times,serif" font-size="10.00">1</text>
</g>
<!-- proposalManagement:TAC&#45;&gt;proposalManagement:CommitteeMember -->
<g id="edge8" class="edge">
<title>proposalManagement:TAC&#45;&gt;proposalManagement:CommitteeMember</title>
<path fill="none" stroke="blue" d="M125.84,-489.21C120.55,-454.85 112,-399.25 106.85,-365.75"/>
<polygon fill="blue" stroke="blue" points="125.85,-489.3 130.72,-494.62 127.68,-501.16 122.81,-495.84 125.85,-489.3"/>
<polygon fill="blue" stroke="blue" points="105.36,-356.1 111.33,-365.3 105.94,-359.84 106.88,-365.99 106.88,-365.99 106.88,-365.99 105.94,-359.84 102.43,-366.67 105.36,-356.1"/>
<text text-anchor="middle" x="142.95" y="-461.62" font-family="Times,serif" font-size="10.00">members</text>
<text text-anchor="middle" x="97.68" y="-356.65" font-family="Times,serif" font-size="10.00">1..*</text>
</g>
<!-- proposalManagement:ObservationConfiguration -->
<g id="node11" class="node">
<title>proposalManagement:ObservationConfiguration</title>
<g id="a_node11"><a xlink:href="../proposalManagement/ObservationConfiguration" xlink:title="{ObservationConfiguration}">
<polygon fill="#8dd3c7" stroke="black" points="485.88,-249.12 485.88,-285.12 585.12,-285.12 585.12,-249.12 485.88,-249.12"/>
<text text-anchor="middle" x="535.5" y="-264.52" font-family="Times,serif" font-size="8.00">ObservationConfiguration</text>
</a>
</g>
</g>
<!-- proposalManagement:ObservationConfiguration&#45;&gt;proposal:ObservingMode -->
<g id="edge19" class="edge">
<title>proposalManagement:ObservationConfiguration&#45;&gt;proposal:ObservingMode</title>
<path fill="none" stroke="green" d="M540.15,-248.85C543.97,-234.65 549.46,-214.24 553.92,-197.68"/>
<polygon fill="green" stroke="green" points="556.49,-188.13 558.23,-198.95 555.51,-191.78 553.89,-197.78 553.89,-197.78 553.89,-197.78 555.51,-191.78 549.54,-196.61 556.49,-188.13"/>
<text text-anchor="middle" x="562.84" y="-206.75" font-family="Times,serif" font-size="10.00">mode</text>
<text text-anchor="middle" x="554.18" y="-188.7" font-family="Times,serif" font-size="10.00">1</text>
</g>
<!-- proposalManagement:ObservationConfiguration&#45;&gt;proposal:Observation -->
<g id="edge18" class="edge">
<title>proposalManagement:ObservationConfiguration&#45;&gt;proposal:Observation</title>
<path fill="none" stroke="green" d="M520.84,-248.85C508.21,-233.97 489.79,-212.27 475.41,-195.32"/>
<polygon fill="green" stroke="green" points="469.1,-187.88 479,-192.59 471.54,-190.76 475.57,-195.5 475.57,-195.5 475.57,-195.5 471.54,-190.76 472.14,-198.42 469.1,-187.88"/>
<text text-anchor="middle" x="516.04" y="-206.75" font-family="Times,serif" font-size="10.00">observation</text>
<text text-anchor="middle" x="460.81" y="-188.7" font-family="Times,serif" font-size="10.00">1..*</text>
</g>
<!-- proposalManagement:SubmittedProposal&#45;&gt;proposal:ObservingProposal -->
<g id="edge9" class="edge">
<title>proposalManagement:SubmittedProposal&#45;&gt;proposal:ObservingProposal</title>
<path fill="none" stroke="blue" d="M414.5,-360.54C414.5,-339.96 414.5,-315.25 414.5,-296.56"/>
<polygon fill="blue" stroke="blue" points="414.5,-360.41 418.5,-366.41 414.5,-372.41 410.5,-366.41 414.5,-360.41"/>
<polygon fill="blue" stroke="blue" points="414.5,-286.74 419,-296.74 414.5,-290.53 414.5,-296.74 414.5,-296.74 414.5,-296.74 414.5,-290.53 410,-296.74 414.5,-286.74"/>
<text text-anchor="middle" x="432.12" y="-332.62" font-family="Times,serif" font-size="10.00">proposal</text>
<text text-anchor="middle" x="411.88" y="-287.28" font-family="Times,serif" font-size="10.00">1</text>
</g>
<!-- proposalManagement:SubmittedProposal&#45;&gt;proposalManagement:ObservationConfiguration -->
<g id="edge10" class="edge">
<title>proposalManagement:SubmittedProposal&#45;&gt;proposalManagement:ObservationConfiguration</title>
<path fill="none" stroke="blue" d="M447.57,-363.96C468.04,-341.65 493.82,-313.55 512.17,-293.56"/>
<polygon fill="blue" stroke="blue" points="447.71,-363.81 446.6,-370.93 439.6,-372.65 440.7,-365.52 447.71,-363.81"/>
<polygon fill="blue" stroke="blue" points="518.71,-286.42 515.26,-296.83 516.15,-289.21 511.95,-293.79 511.95,-293.79 511.95,-293.79 516.15,-289.21 508.63,-290.75 518.71,-286.42"/>
<text text-anchor="middle" x="502.52" y="-332.62" font-family="Times,serif" font-size="10.00">config</text>
<text text-anchor="middle" x="512.03" y="-287.28" font-family="Times,serif" font-size="10.00">0..*</text>
</g>
<!-- proposalManagement:ProposalReview -->
<g id="node14" class="node">
<title>proposalManagement:ProposalReview</title>
<g id="a_node14"><a xlink:href="../proposalManagement/ProposalReview" xlink:title="{ProposalReview|+comment : ivoa:string\l+score : ivoa:real\l+technicalFeasibility : ivoa:boolean\l+reviewDate : ivoa:datetime\l}">
<polygon fill="#8dd3c7" stroke="black" points="213.12,-234.75 213.12,-299.5 343.88,-299.5 343.88,-234.75 213.12,-234.75"/>
<text text-anchor="middle" x="278.5" y="-287.9" font-family="Times,serif" font-size="8.00">ProposalReview</text>
<polyline fill="none" stroke="black" points="213.12,-281.75 343.88,-281.75"/>
<text text-anchor="start" x="221.12" y="-270.15" font-family="Times,serif" font-size="8.00">+comment : ivoa:string</text>
<text text-anchor="start" x="221.12" y="-260.4" font-family="Times,serif" font-size="8.00">+score : ivoa:real</text>
<text text-anchor="start" x="221.12" y="-250.65" font-family="Times,serif" font-size="8.00">+technicalFeasibility : ivoa:boolean</text>
<text text-anchor="start" x="221.12" y="-240.9" font-family="Times,serif" font-size="8.00">+reviewDate : ivoa:datetime</text>
</a>
</g>
</g>
<!-- proposalManagement:SubmittedProposal&#45;&gt;proposalManagement:ProposalReview -->
<g id="edge11" class="edge">
<title>proposalManagement:SubmittedProposal&#45;&gt;proposalManagement:ProposalReview</title>
<path fill="none" stroke="blue" d="M377.83,-364.44C359.75,-346.91 337.88,-325.71 319.28,-307.67"/>
<polygon fill="blue" stroke="blue" points="377.72,-364.33 384.81,-365.64 386.33,-372.69 379.24,-371.38 377.72,-364.33"/>
<polygon fill="blue" stroke="blue" points="312.13,-300.73 322.44,-304.46 314.84,-303.37 319.31,-307.69 319.31,-307.69 319.31,-307.69 314.84,-303.37 316.18,-310.93 312.13,-300.73"/>
<text text-anchor="middle" x="382.38" y="-332.62" font-family="Times,serif" font-size="10.00">reviews</text>
<text text-anchor="middle" x="303.75" y="-301.64" font-family="Times,serif" font-size="10.00">1..*</text>
</g>
<!-- proposalManagement:AllocatedProposal&#45;&gt;proposalManagement:SubmittedProposal -->
<g id="edge20" class="edge">
<title>proposalManagement:AllocatedProposal&#45;&gt;proposalManagement:SubmittedProposal</title>
<path fill="none" stroke="green" d="M359.87,-502.25C353.52,-487 347.37,-464.53 356,-447 357.72,-443.5 359.86,-440.2 362.29,-437.1"/>
<polygon fill="green" stroke="green" points="369,-429.78 365.56,-440.19 366.44,-432.57 362.24,-437.15 362.24,-437.15 362.24,-437.15 366.44,-432.57 358.93,-434.11 369,-429.78"/>
<text text-anchor="middle" x="376.25" y="-461.62" font-family="Times,serif" font-size="10.00">submitted</text>
<text text-anchor="middle" x="367.2" y="-430.63" font-family="Times,serif" font-size="10.00">1</text>
</g>
<!-- proposalManagement:AllocatedBlock -->
<g id="node20" class="node">
<title>proposalManagement:AllocatedBlock</title>
<g id="a_node20"><a xlink:href="../proposalManagement/AllocatedBlock" xlink:title="{AllocatedBlock}">
<polygon fill="#8dd3c7" stroke="black" points="599.38,-383 599.38,-419 665.62,-419 665.62,-383 599.38,-383"/>
<text text-anchor="middle" x="632.5" y="-398.4" font-family="Times,serif" font-size="8.00">AllocatedBlock</text>
</a>
</g>
</g>
<!-- proposalManagement:AllocatedProposal&#45;&gt;proposalManagement:AllocatedBlock -->
<g id="edge12" class="edge">
<title>proposalManagement:AllocatedProposal&#45;&gt;proposalManagement:AllocatedBlock</title>
<path fill="none" stroke="blue" d="M418.41,-497.29C467.58,-475.4 541.97,-442.29 588.86,-421.42"/>
<polygon fill="blue" stroke="blue" points="418.39,-497.29 414.54,-503.39 407.43,-502.17 411.28,-496.08 418.39,-497.29"/>
<polygon fill="blue" stroke="blue" points="597.89,-417.4 590.59,-425.58 594.44,-418.94 588.76,-421.47 588.76,-421.47 588.76,-421.47 594.44,-418.94 586.93,-417.36 597.89,-417.4"/>
<text text-anchor="middle" x="544.77" y="-461.62" font-family="Times,serif" font-size="10.00">allocation</text>
<text text-anchor="middle" x="591.5" y="-418.66" font-family="Times,serif" font-size="10.00">1..*</text>
</g>
<!-- proposalManagement:ProposalReview&#45;&gt;proposalManagement:Reviewer -->
<g id="edge21" class="edge">
<title>proposalManagement:ProposalReview&#45;&gt;proposalManagement:Reviewer</title>
<path fill="none" stroke="green" d="M226.44,-234.49C203.45,-220.52 176.98,-204.43 156.12,-191.75"/>
<polygon fill="green" stroke="green" points="147.71,-186.64 158.59,-187.99 150.94,-188.61 156.26,-191.84 156.26,-191.84 156.26,-191.84 150.94,-188.61 153.92,-195.68 147.71,-186.64"/>
<text text-anchor="middle" x="211.86" y="-206.75" font-family="Times,serif" font-size="10.00">reviewer</text>
<text text-anchor="middle" x="149.29" y="-187.76" font-family="Times,serif" font-size="10.00">1</text>
</g>
<!-- proposalManagement:ResourceType -->
<g id="node15" class="node">
<title>proposalManagement:ResourceType</title>
<g id="a_node15"><a xlink:href="../proposalManagement/ResourceType" xlink:title="{ResourceType|+name : ivoa:string\l+unit : ivoa:string\l}">
<polygon fill="#8dd3c7" stroke="black" points="648.38,-57 648.38,-102.25 726.62,-102.25 726.62,-57 648.38,-57"/>
<text text-anchor="middle" x="687.5" y="-90.65" font-family="Times,serif" font-size="8.00">ResourceType</text>
<polyline fill="none" stroke="black" points="648.38,-84.5 726.62,-84.5"/>
<text text-anchor="start" x="656.38" y="-72.9" font-family="Times,serif" font-size="8.00">+name : ivoa:string</text>
<text text-anchor="start" x="656.38" y="-63.15" font-family="Times,serif" font-size="8.00">+unit : ivoa:string</text>
</a>
</g>
</g>
<!-- proposalManagement:Resource -->
<g id="node16" class="node">
<title>proposalManagement:Resource</title>
<g id="a_node16"><a xlink:href="../proposalManagement/Resource" xlink:title="{Resource|+amount : ivoa:real\l}">
<polygon fill="#8dd3c7" stroke="black" points="648,-150.5 648,-186.5 727,-186.5 727,-150.5 648,-150.5"/>
<text text-anchor="middle" x="687.5" y="-174.9" font-family="Times,serif" font-size="8.00">Resource</text>
<polyline fill="none" stroke="black" points="648,-168.75 727,-168.75"/>
<text text-anchor="start" x="656" y="-157.15" font-family="Times,serif" font-size="8.00">+amount : ivoa:real</text>
</a>
</g>
</g>
<!-- proposalManagement:Resource&#45;&gt;proposalManagement:ResourceType -->
<g id="edge22" class="edge">
<title>proposalManagement:Resource&#45;&gt;proposalManagement:ResourceType</title>
<path fill="none" stroke="green" d="M687.5,-150.34C687.5,-139.89 687.5,-126.19 687.5,-113.7"/>
<polygon fill="green" stroke="green" points="687.5,-103.92 692,-113.92 687.5,-107.71 687.5,-113.92 687.5,-113.92 687.5,-113.92 687.5,-107.71 683,-113.92 687.5,-103.92"/>
<text text-anchor="middle" x="696.5" y="-122.5" font-family="Times,serif" font-size="10.00">type</text>
<text text-anchor="middle" x="684.88" y="-104.46" font-family="Times,serif" font-size="10.00">1</text>
</g>
<!-- proposalManagement:AvailableResources&#45;&gt;proposalManagement:Resource -->
<g id="edge13" class="edge">
<title>proposalManagement:AvailableResources&#45;&gt;proposalManagement:Resource</title>
<path fill="none" stroke="blue" d="M816.08,-434.29C823.02,-387.64 829.75,-296.9 791.5,-234.25 779.08,-213.91 757.6,-198.97 737.38,-188.6"/>
<polygon fill="blue" stroke="blue" points="816.08,-434.28 819.06,-440.85 814.15,-446.13 811.17,-439.56 816.08,-434.28"/>
<polygon fill="blue" stroke="blue" points="728.38,-184.26 739.35,-184.55 731.79,-185.9 737.39,-188.6 737.39,-188.6 737.39,-188.6 731.79,-185.9 735.44,-192.65 728.38,-184.26"/>
<text text-anchor="middle" x="840.05" y="-332.62" font-family="Times,serif" font-size="10.00">resources</text>
<text text-anchor="middle" x="734.79" y="-185.48" font-family="Times,serif" font-size="10.00">0..*</text>
</g>
<!-- proposalManagement:ResourceBlock -->
<g id="node19" class="node">
<title>proposalManagement:ResourceBlock</title>
<g id="a_node19"><a xlink:href="../proposalManagement/ResourceBlock" xlink:title="{ResourceBlock}">
<polygon fill="#8dd3c7" stroke="black" points="603.12,-249.12 603.12,-285.12 667.88,-285.12 667.88,-249.12 603.12,-249.12"/>
<text text-anchor="middle" x="635.5" y="-264.52" font-family="Times,serif" font-size="8.00">ResourceBlock</text>
</a>
</g>
</g>
<!-- proposalManagement:ResourceBlock&#45;&gt;proposal:ObservingMode -->
<g id="edge23" class="edge">
<title>proposalManagement:ResourceBlock&#45;&gt;proposal:ObservingMode</title>
<path fill="none" stroke="green" d="M622.27,-248.85C610.98,-234.1 594.56,-212.66 581.63,-195.79"/>
<polygon fill="green" stroke="green" points="575.61,-187.92 585.26,-193.12 577.9,-190.92 581.69,-195.86 581.69,-195.86 581.69,-195.86 577.9,-190.92 578.11,-198.59 575.61,-187.92"/>
<text text-anchor="middle" x="607.53" y="-206.75" font-family="Times,serif" font-size="10.00">mode</text>
<text text-anchor="middle" x="572.24" y="-188.7" font-family="Times,serif" font-size="10.00">1</text>
</g>
<!-- proposalManagement:ResourceBlock&#45;&gt;proposalManagement:Resource -->
<g id="edge14" class="edge">
<title>proposalManagement:ResourceBlock&#45;&gt;proposalManagement:Resource</title>
<path fill="none" stroke="blue" d="M650.81,-237.67C657.8,-224.7 666.02,-209.41 672.92,-196.6"/>
<polygon fill="blue" stroke="blue" points="650.91,-237.49 651.59,-244.67 645.22,-248.06 644.54,-240.88 650.91,-237.49"/>
<polygon fill="blue" stroke="blue" points="677.53,-188.02 676.75,-198.96 675.74,-191.35 672.79,-196.83 672.79,-196.83 672.79,-196.83 675.74,-191.35 668.83,-194.7 677.53,-188.02"/>
<text text-anchor="middle" x="684.56" y="-206.75" font-family="Times,serif" font-size="10.00">resource</text>
<text text-anchor="middle" x="675.48" y="-188.7" font-family="Times,serif" font-size="10.00">1</text>
</g>
<!-- proposalManagement:AllocatedBlock&#45;&gt;proposalManagement:AllocationGrade -->
<g id="edge24" class="edge">
<title>proposalManagement:AllocatedBlock&#45;&gt;proposalManagement:AllocationGrade</title>
<path fill="none" stroke="green" d="M636.88,-382.58C641.95,-364.94 651.63,-337.55 667,-318 673.09,-310.26 680.66,-303.13 688.52,-296.83"/>
<polygon fill="green" stroke="green" points="696.47,-290.82 691.21,-300.44 693.45,-293.1 688.49,-296.85 688.49,-296.85 688.49,-296.85 693.45,-293.1 685.78,-293.26 696.47,-290.82"/>
<text text-anchor="middle" x="678.25" y="-332.62" font-family="Times,serif" font-size="10.00">grade</text>
<text text-anchor="middle" x="694.81" y="-291.83" font-family="Times,serif" font-size="10.00">1</text>
</g>
<!-- proposalManagement:AllocatedBlock&#45;&gt;proposalManagement:ResourceBlock -->
<g id="edge1" class="edge">
<title>proposalManagement:AllocatedBlock&#45;&gt;proposalManagement:ResourceBlock</title>
<path fill="none" stroke="red" d="M632.89,-382.76C633.39,-360.94 634.25,-323.05 634.85,-296.84"/>
<polygon fill="none" stroke="red" points="638.34,-296.96 635.07,-286.88 631.35,-296.8 638.34,-296.96"/>
</g>
</g>
</svg>
