<?xml version="1.0" encoding="UTF-8" standalone="no"?>
<!DOCTYPE svg PUBLIC "-//W3C//DTD SVG 1.1//EN"
 "http://www.w3.org/Graphics/SVG/1.1/DTD/svg11.dtd">
<!-- Generated by graphviz version 10.0.1 (20240210.2158)
 -->
<!-- Title: GVmap Pages: 1 -->
<svg width="802pt" height="747pt"
 viewBox="0.00 0.00 802.25 746.75" xmlns="http://www.w3.org/2000/svg" xmlns:xlink="http://www.w3.org/1999/xlink">
<g id="graph0" class="graph" transform="scale(1 1) rotate(0) translate(4 742.75)">
<title>GVmap</title>
<polygon fill="white" stroke="none" points="-4,4 -4,-742.75 798.25,-742.75 798.25,4 -4,4"/>
<text text-anchor="middle" x="397.12" y="-7.2" font-family="Times,serif" font-size="14.00">proposalManagement data model</text>
<!-- proposal:ObservingMode -->
<g id="node1" class="node">
<title>proposal:ObservingMode</title>
<g id="a_node1"><a xlink:href="#ObservingMode" xlink:title="{proposal:ObservingMode}">
<polygon fill="grey" stroke="black" points="336.25,-150.5 336.25,-186.5 432.5,-186.5 432.5,-150.5 336.25,-150.5"/>
<text text-anchor="middle" x="384.38" y="-165.9" font-family="Times,serif" font-size="8.00">proposal:ObservingMode</text>
</a>
</g>
</g>
<!-- proposal:Observatory -->
<g id="node2" class="node">
<title>proposal:Observatory</title>
<g id="a_node2"><a xlink:href="#Observatory" xlink:title="{proposal:Observatory}">
<polygon fill="grey" stroke="black" points="104.88,-471.62 104.88,-507.62 189.88,-507.62 189.88,-471.62 104.88,-471.62"/>
<text text-anchor="middle" x="147.38" y="-487.02" font-family="Times,serif" font-size="8.00">proposal:Observatory</text>
</a>
</g>
</g>
<!-- proposal:Person -->
<g id="node3" class="node">
<title>proposal:Person</title>
<g id="a_node3"><a xlink:href="#Person" xlink:title="{proposal:Person}">
<polygon fill="grey" stroke="black" points="101.88,-150.5 101.88,-186.5 168.88,-186.5 168.88,-150.5 101.88,-150.5"/>
<text text-anchor="middle" x="135.38" y="-165.9" font-family="Times,serif" font-size="8.00">proposal:Person</text>
</a>
</g>
</g>
<!-- proposal:ObservingProposal -->
<g id="node4" class="node">
<title>proposal:ObservingProposal</title>
<g id="a_node4"><a xlink:href="#ObservingProposal" xlink:title="{proposal:ObservingProposal}">
<polygon fill="grey" stroke="black" points="394.38,-239.38 394.38,-275.38 500.38,-275.38 500.38,-239.38 394.38,-239.38"/>
<text text-anchor="middle" x="447.38" y="-254.78" font-family="Times,serif" font-size="8.00">proposal:ObservingProposal</text>
</a>
</g>
</g>
<!-- proposalManagement:TacRole -->
<g id="node5" class="node">
<title>proposalManagement:TacRole</title>
<g id="a_node5"><a xlink:href="../proposalManagement/TacRole" xlink:title="{&amp;lt;&amp;lt;enumeration&amp;gt;&amp;gt;\nTacRole|+TechnicalReviewer\l+ScienceReviewer\l+Chair\l}">
<polygon fill="#8dd3c7" stroke="black" points="451,-673.5 451,-738.25 533.75,-738.25 533.75,-673.5 451,-673.5"/>
<text text-anchor="middle" x="492.38" y="-726.65" font-family="Times,serif" font-size="8.00">&lt;&lt;enumeration&gt;&gt;</text>
<text text-anchor="middle" x="492.38" y="-716.9" font-family="Times,serif" font-size="8.00">TacRole</text>
<polyline fill="none" stroke="black" points="451,-710.75 533.75,-710.75"/>
<text text-anchor="start" x="459" y="-699.15" font-family="Times,serif" font-size="8.00">+TechnicalReviewer</text>
<text text-anchor="start" x="459" y="-689.4" font-family="Times,serif" font-size="8.00">+ScienceReviewer</text>
<text text-anchor="start" x="459" y="-679.65" font-family="Times,serif" font-size="8.00">+Chair</text>
</a>
</g>
</g>
<!-- proposalManagement:OfferedCycles -->
<g id="node6" class="node">
<title>proposalManagement:OfferedCycles</title>
<g id="a_node6"><a xlink:href="../proposalManagement/OfferedCycles" xlink:title="{OfferedCycles}">
<polygon fill="#8dd3c7" stroke="black" points="370.12,-687.88 370.12,-723.88 432.62,-723.88 432.62,-687.88 370.12,-687.88"/>
<text text-anchor="middle" x="401.38" y="-703.27" font-family="Times,serif" font-size="8.00">OfferedCycles</text>
</a>
</g>
</g>
<!-- proposalManagement:ProposalCycle -->
<g id="node7" class="node">
<title>proposalManagement:ProposalCycle</title>
<g id="a_node7"><a xlink:href="../proposalManagement/ProposalCycle" xlink:title="{ProposalCycle|+title : ivoa:string\l+submissionDeadline : ivoa:datetime\l+observationSessionStart : ivoa:datetime\l+observationSessionEnd : ivoa:datetime\l}">
<polygon fill="#8dd3c7" stroke="black" points="327.75,-560.5 327.75,-625.25 475,-625.25 475,-560.5 327.75,-560.5"/>
<text text-anchor="middle" x="401.38" y="-613.65" font-family="Times,serif" font-size="8.00">ProposalCycle</text>
<polyline fill="none" stroke="black" points="327.75,-607.5 475,-607.5"/>
<text text-anchor="start" x="335.75" y="-595.9" font-family="Times,serif" font-size="8.00">+title : ivoa:string</text>
<text text-anchor="start" x="335.75" y="-586.15" font-family="Times,serif" font-size="8.00">+submissionDeadline : ivoa:datetime</text>
<text text-anchor="start" x="335.75" y="-576.4" font-family="Times,serif" font-size="8.00">+observationSessionStart : ivoa:datetime</text>
<text text-anchor="start" x="335.75" y="-566.65" font-family="Times,serif" font-size="8.00">+observationSessionEnd : ivoa:datetime</text>
</a>
</g>
</g>
<!-- proposalManagement:OfferedCycles&#45;&gt;proposalManagement:ProposalCycle -->
<g id="edge2" class="edge">
<title>proposalManagement:OfferedCycles&#45;&gt;proposalManagement:ProposalCycle</title>
<path fill="none" stroke="blue" d="M401.38,-674.6C401.38,-662.79 401.38,-649.04 401.38,-636.28"/>
<polygon fill="blue" stroke="blue" points="401.38,-674.63 405.38,-680.63 401.38,-686.63 397.38,-680.63 401.38,-674.63"/>
<polygon fill="blue" stroke="blue" points="401.38,-626.6 405.88,-636.6 401.38,-630.39 401.38,-636.6 401.38,-636.6 401.38,-636.6 401.38,-630.39 396.88,-636.6 401.38,-626.6"/>
<text text-anchor="middle" x="414.12" y="-645.5" font-family="Times,serif" font-size="10.00">cycles</text>
<text text-anchor="middle" x="393.88" y="-627.14" font-family="Times,serif" font-size="10.00">1..*</text>
</g>
<!-- proposalManagement:ProposalCycle&#45;&gt;proposal:ObservingMode -->
<g id="edge3" class="edge">
<title>proposalManagement:ProposalCycle&#45;&gt;proposal:ObservingMode</title>
<path fill="none" stroke="blue" d="M395.9,-547.39C389.77,-509.37 377.38,-454.2 353.38,-411.5 347.95,-401.84 340.26,-403.78 336.12,-393.5 325.23,-366.38 331.82,-356.65 336.12,-327.75 343.17,-280.48 361.44,-227.81 373.37,-196.72"/>
<polygon fill="blue" stroke="blue" points="395.89,-547.32 400.74,-552.66 397.68,-559.19 392.83,-553.85 395.89,-547.32"/>
<polygon fill="blue" stroke="blue" points="376.85,-187.81 377.4,-198.76 375.47,-191.33 373.21,-197.12 373.21,-197.12 373.21,-197.12 375.47,-191.33 369.02,-195.49 376.85,-187.81"/>
<text text-anchor="middle" x="370.5" y="-356.75" font-family="Times,serif" font-size="10.00">observingModes</text>
<text text-anchor="middle" x="369.79" y="-188.42" font-family="Times,serif" font-size="10.00">1..*</text>
</g>
<!-- proposalManagement:ProposalCycle&#45;&gt;proposal:Observatory -->
<g id="edge15" class="edge">
<title>proposalManagement:ProposalCycle&#45;&gt;proposal:Observatory</title>
<path fill="none" stroke="green" d="M327.44,-574.99C296.74,-566.79 261.17,-555.71 230.38,-542 213.23,-534.36 195.39,-523.72 180.66,-514.1"/>
<polygon fill="green" stroke="green" points="172.48,-508.65 183.3,-510.45 175.63,-510.74 180.8,-514.19 180.8,-514.19 180.8,-514.19 175.63,-510.74 178.3,-517.94 172.48,-508.65"/>
<text text-anchor="middle" x="254.38" y="-532.5" font-family="Times,serif" font-size="10.00">observatory</text>
<text text-anchor="middle" x="168.84" y="-509.72" font-family="Times,serif" font-size="10.00">1</text>
</g>
<!-- proposalManagement:TAC -->
<g id="node10" class="node">
<title>proposalManagement:TAC</title>
<g id="a_node10"><a xlink:href="../proposalManagement/TAC" xlink:title="{TAC}">
<polygon fill="#8dd3c7" stroke="black" points="32.38,-471.62 32.38,-507.62 86.38,-507.62 86.38,-471.62 32.38,-471.62"/>
<text text-anchor="middle" x="59.38" y="-487.02" font-family="Times,serif" font-size="8.00">TAC</text>
</a>
</g>
</g>
<!-- proposalManagement:ProposalCycle&#45;&gt;proposalManagement:TAC -->
<g id="edge6" class="edge">
<title>proposalManagement:ProposalCycle&#45;&gt;proposalManagement:TAC</title>
<path fill="none" stroke="blue" d="M314.72,-577.51C254.56,-565.72 173.14,-546.09 95.96,-512.47"/>
<polygon fill="blue" stroke="blue" points="314.67,-577.5 321.32,-574.71 326.46,-579.76 319.81,-582.56 314.67,-577.5"/>
<polygon fill="blue" stroke="blue" points="87.2,-508.58 98.17,-508.53 90.66,-510.11 96.34,-512.64 96.34,-512.64 96.34,-512.64 90.66,-510.11 94.51,-516.75 87.2,-508.58"/>
<text text-anchor="middle" x="174.38" y="-532.5" font-family="Times,serif" font-size="10.00">tac</text>
<text text-anchor="middle" x="83.46" y="-509.83" font-family="Times,serif" font-size="10.00">1</text>
</g>
<!-- proposalManagement:SubmittedProposal -->
<g id="node11" class="node">
<title>proposalManagement:SubmittedProposal</title>
<g id="a_node11"><a xlink:href="../proposalManagement/SubmittedProposal" xlink:title="{SubmittedProposal|+submissionDate : ivoa:datetime\l}">
<polygon fill="#8dd3c7" stroke="black" points="413.88,-342.62 413.88,-378.62 534.88,-378.62 534.88,-342.62 413.88,-342.62"/>
<text text-anchor="middle" x="474.38" y="-367.02" font-family="Times,serif" font-size="8.00">SubmittedProposal</text>
<polyline fill="none" stroke="black" points="413.88,-360.88 534.88,-360.88"/>
<text text-anchor="start" x="421.88" y="-349.27" font-family="Times,serif" font-size="8.00">+submissionDate : ivoa:datetime</text>
</a>
</g>
</g>
<!-- proposalManagement:ProposalCycle&#45;&gt;proposalManagement:SubmittedProposal -->
<g id="edge7" class="edge">
<title>proposalManagement:ProposalCycle&#45;&gt;proposalManagement:SubmittedProposal</title>
<path fill="none" stroke="blue" d="M410.98,-547.73C416.61,-523.53 424.3,-493.12 432.88,-466.5 441.51,-439.68 453.55,-409.87 462.44,-388.91"/>
<polygon fill="blue" stroke="blue" points="411.02,-547.55 413.58,-554.29 408.35,-559.24 405.78,-552.5 411.02,-547.55"/>
<polygon fill="blue" stroke="blue" points="466.29,-379.94 466.48,-390.9 464.8,-383.41 462.35,-389.13 462.35,-389.13 462.35,-389.13 464.8,-383.41 458.21,-387.35 466.29,-379.94"/>
<text text-anchor="middle" x="473.12" y="-485.75" font-family="Times,serif" font-size="10.00">submittedProposals</text>
<text text-anchor="middle" x="459.27" y="-380.57" font-family="Times,serif" font-size="10.00">0..*</text>
</g>
<!-- proposalManagement:ReviewedProposal -->
<g id="node12" class="node">
<title>proposalManagement:ReviewedProposal</title>
<g id="a_node12"><a xlink:href="../proposalManagement/ReviewedProposal" xlink:title="{ReviewedProposal|+successful : ivoa:boolean\l+reviewsCompleteDate : ivoa:datetime\l}">
<polygon fill="#8dd3c7" stroke="black" points="208,-467 208,-512.25 350.75,-512.25 350.75,-467 208,-467"/>
<text text-anchor="middle" x="279.38" y="-500.65" font-family="Times,serif" font-size="8.00">ReviewedProposal</text>
<polyline fill="none" stroke="black" points="208,-494.5 350.75,-494.5"/>
<text text-anchor="start" x="216" y="-482.9" font-family="Times,serif" font-size="8.00">+successful : ivoa:boolean</text>
<text text-anchor="start" x="216" y="-473.15" font-family="Times,serif" font-size="8.00">+reviewsCompleteDate : ivoa:datetime</text>
</a>
</g>
</g>
<!-- proposalManagement:ProposalCycle&#45;&gt;proposalManagement:ReviewedProposal -->
<g id="edge8" class="edge">
<title>proposalManagement:ProposalCycle&#45;&gt;proposalManagement:ReviewedProposal</title>
<path fill="none" stroke="blue" d="M315.98,-565.93C305.25,-559.58 295.42,-551.71 287.88,-542 283.79,-536.74 281.35,-530.25 279.95,-523.68"/>
<polygon fill="blue" stroke="blue" points="316.03,-565.96 323.2,-565.25 326.62,-571.6 319.44,-572.31 316.03,-565.96"/>
<polygon fill="blue" stroke="blue" points="278.63,-513.95 284.43,-523.25 279.14,-517.69 279.98,-523.86 279.98,-523.86 279.98,-523.86 279.14,-517.69 275.52,-524.46 278.63,-513.95"/>
<text text-anchor="middle" x="326.62" y="-532.5" font-family="Times,serif" font-size="10.00">reviewedProposals</text>
<text text-anchor="middle" x="270.97" y="-514.49" font-family="Times,serif" font-size="10.00">0..*</text>
</g>
<!-- proposalManagement:AllocatedProposal -->
<g id="node13" class="node">
<title>proposalManagement:AllocatedProposal</title>
<g id="a_node13"><a xlink:href="../proposalManagement/AllocatedProposal" xlink:title="{AllocatedProposal}">
<polygon fill="#8dd3c7" stroke="black" points="521.75,-471.62 521.75,-507.62 597,-507.62 597,-471.62 521.75,-471.62"/>
<text text-anchor="middle" x="559.38" y="-487.02" font-family="Times,serif" font-size="8.00">AllocatedProposal</text>
</a>
</g>
</g>
<!-- proposalManagement:ProposalCycle&#45;&gt;proposalManagement:AllocatedProposal -->
<g id="edge9" class="edge">
<title>proposalManagement:ProposalCycle&#45;&gt;proposalManagement:AllocatedProposal</title>
<path fill="none" stroke="blue" d="M461.6,-553.28C482.34,-539.99 504.91,-525.52 523.14,-513.84"/>
<polygon fill="blue" stroke="blue" points="461.8,-553.16 458.9,-559.76 451.69,-559.63 454.59,-553.03 461.8,-553.16"/>
<polygon fill="blue" stroke="blue" points="531.49,-508.5 525.49,-517.68 528.3,-510.54 523.07,-513.89 523.07,-513.89 523.07,-513.89 528.3,-510.54 520.64,-510.1 531.49,-508.5"/>
<text text-anchor="middle" x="533.62" y="-532.5" font-family="Times,serif" font-size="10.00">allocatedProposals</text>
<text text-anchor="middle" x="525.01" y="-509.59" font-family="Times,serif" font-size="10.00">0..*</text>
</g>
<!-- proposalManagement:AvailableResources -->
<g id="node17" class="node">
<title>proposalManagement:AvailableResources</title>
<g id="a_node17"><a xlink:href="../proposalManagement/AvailableResources" xlink:title="{AvailableResources}">
<polygon fill="#8dd3c7" stroke="black" points="714.5,-412 714.5,-448 794.25,-448 794.25,-412 714.5,-412"/>
<text text-anchor="middle" x="754.38" y="-427.4" font-family="Times,serif" font-size="8.00">AvailableResources</text>
</a>
</g>
</g>
<!-- proposalManagement:ProposalCycle&#45;&gt;proposalManagement:AvailableResources -->
<g id="edge4" class="edge">
<title>proposalManagement:ProposalCycle&#45;&gt;proposalManagement:AvailableResources</title>
<path fill="none" stroke="blue" d="M488.06,-589.78C541.24,-585.11 608.94,-572.83 661.38,-542 695.81,-521.75 723.33,-483.87 739.25,-458.05"/>
<polygon fill="blue" stroke="blue" points="488.08,-589.78 482.42,-594.24 476.12,-590.72 481.79,-586.26 488.08,-589.78"/>
<polygon fill="blue" stroke="blue" points="744.34,-449.52 743.08,-460.42 742.4,-452.77 739.22,-458.11 739.22,-458.11 739.22,-458.11 742.4,-452.77 735.35,-455.8 744.34,-449.52"/>
<text text-anchor="middle" x="716.75" y="-532.5" font-family="Times,serif" font-size="10.00">availableResources</text>
<text text-anchor="middle" x="742.34" y="-450.23" font-family="Times,serif" font-size="10.00">1</text>
</g>
<!-- proposalManagement:AllocationGrade -->
<g id="node18" class="node">
<title>proposalManagement:AllocationGrade</title>
<g id="a_node18"><a xlink:href="../proposalManagement/AllocationGrade" xlink:title="{AllocationGrade|+name : ivoa:string\l+description : ivoa:string\l}">
<polygon fill="#8dd3c7" stroke="black" points="601.25,-234.75 601.25,-280 697.5,-280 697.5,-234.75 601.25,-234.75"/>
<text text-anchor="middle" x="649.38" y="-268.4" font-family="Times,serif" font-size="8.00">AllocationGrade</text>
<polyline fill="none" stroke="black" points="601.25,-262.25 697.5,-262.25"/>
<text text-anchor="start" x="609.25" y="-250.65" font-family="Times,serif" font-size="8.00">+name : ivoa:string</text>
<text text-anchor="start" x="609.25" y="-240.9" font-family="Times,serif" font-size="8.00">+description : ivoa:string</text>
</a>
</g>
</g>
<!-- proposalManagement:ProposalCycle&#45;&gt;proposalManagement:AllocationGrade -->
<g id="edge5" class="edge">
<title>proposalManagement:ProposalCycle&#45;&gt;proposalManagement:AllocationGrade</title>
<path fill="none" stroke="blue" d="M488.14,-584.11C533.1,-574.89 583.32,-555.07 606.38,-512.75 645.54,-440.87 650.7,-341.97 650.45,-291.27"/>
<polygon fill="blue" stroke="blue" points="488,-584.14 482.83,-589.17 476.2,-586.33 481.37,-581.3 488,-584.14"/>
<polygon fill="blue" stroke="blue" points="650.32,-281.55 654.95,-291.49 650.37,-285.33 650.45,-291.55 650.45,-291.55 650.45,-291.55 650.37,-285.33 645.95,-291.61 650.32,-281.55"/>
<text text-anchor="middle" x="670.5" y="-426.12" font-family="Times,serif" font-size="10.00">possibleGrades</text>
<text text-anchor="middle" x="642.8" y="-282.08" font-family="Times,serif" font-size="10.00">1..*</text>
</g>
<!-- proposalManagement:Reviewer -->
<g id="node8" class="node">
<title>proposalManagement:Reviewer</title>
<g id="a_node8"><a xlink:href="../proposalManagement/Reviewer" xlink:title="{Reviewer}">
<polygon fill="#8dd3c7" stroke="black" points="108.38,-239.38 108.38,-275.38 162.38,-275.38 162.38,-239.38 108.38,-239.38"/>
<text text-anchor="middle" x="135.12" y="-254.78" font-family="Times,serif" font-size="8.00">Reviewer</text>
</a>
</g>
</g>
<!-- proposalManagement:Reviewer&#45;&gt;proposal:Person -->
<g id="edge16" class="edge">
<title>proposalManagement:Reviewer&#45;&gt;proposal:Person</title>
<path fill="none" stroke="green" d="M135.38,-239.21C135.38,-227.51 135.38,-211.73 135.38,-198.14"/>
<polygon fill="green" stroke="green" points="135.38,-188.14 139.88,-198.14 135.38,-191.93 135.38,-198.14 135.38,-198.14 135.38,-198.14 135.38,-191.93 130.88,-198.14 135.38,-188.14"/>
<text text-anchor="middle" x="148.88" y="-206.75" font-family="Times,serif" font-size="10.00">person</text>
<text text-anchor="middle" x="132.75" y="-188.68" font-family="Times,serif" font-size="10.00">1</text>
</g>
<!-- proposalManagement:CommitteeMember -->
<g id="node9" class="node">
<title>proposalManagement:CommitteeMember</title>
<g id="a_node9"><a xlink:href="../proposalManagement/CommitteeMember" xlink:title="{CommitteeMember|+role : proposalManagement:TacRole\l}">
<polygon fill="#8dd3c7" stroke="black" points="0,-342.62 0,-378.62 136.75,-378.62 136.75,-342.62 0,-342.62"/>
<text text-anchor="middle" x="68.38" y="-367.02" font-family="Times,serif" font-size="8.00">CommitteeMember</text>
<polyline fill="none" stroke="black" points="0,-360.88 136.75,-360.88"/>
<text text-anchor="start" x="8" y="-349.27" font-family="Times,serif" font-size="8.00">+role : proposalManagement:TacRole</text>
</a>
</g>
</g>
<!-- proposalManagement:CommitteeMember&#45;&gt;proposalManagement:Reviewer -->
<g id="edge17" class="edge">
<title>proposalManagement:CommitteeMember&#45;&gt;proposalManagement:Reviewer</title>
<path fill="none" stroke="green" d="M79.74,-342.45C90.18,-326.67 105.82,-303.03 117.86,-284.84"/>
<polygon fill="green" stroke="green" points="123.28,-276.65 121.52,-287.47 121.19,-279.8 117.76,-284.99 117.76,-284.99 117.76,-284.99 121.19,-279.8 114.01,-282.51 123.28,-276.65"/>
<text text-anchor="middle" x="124.5" y="-300.25" font-family="Times,serif" font-size="10.00">member</text>
<text text-anchor="middle" x="121.33" y="-277.38" font-family="Times,serif" font-size="10.00">1</text>
</g>
<!-- proposalManagement:TAC&#45;&gt;proposalManagement:CommitteeMember -->
<g id="edge10" class="edge">
<title>proposalManagement:TAC&#45;&gt;proposalManagement:CommitteeMember</title>
<path fill="none" stroke="blue" d="M61.51,-458.55C62.98,-437.76 64.93,-410.28 66.37,-389.89"/>
<polygon fill="blue" stroke="blue" points="61.52,-458.36 65.09,-464.63 60.67,-470.33 57.11,-464.07 61.52,-458.36"/>
<polygon fill="blue" stroke="blue" points="67.07,-380.02 70.85,-390.32 66.8,-383.79 66.36,-390 66.36,-390 66.36,-390 66.8,-383.79 61.88,-389.68 67.07,-380.02"/>
<text text-anchor="middle" x="83.38" y="-426.12" font-family="Times,serif" font-size="10.00">members</text>
<text text-anchor="middle" x="59.66" y="-380.56" font-family="Times,serif" font-size="10.00">1..*</text>
</g>
<!-- proposalManagement:SubmittedProposal&#45;&gt;proposal:ObservingProposal -->
<g id="edge18" class="edge">
<title>proposalManagement:SubmittedProposal&#45;&gt;proposal:ObservingProposal</title>
<path fill="none" stroke="green" d="M469.79,-342.45C465.7,-327.1 459.63,-304.34 454.84,-286.36"/>
<polygon fill="green" stroke="green" points="452.29,-276.81 459.22,-285.32 453.27,-280.47 454.87,-286.47 454.87,-286.47 454.87,-286.47 453.27,-280.47 450.52,-287.63 452.29,-276.81"/>
<text text-anchor="middle" x="479" y="-300.25" font-family="Times,serif" font-size="10.00">proposal</text>
<text text-anchor="middle" x="449.35" y="-277.38" font-family="Times,serif" font-size="10.00">1</text>
</g>
<!-- proposalManagement:ReviewedProposal&#45;&gt;proposalManagement:SubmittedProposal -->
<g id="edge19" class="edge">
<title>proposalManagement:ReviewedProposal&#45;&gt;proposalManagement:SubmittedProposal</title>
<path fill="none" stroke="green" d="M301.87,-466.55C319.42,-450.06 344.94,-427.68 369.88,-411.5 385.95,-401.07 404.53,-391.5 421.54,-383.58"/>
<polygon fill="green" stroke="green" points="430.22,-379.63 422.99,-387.87 426.78,-381.2 421.12,-383.77 421.12,-383.77 421.12,-383.77 426.78,-381.2 419.26,-379.68 430.22,-379.63"/>
<text text-anchor="middle" x="390.62" y="-426.12" font-family="Times,serif" font-size="10.00">submitted</text>
<text text-anchor="middle" x="428.71" y="-380.87" font-family="Times,serif" font-size="10.00">1</text>
</g>
<!-- proposalManagement:ProposalReview -->
<g id="node14" class="node">
<title>proposalManagement:ProposalReview</title>
<g id="a_node14"><a xlink:href="../proposalManagement/ProposalReview" xlink:title="{ProposalReview|+comment : ivoa:string\l+score : ivoa:real\l+technicalFeasibility : ivoa:boolean\l+reviewDate : ivoa:datetime\l}">
<polygon fill="#8dd3c7" stroke="black" points="157,-328.25 157,-393 287.75,-393 287.75,-328.25 157,-328.25"/>
<text text-anchor="middle" x="222.38" y="-381.4" font-family="Times,serif" font-size="8.00">ProposalReview</text>
<polyline fill="none" stroke="black" points="157,-375.25 287.75,-375.25"/>
<text text-anchor="start" x="165" y="-363.65" font-family="Times,serif" font-size="8.00">+comment : ivoa:string</text>
<text text-anchor="start" x="165" y="-353.9" font-family="Times,serif" font-size="8.00">+score : ivoa:real</text>
<text text-anchor="start" x="165" y="-344.15" font-family="Times,serif" font-size="8.00">+technicalFeasibility : ivoa:boolean</text>
<text text-anchor="start" x="165" y="-334.4" font-family="Times,serif" font-size="8.00">+reviewDate : ivoa:datetime</text>
</a>
</g>
</g>
<!-- proposalManagement:ReviewedProposal&#45;&gt;proposalManagement:ProposalReview -->
<g id="edge11" class="edge">
<title>proposalManagement:ReviewedProposal&#45;&gt;proposalManagement:ProposalReview</title>
<path fill="none" stroke="blue" d="M251.57,-456.48C249.86,-453.86 248.27,-451.19 246.88,-448.5 239.75,-434.75 234.48,-418.67 230.69,-404.11"/>
<polygon fill="blue" stroke="blue" points="251.51,-456.4 258.27,-458.9 258.56,-466.11 251.8,-463.6 251.51,-456.4"/>
<polygon fill="blue" stroke="blue" points="228.36,-394.52 235.09,-403.17 229.25,-398.19 230.72,-404.24 230.72,-404.24 230.72,-404.24 229.25,-398.19 226.35,-405.3 228.36,-394.52"/>
<text text-anchor="middle" x="263.12" y="-426.12" font-family="Times,serif" font-size="10.00">reviews</text>
<text text-anchor="middle" x="220.57" y="-395.09" font-family="Times,serif" font-size="10.00">1..*</text>
</g>
<!-- proposalManagement:AllocatedProposal&#45;&gt;proposalManagement:SubmittedProposal -->
<g id="edge20" class="edge">
<title>proposalManagement:AllocatedProposal&#45;&gt;proposalManagement:SubmittedProposal</title>
<path fill="none" stroke="green" d="M542.1,-471.39C535.69,-464.56 528.59,-456.45 522.88,-448.5 509.21,-429.51 496.43,-406.3 487.43,-388.65"/>
<polygon fill="green" stroke="green" points="483.13,-380.06 491.63,-386.99 484.82,-383.45 487.6,-389.01 487.6,-389.01 487.6,-389.01 484.82,-383.45 483.58,-391.02 483.13,-380.06"/>
<text text-anchor="middle" x="542.62" y="-426.12" font-family="Times,serif" font-size="10.00">submitted</text>
<text text-anchor="middle" x="479.95" y="-380.72" font-family="Times,serif" font-size="10.00">1</text>
</g>
<!-- proposalManagement:AllocatedBlock -->
<g id="node20" class="node">
<title>proposalManagement:AllocatedBlock</title>
<g id="a_node20"><a xlink:href="../proposalManagement/AllocatedBlock" xlink:title="{AllocatedBlock}">
<polygon fill="#8dd3c7" stroke="black" points="553.25,-342.62 553.25,-378.62 619.5,-378.62 619.5,-342.62 553.25,-342.62"/>
<text text-anchor="middle" x="586.38" y="-358.02" font-family="Times,serif" font-size="8.00">AllocatedBlock</text>
</a>
</g>
</g>
<!-- proposalManagement:AllocatedProposal&#45;&gt;proposalManagement:AllocatedBlock -->
<g id="edge12" class="edge">
<title>proposalManagement:AllocatedProposal&#45;&gt;proposalManagement:AllocatedBlock</title>
<path fill="none" stroke="blue" d="M565.77,-458.55C570.21,-437.66 576.09,-410.02 580.43,-389.6"/>
<polygon fill="blue" stroke="blue" points="565.76,-458.61 568.42,-465.31 563.26,-470.35 560.6,-463.65 565.76,-458.61"/>
<polygon fill="blue" stroke="blue" points="582.47,-380 584.79,-390.72 581.68,-383.7 580.39,-389.78 580.39,-389.78 580.39,-389.78 581.68,-383.7 575.99,-388.84 582.47,-380"/>
<text text-anchor="middle" x="595" y="-426.12" font-family="Times,serif" font-size="10.00">allocation</text>
<text text-anchor="middle" x="575.22" y="-380.56" font-family="Times,serif" font-size="10.00">1..*</text>
</g>
<!-- proposalManagement:ProposalReview&#45;&gt;proposalManagement:Reviewer -->
<g id="edge21" class="edge">
<title>proposalManagement:ProposalReview&#45;&gt;proposalManagement:Reviewer</title>
<path fill="none" stroke="green" d="M195.09,-327.87C182.9,-313.69 168.74,-297.21 157.27,-283.86"/>
<polygon fill="green" stroke="green" points="150.96,-276.51 160.89,-281.17 153.43,-279.38 157.48,-284.1 157.48,-284.1 157.48,-284.1 153.43,-279.38 154.06,-287.03 150.96,-276.51"/>
<text text-anchor="middle" x="197" y="-300.25" font-family="Times,serif" font-size="10.00">reviewer</text>
<text text-anchor="middle" x="147.54" y="-277.34" font-family="Times,serif" font-size="10.00">1</text>
</g>
<!-- proposalManagement:ResourceType -->
<g id="node15" class="node">
<title>proposalManagement:ResourceType</title>
<g id="a_node15"><a xlink:href="../proposalManagement/ResourceType" xlink:title="{ResourceType|+name : ivoa:string\l+unit : ivoa:string\l}">
<polygon fill="#8dd3c7" stroke="black" points="636.25,-57 636.25,-102.25 714.5,-102.25 714.5,-57 636.25,-57"/>
<text text-anchor="middle" x="675.38" y="-90.65" font-family="Times,serif" font-size="8.00">ResourceType</text>
<polyline fill="none" stroke="black" points="636.25,-84.5 714.5,-84.5"/>
<text text-anchor="start" x="644.25" y="-72.9" font-family="Times,serif" font-size="8.00">+name : ivoa:string</text>
<text text-anchor="start" x="644.25" y="-63.15" font-family="Times,serif" font-size="8.00">+unit : ivoa:string</text>
</a>
</g>
</g>
<!-- proposalManagement:Resource -->
<g id="node16" class="node">
<title>proposalManagement:Resource</title>
<g id="a_node16"><a xlink:href="../proposalManagement/Resource" xlink:title="{Resource|+amount : ivoa:real\l}">
<polygon fill="#8dd3c7" stroke="black" points="635.88,-150.5 635.88,-186.5 714.88,-186.5 714.88,-150.5 635.88,-150.5"/>
<text text-anchor="middle" x="675.38" y="-174.9" font-family="Times,serif" font-size="8.00">Resource</text>
<polyline fill="none" stroke="black" points="635.88,-168.75 714.88,-168.75"/>
<text text-anchor="start" x="643.88" y="-157.15" font-family="Times,serif" font-size="8.00">+amount : ivoa:real</text>
</a>
</g>
</g>
<!-- proposalManagement:Resource&#45;&gt;proposalManagement:ResourceType -->
<g id="edge22" class="edge">
<title>proposalManagement:Resource&#45;&gt;proposalManagement:ResourceType</title>
<path fill="none" stroke="green" d="M675.38,-150.34C675.38,-139.89 675.38,-126.19 675.38,-113.7"/>
<polygon fill="green" stroke="green" points="675.38,-103.92 679.88,-113.92 675.38,-107.71 675.38,-113.92 675.38,-113.92 675.38,-113.92 675.38,-107.71 670.88,-113.92 675.38,-103.92"/>
<text text-anchor="middle" x="684.38" y="-122.5" font-family="Times,serif" font-size="10.00">type</text>
<text text-anchor="middle" x="672.75" y="-104.46" font-family="Times,serif" font-size="10.00">1</text>
</g>
<!-- proposalManagement:AvailableResources&#45;&gt;proposalManagement:Resource -->
<g id="edge13" class="edge">
<title>proposalManagement:AvailableResources&#45;&gt;proposalManagement:Resource</title>
<path fill="none" stroke="blue" d="M748.95,-398.9C741.51,-360.14 726.72,-291.04 706.38,-234.25 701.84,-221.58 695.61,-208.09 689.93,-196.71"/>
<polygon fill="blue" stroke="blue" points="748.97,-399.04 754.01,-404.2 751.19,-410.83 746.15,-405.67 748.97,-399.04"/>
<polygon fill="blue" stroke="blue" points="685.49,-188.03 694.05,-194.88 687.21,-191.4 690.05,-196.93 690.05,-196.93 690.05,-196.93 687.21,-191.4 686.04,-198.98 685.49,-188.03"/>
<text text-anchor="middle" x="747.12" y="-300.25" font-family="Times,serif" font-size="10.00">resources</text>
<text text-anchor="middle" x="677.43" y="-188.69" font-family="Times,serif" font-size="10.00">0..*</text>
</g>
<!-- proposalManagement:ResourceBlock -->
<g id="node19" class="node">
<title>proposalManagement:ResourceBlock</title>
<g id="a_node19"><a xlink:href="../proposalManagement/ResourceBlock" xlink:title="{ResourceBlock}">
<polygon fill="#8dd3c7" stroke="black" points="518,-239.38 518,-275.38 582.75,-275.38 582.75,-239.38 518,-239.38"/>
<text text-anchor="middle" x="550.38" y="-254.78" font-family="Times,serif" font-size="8.00">ResourceBlock</text>
</a>
</g>
</g>
<!-- proposalManagement:ResourceBlock&#45;&gt;proposal:ObservingMode -->
<g id="edge23" class="edge">
<title>proposalManagement:ResourceBlock&#45;&gt;proposal:ObservingMode</title>
<path fill="none" stroke="green" d="M518.17,-238.93C515.2,-237.34 512.24,-235.76 509.38,-234.25 482.53,-220.06 452.3,-204.39 428.29,-192.02"/>
<polygon fill="green" stroke="green" points="419.49,-187.49 430.44,-188.07 422.86,-189.22 428.39,-192.07 428.39,-192.07 428.39,-192.07 422.86,-189.22 426.33,-196.07 419.49,-187.49"/>
<text text-anchor="middle" x="483.62" y="-206.75" font-family="Times,serif" font-size="10.00">mode</text>
<text text-anchor="middle" x="415.79" y="-188.68" font-family="Times,serif" font-size="10.00">1</text>
</g>
<!-- proposalManagement:ResourceBlock&#45;&gt;proposalManagement:Resource -->
<g id="edge14" class="edge">
<title>proposalManagement:ResourceBlock&#45;&gt;proposalManagement:Resource</title>
<path fill="none" stroke="blue" d="M585.94,-231.66C603.32,-219.58 624.13,-205.12 641.3,-193.18"/>
<polygon fill="blue" stroke="blue" points="585.96,-231.64 583.32,-238.35 576.11,-238.49 578.75,-231.78 585.96,-231.64"/>
<polygon fill="blue" stroke="blue" points="649.42,-187.54 643.78,-196.94 646.32,-189.7 641.21,-193.24 641.21,-193.24 641.21,-193.24 646.32,-189.7 638.64,-189.55 649.42,-187.54"/>
<text text-anchor="middle" x="640.25" y="-206.75" font-family="Times,serif" font-size="10.00">resource</text>
<text text-anchor="middle" x="647.8" y="-188.59" font-family="Times,serif" font-size="10.00">1</text>
</g>
<!-- proposalManagement:AllocatedBlock&#45;&gt;proposalManagement:AllocationGrade -->
<g id="edge24" class="edge">
<title>proposalManagement:AllocatedBlock&#45;&gt;proposalManagement:AllocationGrade</title>
<path fill="none" stroke="green" d="M591.39,-342.17C595.5,-329.46 602.07,-312.14 610.88,-298.5 613.04,-295.14 615.52,-291.81 618.15,-288.6"/>
<polygon fill="green" stroke="green" points="624.54,-281.33 621.31,-291.81 622.04,-284.17 617.93,-288.84 617.93,-288.84 617.93,-288.84 622.04,-284.17 614.55,-285.87 624.54,-281.33"/>
<text text-anchor="middle" x="621.62" y="-300.25" font-family="Times,serif" font-size="10.00">grade</text>
<text text-anchor="middle" x="622.72" y="-282.17" font-family="Times,serif" font-size="10.00">1</text>
</g>
<!-- proposalManagement:AllocatedBlock&#45;&gt;proposalManagement:ResourceBlock -->
<g id="edge1" class="edge">
<title>proposalManagement:AllocatedBlock&#45;&gt;proposalManagement:ResourceBlock</title>
<path fill="none" stroke="red" d="M580.27,-342.45C574.81,-327.1 566.72,-304.34 560.33,-286.36"/>
<polygon fill="none" stroke="red" points="563.67,-285.31 557.02,-277.06 557.07,-287.66 563.67,-285.31"/>
</g>
</g>
</svg>
