<?xml version="1.0" encoding="UTF-8" standalone="no"?>
<!DOCTYPE svg PUBLIC "-//W3C//DTD SVG 1.1//EN"
 "http://www.w3.org/Graphics/SVG/1.1/DTD/svg11.dtd">
<!-- Generated by graphviz version 12.1.1 (20240910.0053)
 -->
<!-- Title: GVmap Pages: 1 -->
<svg width="1953pt" height="651pt"
 viewBox="0.00 0.00 1953.00 650.50" xmlns="http://www.w3.org/2000/svg" xmlns:xlink="http://www.w3.org/1999/xlink">
<g id="graph0" class="graph" transform="scale(1 1) rotate(0) translate(4 646.5)">
<title>GVmap</title>
<polygon fill="white" stroke="none" points="-4,4 -4,-646.5 1949,-646.5 1949,4 -4,4"/>
<text text-anchor="middle" x="972.5" y="-7.2" font-family="Times,serif" font-size="14.00">proposal data model</text>
<!-- ivoa:stringIdentifier -->
<g id="node1" class="node">
<title>ivoa:stringIdentifier</title>
<g id="a_node1"><a xlink:href="#stringIdentifier" xlink:title="{ivoa:stringIdentifier}">
<polygon fill="grey" stroke="black" points="0,-420.12 0,-456.12 80.5,-456.12 80.5,-420.12 0,-420.12"/>
<text text-anchor="middle" x="40.25" y="-435.52" font-family="Times,serif" font-size="8.00">ivoa:stringIdentifier</text>
</a>
</g>
</g>
<!-- proposal:WikiDataId -->
<g id="node2" class="node">
<title>proposal:WikiDataId</title>
<g id="a_node2"><a xlink:href="../proposal/WikiDataId" xlink:title="{&amp;lt;&amp;lt;primitive type&amp;gt;&amp;gt;\nWikiDataId}">
<polygon fill="#8dd3c7" stroke="black" points="0.75,-567.25 0.75,-603.25 79.75,-603.25 79.75,-567.25 0.75,-567.25"/>
<text text-anchor="middle" x="40.25" y="-587.65" font-family="Times,serif" font-size="8.00">&lt;&lt;primitive type&gt;&gt;</text>
<text text-anchor="middle" x="40.25" y="-577.9" font-family="Times,serif" font-size="8.00">WikiDataId</text>
</a>
</g>
</g>
<!-- proposal:WikiDataId&#45;&gt;ivoa:stringIdentifier -->
<g id="edge1" class="edge">
<title>proposal:WikiDataId&#45;&gt;ivoa:stringIdentifier</title>
<path fill="none" stroke="red" d="M40.25,-567.03C40.25,-542.48 40.25,-497.13 40.25,-467.55"/>
<polygon fill="none" stroke="red" points="43.75,-467.83 40.25,-457.83 36.75,-467.83 43.75,-467.83"/>
</g>
<!-- proposal:ProposalKind -->
<g id="node3" class="node">
<title>proposal:ProposalKind</title>
<g id="a_node3"><a xlink:href="../proposal/ProposalKind" xlink:title="{&amp;lt;&amp;lt;enumeration&amp;gt;&amp;gt;\nProposalKind|+Standard\l+ToO\l+Survey\l}">
<polygon fill="#8dd3c7" stroke="black" points="214.38,-552.88 214.38,-617.62 288.12,-617.62 288.12,-552.88 214.38,-552.88"/>
<text text-anchor="middle" x="251.25" y="-606.02" font-family="Times,serif" font-size="8.00">&lt;&lt;enumeration&gt;&gt;</text>
<text text-anchor="middle" x="251.25" y="-596.27" font-family="Times,serif" font-size="8.00">ProposalKind</text>
<polyline fill="none" stroke="black" points="214.38,-590.12 288.12,-590.12"/>
<text text-anchor="start" x="222.38" y="-578.52" font-family="Times,serif" font-size="8.00">+Standard</text>
<text text-anchor="start" x="222.38" y="-568.77" font-family="Times,serif" font-size="8.00">+ToO</text>
<text text-anchor="start" x="222.38" y="-559.02" font-family="Times,serif" font-size="8.00">+Survey</text>
</a>
</g>
</g>
<!-- proposal:InvestigatorKind -->
<g id="node4" class="node">
<title>proposal:InvestigatorKind</title>
<g id="a_node4"><a xlink:href="../proposal/InvestigatorKind" xlink:title="{&amp;lt;&amp;lt;enumeration&amp;gt;&amp;gt;\nInvestigatorKind|+PI\l+COI\l}">
<polygon fill="#8dd3c7" stroke="black" points="372.38,-557.75 372.38,-612.75 446.12,-612.75 446.12,-557.75 372.38,-557.75"/>
<text text-anchor="middle" x="409.25" y="-601.15" font-family="Times,serif" font-size="8.00">&lt;&lt;enumeration&gt;&gt;</text>
<text text-anchor="middle" x="409.25" y="-591.4" font-family="Times,serif" font-size="8.00">InvestigatorKind</text>
<polyline fill="none" stroke="black" points="372.38,-585.25 446.12,-585.25"/>
<text text-anchor="start" x="380.38" y="-573.65" font-family="Times,serif" font-size="8.00">+PI</text>
<text text-anchor="start" x="380.38" y="-563.9" font-family="Times,serif" font-size="8.00">+COI</text>
</a>
</g>
</g>
<!-- proposal:TextFormats -->
<g id="node5" class="node">
<title>proposal:TextFormats</title>
<g id="a_node5"><a xlink:href="../proposal/TextFormats" xlink:title="{&amp;lt;&amp;lt;enumeration&amp;gt;&amp;gt;\nTextFormats|+latex\l+rst\l+asciidoc\l}">
<polygon fill="#8dd3c7" stroke="black" points="497.38,-552.88 497.38,-617.62 571.12,-617.62 571.12,-552.88 497.38,-552.88"/>
<text text-anchor="middle" x="534.25" y="-606.02" font-family="Times,serif" font-size="8.00">&lt;&lt;enumeration&gt;&gt;</text>
<text text-anchor="middle" x="534.25" y="-596.27" font-family="Times,serif" font-size="8.00">TextFormats</text>
<polyline fill="none" stroke="black" points="497.38,-590.12 571.12,-590.12"/>
<text text-anchor="start" x="505.38" y="-578.52" font-family="Times,serif" font-size="8.00">+latex</text>
<text text-anchor="start" x="505.38" y="-568.77" font-family="Times,serif" font-size="8.00">+rst</text>
<text text-anchor="start" x="505.38" y="-559.02" font-family="Times,serif" font-size="8.00">+asciidoc</text>
</a>
</g>
</g>
<!-- proposal:CalibrationTarget_intendedUse -->
<g id="node6" class="node">
<title>proposal:CalibrationTarget_intendedUse</title>
<g id="a_node6"><a xlink:href="../proposal/CalibrationTarget_intendedUse" xlink:title="{&amp;lt;&amp;lt;enumeration&amp;gt;&amp;gt;\nCalibrationTarget_intendedUse|+Amplitude\l+Atmospheric\l+Bandpass\l+Phase\l+Pointing\l+Focus\l+Polarization\l+Delay\l}">
<polygon fill="#8dd3c7" stroke="black" points="604.75,-528.5 604.75,-642 719.75,-642 719.75,-528.5 604.75,-528.5"/>
<text text-anchor="middle" x="662.25" y="-630.4" font-family="Times,serif" font-size="8.00">&lt;&lt;enumeration&gt;&gt;</text>
<text text-anchor="middle" x="662.25" y="-620.65" font-family="Times,serif" font-size="8.00">CalibrationTarget_intendedUse</text>
<polyline fill="none" stroke="black" points="604.75,-614.5 719.75,-614.5"/>
<text text-anchor="start" x="612.75" y="-602.9" font-family="Times,serif" font-size="8.00">+Amplitude</text>
<text text-anchor="start" x="612.75" y="-593.15" font-family="Times,serif" font-size="8.00">+Atmospheric</text>
<text text-anchor="start" x="612.75" y="-583.4" font-family="Times,serif" font-size="8.00">+Bandpass</text>
<text text-anchor="start" x="612.75" y="-573.65" font-family="Times,serif" font-size="8.00">+Phase</text>
<text text-anchor="start" x="612.75" y="-563.9" font-family="Times,serif" font-size="8.00">+Pointing</text>
<text text-anchor="start" x="612.75" y="-554.15" font-family="Times,serif" font-size="8.00">+Focus</text>
<text text-anchor="start" x="612.75" y="-544.4" font-family="Times,serif" font-size="8.00">+Polarization</text>
<text text-anchor="start" x="612.75" y="-534.65" font-family="Times,serif" font-size="8.00">+Delay</text>
</a>
</g>
</g>
<!-- proposal:SpectralWindowSetup -->
<g id="node7" class="node">
<title>proposal:SpectralWindowSetup</title>
<g id="a_node7"><a xlink:href="../proposal/SpectralWindowSetup" xlink:title="{&amp;lt;&amp;lt;datatype&amp;gt;&amp;gt;\nSpectralWindowSetup|+start : ivoa:RealQuantity\l+end : ivoa:RealQuantity\l+spectralResolution : ivoa:RealQuantity\l+isSkyFrequency : ivoa:boolean\l+polarization : coords:PolStateEnum\l}">
<polygon fill="#8dd3c7" stroke="black" points="745.75,-543.12 745.75,-627.38 890.75,-627.38 890.75,-543.12 745.75,-543.12"/>
<text text-anchor="middle" x="818.25" y="-615.77" font-family="Times,serif" font-size="8.00">&lt;&lt;datatype&gt;&gt;</text>
<text text-anchor="middle" x="818.25" y="-606.02" font-family="Times,serif" font-size="8.00">SpectralWindowSetup</text>
<polyline fill="none" stroke="black" points="745.75,-599.88 890.75,-599.88"/>
<text text-anchor="start" x="753.75" y="-588.27" font-family="Times,serif" font-size="8.00">+start : ivoa:RealQuantity</text>
<text text-anchor="start" x="753.75" y="-578.52" font-family="Times,serif" font-size="8.00">+end : ivoa:RealQuantity</text>
<text text-anchor="start" x="753.75" y="-568.77" font-family="Times,serif" font-size="8.00">+spectralResolution : ivoa:RealQuantity</text>
<text text-anchor="start" x="753.75" y="-559.02" font-family="Times,serif" font-size="8.00">+isSkyFrequency : ivoa:boolean</text>
<text text-anchor="start" x="753.75" y="-549.27" font-family="Times,serif" font-size="8.00">+polarization : coords:PolStateEnum</text>
</a>
</g>
</g>
<!-- proposal:ObservingProposal -->
<g id="node8" class="node">
<title>proposal:ObservingProposal</title>
<g id="a_node8"><a xlink:href="../proposal/ObservingProposal" xlink:title="{ObservingProposal|+title : ivoa:string\l+summary : ivoa:string\l+kind : proposal:ProposalKind\l+submitted : ivoa:boolean\l}">
<polygon fill="#8dd3c7" stroke="black" points="912.5,-552.88 912.5,-617.62 1026,-617.62 1026,-552.88 912.5,-552.88"/>
<text text-anchor="middle" x="969.25" y="-606.02" font-family="Times,serif" font-size="8.00">ObservingProposal</text>
<polyline fill="none" stroke="black" points="912.5,-599.88 1026,-599.88"/>
<text text-anchor="start" x="920.5" y="-588.27" font-family="Times,serif" font-size="8.00">+title : ivoa:string</text>
<text text-anchor="start" x="920.5" y="-578.52" font-family="Times,serif" font-size="8.00">+summary : ivoa:string</text>
<text text-anchor="start" x="920.5" y="-568.77" font-family="Times,serif" font-size="8.00">+kind : proposal:ProposalKind</text>
<text text-anchor="start" x="920.5" y="-559.02" font-family="Times,serif" font-size="8.00">+submitted : ivoa:boolean</text>
</a>
</g>
</g>
<!-- proposal:RelatedProposal -->
<g id="node9" class="node">
<title>proposal:RelatedProposal</title>
<g id="a_node9"><a xlink:href="../proposal/RelatedProposal" xlink:title="{RelatedProposal}">
<polygon fill="#8dd3c7" stroke="black" points="753,-420.12 753,-456.12 821.5,-456.12 821.5,-420.12 753,-420.12"/>
<text text-anchor="middle" x="787.25" y="-435.52" font-family="Times,serif" font-size="8.00">RelatedProposal</text>
</a>
</g>
</g>
<!-- proposal:ObservingProposal&#45;&gt;proposal:RelatedProposal -->
<g id="edge17" class="edge">
<title>proposal:ObservingProposal&#45;&gt;proposal:RelatedProposal</title>
<path fill="none" stroke="blue" d="M928.08,-544.35C919.46,-537.9 910,-532.02 900.25,-528 862.73,-512.52 745.75,-540.08 718.5,-510 715.14,-506.29 716.19,-503.18 718.5,-498.75 724.95,-486.37 733.48,-489.63 744.25,-480.75 750.53,-475.57 757,-469.66 762.95,-463.95"/>
<polygon fill="blue" stroke="blue" points="928.09,-544.36 935.27,-544.99 937.45,-551.87 930.27,-551.23 928.09,-544.36"/>
<polygon fill="blue" stroke="blue" points="769.8,-457.24 765.81,-467.45 767.1,-459.88 762.66,-464.23 762.66,-464.23 762.66,-464.23 767.1,-459.88 759.51,-461.02 769.8,-457.24"/>
<text text-anchor="middle" x="751.88" y="-500.5" font-family="Times,serif" font-size="10.00">relatedProposals</text>
<text text-anchor="middle" x="763.17" y="-458.13" font-family="Times,serif" font-size="10.00">0..*</text>
</g>
<!-- proposal:Investigator -->
<g id="node11" class="node">
<title>proposal:Investigator</title>
<g id="a_node11"><a xlink:href="../proposal/Investigator" xlink:title="{Investigator|+type : proposal:InvestigatorKind\l+forPhD : ivoa:boolean\l}">
<polygon fill="#8dd3c7" stroke="black" points="433.25,-415.5 433.25,-460.75 557.25,-460.75 557.25,-415.5 433.25,-415.5"/>
<text text-anchor="middle" x="495.25" y="-449.15" font-family="Times,serif" font-size="8.00">Investigator</text>
<polyline fill="none" stroke="black" points="433.25,-443 557.25,-443"/>
<text text-anchor="start" x="441.25" y="-431.4" font-family="Times,serif" font-size="8.00">+type : proposal:InvestigatorKind</text>
<text text-anchor="start" x="441.25" y="-421.65" font-family="Times,serif" font-size="8.00">+forPhD : ivoa:boolean</text>
</a>
</g>
</g>
<!-- proposal:ObservingProposal&#45;&gt;proposal:Investigator -->
<g id="edge16" class="edge">
<title>proposal:ObservingProposal&#45;&gt;proposal:Investigator</title>
<path fill="none" stroke="blue" d="M928.43,-544.37C919.72,-537.85 910.15,-531.95 900.25,-528 800.68,-488.31 765.03,-530.13 659.75,-510 616.98,-501.82 606.07,-498.37 566.25,-480.75 557.04,-476.67 547.52,-471.68 538.55,-466.6"/>
<polygon fill="blue" stroke="blue" points="928.53,-544.44 935.71,-545.09 937.88,-551.97 930.69,-551.32 928.53,-544.44"/>
<polygon fill="blue" stroke="blue" points="530.14,-461.69 541.04,-462.84 533.4,-463.59 538.78,-466.73 538.78,-466.73 538.78,-466.73 533.4,-463.59 536.51,-470.61 530.14,-461.69"/>
<text text-anchor="middle" x="686" y="-500.5" font-family="Times,serif" font-size="10.00">investigators</text>
<text text-anchor="middle" x="521.59" y="-462.82" font-family="Times,serif" font-size="10.00">1..*</text>
</g>
<!-- proposal:Justification -->
<g id="node13" class="node">
<title>proposal:Justification</title>
<g id="a_node13"><a xlink:href="../proposal/Justification" xlink:title="{Justification|+text : ivoa:string\l+format : proposal:TextFormats\l}">
<polygon fill="#8dd3c7" stroke="black" points="1285.25,-415.5 1285.25,-460.75 1403.25,-460.75 1403.25,-415.5 1285.25,-415.5"/>
<text text-anchor="middle" x="1344.25" y="-449.15" font-family="Times,serif" font-size="8.00">Justification</text>
<polyline fill="none" stroke="black" points="1285.25,-443 1403.25,-443"/>
<text text-anchor="start" x="1293.25" y="-431.4" font-family="Times,serif" font-size="8.00">+text : ivoa:string</text>
<text text-anchor="start" x="1293.25" y="-421.65" font-family="Times,serif" font-size="8.00">+format : proposal:TextFormats</text>
</a>
</g>
</g>
<!-- proposal:ObservingProposal&#45;&gt;proposal:Justification -->
<g id="edge14" class="edge">
<title>proposal:ObservingProposal&#45;&gt;proposal:Justification</title>
<path fill="none" stroke="blue" d="M1038.98,-583.01C1109.5,-578.61 1218.87,-562.87 1296.25,-510 1310.47,-500.29 1321.65,-484.84 1329.63,-470.85"/>
<polygon fill="blue" stroke="blue" points="1039.16,-583 1033.39,-587.32 1027.18,-583.65 1032.95,-579.33 1039.16,-583"/>
<polygon fill="blue" stroke="blue" points="1334.3,-462.1 1333.56,-473.04 1332.52,-465.43 1329.59,-470.92 1329.59,-470.92 1329.59,-470.92 1332.52,-465.43 1325.62,-468.8 1334.3,-462.1"/>
<text text-anchor="middle" x="1352.44" y="-500.5" font-family="Times,serif" font-size="10.00">scientificJustification</text>
<text text-anchor="middle" x="1332.25" y="-462.77" font-family="Times,serif" font-size="10.00">1</text>
</g>
<!-- proposal:ObservingProposal&#45;&gt;proposal:Justification -->
<g id="edge15" class="edge">
<title>proposal:ObservingProposal&#45;&gt;proposal:Justification</title>
<path fill="none" stroke="blue" d="M1038.29,-557.04C1084.83,-539.21 1147.86,-516.1 1204.5,-498.75 1235.94,-489.12 1245.94,-493.48 1276.25,-480.75 1285.34,-476.93 1294.63,-472.02 1303.31,-466.92"/>
<polygon fill="blue" stroke="blue" points="1038.26,-557.05 1034.1,-562.93 1027.06,-561.36 1031.22,-555.47 1038.26,-557.05"/>
<polygon fill="blue" stroke="blue" points="1311.77,-461.75 1305.58,-470.8 1308.54,-463.72 1303.23,-466.96 1303.23,-466.96 1303.23,-466.96 1308.54,-463.72 1300.89,-463.12 1311.77,-461.75"/>
<text text-anchor="middle" x="1248.38" y="-500.5" font-family="Times,serif" font-size="10.00">technicalJustification</text>
<text text-anchor="middle" x="1310.18" y="-462.87" font-family="Times,serif" font-size="10.00">1</text>
</g>
<!-- proposal:SupportingDocument -->
<g id="node14" class="node">
<title>proposal:SupportingDocument</title>
<g id="a_node14"><a xlink:href="../proposal/SupportingDocument" xlink:title="{SupportingDocument|+title : ivoa:string\l+location : ivoa:anyURI\l}">
<polygon fill="#8dd3c7" stroke="black" points="1035.25,-415.5 1035.25,-460.75 1129.25,-460.75 1129.25,-415.5 1035.25,-415.5"/>
<text text-anchor="middle" x="1082.25" y="-449.15" font-family="Times,serif" font-size="8.00">SupportingDocument</text>
<polyline fill="none" stroke="black" points="1035.25,-443 1129.25,-443"/>
<text text-anchor="start" x="1043.25" y="-431.4" font-family="Times,serif" font-size="8.00">+title : ivoa:string</text>
<text text-anchor="start" x="1043.25" y="-421.65" font-family="Times,serif" font-size="8.00">+location : ivoa:anyURI</text>
</a>
</g>
</g>
<!-- proposal:ObservingProposal&#45;&gt;proposal:SupportingDocument -->
<g id="edge18" class="edge">
<title>proposal:ObservingProposal&#45;&gt;proposal:SupportingDocument</title>
<path fill="none" stroke="blue" d="M1001.97,-542.22C1019.98,-519.1 1041.93,-490.9 1058.33,-469.85"/>
<polygon fill="blue" stroke="blue" points="1001.97,-542.22 1001.44,-549.41 994.6,-551.69 995.13,-544.5 1001.97,-542.22"/>
<polygon fill="blue" stroke="blue" points="1064.46,-461.97 1061.87,-472.63 1062.14,-464.96 1058.32,-469.86 1058.32,-469.86 1058.32,-469.86 1062.14,-464.96 1054.77,-467.1 1064.46,-461.97"/>
<text text-anchor="middle" x="1077.89" y="-500.5" font-family="Times,serif" font-size="10.00">supportingDocuments</text>
<text text-anchor="middle" x="1057.71" y="-462.76" font-family="Times,serif" font-size="10.00">0..*</text>
</g>
<!-- proposal:Target -->
<g id="node15" class="node">
<title>proposal:Target</title>
<g id="a_node15"><a xlink:href="../proposal/Target" xlink:title="{Target|+sourceName : ivoa:string\l}">
<polygon fill="#8dd3c7" stroke="black" points="254.5,-302.25 254.5,-338.25 356,-338.25 356,-302.25 254.5,-302.25"/>
<text text-anchor="middle" x="305.25" y="-326.65" font-family="Times,serif" font-size="8.00">Target</text>
<polyline fill="none" stroke="black" points="254.5,-320.5 356,-320.5"/>
<text text-anchor="start" x="262.5" y="-308.9" font-family="Times,serif" font-size="8.00">+sourceName : ivoa:string</text>
</a>
</g>
</g>
<!-- proposal:ObservingProposal&#45;&gt;proposal:Target -->
<g id="edge19" class="edge">
<title>proposal:ObservingProposal&#45;&gt;proposal:Target</title>
<path fill="none" stroke="blue" d="M928.47,-544.26C919.76,-537.75 910.18,-531.88 900.25,-528 819.89,-496.61 184.37,-543.58 125.25,-480.75 99.29,-453.16 104.18,-426.99 125.25,-395.5 151.48,-356.3 202.59,-337.77 243.67,-329.03"/>
<polygon fill="blue" stroke="blue" points="928.57,-544.33 935.75,-544.98 937.92,-551.86 930.74,-551.21 928.57,-544.33"/>
<polygon fill="blue" stroke="blue" points="253.22,-327.15 244.28,-333.5 249.51,-327.88 243.41,-329.08 243.41,-329.08 243.41,-329.08 249.51,-327.88 242.54,-324.67 253.22,-327.15"/>
<text text-anchor="middle" x="138.75" y="-434.25" font-family="Times,serif" font-size="10.00">targets</text>
<text text-anchor="middle" x="246.92" y="-328.66" font-family="Times,serif" font-size="10.00">0..*</text>
</g>
<!-- proposal:Field -->
<g id="node18" class="node">
<title>proposal:Field</title>
<g id="a_node18"><a xlink:href="../proposal/Field" xlink:title="{Field|+name : ivoa:string\l}">
<polygon fill="#8dd3c7" stroke="black" points="868.12,-302.25 868.12,-338.25 946.38,-338.25 946.38,-302.25 868.12,-302.25"/>
<text text-anchor="middle" x="907.25" y="-326.65" font-family="Times,serif" font-size="8.00">Field</text>
<polyline fill="none" stroke="black" points="868.12,-320.5 946.38,-320.5"/>
<text text-anchor="start" x="876.12" y="-308.9" font-family="Times,serif" font-size="8.00">+name : ivoa:string</text>
</a>
</g>
</g>
<!-- proposal:ObservingProposal&#45;&gt;proposal:Field -->
<g id="edge20" class="edge">
<title>proposal:ObservingProposal&#45;&gt;proposal:Field</title>
<path fill="none" stroke="blue" d="M922.42,-544C898.03,-521.83 872,-495.83 865.75,-480.75 851.25,-445.75 856.2,-432.17 865.75,-395.5 870.15,-378.6 879.35,-361.46 887.97,-347.92"/>
<polygon fill="blue" stroke="blue" points="922.4,-543.98 929.53,-545.01 931.33,-551.99 924.19,-550.96 922.4,-543.98"/>
<polygon fill="blue" stroke="blue" points="893.39,-339.76 891.6,-350.58 891.29,-342.91 887.85,-348.09 887.85,-348.09 887.85,-348.09 891.29,-342.91 884.1,-345.6 893.39,-339.76"/>
<text text-anchor="middle" x="877" y="-434.25" font-family="Times,serif" font-size="10.00">fields</text>
<text text-anchor="middle" x="886.56" y="-340.49" font-family="Times,serif" font-size="10.00">0..*</text>
</g>
<!-- proposal:Observation -->
<g id="node31" class="node">
<title>proposal:Observation</title>
<g id="a_node31"><a xlink:href="../proposal/Observation" xlink:title="{Observation}">
<polygon fill="#8dd3c7" stroke="black" points="1518.75,-420.12 1518.75,-456.12 1573.75,-456.12 1573.75,-420.12 1518.75,-420.12"/>
<text text-anchor="middle" x="1546.25" y="-435.52" font-family="Times,serif" font-size="8.00">Observation</text>
</a>
</g>
</g>
<!-- proposal:ObservingProposal&#45;&gt;proposal:Observation -->
<g id="edge22" class="edge">
<title>proposal:ObservingProposal&#45;&gt;proposal:Observation</title>
<path fill="none" stroke="blue" d="M1039.12,-580.8C1134.28,-574.46 1308.96,-556.97 1450.25,-510 1476.52,-501.27 1483.06,-497.3 1505.25,-480.75 1511.73,-475.91 1518.16,-470.05 1523.93,-464.27"/>
<polygon fill="blue" stroke="blue" points="1039.11,-580.8 1033.38,-585.17 1027.13,-581.56 1032.87,-577.19 1039.11,-580.8"/>
<polygon fill="blue" stroke="blue" points="1530.49,-457.42 1526.82,-467.76 1527.88,-460.15 1523.57,-464.64 1523.57,-464.64 1523.57,-464.64 1527.88,-460.15 1520.33,-461.53 1530.49,-457.42"/>
<text text-anchor="middle" x="1504.23" y="-500.5" font-family="Times,serif" font-size="10.00">observations</text>
<text text-anchor="middle" x="1523.84" y="-458.29" font-family="Times,serif" font-size="10.00">1..*</text>
</g>
<!-- proposal:TechnicalGoal -->
<g id="node34" class="node">
<title>proposal:TechnicalGoal</title>
<g id="a_node34"><a xlink:href="../proposal/TechnicalGoal" xlink:title="{TechnicalGoal}">
<polygon fill="#8dd3c7" stroke="black" points="1451,-302.25 1451,-338.25 1513.5,-338.25 1513.5,-302.25 1451,-302.25"/>
<text text-anchor="middle" x="1482.25" y="-317.65" font-family="Times,serif" font-size="8.00">TechnicalGoal</text>
</a>
</g>
</g>
<!-- proposal:ObservingProposal&#45;&gt;proposal:TechnicalGoal -->
<g id="edge21" class="edge">
<title>proposal:ObservingProposal&#45;&gt;proposal:TechnicalGoal</title>
<path fill="none" stroke="blue" d="M1039.29,-580.31C1146.79,-572.96 1345.74,-553.73 1400.25,-510 1453.37,-467.39 1423.13,-427.32 1453.25,-366.25 1456.25,-360.16 1459.9,-353.89 1463.58,-348.02"/>
<polygon fill="blue" stroke="blue" points="1039.21,-580.32 1033.49,-584.71 1027.24,-581.11 1032.96,-576.73 1039.21,-580.32"/>
<polygon fill="blue" stroke="blue" points="1469.04,-339.68 1467.34,-350.51 1466.97,-342.84 1463.57,-348.05 1463.57,-348.05 1463.57,-348.05 1466.97,-342.84 1459.8,-345.58 1469.04,-339.68"/>
<text text-anchor="middle" x="1472.85" y="-434.25" font-family="Times,serif" font-size="10.00">technicalGoals</text>
<text text-anchor="middle" x="1462.21" y="-340.41" font-family="Times,serif" font-size="10.00">1..*</text>
</g>
<!-- proposal:RelatedProposal&#45;&gt;proposal:ObservingProposal -->
<g id="edge27" class="edge">
<title>proposal:RelatedProposal&#45;&gt;proposal:ObservingProposal</title>
<path fill="none" stroke="green" d="M787.46,-456.33C788.64,-472.55 793.03,-496.35 808,-510 838.87,-538.15 862.43,-510.27 900.25,-528 910.12,-532.62 919.78,-538.97 928.61,-545.73"/>
<polygon fill="green" stroke="green" points="936.18,-551.83 925.57,-549.06 933.23,-549.46 928.39,-545.56 928.39,-545.56 928.39,-545.56 933.23,-549.46 931.21,-542.05 936.18,-551.83"/>
<text text-anchor="middle" x="825.62" y="-500.5" font-family="Times,serif" font-size="10.00">proposal</text>
<text text-anchor="middle" x="934.51" y="-543.09" font-family="Times,serif" font-size="10.00">1</text>
</g>
<!-- proposal:Person -->
<g id="node10" class="node">
<title>proposal:Person</title>
<g id="a_node10"><a xlink:href="../proposal/Person" xlink:title="{Person|+fullName : ivoa:string\l+eMail : ivoa:string\l+orcidId : ivoa:stringIdentifier\l}">
<polygon fill="#8dd3c7" stroke="black" points="437.75,-292.75 437.75,-347.75 552.75,-347.75 552.75,-292.75 437.75,-292.75"/>
<text text-anchor="middle" x="495.25" y="-336.15" font-family="Times,serif" font-size="8.00">Person</text>
<polyline fill="none" stroke="black" points="437.75,-330 552.75,-330"/>
<text text-anchor="start" x="445.75" y="-318.4" font-family="Times,serif" font-size="8.00">+fullName : ivoa:string</text>
<text text-anchor="start" x="445.75" y="-308.65" font-family="Times,serif" font-size="8.00">+eMail : ivoa:string</text>
<text text-anchor="start" x="445.75" y="-298.9" font-family="Times,serif" font-size="8.00">+orcidId : ivoa:stringIdentifier</text>
</a>
</g>
</g>
<!-- proposal:Organization -->
<g id="node12" class="node">
<title>proposal:Organization</title>
<g id="a_node12"><a xlink:href="../proposal/Organization" xlink:title="{Organization|+name : ivoa:string\l+address : ivoa:string\l+ivoid : ivoa:ivorn\l+wikiId : proposal:WikiDataId\l}">
<polygon fill="#8dd3c7" stroke="black" points="437.38,-174.88 437.38,-239.62 553.12,-239.62 553.12,-174.88 437.38,-174.88"/>
<text text-anchor="middle" x="495.25" y="-228.03" font-family="Times,serif" font-size="8.00">Organization</text>
<polyline fill="none" stroke="black" points="437.38,-221.88 553.12,-221.88"/>
<text text-anchor="start" x="445.38" y="-210.28" font-family="Times,serif" font-size="8.00">+name : ivoa:string</text>
<text text-anchor="start" x="445.38" y="-200.53" font-family="Times,serif" font-size="8.00">+address : ivoa:string</text>
<text text-anchor="start" x="445.38" y="-190.78" font-family="Times,serif" font-size="8.00">+ivoid : ivoa:ivorn</text>
<text text-anchor="start" x="445.38" y="-181.03" font-family="Times,serif" font-size="8.00">+wikiId : proposal:WikiDataId</text>
</a>
</g>
</g>
<!-- proposal:Person&#45;&gt;proposal:Organization -->
<g id="edge28" class="edge">
<title>proposal:Person&#45;&gt;proposal:Organization</title>
<path fill="none" stroke="green" d="M495.25,-292.38C495.25,-279.93 495.25,-264.82 495.25,-250.87"/>
<polygon fill="green" stroke="green" points="495.25,-241.22 499.75,-251.22 495.25,-245 495.25,-251.22 495.25,-251.22 495.25,-251.22 495.25,-245 490.75,-251.22 495.25,-241.22"/>
<text text-anchor="middle" x="523.38" y="-264.75" font-family="Times,serif" font-size="10.00">homeInstitute</text>
<text text-anchor="middle" x="492.62" y="-241.75" font-family="Times,serif" font-size="10.00">1</text>
</g>
<!-- proposal:Investigator&#45;&gt;proposal:Person -->
<g id="edge29" class="edge">
<title>proposal:Investigator&#45;&gt;proposal:Person</title>
<path fill="none" stroke="green" d="M495.25,-415.06C495.25,-399.29 495.25,-377.67 495.25,-359.17"/>
<polygon fill="green" stroke="green" points="495.25,-349.34 499.75,-359.34 495.25,-353.12 495.25,-359.34 495.25,-359.34 495.25,-359.34 495.25,-353.12 490.75,-359.34 495.25,-349.34"/>
<text text-anchor="middle" x="508.75" y="-368" font-family="Times,serif" font-size="10.00">person</text>
<text text-anchor="middle" x="492.62" y="-349.87" font-family="Times,serif" font-size="10.00">1</text>
</g>
<!-- proposal:CelestialTarget -->
<g id="node16" class="node">
<title>proposal:CelestialTarget</title>
<g id="a_node16"><a xlink:href="../proposal/CelestialTarget" xlink:title="{CelestialTarget|+sourceCoordinates : coords:EquatorialPoint\l+positionEpoch : coords:Epoch\l+pmRA : ivoa:RealQuantity\l+pmDec : ivoa:RealQuantity\l+parallax : ivoa:RealQuantity\l+sourceVelocity : ivoa:RealQuantity\l}">
<polygon fill="#8dd3c7" stroke="black" points="161.25,-396 161.25,-480.25 321.25,-480.25 321.25,-396 161.25,-396"/>
<text text-anchor="middle" x="241.25" y="-468.65" font-family="Times,serif" font-size="8.00">CelestialTarget</text>
<polyline fill="none" stroke="black" points="161.25,-462.5 321.25,-462.5"/>
<text text-anchor="start" x="169.25" y="-450.9" font-family="Times,serif" font-size="8.00">+sourceCoordinates : coords:EquatorialPoint</text>
<text text-anchor="start" x="169.25" y="-441.15" font-family="Times,serif" font-size="8.00">+positionEpoch : coords:Epoch</text>
<text text-anchor="start" x="169.25" y="-431.4" font-family="Times,serif" font-size="8.00">+pmRA : ivoa:RealQuantity</text>
<text text-anchor="start" x="169.25" y="-421.65" font-family="Times,serif" font-size="8.00">+pmDec : ivoa:RealQuantity</text>
<text text-anchor="start" x="169.25" y="-411.9" font-family="Times,serif" font-size="8.00">+parallax : ivoa:RealQuantity</text>
<text text-anchor="start" x="169.25" y="-402.15" font-family="Times,serif" font-size="8.00">+sourceVelocity : ivoa:RealQuantity</text>
</a>
</g>
</g>
<!-- proposal:CelestialTarget&#45;&gt;proposal:Target -->
<g id="edge2" class="edge">
<title>proposal:CelestialTarget&#45;&gt;proposal:Target</title>
<path fill="none" stroke="red" d="M264.17,-395.62C272.81,-379.99 282.4,-362.62 290.14,-348.61"/>
<polygon fill="none" stroke="red" points="293.15,-350.39 294.92,-339.95 287.02,-347.01 293.15,-350.39"/>
</g>
<!-- proposal:SolarSystemTarget -->
<g id="node17" class="node">
<title>proposal:SolarSystemTarget</title>
<g id="a_node17"><a xlink:href="../proposal/SolarSystemTarget" xlink:title="{SolarSystemTarget}">
<polygon fill="#8dd3c7" stroke="black" points="339.25,-420.12 339.25,-456.12 415.25,-456.12 415.25,-420.12 339.25,-420.12"/>
<text text-anchor="middle" x="377.25" y="-435.52" font-family="Times,serif" font-size="8.00">SolarSystemTarget</text>
</a>
</g>
</g>
<!-- proposal:SolarSystemTarget&#45;&gt;proposal:Target -->
<g id="edge3" class="edge">
<title>proposal:SolarSystemTarget&#45;&gt;proposal:Target</title>
<path fill="none" stroke="red" d="M366.47,-419.78C354.75,-400.92 335.87,-370.53 322.17,-348.48"/>
<polygon fill="none" stroke="red" points="325.15,-346.65 316.9,-340 319.21,-350.34 325.15,-346.65"/>
</g>
<!-- proposal:TargetField -->
<g id="node19" class="node">
<title>proposal:TargetField</title>
<g id="a_node19"><a xlink:href="../proposal/TargetField" xlink:title="{TargetField}">
<polygon fill="#8dd3c7" stroke="black" points="575.25,-420.12 575.25,-456.12 629.25,-456.12 629.25,-420.12 575.25,-420.12"/>
<text text-anchor="middle" x="602.25" y="-435.52" font-family="Times,serif" font-size="8.00">TargetField</text>
</a>
</g>
</g>
<!-- proposal:TargetField&#45;&gt;proposal:Field -->
<g id="edge4" class="edge">
<title>proposal:TargetField&#45;&gt;proposal:Field</title>
<path fill="none" stroke="red" d="M613.42,-419.97C619.76,-411.47 628.4,-401.73 638.25,-395.5 706.45,-352.4 799.75,-333.96 856.64,-326.33"/>
<polygon fill="none" stroke="red" points="856.87,-329.82 866.35,-325.09 855.99,-322.88 856.87,-329.82"/>
</g>
<!-- proposal:Point -->
<g id="node20" class="node">
<title>proposal:Point</title>
<g id="a_node20"><a xlink:href="../proposal/Point" xlink:title="{Point|+centre : coords:Point\l}">
<polygon fill="#8dd3c7" stroke="black" points="647.62,-420.12 647.62,-456.12 734.88,-456.12 734.88,-420.12 647.62,-420.12"/>
<text text-anchor="middle" x="691.25" y="-444.52" font-family="Times,serif" font-size="8.00">Point</text>
<polyline fill="none" stroke="black" points="647.62,-438.38 734.88,-438.38"/>
<text text-anchor="start" x="655.62" y="-426.77" font-family="Times,serif" font-size="8.00">+centre : coords:Point</text>
</a>
</g>
</g>
<!-- proposal:Point&#45;&gt;proposal:Field -->
<g id="edge5" class="edge">
<title>proposal:Point&#45;&gt;proposal:Field</title>
<path fill="none" stroke="red" d="M711.06,-419.72C720.69,-411.76 732.66,-402.55 744.25,-395.5 780.45,-373.48 824.29,-353.86 857.38,-340.33"/>
<polygon fill="none" stroke="red" points="858.36,-343.71 866.32,-336.73 855.74,-337.22 858.36,-343.71"/>
</g>
<!-- proposal:Polygon -->
<g id="node21" class="node">
<title>proposal:Polygon</title>
<g id="a_node21"><a xlink:href="../proposal/Polygon" xlink:title="{Polygon|+points : coords:EquatorialPoint\l}">
<polygon fill="#8dd3c7" stroke="black" points="897.5,-420.12 897.5,-456.12 1017,-456.12 1017,-420.12 897.5,-420.12"/>
<text text-anchor="middle" x="957.25" y="-444.52" font-family="Times,serif" font-size="8.00">Polygon</text>
<polyline fill="none" stroke="black" points="897.5,-438.38 1017,-438.38"/>
<text text-anchor="start" x="905.5" y="-426.77" font-family="Times,serif" font-size="8.00">+points : coords:EquatorialPoint</text>
</a>
</g>
</g>
<!-- proposal:Polygon&#45;&gt;proposal:Field -->
<g id="edge6" class="edge">
<title>proposal:Polygon&#45;&gt;proposal:Field</title>
<path fill="none" stroke="red" d="M949.76,-419.78C941.7,-401.09 928.75,-371.08 919.26,-349.08"/>
<polygon fill="none" stroke="red" points="922.56,-347.9 915.39,-340.11 916.13,-350.67 922.56,-347.9"/>
</g>
<!-- proposal:Ellipse -->
<g id="node22" class="node">
<title>proposal:Ellipse</title>
<g id="a_node22"><a xlink:href="../proposal/Ellipse" xlink:title="{Ellipse|+semiMajor : ivoa:RealQuantity\l+semiMinor : ivoa:RealQuantity\l+pAMajor : ivoa:RealQuantity\l}">
<polygon fill="#8dd3c7" stroke="black" points="1147.12,-410.62 1147.12,-465.62 1267.38,-465.62 1267.38,-410.62 1147.12,-410.62"/>
<text text-anchor="middle" x="1207.25" y="-454.02" font-family="Times,serif" font-size="8.00">Ellipse</text>
<polyline fill="none" stroke="black" points="1147.12,-447.88 1267.38,-447.88"/>
<text text-anchor="start" x="1155.12" y="-436.27" font-family="Times,serif" font-size="8.00">+semiMajor : ivoa:RealQuantity</text>
<text text-anchor="start" x="1155.12" y="-426.52" font-family="Times,serif" font-size="8.00">+semiMinor : ivoa:RealQuantity</text>
<text text-anchor="start" x="1155.12" y="-416.77" font-family="Times,serif" font-size="8.00">+pAMajor : ivoa:RealQuantity</text>
</a>
</g>
</g>
<!-- proposal:Ellipse&#45;&gt;proposal:Field -->
<g id="edge7" class="edge">
<title>proposal:Ellipse&#45;&gt;proposal:Field</title>
<path fill="none" stroke="red" d="M1166.13,-410.21C1157.15,-404.93 1147.55,-399.73 1138.25,-395.5 1078.26,-368.21 1005.31,-346.54 957.66,-333.82"/>
<polygon fill="none" stroke="red" points="958.73,-330.48 948.16,-331.32 956.94,-337.25 958.73,-330.48"/>
</g>
<!-- proposal:ObservingConstraint -->
<g id="node23" class="node">
<title>proposal:ObservingConstraint</title>
<g id="a_node23"><a xlink:href="../proposal/ObservingConstraint" xlink:title="{ObservingConstraint}">
<polygon fill="#8dd3c7" stroke="black" points="1628.25,-302.25 1628.25,-338.25 1710.25,-338.25 1710.25,-302.25 1628.25,-302.25"/>
<text text-anchor="middle" x="1669.25" y="-317.65" font-family="Times,serif" font-size="8.00">ObservingConstraint</text>
</a>
</g>
</g>
<!-- proposal:TimingConstraint -->
<g id="node24" class="node">
<title>proposal:TimingConstraint</title>
<g id="a_node24"><a xlink:href="../proposal/TimingConstraint" xlink:title="{TimingConstraint|+note : ivoa:string\l+isAvoidConstraint : ivoa:boolean\l}">
<polygon fill="#8dd3c7" stroke="black" points="1723.88,-415.5 1723.88,-460.75 1848.62,-460.75 1848.62,-415.5 1723.88,-415.5"/>
<text text-anchor="middle" x="1786.25" y="-449.15" font-family="Times,serif" font-size="8.00">TimingConstraint</text>
<polyline fill="none" stroke="black" points="1723.88,-443 1848.62,-443"/>
<text text-anchor="start" x="1731.88" y="-431.4" font-family="Times,serif" font-size="8.00">+note : ivoa:string</text>
<text text-anchor="start" x="1731.88" y="-421.65" font-family="Times,serif" font-size="8.00">+isAvoidConstraint : ivoa:boolean</text>
</a>
</g>
</g>
<!-- proposal:TimingConstraint&#45;&gt;proposal:ObservingConstraint -->
<g id="edge8" class="edge">
<title>proposal:TimingConstraint&#45;&gt;proposal:ObservingConstraint</title>
<path fill="none" stroke="red" d="M1763.97,-415.06C1744.27,-395.55 1715.54,-367.1 1694.9,-346.65"/>
<polygon fill="none" stroke="red" points="1697.51,-344.31 1687.94,-339.76 1692.59,-349.29 1697.51,-344.31"/>
</g>
<!-- proposal:TimingWindow -->
<g id="node25" class="node">
<title>proposal:TimingWindow</title>
<g id="a_node25"><a xlink:href="../proposal/TimingWindow" xlink:title="{TimingWindow|+startTime : ivoa:datetime\l+endTime : ivoa:datetime\l}">
<polygon fill="#8dd3c7" stroke="black" points="1735.5,-562.62 1735.5,-607.88 1837,-607.88 1837,-562.62 1735.5,-562.62"/>
<text text-anchor="middle" x="1786.25" y="-596.27" font-family="Times,serif" font-size="8.00">TimingWindow</text>
<polyline fill="none" stroke="black" points="1735.5,-590.12 1837,-590.12"/>
<text text-anchor="start" x="1743.5" y="-578.52" font-family="Times,serif" font-size="8.00">+startTime : ivoa:datetime</text>
<text text-anchor="start" x="1743.5" y="-568.77" font-family="Times,serif" font-size="8.00">+endTime : ivoa:datetime</text>
</a>
</g>
</g>
<!-- proposal:TimingWindow&#45;&gt;proposal:TimingConstraint -->
<g id="edge9" class="edge">
<title>proposal:TimingWindow&#45;&gt;proposal:TimingConstraint</title>
<path fill="none" stroke="red" d="M1786.25,-562.21C1786.25,-538.31 1786.25,-499.9 1786.25,-472.34"/>
<polygon fill="none" stroke="red" points="1789.75,-472.41 1786.25,-462.41 1782.75,-472.41 1789.75,-472.41"/>
</g>
<!-- proposal:SimultaneityConstraint -->
<g id="node26" class="node">
<title>proposal:SimultaneityConstraint</title>
<g id="a_node26"><a xlink:href="../proposal/SimultaneityConstraint" xlink:title="{SimultaneityConstraint}">
<polygon fill="#8dd3c7" stroke="black" points="1855.5,-567.25 1855.5,-603.25 1945,-603.25 1945,-567.25 1855.5,-567.25"/>
<text text-anchor="middle" x="1900.25" y="-582.65" font-family="Times,serif" font-size="8.00">SimultaneityConstraint</text>
</a>
</g>
</g>
<!-- proposal:SimultaneityConstraint&#45;&gt;proposal:TimingConstraint -->
<g id="edge10" class="edge">
<title>proposal:SimultaneityConstraint&#45;&gt;proposal:TimingConstraint</title>
<path fill="none" stroke="red" d="M1886.73,-567.03C1867.91,-543.08 1833.54,-499.32 1810.3,-469.74"/>
<polygon fill="none" stroke="red" points="1813.34,-467.94 1804.41,-462.24 1807.83,-472.26 1813.34,-467.94"/>
</g>
<!-- proposal:PointingConstaint -->
<g id="node27" class="node">
<title>proposal:PointingConstaint</title>
<g id="a_node27"><a xlink:href="../proposal/PointingConstaint" xlink:title="{PointingConstaint}">
<polygon fill="#8dd3c7" stroke="black" points="1633.12,-420.12 1633.12,-456.12 1705.38,-456.12 1705.38,-420.12 1633.12,-420.12"/>
<text text-anchor="middle" x="1669.25" y="-435.52" font-family="Times,serif" font-size="8.00">PointingConstaint</text>
</a>
</g>
</g>
<!-- proposal:PointingConstaint&#45;&gt;proposal:ObservingConstraint -->
<g id="edge11" class="edge">
<title>proposal:PointingConstaint&#45;&gt;proposal:ObservingConstraint</title>
<path fill="none" stroke="red" d="M1669.25,-419.78C1669.25,-401.35 1669.25,-371.9 1669.25,-349.99"/>
<polygon fill="none" stroke="red" points="1672.75,-350.23 1669.25,-340.23 1665.75,-350.23 1672.75,-350.23"/>
</g>
<!-- proposal:ScienceSpectralWindow -->
<g id="node28" class="node">
<title>proposal:ScienceSpectralWindow</title>
<g id="a_node28"><a xlink:href="../proposal/ScienceSpectralWindow" xlink:title="{ScienceSpectralWindow|+spectralWindowSetup : proposal:SpectralWindowSetup\l}">
<polygon fill="#8dd3c7" stroke="black" points="1279.75,-189.25 1279.75,-225.25 1478.75,-225.25 1478.75,-189.25 1279.75,-189.25"/>
<text text-anchor="middle" x="1379.25" y="-213.65" font-family="Times,serif" font-size="8.00">ScienceSpectralWindow</text>
<polyline fill="none" stroke="black" points="1279.75,-207.5 1478.75,-207.5"/>
<text text-anchor="start" x="1287.75" y="-195.9" font-family="Times,serif" font-size="8.00">+spectralWindowSetup : proposal:SpectralWindowSetup</text>
</a>
</g>
</g>
<!-- proposal:ExpectedSpectralLine -->
<g id="node29" class="node">
<title>proposal:ExpectedSpectralLine</title>
<g id="a_node29"><a xlink:href="../proposal/ExpectedSpectralLine" xlink:title="{ExpectedSpectralLine|+restFrequency : ivoa:RealQuantity\l+transition : ivoa:string\l+splatalogId : ivoa:stringIdentifier\l+description : ivoa:string\l}">
<polygon fill="#8dd3c7" stroke="black" points="1313.5,-57 1313.5,-121.75 1445,-121.75 1445,-57 1313.5,-57"/>
<text text-anchor="middle" x="1379.25" y="-110.15" font-family="Times,serif" font-size="8.00">ExpectedSpectralLine</text>
<polyline fill="none" stroke="black" points="1313.5,-104 1445,-104"/>
<text text-anchor="start" x="1321.5" y="-92.4" font-family="Times,serif" font-size="8.00">+restFrequency : ivoa:RealQuantity</text>
<text text-anchor="start" x="1321.5" y="-82.65" font-family="Times,serif" font-size="8.00">+transition : ivoa:string</text>
<text text-anchor="start" x="1321.5" y="-72.9" font-family="Times,serif" font-size="8.00">+splatalogId : ivoa:stringIdentifier</text>
<text text-anchor="start" x="1321.5" y="-63.15" font-family="Times,serif" font-size="8.00">+description : ivoa:string</text>
</a>
</g>
</g>
<!-- proposal:ScienceSpectralWindow&#45;&gt;proposal:ExpectedSpectralLine -->
<g id="edge23" class="edge">
<title>proposal:ScienceSpectralWindow&#45;&gt;proposal:ExpectedSpectralLine</title>
<path fill="none" stroke="blue" d="M1379.25,-176.02C1379.25,-162.87 1379.25,-147.23 1379.25,-132.94"/>
<polygon fill="blue" stroke="blue" points="1379.25,-176 1383.25,-182 1379.25,-188 1375.25,-182 1379.25,-176"/>
<polygon fill="blue" stroke="blue" points="1379.25,-123.06 1383.75,-133.06 1379.25,-126.84 1379.25,-133.06 1379.25,-133.06 1379.25,-133.06 1379.25,-126.84 1374.75,-133.06 1379.25,-123.06"/>
<text text-anchor="middle" x="1423.5" y="-142" font-family="Times,serif" font-size="10.00">expectedSpectralLine</text>
<text text-anchor="middle" x="1371.75" y="-123.59" font-family="Times,serif" font-size="10.00">0..*</text>
</g>
<!-- proposal:PerformanceParameters -->
<g id="node30" class="node">
<title>proposal:PerformanceParameters</title>
<g id="a_node30"><a xlink:href="../proposal/PerformanceParameters" xlink:title="{PerformanceParameters|+desiredAngularResolution : ivoa:RealQuantity\l+desiredLargestScale : ivoa:RealQuantity\l+desiredSensitivity : ivoa:RealQuantity\l+desiredDynamicRange : ivoa:RealQuantity\l+representativeSpectralPoint : ivoa:RealQuantity\l}">
<polygon fill="#8dd3c7" stroke="black" points="1496.75,-170 1496.75,-244.5 1671.75,-244.5 1671.75,-170 1496.75,-170"/>
<text text-anchor="middle" x="1584.25" y="-232.9" font-family="Times,serif" font-size="8.00">PerformanceParameters</text>
<polyline fill="none" stroke="black" points="1496.75,-226.75 1671.75,-226.75"/>
<text text-anchor="start" x="1504.75" y="-215.15" font-family="Times,serif" font-size="8.00">+desiredAngularResolution : ivoa:RealQuantity</text>
<text text-anchor="start" x="1504.75" y="-205.4" font-family="Times,serif" font-size="8.00">+desiredLargestScale : ivoa:RealQuantity</text>
<text text-anchor="start" x="1504.75" y="-195.65" font-family="Times,serif" font-size="8.00">+desiredSensitivity : ivoa:RealQuantity</text>
<text text-anchor="start" x="1504.75" y="-185.9" font-family="Times,serif" font-size="8.00">+desiredDynamicRange : ivoa:RealQuantity</text>
<text text-anchor="start" x="1504.75" y="-176.15" font-family="Times,serif" font-size="8.00">+representativeSpectralPoint : ivoa:RealQuantity</text>
</a>
</g>
</g>
<!-- proposal:Observation&#45;&gt;proposal:Target -->
<g id="edge30" class="edge">
<title>proposal:Observation&#45;&gt;proposal:Target</title>
<path fill="none" stroke="green" d="M1534.3,-419.84C1527.04,-410.86 1516.93,-400.69 1505.25,-395.5 1450.53,-371.17 487.64,-356.01 428.25,-348.25 408.22,-345.63 386.63,-341.39 367.21,-337.03"/>
<polygon fill="green" stroke="green" points="357.56,-334.81 368.31,-332.67 361.24,-335.66 367.3,-337.05 367.3,-337.05 367.3,-337.05 361.24,-335.66 366.29,-341.44 357.56,-334.81"/>
<text text-anchor="middle" x="1297.08" y="-368" font-family="Times,serif" font-size="10.00">target</text>
<text text-anchor="middle" x="363.87" y="-336.29" font-family="Times,serif" font-size="10.00">0..*</text>
</g>
<!-- proposal:Observation&#45;&gt;proposal:Field -->
<g id="edge31" class="edge">
<title>proposal:Observation&#45;&gt;proposal:Field</title>
<path fill="none" stroke="green" d="M1533.65,-420.05C1526.32,-411.35 1516.36,-401.4 1505.25,-395.5 1442.58,-362.18 1418.5,-376.36 1348.25,-366.25 1207.29,-345.96 1039.69,-331.49 957.62,-325.03"/>
<polygon fill="green" stroke="green" points="947.83,-324.27 958.15,-320.56 951.6,-324.56 957.8,-325.04 957.8,-325.04 957.8,-325.04 951.6,-324.56 957.45,-329.53 947.83,-324.27"/>
<text text-anchor="middle" x="1469.2" y="-368" font-family="Times,serif" font-size="10.00">field</text>
<text text-anchor="middle" x="949.24" y="-325.92" font-family="Times,serif" font-size="10.00">1</text>
</g>
<!-- proposal:Observation&#45;&gt;proposal:ObservingConstraint -->
<g id="edge24" class="edge">
<title>proposal:Observation&#45;&gt;proposal:ObservingConstraint</title>
<path fill="none" stroke="blue" d="M1573.51,-411.17C1587.66,-397.74 1605.23,-381.08 1621,-366.25 1627.96,-359.71 1635.5,-352.65 1642.51,-346.12"/>
<polygon fill="blue" stroke="blue" points="1573.69,-411.01 1572.09,-418.04 1564.99,-419.28 1566.58,-412.24 1573.69,-411.01"/>
<polygon fill="blue" stroke="blue" points="1649.54,-339.57 1645.29,-349.68 1646.77,-342.15 1642.22,-346.39 1642.22,-346.39 1642.22,-346.39 1646.77,-342.15 1639.15,-343.09 1649.54,-339.57"/>
<text text-anchor="middle" x="1643.12" y="-368" font-family="Times,serif" font-size="10.00">constraints</text>
<text text-anchor="middle" x="1642.93" y="-340.49" font-family="Times,serif" font-size="10.00">0..*</text>
</g>
<!-- proposal:Observation&#45;&gt;proposal:TechnicalGoal -->
<g id="edge32" class="edge">
<title>proposal:Observation&#45;&gt;proposal:TechnicalGoal</title>
<path fill="none" stroke="green" d="M1536.67,-419.78C1526.25,-400.92 1509.47,-370.53 1497.29,-348.48"/>
<polygon fill="green" stroke="green" points="1492.49,-339.78 1501.26,-346.36 1494.31,-343.09 1497.32,-348.54 1497.32,-348.54 1497.32,-348.54 1494.31,-343.09 1493.38,-350.71 1492.49,-339.78"/>
<text text-anchor="middle" x="1541.21" y="-368" font-family="Times,serif" font-size="10.00">technicalGoal</text>
<text text-anchor="middle" x="1489.27" y="-340.47" font-family="Times,serif" font-size="10.00">1</text>
</g>
<!-- proposal:TargetObservation -->
<g id="node32" class="node">
<title>proposal:TargetObservation</title>
<g id="a_node32"><a xlink:href="../proposal/TargetObservation" xlink:title="{TargetObservation}">
<polygon fill="#8dd3c7" stroke="black" points="1643,-567.25 1643,-603.25 1717.5,-603.25 1717.5,-567.25 1643,-567.25"/>
<text text-anchor="middle" x="1680.25" y="-582.65" font-family="Times,serif" font-size="8.00">TargetObservation</text>
</a>
</g>
</g>
<!-- proposal:TargetObservation&#45;&gt;proposal:Observation -->
<g id="edge12" class="edge">
<title>proposal:TargetObservation&#45;&gt;proposal:Observation</title>
<path fill="none" stroke="red" d="M1666.77,-566.91C1657.81,-555.61 1645.64,-540.66 1634.25,-528 1614.27,-505.81 1590.37,-481.82 1572.52,-464.36"/>
<polygon fill="none" stroke="red" points="1574.98,-461.87 1565.37,-457.41 1570.1,-466.89 1574.98,-461.87"/>
</g>
<!-- proposal:CalibrationObservation -->
<g id="node33" class="node">
<title>proposal:CalibrationObservation</title>
<g id="a_node33"><a xlink:href="../proposal/CalibrationObservation" xlink:title="{CalibrationObservation|+intent : proposal:CalibrationTarget_intendedUse\l}">
<polygon fill="#8dd3c7" stroke="black" points="1451.5,-567.25 1451.5,-603.25 1625,-603.25 1625,-567.25 1451.5,-567.25"/>
<text text-anchor="middle" x="1538.25" y="-591.65" font-family="Times,serif" font-size="8.00">CalibrationObservation</text>
<polyline fill="none" stroke="black" points="1451.5,-585.5 1625,-585.5"/>
<text text-anchor="start" x="1459.5" y="-573.9" font-family="Times,serif" font-size="8.00">+intent : proposal:CalibrationTarget_intendedUse</text>
</a>
</g>
</g>
<!-- proposal:CalibrationObservation&#45;&gt;proposal:Observation -->
<g id="edge13" class="edge">
<title>proposal:CalibrationObservation&#45;&gt;proposal:Observation</title>
<path fill="none" stroke="red" d="M1539.2,-567.03C1540.55,-542.48 1543.05,-497.13 1544.68,-467.55"/>
<polygon fill="none" stroke="red" points="1548.16,-468.01 1545.22,-457.83 1541.17,-467.62 1548.16,-468.01"/>
</g>
<!-- proposal:TechnicalGoal&#45;&gt;proposal:ScienceSpectralWindow -->
<g id="edge26" class="edge">
<title>proposal:TechnicalGoal&#45;&gt;proposal:ScienceSpectralWindow</title>
<path fill="none" stroke="blue" d="M1457.3,-292.36C1440.7,-274.47 1419.04,-251.13 1402.75,-233.58"/>
<polygon fill="blue" stroke="blue" points="1457.38,-292.45 1464.39,-294.13 1465.54,-301.25 1458.53,-299.57 1457.38,-292.45"/>
<polygon fill="blue" stroke="blue" points="1396.06,-226.37 1406.16,-230.63 1398.63,-229.14 1402.86,-233.7 1402.86,-233.7 1402.86,-233.7 1398.63,-229.14 1399.56,-236.76 1396.06,-226.37"/>
<text text-anchor="middle" x="1458.35" y="-264.75" font-family="Times,serif" font-size="10.00">spectrum</text>
<text text-anchor="middle" x="1387.73" y="-227.22" font-family="Times,serif" font-size="10.00">1..*</text>
</g>
<!-- proposal:TechnicalGoal&#45;&gt;proposal:PerformanceParameters -->
<g id="edge25" class="edge">
<title>proposal:TechnicalGoal&#45;&gt;proposal:PerformanceParameters</title>
<path fill="none" stroke="blue" d="M1506.72,-292.62C1517.64,-280.74 1530.8,-266.42 1543.15,-252.98"/>
<polygon fill="blue" stroke="blue" points="1506.92,-292.41 1505.8,-299.53 1498.8,-301.24 1499.91,-294.12 1506.92,-292.41"/>
<polygon fill="blue" stroke="blue" points="1549.89,-245.65 1546.43,-256.05 1547.33,-248.43 1543.12,-253.01 1543.12,-253.01 1543.12,-253.01 1547.33,-248.43 1539.81,-249.96 1549.89,-245.65"/>
<text text-anchor="middle" x="1558.38" y="-264.75" font-family="Times,serif" font-size="10.00">performance</text>
<text text-anchor="middle" x="1548.09" y="-246.5" font-family="Times,serif" font-size="10.00">1</text>
</g>
</g>
</svg>
