<?xml version="1.0" encoding="UTF-8" standalone="no"?>
<!DOCTYPE svg PUBLIC "-//W3C//DTD SVG 1.1//EN"
 "http://www.w3.org/Graphics/SVG/1.1/DTD/svg11.dtd">
<!-- Generated by graphviz version 9.0.0 (20230911.1827)
 -->
<!-- Title: GVmap Pages: 1 -->
<svg width="1718pt" height="818pt"
 viewBox="0.00 0.00 1717.75 817.50" xmlns="http://www.w3.org/2000/svg" xmlns:xlink="http://www.w3.org/1999/xlink">
<g id="graph0" class="graph" transform="scale(1 1) rotate(0) translate(4 813.5)">
<title>GVmap</title>
<polygon fill="white" stroke="none" points="-4,4 -4,-813.5 1713.75,-813.5 1713.75,4 -4,4"/>
<text text-anchor="middle" x="854.88" y="-7.2" font-family="Times,serif" font-size="14.00">coords data model</text>
<!-- coords:Epoch -->
<g id="node1" class="node">
<title>coords:Epoch</title>
<g id="a_node1"><a xlink:href="../coords/Epoch" xlink:title="{&amp;lt;&amp;lt;primitive type&amp;gt;&amp;gt;\nEpoch}">
<polygon fill="#8dd3c7" stroke="black" points="337.38,-700.12 337.38,-736.12 416.38,-736.12 416.38,-700.12 337.38,-700.12"/>
<text text-anchor="middle" x="376.88" y="-720.52" font-family="Times,serif" font-size="8.00">&lt;&lt;primitive type&gt;&gt;</text>
<text text-anchor="middle" x="376.88" y="-710.77" font-family="Times,serif" font-size="8.00">Epoch</text>
</a>
</g>
</g>
<!-- coords:Handedness -->
<g id="node2" class="node">
<title>coords:Handedness</title>
<g id="a_node2"><a xlink:href="../coords/Handedness" xlink:title="{&amp;lt;&amp;lt;enumeration&amp;gt;&amp;gt;\nHandedness|+left\l+right\l}">
<polygon fill="#8dd3c7" stroke="black" points="434,-690.62 434,-745.62 507.75,-745.62 507.75,-690.62 434,-690.62"/>
<text text-anchor="middle" x="470.88" y="-734.02" font-family="Times,serif" font-size="8.00">&lt;&lt;enumeration&gt;&gt;</text>
<text text-anchor="middle" x="470.88" y="-724.27" font-family="Times,serif" font-size="8.00">Handedness</text>
<polyline fill="none" stroke="black" points="434,-718.12 507.75,-718.12"/>
<text text-anchor="start" x="442" y="-706.52" font-family="Times,serif" font-size="8.00">+left</text>
<text text-anchor="start" x="442" y="-696.77" font-family="Times,serif" font-size="8.00">+right</text>
</a>
</g>
</g>
<!-- coords:PolStateEnum -->
<g id="node3" class="node">
<title>coords:PolStateEnum</title>
<g id="a_node3"><a xlink:href="../coords/PolStateEnum" xlink:title="{&amp;lt;&amp;lt;enumeration&amp;gt;&amp;gt;\nPolStateEnum|+I\l+Q\l+U\l+V\l+RR\l+LL\l+RL\l+LR\l+XX\l+YY\l+XY\l+YX\l+PF\l+PP\l+PA\l}">
<polygon fill="#8dd3c7" stroke="black" points="526,-627.25 526,-809 599.75,-809 599.75,-627.25 526,-627.25"/>
<text text-anchor="middle" x="562.88" y="-797.4" font-family="Times,serif" font-size="8.00">&lt;&lt;enumeration&gt;&gt;</text>
<text text-anchor="middle" x="562.88" y="-787.65" font-family="Times,serif" font-size="8.00">PolStateEnum</text>
<polyline fill="none" stroke="black" points="526,-781.5 599.75,-781.5"/>
<text text-anchor="start" x="534" y="-769.9" font-family="Times,serif" font-size="8.00">+I</text>
<text text-anchor="start" x="534" y="-760.15" font-family="Times,serif" font-size="8.00">+Q</text>
<text text-anchor="start" x="534" y="-750.4" font-family="Times,serif" font-size="8.00">+U</text>
<text text-anchor="start" x="534" y="-740.65" font-family="Times,serif" font-size="8.00">+V</text>
<text text-anchor="start" x="534" y="-730.9" font-family="Times,serif" font-size="8.00">+RR</text>
<text text-anchor="start" x="534" y="-721.15" font-family="Times,serif" font-size="8.00">+LL</text>
<text text-anchor="start" x="534" y="-711.4" font-family="Times,serif" font-size="8.00">+RL</text>
<text text-anchor="start" x="534" y="-701.65" font-family="Times,serif" font-size="8.00">+LR</text>
<text text-anchor="start" x="534" y="-691.9" font-family="Times,serif" font-size="8.00">+XX</text>
<text text-anchor="start" x="534" y="-682.15" font-family="Times,serif" font-size="8.00">+YY</text>
<text text-anchor="start" x="534" y="-672.4" font-family="Times,serif" font-size="8.00">+XY</text>
<text text-anchor="start" x="534" y="-662.65" font-family="Times,serif" font-size="8.00">+YX</text>
<text text-anchor="start" x="534" y="-652.9" font-family="Times,serif" font-size="8.00">+PF</text>
<text text-anchor="start" x="534" y="-643.15" font-family="Times,serif" font-size="8.00">+PP</text>
<text text-anchor="start" x="534" y="-633.4" font-family="Times,serif" font-size="8.00">+PA</text>
</a>
</g>
</g>
<!-- coords:Coordinate -->
<g id="node4" class="node">
<title>coords:Coordinate</title>
<g id="a_node4"><a xlink:href="../coords/Coordinate" xlink:title="{&amp;lt;&amp;lt;datatype&amp;gt;&amp;gt;\nCoordinate}">
<polygon fill="#8dd3c7" stroke="black" points="556.38,-332.88 556.38,-368.88 617.38,-368.88 617.38,-332.88 556.38,-332.88"/>
<text text-anchor="middle" x="586.88" y="-353.27" font-family="Times,serif" font-size="8.00">&lt;&lt;datatype&gt;&gt;</text>
<text text-anchor="middle" x="586.88" y="-343.52" font-family="Times,serif" font-size="8.00">Coordinate</text>
</a>
</g>
</g>
<!-- coords:CoordSys -->
<g id="node35" class="node">
<title>coords:CoordSys</title>
<g id="a_node35"><a xlink:href="../coords/CoordSys" xlink:title="{CoordSys}">
<polygon fill="#8dd3c7" stroke="black" points="747.88,-234.25 747.88,-270.25 801.88,-270.25 801.88,-234.25 747.88,-234.25"/>
<text text-anchor="middle" x="774.75" y="-249.65" font-family="Times,serif" font-size="8.00">CoordSys</text>
</a>
</g>
</g>
<!-- coords:Coordinate&#45;&gt;coords:CoordSys -->
<g id="edge40" class="edge">
<title>coords:Coordinate&#45;&gt;coords:CoordSys</title>
<path fill="none" stroke="green" d="M617.5,-334.14C650.36,-317.25 702.56,-290.42 737.74,-272.34"/>
<polygon fill="green" stroke="green" points="746.54,-267.81 739.7,-276.39 743.18,-269.54 737.65,-272.38 737.65,-272.38 737.65,-272.38 743.18,-269.54 735.59,-268.38 746.54,-267.81"/>
<text text-anchor="middle" x="722.62" y="-290.5" font-family="Times,serif" font-size="10.00">coordSys</text>
<text text-anchor="middle" x="745" y="-269.01" font-family="Times,serif" font-size="10.00">1</text>
</g>
<!-- coords:BinnedCoordinate -->
<g id="node5" class="node">
<title>coords:BinnedCoordinate</title>
<g id="a_node5"><a xlink:href="../coords/BinnedCoordinate" xlink:title="{&amp;lt;&amp;lt;datatype&amp;gt;&amp;gt;\nBinnedCoordinate|+cval : ivoa:integer\l}">
<polygon fill="#8dd3c7" stroke="black" points="114.38,-441.25 114.38,-486.5 193.38,-486.5 193.38,-441.25 114.38,-441.25"/>
<text text-anchor="middle" x="153.88" y="-474.9" font-family="Times,serif" font-size="8.00">&lt;&lt;datatype&gt;&gt;</text>
<text text-anchor="middle" x="153.88" y="-465.15" font-family="Times,serif" font-size="8.00">BinnedCoordinate</text>
<polyline fill="none" stroke="black" points="114.38,-459 193.38,-459"/>
<text text-anchor="start" x="122.38" y="-447.4" font-family="Times,serif" font-size="8.00">+cval : ivoa:integer</text>
</a>
</g>
</g>
<!-- coords:BinnedCoordinate&#45;&gt;coords:Coordinate -->
<g id="edge1" class="edge">
<title>coords:BinnedCoordinate&#45;&gt;coords:Coordinate</title>
<path fill="none" stroke="red" d="M183.37,-440.85C189.56,-437.06 196.24,-433.53 202.88,-431 283.54,-400.27 309.33,-413.29 394.88,-401.75 462.73,-392.59 484.84,-410.49 547.88,-383.75 552.53,-381.78 557.07,-379.07 561.31,-376.06"/>
<polygon fill="none" stroke="red" points="563.18,-379.04 568.86,-370.09 558.84,-373.55 563.18,-379.04"/>
</g>
<!-- coords:PixelIndex -->
<g id="node6" class="node">
<title>coords:PixelIndex</title>
<g id="a_node6"><a xlink:href="../coords/PixelIndex" xlink:title="{&amp;lt;&amp;lt;datatype&amp;gt;&amp;gt;\nPixelIndex}">
<polygon fill="#8dd3c7" stroke="black" points="127.38,-543.75 127.38,-579.75 188.38,-579.75 188.38,-543.75 127.38,-543.75"/>
<text text-anchor="middle" x="157.88" y="-564.15" font-family="Times,serif" font-size="8.00">&lt;&lt;datatype&gt;&gt;</text>
<text text-anchor="middle" x="157.88" y="-554.4" font-family="Times,serif" font-size="8.00">PixelIndex</text>
</a>
</g>
</g>
<!-- coords:PixelIndex&#45;&gt;coords:BinnedCoordinate -->
<g id="edge2" class="edge">
<title>coords:PixelIndex&#45;&gt;coords:BinnedCoordinate</title>
<path fill="none" stroke="red" d="M157.16,-543.61C156.63,-530.99 155.9,-513.43 155.26,-498.1"/>
<polygon fill="none" stroke="red" points="158.77,-498.29 154.86,-488.44 151.78,-498.58 158.77,-498.29"/>
</g>
<!-- coords:PhysicalCoordinate -->
<g id="node7" class="node">
<title>coords:PhysicalCoordinate</title>
<g id="a_node7"><a xlink:href="../coords/PhysicalCoordinate" xlink:title="{&amp;lt;&amp;lt;datatype&amp;gt;&amp;gt;\nPhysicalCoordinate|+cval : ivoa:Quantity\l}">
<polygon fill="#8dd3c7" stroke="black" points="211.75,-441.25 211.75,-486.5 296,-486.5 296,-441.25 211.75,-441.25"/>
<text text-anchor="middle" x="253.88" y="-474.9" font-family="Times,serif" font-size="8.00">&lt;&lt;datatype&gt;&gt;</text>
<text text-anchor="middle" x="253.88" y="-465.15" font-family="Times,serif" font-size="8.00">PhysicalCoordinate</text>
<polyline fill="none" stroke="black" points="211.75,-459 296,-459"/>
<text text-anchor="start" x="219.75" y="-447.4" font-family="Times,serif" font-size="8.00">+cval : ivoa:Quantity</text>
</a>
</g>
</g>
<!-- coords:PhysicalCoordinate&#45;&gt;coords:Coordinate -->
<g id="edge3" class="edge">
<title>coords:PhysicalCoordinate&#45;&gt;coords:Coordinate</title>
<path fill="none" stroke="red" d="M285.3,-440.76C291.57,-437.07 298.27,-433.6 304.88,-431 311.27,-428.48 541.65,-386.67 547.88,-383.75 552.24,-381.7 556.53,-379.06 560.58,-376.17"/>
<polygon fill="none" stroke="red" points="562.62,-379.02 568.32,-370.09 558.3,-373.52 562.62,-379.02"/>
</g>
<!-- coords:Point -->
<g id="node8" class="node">
<title>coords:Point</title>
<g id="a_node8"><a xlink:href="../coords/Point" xlink:title="{&amp;lt;&amp;lt;datatype&amp;gt;&amp;gt;\nPoint|+axis1 : ivoa:Quantity\l+axis2 : ivoa:Quantity\l+axis3 : ivoa:Quantity\l}">
<polygon fill="#8dd3c7" stroke="black" points="314.25,-431.5 314.25,-496.25 401.5,-496.25 401.5,-431.5 314.25,-431.5"/>
<text text-anchor="middle" x="357.88" y="-484.65" font-family="Times,serif" font-size="8.00">&lt;&lt;datatype&gt;&gt;</text>
<text text-anchor="middle" x="357.88" y="-474.9" font-family="Times,serif" font-size="8.00">Point</text>
<polyline fill="none" stroke="black" points="314.25,-468.75 401.5,-468.75"/>
<text text-anchor="start" x="322.25" y="-457.15" font-family="Times,serif" font-size="8.00">+axis1 : ivoa:Quantity</text>
<text text-anchor="start" x="322.25" y="-447.4" font-family="Times,serif" font-size="8.00">+axis2 : ivoa:Quantity</text>
<text text-anchor="start" x="322.25" y="-437.65" font-family="Times,serif" font-size="8.00">+axis3 : ivoa:Quantity</text>
</a>
</g>
</g>
<!-- coords:Point&#45;&gt;coords:Coordinate -->
<g id="edge4" class="edge">
<title>coords:Point&#45;&gt;coords:Coordinate</title>
<path fill="none" stroke="red" d="M401.76,-435.07C404.47,-433.63 407.19,-432.26 409.88,-431 468.53,-403.39 491.22,-415.26 547.88,-383.75 551.8,-381.57 555.73,-378.97 559.49,-376.22"/>
<polygon fill="none" stroke="red" points="561.52,-379.08 567.23,-370.15 557.2,-373.57 561.52,-379.08"/>
</g>
<!-- coords:SphericalPoint -->
<g id="node9" class="node">
<title>coords:SphericalPoint</title>
<g id="a_node9"><a xlink:href="../coords/SphericalPoint" xlink:title="{&amp;lt;&amp;lt;datatype&amp;gt;&amp;gt;\nSphericalPoint|+r : ivoa:RealQuantity\l+theta : ivoa:RealQuantity\l+phi : ivoa:RealQuantity\l}">
<polygon fill="#8dd3c7" stroke="black" points="419.12,-431.5 419.12,-496.25 520.62,-496.25 520.62,-431.5 419.12,-431.5"/>
<text text-anchor="middle" x="469.88" y="-484.65" font-family="Times,serif" font-size="8.00">&lt;&lt;datatype&gt;&gt;</text>
<text text-anchor="middle" x="469.88" y="-474.9" font-family="Times,serif" font-size="8.00">SphericalPoint</text>
<polyline fill="none" stroke="black" points="419.12,-468.75 520.62,-468.75"/>
<text text-anchor="start" x="427.12" y="-457.15" font-family="Times,serif" font-size="8.00">+r : ivoa:RealQuantity</text>
<text text-anchor="start" x="427.12" y="-447.4" font-family="Times,serif" font-size="8.00">+theta : ivoa:RealQuantity</text>
<text text-anchor="start" x="427.12" y="-437.65" font-family="Times,serif" font-size="8.00">+phi : ivoa:RealQuantity</text>
</a>
</g>
</g>
<!-- coords:SphericalPoint&#45;&gt;coords:Coordinate -->
<g id="edge5" class="edge">
<title>coords:SphericalPoint&#45;&gt;coords:Coordinate</title>
<path fill="none" stroke="red" d="M503.4,-431.07C521.46,-413.94 543.42,-393.1 560.29,-377.1"/>
<polygon fill="none" stroke="red" points="562.65,-379.68 567.49,-370.26 557.83,-374.6 562.65,-379.68"/>
</g>
<!-- coords:EquatorialPoint -->
<g id="node10" class="node">
<title>coords:EquatorialPoint</title>
<g id="a_node10"><a xlink:href="../coords/EquatorialPoint" xlink:title="{&amp;lt;&amp;lt;datatype&amp;gt;&amp;gt;\nEquatorialPoint|+lon : ivoa:RealQuantity\l+lat : ivoa:RealQuantity\l}">
<polygon fill="#8dd3c7" stroke="black" points="539.12,-436.38 539.12,-491.38 634.62,-491.38 634.62,-436.38 539.12,-436.38"/>
<text text-anchor="middle" x="586.88" y="-479.77" font-family="Times,serif" font-size="8.00">&lt;&lt;datatype&gt;&gt;</text>
<text text-anchor="middle" x="586.88" y="-470.02" font-family="Times,serif" font-size="8.00">EquatorialPoint</text>
<polyline fill="none" stroke="black" points="539.12,-463.88 634.62,-463.88"/>
<text text-anchor="start" x="547.12" y="-452.27" font-family="Times,serif" font-size="8.00">+lon : ivoa:RealQuantity</text>
<text text-anchor="start" x="547.12" y="-442.52" font-family="Times,serif" font-size="8.00">+lat : ivoa:RealQuantity</text>
</a>
</g>
</g>
<!-- coords:EquatorialPoint&#45;&gt;coords:Coordinate -->
<g id="edge6" class="edge">
<title>coords:EquatorialPoint&#45;&gt;coords:Coordinate</title>
<path fill="none" stroke="red" d="M586.88,-436C586.88,-419.11 586.88,-397.35 586.88,-380.19"/>
<polygon fill="none" stroke="red" points="590.38,-380.68 586.88,-370.68 583.38,-380.68 590.38,-380.68"/>
</g>
<!-- coords:GeocentricPoint -->
<g id="node11" class="node">
<title>coords:GeocentricPoint</title>
<g id="a_node11"><a xlink:href="../coords/GeocentricPoint" xlink:title="{&amp;lt;&amp;lt;datatype&amp;gt;&amp;gt;\nGeocentricPoint|+x : ivoa:RealQuantity\l+y : ivoa:RealQuantity\l+z : ivoa:RealQuantity\l}">
<polygon fill="#8dd3c7" stroke="black" points="653.12,-431.5 653.12,-496.25 742.62,-496.25 742.62,-431.5 653.12,-431.5"/>
<text text-anchor="middle" x="697.88" y="-484.65" font-family="Times,serif" font-size="8.00">&lt;&lt;datatype&gt;&gt;</text>
<text text-anchor="middle" x="697.88" y="-474.9" font-family="Times,serif" font-size="8.00">GeocentricPoint</text>
<polyline fill="none" stroke="black" points="653.12,-468.75 742.62,-468.75"/>
<text text-anchor="start" x="661.12" y="-457.15" font-family="Times,serif" font-size="8.00">+x : ivoa:RealQuantity</text>
<text text-anchor="start" x="661.12" y="-447.4" font-family="Times,serif" font-size="8.00">+y : ivoa:RealQuantity</text>
<text text-anchor="start" x="661.12" y="-437.65" font-family="Times,serif" font-size="8.00">+z : ivoa:RealQuantity</text>
</a>
</g>
</g>
<!-- coords:GeocentricPoint&#45;&gt;coords:Coordinate -->
<g id="edge7" class="edge">
<title>coords:GeocentricPoint&#45;&gt;coords:Coordinate</title>
<path fill="none" stroke="red" d="M666.07,-431.07C648.94,-413.94 628.1,-393.1 612.1,-377.1"/>
<polygon fill="none" stroke="red" points="614.84,-374.89 605.29,-370.29 609.89,-379.84 614.84,-374.89"/>
</g>
<!-- coords:TimeStamp -->
<g id="node12" class="node">
<title>coords:TimeStamp</title>
<g id="a_node12"><a xlink:href="../coords/TimeStamp" xlink:title="{&amp;lt;&amp;lt;datatype&amp;gt;&amp;gt;\nTimeStamp}">
<polygon fill="#8dd3c7" stroke="black" points="760.38,-445.88 760.38,-481.88 821.38,-481.88 821.38,-445.88 760.38,-445.88"/>
<text text-anchor="middle" x="790.88" y="-466.27" font-family="Times,serif" font-size="8.00">&lt;&lt;datatype&gt;&gt;</text>
<text text-anchor="middle" x="790.88" y="-456.52" font-family="Times,serif" font-size="8.00">TimeStamp</text>
</a>
</g>
</g>
<!-- coords:TimeStamp&#45;&gt;coords:Coordinate -->
<g id="edge8" class="edge">
<title>coords:TimeStamp&#45;&gt;coords:Coordinate</title>
<path fill="none" stroke="red" d="M771.72,-445.7C765.61,-440.65 758.66,-435.32 751.88,-431 711.96,-405.63 662.66,-383 628.4,-368.51"/>
<polygon fill="none" stroke="red" points="629.8,-365.31 619.23,-364.69 627.11,-371.77 629.8,-365.31"/>
</g>
<!-- coords:TimeOffset -->
<g id="node13" class="node">
<title>coords:TimeOffset</title>
<g id="a_node13"><a xlink:href="../coords/TimeOffset" xlink:title="{&amp;lt;&amp;lt;datatype&amp;gt;&amp;gt;\nTimeOffset|+time : ivoa:RealQuantity\l+time0 : coords:TimeInstant\l}">
<polygon fill="#8dd3c7" stroke="black" points="788.5,-534.25 788.5,-589.25 895.25,-589.25 895.25,-534.25 788.5,-534.25"/>
<text text-anchor="middle" x="841.88" y="-577.65" font-family="Times,serif" font-size="8.00">&lt;&lt;datatype&gt;&gt;</text>
<text text-anchor="middle" x="841.88" y="-567.9" font-family="Times,serif" font-size="8.00">TimeOffset</text>
<polyline fill="none" stroke="black" points="788.5,-561.75 895.25,-561.75"/>
<text text-anchor="start" x="796.5" y="-550.15" font-family="Times,serif" font-size="8.00">+time : ivoa:RealQuantity</text>
<text text-anchor="start" x="796.5" y="-540.4" font-family="Times,serif" font-size="8.00">+time0 : coords:TimeInstant</text>
</a>
</g>
</g>
<!-- coords:TimeOffset&#45;&gt;coords:TimeStamp -->
<g id="edge9" class="edge">
<title>coords:TimeOffset&#45;&gt;coords:TimeStamp</title>
<path fill="none" stroke="red" d="M827.53,-533.79C820.61,-520.76 812.31,-505.17 805.36,-492.11"/>
<polygon fill="none" stroke="red" points="808.63,-490.8 800.84,-483.61 802.45,-494.09 808.63,-490.8"/>
</g>
<!-- coords:TimeInstant -->
<g id="node14" class="node">
<title>coords:TimeInstant</title>
<g id="a_node14"><a xlink:href="../coords/TimeInstant" xlink:title="{&amp;lt;&amp;lt;datatype&amp;gt;&amp;gt;\nTimeInstant}">
<polygon fill="#8dd3c7" stroke="black" points="709.38,-543.75 709.38,-579.75 770.38,-579.75 770.38,-543.75 709.38,-543.75"/>
<text text-anchor="middle" x="739.88" y="-564.15" font-family="Times,serif" font-size="8.00">&lt;&lt;datatype&gt;&gt;</text>
<text text-anchor="middle" x="739.88" y="-554.4" font-family="Times,serif" font-size="8.00">TimeInstant</text>
</a>
</g>
</g>
<!-- coords:TimeInstant&#45;&gt;coords:TimeStamp -->
<g id="edge10" class="edge">
<title>coords:TimeInstant&#45;&gt;coords:TimeStamp</title>
<path fill="none" stroke="red" d="M748.99,-543.61C756.63,-529.25 767.68,-508.49 776.5,-491.89"/>
<polygon fill="none" stroke="red" points="779.35,-494 780.95,-483.53 773.17,-490.71 779.35,-494"/>
</g>
<!-- coords:JD -->
<g id="node15" class="node">
<title>coords:JD</title>
<g id="a_node15"><a xlink:href="../coords/JD" xlink:title="{&amp;lt;&amp;lt;datatype&amp;gt;&amp;gt;\nJD|+date : ivoa:real\l}">
<polygon fill="#8dd3c7" stroke="black" points="618.25,-695.5 618.25,-740.75 687.5,-740.75 687.5,-695.5 618.25,-695.5"/>
<text text-anchor="middle" x="652.88" y="-729.15" font-family="Times,serif" font-size="8.00">&lt;&lt;datatype&gt;&gt;</text>
<text text-anchor="middle" x="652.88" y="-719.4" font-family="Times,serif" font-size="8.00">JD</text>
<polyline fill="none" stroke="black" points="618.25,-713.25 687.5,-713.25"/>
<text text-anchor="start" x="626.25" y="-701.65" font-family="Times,serif" font-size="8.00">+date : ivoa:real</text>
</a>
</g>
</g>
<!-- coords:JD&#45;&gt;coords:TimeInstant -->
<g id="edge11" class="edge">
<title>coords:JD&#45;&gt;coords:TimeInstant</title>
<path fill="none" stroke="red" d="M662.19,-695.08C670.33,-676.47 682.85,-649.33 695.88,-626.75 703.17,-614.1 712.17,-600.7 720.12,-589.45"/>
<polygon fill="none" stroke="red" points="722.9,-591.58 725.89,-581.42 717.21,-587.5 722.9,-591.58"/>
</g>
<!-- coords:MJD -->
<g id="node16" class="node">
<title>coords:MJD</title>
<g id="a_node16"><a xlink:href="../coords/MJD" xlink:title="{&amp;lt;&amp;lt;datatype&amp;gt;&amp;gt;\nMJD|+date : ivoa:real\l}">
<polygon fill="#8dd3c7" stroke="black" points="705.25,-695.5 705.25,-740.75 774.5,-740.75 774.5,-695.5 705.25,-695.5"/>
<text text-anchor="middle" x="739.88" y="-729.15" font-family="Times,serif" font-size="8.00">&lt;&lt;datatype&gt;&gt;</text>
<text text-anchor="middle" x="739.88" y="-719.4" font-family="Times,serif" font-size="8.00">MJD</text>
<polyline fill="none" stroke="black" points="705.25,-713.25 774.5,-713.25"/>
<text text-anchor="start" x="713.25" y="-701.65" font-family="Times,serif" font-size="8.00">+date : ivoa:real</text>
</a>
</g>
</g>
<!-- coords:MJD&#45;&gt;coords:TimeInstant -->
<g id="edge12" class="edge">
<title>coords:MJD&#45;&gt;coords:TimeInstant</title>
<path fill="none" stroke="red" d="M739.88,-695.01C739.88,-667.75 739.88,-621.37 739.88,-591.41"/>
<polygon fill="none" stroke="red" points="743.38,-591.56 739.88,-581.56 736.38,-591.56 743.38,-591.56"/>
</g>
<!-- coords:ISOTime -->
<g id="node17" class="node">
<title>coords:ISOTime</title>
<g id="a_node17"><a xlink:href="../coords/ISOTime" xlink:title="{&amp;lt;&amp;lt;datatype&amp;gt;&amp;gt;\nISOTime|+date : ivoa:datetime\l}">
<polygon fill="#8dd3c7" stroke="black" points="792.75,-695.5 792.75,-740.75 877,-740.75 877,-695.5 792.75,-695.5"/>
<text text-anchor="middle" x="834.88" y="-729.15" font-family="Times,serif" font-size="8.00">&lt;&lt;datatype&gt;&gt;</text>
<text text-anchor="middle" x="834.88" y="-719.4" font-family="Times,serif" font-size="8.00">ISOTime</text>
<polyline fill="none" stroke="black" points="792.75,-713.25 877,-713.25"/>
<text text-anchor="start" x="800.75" y="-701.65" font-family="Times,serif" font-size="8.00">+date : ivoa:datetime</text>
</a>
</g>
</g>
<!-- coords:ISOTime&#45;&gt;coords:TimeInstant -->
<g id="edge13" class="edge">
<title>coords:ISOTime&#45;&gt;coords:TimeInstant</title>
<path fill="none" stroke="red" d="M823.24,-695.26C813.23,-676.76 798.18,-649.67 783.88,-626.75 776.09,-614.28 766.95,-600.82 759.03,-589.47"/>
<polygon fill="none" stroke="red" points="761.93,-587.52 753.31,-581.37 756.21,-591.56 761.93,-587.52"/>
</g>
<!-- coords:PolCoordinate -->
<g id="node18" class="node">
<title>coords:PolCoordinate</title>
<g id="a_node18"><a xlink:href="../coords/PolCoordinate" xlink:title="{&amp;lt;&amp;lt;datatype&amp;gt;&amp;gt;\nPolCoordinate}">
<polygon fill="#8dd3c7" stroke="black" points="31,-445.88 31,-481.88 92.75,-481.88 92.75,-445.88 31,-445.88"/>
<text text-anchor="middle" x="61.88" y="-466.27" font-family="Times,serif" font-size="8.00">&lt;&lt;datatype&gt;&gt;</text>
<text text-anchor="middle" x="61.88" y="-456.52" font-family="Times,serif" font-size="8.00">PolCoordinate</text>
</a>
</g>
</g>
<!-- coords:PolCoordinate&#45;&gt;coords:Coordinate -->
<g id="edge14" class="edge">
<title>coords:PolCoordinate&#45;&gt;coords:Coordinate</title>
<path fill="none" stroke="red" d="M81.25,-445.58C88.26,-440.15 96.52,-434.63 104.88,-431 170.77,-402.36 192.56,-410.54 263.88,-401.75 326.64,-394.02 489.01,-406.87 547.88,-383.75 552.67,-381.86 557.33,-379.16 561.66,-376.11"/>
<polygon fill="none" stroke="red" points="563.69,-378.96 569.34,-370 559.34,-373.48 563.69,-378.96"/>
</g>
<!-- coords:PolState -->
<g id="node19" class="node">
<title>coords:PolState</title>
<g id="a_node19"><a xlink:href="../coords/PolState" xlink:title="{&amp;lt;&amp;lt;datatype&amp;gt;&amp;gt;\nPolState|+cval : coords:PolStateEnum\l}">
<polygon fill="#8dd3c7" stroke="black" points="0,-539.12 0,-584.38 109.75,-584.38 109.75,-539.12 0,-539.12"/>
<text text-anchor="middle" x="54.88" y="-572.77" font-family="Times,serif" font-size="8.00">&lt;&lt;datatype&gt;&gt;</text>
<text text-anchor="middle" x="54.88" y="-563.02" font-family="Times,serif" font-size="8.00">PolState</text>
<polyline fill="none" stroke="black" points="0,-556.88 109.75,-556.88"/>
<text text-anchor="start" x="8" y="-545.27" font-family="Times,serif" font-size="8.00">+cval : coords:PolStateEnum</text>
</a>
</g>
</g>
<!-- coords:PolState&#45;&gt;coords:PolCoordinate -->
<g id="edge15" class="edge">
<title>coords:PolState&#45;&gt;coords:PolCoordinate</title>
<path fill="none" stroke="red" d="M56.46,-538.99C57.45,-525.53 58.72,-508.08 59.78,-493.5"/>
<polygon fill="none" stroke="red" points="63.27,-493.82 60.51,-483.59 56.29,-493.31 63.27,-493.82"/>
</g>
<!-- coords:RefLocation -->
<g id="node20" class="node">
<title>coords:RefLocation</title>
<g id="a_node20"><a xlink:href="../coords/RefLocation" xlink:title="{&amp;lt;&amp;lt;datatype&amp;gt;&amp;gt;\nRefLocation}">
<polygon fill="#8dd3c7" stroke="black" points="963.38,-543.75 963.38,-579.75 1024.38,-579.75 1024.38,-543.75 963.38,-543.75"/>
<text text-anchor="middle" x="993.88" y="-564.15" font-family="Times,serif" font-size="8.00">&lt;&lt;datatype&gt;&gt;</text>
<text text-anchor="middle" x="993.88" y="-554.4" font-family="Times,serif" font-size="8.00">RefLocation</text>
</a>
</g>
</g>
<!-- coords:StdRefLocation -->
<g id="node21" class="node">
<title>coords:StdRefLocation</title>
<g id="a_node21"><a xlink:href="../coords/StdRefLocation" xlink:title="{&amp;lt;&amp;lt;datatype&amp;gt;&amp;gt;\nStdRefLocation|+position : ivoa:string\l}">
<polygon fill="#8dd3c7" stroke="black" points="923,-695.5 923,-740.75 1008.75,-740.75 1008.75,-695.5 923,-695.5"/>
<text text-anchor="middle" x="965.88" y="-729.15" font-family="Times,serif" font-size="8.00">&lt;&lt;datatype&gt;&gt;</text>
<text text-anchor="middle" x="965.88" y="-719.4" font-family="Times,serif" font-size="8.00">StdRefLocation</text>
<polyline fill="none" stroke="black" points="923,-713.25 1008.75,-713.25"/>
<text text-anchor="start" x="931" y="-701.65" font-family="Times,serif" font-size="8.00">+position : ivoa:string</text>
</a>
</g>
</g>
<!-- coords:StdRefLocation&#45;&gt;coords:RefLocation -->
<g id="edge16" class="edge">
<title>coords:StdRefLocation&#45;&gt;coords:RefLocation</title>
<path fill="none" stroke="red" d="M969.89,-695.01C974.85,-667.63 983.32,-620.96 988.75,-591.01"/>
<polygon fill="none" stroke="red" points="992.13,-592 990.47,-581.54 985.24,-590.76 992.13,-592"/>
</g>
<!-- coords:CustomRefLocation -->
<g id="node22" class="node">
<title>coords:CustomRefLocation</title>
<g id="a_node22"><a xlink:href="../coords/CustomRefLocation" xlink:title="{&amp;lt;&amp;lt;datatype&amp;gt;&amp;gt;\nCustomRefLocation|+epoch : coords:Epoch\l+position : coords:Point\l+velocity : coords:Point\l}">
<polygon fill="#8dd3c7" stroke="black" points="1026.62,-685.75 1026.62,-750.5 1119.12,-750.5 1119.12,-685.75 1026.62,-685.75"/>
<text text-anchor="middle" x="1072.88" y="-738.9" font-family="Times,serif" font-size="8.00">&lt;&lt;datatype&gt;&gt;</text>
<text text-anchor="middle" x="1072.88" y="-729.15" font-family="Times,serif" font-size="8.00">CustomRefLocation</text>
<polyline fill="none" stroke="black" points="1026.62,-723 1119.12,-723"/>
<text text-anchor="start" x="1034.62" y="-711.4" font-family="Times,serif" font-size="8.00">+epoch : coords:Epoch</text>
<text text-anchor="start" x="1034.62" y="-701.65" font-family="Times,serif" font-size="8.00">+position : coords:Point</text>
<text text-anchor="start" x="1034.62" y="-691.9" font-family="Times,serif" font-size="8.00">+velocity : coords:Point</text>
</a>
</g>
</g>
<!-- coords:CustomRefLocation&#45;&gt;coords:RefLocation -->
<g id="edge17" class="edge">
<title>coords:CustomRefLocation&#45;&gt;coords:RefLocation</title>
<path fill="none" stroke="red" d="M1056.7,-685.51C1042.34,-657.45 1021.56,-616.86 1007.89,-590.15"/>
<polygon fill="none" stroke="red" points="1011.04,-588.62 1003.37,-581.31 1004.81,-591.81 1011.04,-588.62"/>
</g>
<!-- coords:CoordSpace -->
<g id="node23" class="node">
<title>coords:CoordSpace</title>
<g id="a_node23"><a xlink:href="../coords/CoordSpace" xlink:title="{CoordSpace}">
<polygon fill="#8dd3c7" stroke="black" points="981.38,-150.75 981.38,-186.75 1036.38,-186.75 1036.38,-150.75 981.38,-150.75"/>
<text text-anchor="middle" x="1008.88" y="-166.15" font-family="Times,serif" font-size="8.00">CoordSpace</text>
</a>
</g>
</g>
<!-- coords:Axis -->
<g id="node24" class="node">
<title>coords:Axis</title>
<g id="a_node24"><a xlink:href="../coords/Axis" xlink:title="{Axis|+name : ivoa:string\l}">
<polygon fill="#8dd3c7" stroke="black" points="1136.75,-57 1136.75,-93 1215,-93 1215,-57 1136.75,-57"/>
<text text-anchor="middle" x="1175.88" y="-81.4" font-family="Times,serif" font-size="8.00">Axis</text>
<polyline fill="none" stroke="black" points="1136.75,-75.25 1215,-75.25"/>
<text text-anchor="start" x="1144.75" y="-63.65" font-family="Times,serif" font-size="8.00">+name : ivoa:string</text>
</a>
</g>
</g>
<!-- coords:CoordSpace&#45;&gt;coords:Axis -->
<g id="edge35" class="edge">
<title>coords:CoordSpace&#45;&gt;coords:Axis</title>
<path fill="none" stroke="blue" d="M1042.28,-142.99C1043.49,-142.22 1044.69,-141.47 1045.88,-140.75 1071.72,-125.04 1101.89,-109.83 1126.66,-98.11"/>
<polygon fill="blue" stroke="blue" points="1042.23,-143.03 1039.51,-149.71 1032.3,-149.78 1035.02,-143.09 1042.23,-143.03"/>
<polygon fill="blue" stroke="blue" points="1135.46,-93.98 1128.31,-102.3 1132.04,-95.59 1126.41,-98.23 1126.41,-98.23 1126.41,-98.23 1132.04,-95.59 1124.5,-94.15 1135.46,-93.98"/>
<text text-anchor="middle" x="1106.12" y="-113.25" font-family="Times,serif" font-size="10.00">axis</text>
<text text-anchor="middle" x="1129.06" y="-95.22" font-family="Times,serif" font-size="10.00">1..*</text>
</g>
<!-- coords:ContinuousAxis -->
<g id="node25" class="node">
<title>coords:ContinuousAxis</title>
<g id="a_node25"><a xlink:href="../coords/ContinuousAxis" xlink:title="{ContinuousAxis|+domainMin : ivoa:Quantity\l+domainMax : ivoa:Quantity\l+cyclic : ivoa:boolean\l}">
<polygon fill="#8dd3c7" stroke="black" points="1054.75,-141.25 1054.75,-196.25 1163,-196.25 1163,-141.25 1054.75,-141.25"/>
<text text-anchor="middle" x="1108.88" y="-184.65" font-family="Times,serif" font-size="8.00">ContinuousAxis</text>
<polyline fill="none" stroke="black" points="1054.75,-178.5 1163,-178.5"/>
<text text-anchor="start" x="1062.75" y="-166.9" font-family="Times,serif" font-size="8.00">+domainMin : ivoa:Quantity</text>
<text text-anchor="start" x="1062.75" y="-157.15" font-family="Times,serif" font-size="8.00">+domainMax : ivoa:Quantity</text>
<text text-anchor="start" x="1062.75" y="-147.4" font-family="Times,serif" font-size="8.00">+cyclic : ivoa:boolean</text>
</a>
</g>
</g>
<!-- coords:ContinuousAxis&#45;&gt;coords:Axis -->
<g id="edge18" class="edge">
<title>coords:ContinuousAxis&#45;&gt;coords:Axis</title>
<path fill="none" stroke="red" d="M1128.25,-141.21C1137.1,-129.1 1147.55,-114.79 1156.4,-102.66"/>
<polygon fill="none" stroke="red" points="1159.14,-104.85 1162.21,-94.71 1153.48,-100.73 1159.14,-104.85"/>
</g>
<!-- coords:BinnedAxis -->
<g id="node26" class="node">
<title>coords:BinnedAxis</title>
<g id="a_node26"><a xlink:href="../coords/BinnedAxis" xlink:title="{BinnedAxis|+length : ivoa:nonnegativeInteger\l}">
<polygon fill="#8dd3c7" stroke="black" points="1180.88,-150.75 1180.88,-186.75 1304.88,-186.75 1304.88,-150.75 1180.88,-150.75"/>
<text text-anchor="middle" x="1242.88" y="-175.15" font-family="Times,serif" font-size="8.00">BinnedAxis</text>
<polyline fill="none" stroke="black" points="1180.88,-169 1304.88,-169"/>
<text text-anchor="start" x="1188.88" y="-157.4" font-family="Times,serif" font-size="8.00">+length : ivoa:nonnegativeInteger</text>
</a>
</g>
</g>
<!-- coords:BinnedAxis&#45;&gt;coords:Axis -->
<g id="edge19" class="edge">
<title>coords:BinnedAxis&#45;&gt;coords:Axis</title>
<path fill="none" stroke="red" d="M1230.27,-150.49C1220.42,-136.99 1206.54,-117.99 1195.27,-102.56"/>
<polygon fill="none" stroke="red" points="1198.27,-100.73 1189.54,-94.71 1192.61,-104.85 1198.27,-100.73"/>
</g>
<!-- coords:DiscreteSetAxis -->
<g id="node27" class="node">
<title>coords:DiscreteSetAxis</title>
<g id="a_node27"><a xlink:href="../coords/DiscreteSetAxis" xlink:title="{DiscreteSetAxis}">
<polygon fill="#8dd3c7" stroke="black" points="1323.25,-150.75 1323.25,-186.75 1392.5,-186.75 1392.5,-150.75 1323.25,-150.75"/>
<text text-anchor="middle" x="1357.88" y="-166.15" font-family="Times,serif" font-size="8.00">DiscreteSetAxis</text>
</a>
</g>
</g>
<!-- coords:DiscreteSetAxis&#45;&gt;coords:Axis -->
<g id="edge20" class="edge">
<title>coords:DiscreteSetAxis&#45;&gt;coords:Axis</title>
<path fill="none" stroke="red" d="M1330.69,-150.42C1325.19,-147.1 1319.4,-143.73 1313.88,-140.75 1285.19,-125.28 1252.17,-109.71 1225.62,-97.72"/>
<polygon fill="none" stroke="red" points="1227.35,-94.66 1216.79,-93.76 1224.48,-101.04 1227.35,-94.66"/>
</g>
<!-- coords:CoordFrame -->
<g id="node28" class="node">
<title>coords:CoordFrame</title>
<g id="a_node28"><a xlink:href="../coords/CoordFrame" xlink:title="{CoordFrame}">
<polygon fill="#8dd3c7" stroke="black" points="1092.62,-234.25 1092.62,-270.25 1149.12,-270.25 1149.12,-234.25 1092.62,-234.25"/>
<text text-anchor="middle" x="1120.88" y="-249.65" font-family="Times,serif" font-size="8.00">CoordFrame</text>
</a>
</g>
</g>
<!-- coords:GenericFrame -->
<g id="node29" class="node">
<title>coords:GenericFrame</title>
<g id="a_node29"><a xlink:href="../coords/GenericFrame" xlink:title="{GenericFrame|+refPosition : coords:RefLocation\l+planetaryEphem : ivoa:string\l}">
<polygon fill="#8dd3c7" stroke="black" points="1275.75,-328.25 1275.75,-373.5 1402,-373.5 1402,-328.25 1275.75,-328.25"/>
<text text-anchor="middle" x="1338.88" y="-361.9" font-family="Times,serif" font-size="8.00">GenericFrame</text>
<polyline fill="none" stroke="black" points="1275.75,-355.75 1402,-355.75"/>
<text text-anchor="start" x="1283.75" y="-344.15" font-family="Times,serif" font-size="8.00">+refPosition : coords:RefLocation</text>
<text text-anchor="start" x="1283.75" y="-334.4" font-family="Times,serif" font-size="8.00">+planetaryEphem : ivoa:string</text>
</a>
</g>
</g>
<!-- coords:GenericFrame&#45;&gt;coords:CoordFrame -->
<g id="edge21" class="edge">
<title>coords:GenericFrame&#45;&gt;coords:CoordFrame</title>
<path fill="none" stroke="red" d="M1289.13,-327.83C1249.79,-310.39 1195.64,-286.39 1159.51,-270.38"/>
<polygon fill="none" stroke="red" points="1161.32,-267.35 1150.75,-266.49 1158.48,-273.75 1161.32,-267.35"/>
</g>
<!-- coords:SpaceFrame -->
<g id="node30" class="node">
<title>coords:SpaceFrame</title>
<g id="a_node30"><a xlink:href="../coords/SpaceFrame" xlink:title="{SpaceFrame|+refPosition : coords:RefLocation\l+spaceRefFrame : ivoa:string\l+equinox : coords:Epoch\l+planetaryEphem : ivoa:string\l}">
<polygon fill="#8dd3c7" stroke="black" points="1131.75,-318.5 1131.75,-383.25 1258,-383.25 1258,-318.5 1131.75,-318.5"/>
<text text-anchor="middle" x="1194.88" y="-371.65" font-family="Times,serif" font-size="8.00">SpaceFrame</text>
<polyline fill="none" stroke="black" points="1131.75,-365.5 1258,-365.5"/>
<text text-anchor="start" x="1139.75" y="-353.9" font-family="Times,serif" font-size="8.00">+refPosition : coords:RefLocation</text>
<text text-anchor="start" x="1139.75" y="-344.15" font-family="Times,serif" font-size="8.00">+spaceRefFrame : ivoa:string</text>
<text text-anchor="start" x="1139.75" y="-334.4" font-family="Times,serif" font-size="8.00">+equinox : coords:Epoch</text>
<text text-anchor="start" x="1139.75" y="-324.65" font-family="Times,serif" font-size="8.00">+planetaryEphem : ivoa:string</text>
</a>
</g>
</g>
<!-- coords:SpaceFrame&#45;&gt;coords:CoordFrame -->
<g id="edge22" class="edge">
<title>coords:SpaceFrame&#45;&gt;coords:CoordFrame</title>
<path fill="none" stroke="red" d="M1170.64,-318.24C1161.07,-305.73 1150.19,-291.52 1141.05,-279.59"/>
<polygon fill="none" stroke="red" points="1143.93,-277.59 1135.07,-271.78 1138.37,-281.85 1143.93,-277.59"/>
</g>
<!-- coords:TimeFrame -->
<g id="node31" class="node">
<title>coords:TimeFrame</title>
<g id="a_node31"><a xlink:href="../coords/TimeFrame" xlink:title="{TimeFrame|+refPosition : coords:RefLocation\l+timescale : ivoa:string\l+refDirection : coords:RefLocation\l}">
<polygon fill="#8dd3c7" stroke="black" points="982.12,-323.38 982.12,-378.38 1113.62,-378.38 1113.62,-323.38 982.12,-323.38"/>
<text text-anchor="middle" x="1047.88" y="-366.77" font-family="Times,serif" font-size="8.00">TimeFrame</text>
<polyline fill="none" stroke="black" points="982.12,-360.62 1113.62,-360.62"/>
<text text-anchor="start" x="990.12" y="-349.02" font-family="Times,serif" font-size="8.00">+refPosition : coords:RefLocation</text>
<text text-anchor="start" x="990.12" y="-339.27" font-family="Times,serif" font-size="8.00">+timescale : ivoa:string</text>
<text text-anchor="start" x="990.12" y="-329.52" font-family="Times,serif" font-size="8.00">+refDirection : coords:RefLocation</text>
</a>
</g>
</g>
<!-- coords:TimeFrame&#45;&gt;coords:CoordFrame -->
<g id="edge23" class="edge">
<title>coords:TimeFrame&#45;&gt;coords:CoordFrame</title>
<path fill="none" stroke="red" d="M1068.21,-322.96C1078.49,-309.35 1090.92,-292.9 1101.12,-279.4"/>
<polygon fill="none" stroke="red" points="1103.63,-281.89 1106.86,-271.8 1098.04,-277.67 1103.63,-281.89"/>
</g>
<!-- coords:AstroCoordSystem -->
<g id="node32" class="node">
<title>coords:AstroCoordSystem</title>
<g id="a_node32"><a xlink:href="../coords/AstroCoordSystem" xlink:title="{AstroCoordSystem}">
<polygon fill="#8dd3c7" stroke="black" points="839.5,-445.88 839.5,-481.88 916.25,-481.88 916.25,-445.88 839.5,-445.88"/>
<text text-anchor="middle" x="877.88" y="-461.27" font-family="Times,serif" font-size="8.00">AstroCoordSystem</text>
</a>
</g>
</g>
<!-- coords:AstroCoordSystem&#45;&gt;coords:CoordSys -->
<g id="edge24" class="edge">
<title>coords:AstroCoordSystem&#45;&gt;coords:CoordSys</title>
<path fill="none" stroke="red" d="M869.45,-445.72C851.64,-409.48 810.06,-324.87 788.46,-280.89"/>
<polygon fill="none" stroke="red" points="791.64,-279.43 784.09,-272 785.36,-282.52 791.64,-279.43"/>
</g>
<!-- coords:PhysicalCoordSys -->
<g id="node36" class="node">
<title>coords:PhysicalCoordSys</title>
<g id="a_node36"><a xlink:href="../coords/PhysicalCoordSys" xlink:title="{PhysicalCoordSys}">
<polygon fill="#8dd3c7" stroke="black" points="890,-332.88 890,-368.88 963.75,-368.88 963.75,-332.88 890,-332.88"/>
<text text-anchor="middle" x="926.88" y="-348.27" font-family="Times,serif" font-size="8.00">PhysicalCoordSys</text>
</a>
</g>
</g>
<!-- coords:AstroCoordSystem&#45;&gt;coords:PhysicalCoordSys -->
<g id="edge36" class="edge">
<title>coords:AstroCoordSystem&#45;&gt;coords:PhysicalCoordSys</title>
<path fill="none" stroke="blue" d="M888.44,-433.53C892.29,-423.37 896.81,-411.97 901.38,-401.75 904.72,-394.27 908.62,-386.3 912.36,-378.99"/>
<polygon fill="blue" stroke="blue" points="888.47,-433.45 890.13,-440.47 884.29,-444.71 882.63,-437.69 888.47,-433.45"/>
<polygon fill="blue" stroke="blue" points="916.89,-370.28 916.26,-381.23 915.14,-373.63 912.27,-379.15 912.27,-379.15 912.27,-379.15 915.14,-373.63 908.28,-377.07 916.89,-370.28"/>
<text text-anchor="middle" x="920.62" y="-403.5" font-family="Times,serif" font-size="10.00">coordSys</text>
<text text-anchor="middle" x="909.95" y="-370.95" font-family="Times,serif" font-size="10.00">1..*</text>
</g>
<!-- coords:PixelCoordSystem -->
<g id="node33" class="node">
<title>coords:PixelCoordSystem</title>
<g id="a_node33"><a xlink:href="../coords/PixelCoordSystem" xlink:title="{PixelCoordSystem}">
<polygon fill="#8dd3c7" stroke="black" points="463.25,-332.88 463.25,-368.88 538.5,-368.88 538.5,-332.88 463.25,-332.88"/>
<text text-anchor="middle" x="500.88" y="-348.27" font-family="Times,serif" font-size="8.00">PixelCoordSystem</text>
</a>
</g>
</g>
<!-- coords:PixelSpace -->
<g id="node34" class="node">
<title>coords:PixelSpace</title>
<g id="a_node34"><a xlink:href="../coords/PixelSpace" xlink:title="{PixelSpace|+handedness : coords:Handedness\l}">
<polygon fill="#8dd3c7" stroke="black" points="586.5,-234.25 586.5,-270.25 711.25,-270.25 711.25,-234.25 586.5,-234.25"/>
<text text-anchor="middle" x="648.88" y="-258.65" font-family="Times,serif" font-size="8.00">PixelSpace</text>
<polyline fill="none" stroke="black" points="586.5,-252.5 711.25,-252.5"/>
<text text-anchor="start" x="594.5" y="-240.9" font-family="Times,serif" font-size="8.00">+handedness : coords:Handedness</text>
</a>
</g>
</g>
<!-- coords:PixelCoordSystem&#45;&gt;coords:PixelSpace -->
<g id="edge37" class="edge">
<title>coords:PixelCoordSystem&#45;&gt;coords:PixelSpace</title>
<path fill="none" stroke="blue" d="M536.19,-325.19C539.78,-322.74 543.39,-320.31 546.88,-318 568.11,-303.91 592.16,-288.62 611.57,-276.43"/>
<polygon fill="blue" stroke="blue" points="536.21,-325.18 533.53,-331.87 526.32,-331.98 529,-325.28 536.21,-325.18"/>
<polygon fill="blue" stroke="blue" points="619.94,-271.19 613.85,-280.31 616.74,-273.19 611.47,-276.49 611.47,-276.49 611.47,-276.49 616.74,-273.19 609.08,-272.68 619.94,-271.19"/>
<text text-anchor="middle" x="614.38" y="-290.5" font-family="Times,serif" font-size="10.00">pixelSpace</text>
<text text-anchor="middle" x="618.35" y="-272.29" font-family="Times,serif" font-size="10.00">1</text>
</g>
<!-- coords:PixelCoordSystem&#45;&gt;coords:CoordSys -->
<g id="edge25" class="edge">
<title>coords:PixelCoordSystem&#45;&gt;coords:CoordSys</title>
<path fill="none" stroke="red" d="M521.78,-332.65C529.3,-327.22 538.1,-321.69 546.88,-318 586.09,-301.53 599.79,-311.04 640.88,-300 673.77,-291.16 710.22,-278.24 736.79,-268.21"/>
<polygon fill="none" stroke="red" points="738.02,-271.49 746.11,-264.66 735.52,-264.95 738.02,-271.49"/>
</g>
<!-- coords:PixelSpace&#45;&gt;coords:CoordSpace -->
<g id="edge26" class="edge">
<title>coords:PixelSpace&#45;&gt;coords:CoordSpace</title>
<path fill="none" stroke="red" d="M711.58,-237.05C786.11,-220.18 908.16,-192.55 970.14,-178.52"/>
<polygon fill="none" stroke="red" points="970.53,-182.02 979.52,-176.4 968.99,-175.19 970.53,-182.02"/>
</g>
<!-- coords:PhysicalCoordSys&#45;&gt;coords:CoordFrame -->
<g id="edge39" class="edge">
<title>coords:PhysicalCoordSys&#45;&gt;coords:CoordFrame</title>
<path fill="none" stroke="blue" d="M924.17,-319.74C924.79,-308.7 927.61,-296.92 935.38,-288.75 954.93,-268.18 1032.87,-259.19 1081.28,-255.53"/>
<polygon fill="blue" stroke="blue" points="924.16,-319.65 928.23,-325.61 924.29,-331.65 920.23,-325.7 924.16,-319.65"/>
<polygon fill="blue" stroke="blue" points="1091.1,-254.84 1081.44,-260.03 1087.33,-255.11 1081.12,-255.55 1081.12,-255.55 1081.12,-255.55 1087.33,-255.11 1080.81,-251.06 1091.1,-254.84"/>
<text text-anchor="middle" x="947.12" y="-290.5" font-family="Times,serif" font-size="10.00">frame</text>
<text text-anchor="middle" x="1084.81" y="-256.5" font-family="Times,serif" font-size="10.00">0..1</text>
</g>
<!-- coords:PhysicalCoordSys&#45;&gt;coords:CoordSys -->
<g id="edge27" class="edge">
<title>coords:PhysicalCoordSys&#45;&gt;coords:CoordSys</title>
<path fill="none" stroke="red" d="M899.35,-332.38C874.81,-316.78 838.71,-293.83 811.7,-276.66"/>
<polygon fill="none" stroke="red" points="813.79,-273.84 803.47,-271.43 810.04,-279.75 813.79,-273.84"/>
</g>
<!-- coords:PhysicalCoordSpace -->
<g id="node40" class="node">
<title>coords:PhysicalCoordSpace</title>
<g id="a_node40"><a xlink:href="../coords/PhysicalCoordSpace" xlink:title="{PhysicalCoordSpace}">
<polygon fill="#8dd3c7" stroke="black" points="1419.88,-234.25 1419.88,-270.25 1501.88,-270.25 1501.88,-234.25 1419.88,-234.25"/>
<text text-anchor="middle" x="1460.88" y="-249.65" font-family="Times,serif" font-size="8.00">PhysicalCoordSpace</text>
</a>
</g>
</g>
<!-- coords:PhysicalCoordSys&#45;&gt;coords:PhysicalCoordSpace -->
<g id="edge38" class="edge">
<title>coords:PhysicalCoordSys&#45;&gt;coords:PhysicalCoordSpace</title>
<path fill="none" stroke="blue" d="M957.88,-325.54C962.7,-322.61 967.78,-319.97 972.88,-318 1123.09,-259.92 1316.58,-252.26 1408.24,-252.26"/>
<polygon fill="blue" stroke="blue" points="957.92,-325.51 955.17,-332.17 947.95,-332.19 950.71,-325.53 957.92,-325.51"/>
<polygon fill="blue" stroke="blue" points="1418.21,-252.3 1408.19,-256.76 1414.43,-252.29 1408.21,-252.26 1408.21,-252.26 1408.21,-252.26 1414.43,-252.29 1408.23,-247.76 1418.21,-252.3"/>
<text text-anchor="middle" x="1086.5" y="-290.5" font-family="Times,serif" font-size="10.00">coordSpace</text>
<text text-anchor="middle" x="1411.93" y="-254.05" font-family="Times,serif" font-size="10.00">0..1</text>
</g>
<!-- coords:GenericSys -->
<g id="node37" class="node">
<title>coords:GenericSys</title>
<g id="a_node37"><a xlink:href="../coords/GenericSys" xlink:title="{GenericSys}">
<polygon fill="#8dd3c7" stroke="black" points="933.88,-445.88 933.88,-481.88 987.88,-481.88 987.88,-445.88 933.88,-445.88"/>
<text text-anchor="middle" x="960.62" y="-461.27" font-family="Times,serif" font-size="8.00">GenericSys</text>
</a>
</g>
</g>
<!-- coords:GenericSys&#45;&gt;coords:PhysicalCoordSys -->
<g id="edge28" class="edge">
<title>coords:GenericSys&#45;&gt;coords:PhysicalCoordSys</title>
<path fill="none" stroke="red" d="M955.56,-445.53C950.2,-428.02 941.82,-400.68 935.51,-380.05"/>
<polygon fill="none" stroke="red" points="938.87,-379.08 932.59,-370.54 932.18,-381.13 938.87,-379.08"/>
</g>
<!-- coords:SpaceSys -->
<g id="node38" class="node">
<title>coords:SpaceSys</title>
<g id="a_node38"><a xlink:href="../coords/SpaceSys" xlink:title="{SpaceSys}">
<polygon fill="#8dd3c7" stroke="black" points="1005.88,-445.88 1005.88,-481.88 1059.88,-481.88 1059.88,-445.88 1005.88,-445.88"/>
<text text-anchor="middle" x="1032.75" y="-461.27" font-family="Times,serif" font-size="8.00">SpaceSys</text>
</a>
</g>
</g>
<!-- coords:SpaceSys&#45;&gt;coords:PhysicalCoordSys -->
<g id="edge29" class="edge">
<title>coords:SpaceSys&#45;&gt;coords:PhysicalCoordSys</title>
<path fill="none" stroke="red" d="M1016.31,-445.53C998.81,-427.2 971.03,-398.12 951.08,-377.22"/>
<polygon fill="none" stroke="red" points="953.8,-375.01 944.37,-370.19 948.74,-379.84 953.8,-375.01"/>
</g>
<!-- coords:TimeSys -->
<g id="node39" class="node">
<title>coords:TimeSys</title>
<g id="a_node39"><a xlink:href="../coords/TimeSys" xlink:title="{TimeSys}">
<polygon fill="#8dd3c7" stroke="black" points="1077.88,-445.88 1077.88,-481.88 1131.88,-481.88 1131.88,-445.88 1077.88,-445.88"/>
<text text-anchor="middle" x="1104.75" y="-461.27" font-family="Times,serif" font-size="8.00">TimeSys</text>
</a>
</g>
</g>
<!-- coords:TimeSys&#45;&gt;coords:PhysicalCoordSys -->
<g id="edge30" class="edge">
<title>coords:TimeSys&#45;&gt;coords:PhysicalCoordSys</title>
<path fill="none" stroke="red" d="M1087.33,-445.66C1081.7,-440.6 1075.25,-435.28 1068.88,-431 1029.39,-404.5 1013.87,-407.86 972.88,-383.75 968.52,-381.19 964.03,-378.35 959.65,-375.45"/>
<polygon fill="none" stroke="red" points="961.8,-372.68 951.56,-369.96 957.87,-378.47 961.8,-372.68"/>
</g>
<!-- coords:PhysicalCoordSpace&#45;&gt;coords:CoordSpace -->
<g id="edge31" class="edge">
<title>coords:PhysicalCoordSpace&#45;&gt;coords:CoordSpace</title>
<path fill="none" stroke="red" d="M1419.67,-248.44C1328.69,-241.82 1113.35,-223.74 1045.88,-196.75 1043.38,-195.75 1040.91,-194.55 1038.48,-193.21"/>
<polygon fill="none" stroke="red" points="1040.51,-190.36 1030.2,-187.95 1036.76,-196.27 1040.51,-190.36"/>
</g>
<!-- coords:GenericCoordSpace -->
<g id="node41" class="node">
<title>coords:GenericCoordSpace</title>
<g id="a_node41"><a xlink:href="../coords/GenericCoordSpace" xlink:title="{GenericCoordSpace}">
<polygon fill="#8dd3c7" stroke="black" points="1420.25,-332.88 1420.25,-368.88 1501.5,-368.88 1501.5,-332.88 1420.25,-332.88"/>
<text text-anchor="middle" x="1460.88" y="-348.27" font-family="Times,serif" font-size="8.00">GenericCoordSpace</text>
</a>
</g>
</g>
<!-- coords:GenericCoordSpace&#45;&gt;coords:PhysicalCoordSpace -->
<g id="edge32" class="edge">
<title>coords:GenericCoordSpace&#45;&gt;coords:PhysicalCoordSpace</title>
<path fill="none" stroke="red" d="M1460.88,-332.6C1460.88,-318.54 1460.88,-298.38 1460.88,-281.91"/>
<polygon fill="none" stroke="red" points="1464.38,-282.21 1460.88,-272.21 1457.38,-282.21 1464.38,-282.21"/>
</g>
<!-- coords:SphericalCoordSpace -->
<g id="node42" class="node">
<title>coords:SphericalCoordSpace</title>
<g id="a_node42"><a xlink:href="../coords/SphericalCoordSpace" xlink:title="{SphericalCoordSpace}">
<polygon fill="#8dd3c7" stroke="black" points="1520,-332.88 1520,-368.88 1605.75,-368.88 1605.75,-332.88 1520,-332.88"/>
<text text-anchor="middle" x="1562.88" y="-348.27" font-family="Times,serif" font-size="8.00">SphericalCoordSpace</text>
</a>
</g>
</g>
<!-- coords:SphericalCoordSpace&#45;&gt;coords:PhysicalCoordSpace -->
<g id="edge33" class="edge">
<title>coords:SphericalCoordSpace&#45;&gt;coords:PhysicalCoordSpace</title>
<path fill="none" stroke="red" d="M1544.64,-332.6C1528.78,-317.58 1505.6,-295.62 1487.64,-278.6"/>
<polygon fill="none" stroke="red" points="1490.06,-276.08 1480.4,-271.74 1485.25,-281.16 1490.06,-276.08"/>
</g>
<!-- coords:CartesianCoordSpace -->
<g id="node43" class="node">
<title>coords:CartesianCoordSpace</title>
<g id="a_node43"><a xlink:href="../coords/CartesianCoordSpace" xlink:title="{CartesianCoordSpace}">
<polygon fill="#8dd3c7" stroke="black" points="1624,-332.88 1624,-368.88 1709.75,-368.88 1709.75,-332.88 1624,-332.88"/>
<text text-anchor="middle" x="1666.88" y="-348.27" font-family="Times,serif" font-size="8.00">CartesianCoordSpace</text>
</a>
</g>
</g>
<!-- coords:CartesianCoordSpace&#45;&gt;coords:PhysicalCoordSpace -->
<g id="edge34" class="edge">
<title>coords:CartesianCoordSpace&#45;&gt;coords:PhysicalCoordSpace</title>
<path fill="none" stroke="red" d="M1640.33,-332.54C1632.3,-327.58 1623.35,-322.35 1614.88,-318 1581.63,-300.95 1542.85,-284.66 1512.53,-272.69"/>
<polygon fill="none" stroke="red" points="1514.17,-269.58 1503.58,-269.19 1511.62,-276.09 1514.17,-269.58"/>
</g>
</g>
</svg>
