<?xml version="1.0" encoding="UTF-8" standalone="no"?>
<!DOCTYPE svg PUBLIC "-//W3C//DTD SVG 1.1//EN"
 "http://www.w3.org/Graphics/SVG/1.1/DTD/svg11.dtd">
<!-- Generated by graphviz version 7.1.0 (20230121.1956)
 -->
<!-- Title: GVmap Pages: 1 -->
<svg width="1727pt" height="789pt"
 viewBox="0.00 0.00 1727.00 789.00" xmlns="http://www.w3.org/2000/svg" xmlns:xlink="http://www.w3.org/1999/xlink">
<g id="graph0" class="graph" transform="scale(1 1) rotate(0) translate(4 785)">
<title>GVmap</title>
<polygon fill="white" stroke="none" points="-4,4 -4,-785 1723,-785 1723,4 -4,4"/>
<text text-anchor="middle" x="859.5" y="-7.8" font-family="Times,serif" font-size="14.00">coords data model</text>
<!-- coords:Epoch -->
<g id="node1" class="node">
<title>coords:Epoch</title>
<g id="a_node1"><a xlink:href="../coords/Epoch" xlink:title="{&amp;lt;&amp;lt;primitive type&amp;gt;&amp;gt;\nEpoch}">
<polygon fill="#8dd3c7" stroke="black" points="339,-678 339,-714 419,-714 419,-678 339,-678"/>
<text text-anchor="middle" x="379" y="-698.6" font-family="Times,serif" font-size="8.00">&lt;&lt;primitive type&gt;&gt;</text>
<text text-anchor="middle" x="379" y="-689.6" font-family="Times,serif" font-size="8.00">Epoch</text>
</a>
</g>
</g>
<!-- coords:Handedness -->
<g id="node2" class="node">
<title>coords:Handedness</title>
<g id="a_node2"><a xlink:href="../coords/Handedness" xlink:title="{&amp;lt;&amp;lt;enumeration&amp;gt;&amp;gt;\nHandedness|+left\l+right\l}">
<polygon fill="#8dd3c7" stroke="black" points="437,-670 437,-722 511,-722 511,-670 437,-670"/>
<text text-anchor="middle" x="474" y="-711.6" font-family="Times,serif" font-size="8.00">&lt;&lt;enumeration&gt;&gt;</text>
<text text-anchor="middle" x="474" y="-702.6" font-family="Times,serif" font-size="8.00">Handedness</text>
<polyline fill="none" stroke="black" points="437,-696 511,-696"/>
<text text-anchor="start" x="445" y="-685.6" font-family="Times,serif" font-size="8.00">+left</text>
<text text-anchor="start" x="445" y="-676.6" font-family="Times,serif" font-size="8.00">+right</text>
</a>
</g>
</g>
<!-- coords:PolStateEnum -->
<g id="node3" class="node">
<title>coords:PolStateEnum</title>
<g id="a_node3"><a xlink:href="../coords/PolStateEnum" xlink:title="{&amp;lt;&amp;lt;enumeration&amp;gt;&amp;gt;\nPolStateEnum|+I\l+Q\l+U\l+V\l+RR\l+LL\l+RL\l+LR\l+XX\l+YY\l+XY\l+YX\l+PF\l+PP\l+PA\l}">
<polygon fill="#8dd3c7" stroke="black" points="529,-611.5 529,-780.5 603,-780.5 603,-611.5 529,-611.5"/>
<text text-anchor="middle" x="566" y="-770.1" font-family="Times,serif" font-size="8.00">&lt;&lt;enumeration&gt;&gt;</text>
<text text-anchor="middle" x="566" y="-761.1" font-family="Times,serif" font-size="8.00">PolStateEnum</text>
<polyline fill="none" stroke="black" points="529,-754.5 603,-754.5"/>
<text text-anchor="start" x="537" y="-744.1" font-family="Times,serif" font-size="8.00">+I</text>
<text text-anchor="start" x="537" y="-735.1" font-family="Times,serif" font-size="8.00">+Q</text>
<text text-anchor="start" x="537" y="-726.1" font-family="Times,serif" font-size="8.00">+U</text>
<text text-anchor="start" x="537" y="-717.1" font-family="Times,serif" font-size="8.00">+V</text>
<text text-anchor="start" x="537" y="-708.1" font-family="Times,serif" font-size="8.00">+RR</text>
<text text-anchor="start" x="537" y="-699.1" font-family="Times,serif" font-size="8.00">+LL</text>
<text text-anchor="start" x="537" y="-690.1" font-family="Times,serif" font-size="8.00">+RL</text>
<text text-anchor="start" x="537" y="-681.1" font-family="Times,serif" font-size="8.00">+LR</text>
<text text-anchor="start" x="537" y="-672.1" font-family="Times,serif" font-size="8.00">+XX</text>
<text text-anchor="start" x="537" y="-663.1" font-family="Times,serif" font-size="8.00">+YY</text>
<text text-anchor="start" x="537" y="-654.1" font-family="Times,serif" font-size="8.00">+XY</text>
<text text-anchor="start" x="537" y="-645.1" font-family="Times,serif" font-size="8.00">+YX</text>
<text text-anchor="start" x="537" y="-636.1" font-family="Times,serif" font-size="8.00">+PF</text>
<text text-anchor="start" x="537" y="-627.1" font-family="Times,serif" font-size="8.00">+PP</text>
<text text-anchor="start" x="537" y="-618.1" font-family="Times,serif" font-size="8.00">+PA</text>
</a>
</g>
</g>
<!-- coords:Coordinate -->
<g id="node4" class="node">
<title>coords:Coordinate</title>
<g id="a_node4"><a xlink:href="../coords/Coordinate" xlink:title="{&amp;lt;&amp;lt;datatype&amp;gt;&amp;gt;\nCoordinate}">
<polygon fill="#8dd3c7" stroke="black" points="560,-326 560,-362 622,-362 622,-326 560,-326"/>
<text text-anchor="middle" x="591" y="-346.6" font-family="Times,serif" font-size="8.00">&lt;&lt;datatype&gt;&gt;</text>
<text text-anchor="middle" x="591" y="-337.6" font-family="Times,serif" font-size="8.00">Coordinate</text>
</a>
</g>
</g>
<!-- coords:CoordSys -->
<g id="node35" class="node">
<title>coords:CoordSys</title>
<g id="a_node35"><a xlink:href="../coords/CoordSys" xlink:title="{CoordSys}">
<polygon fill="#8dd3c7" stroke="black" points="739,-229.5 739,-265.5 793,-265.5 793,-229.5 739,-229.5"/>
<text text-anchor="middle" x="766" y="-245.6" font-family="Times,serif" font-size="8.00">CoordSys</text>
</a>
</g>
</g>
<!-- coords:Coordinate&#45;&gt;coords:CoordSys -->
<g id="edge40" class="edge">
<title>coords:Coordinate&#45;&gt;coords:CoordSys</title>
<path fill="none" stroke="green" d="M621.88,-326.32C652.29,-309.9 698.68,-284.85 730.57,-267.63"/>
<polygon fill="green" stroke="green" points="739.15,-263 732.49,-271.71 734.75,-265.37 730.35,-267.75 730.35,-267.75 730.35,-267.75 734.75,-265.37 728.21,-263.79 739.15,-263 739.15,-263"/>
<text text-anchor="middle" x="719" y="-287" font-family="Times,serif" font-size="10.00">coordSys</text>
<text text-anchor="middle" x="736.15" y="-266" font-family="Times,serif" font-size="10.00">1</text>
</g>
<!-- coords:BinnedCoordinate -->
<g id="node5" class="node">
<title>coords:BinnedCoordinate</title>
<g id="a_node5"><a xlink:href="../coords/BinnedCoordinate" xlink:title="{&amp;lt;&amp;lt;datatype&amp;gt;&amp;gt;\nBinnedCoordinate|+cval : ivoa:integer\l}">
<polygon fill="#8dd3c7" stroke="black" points="115,-431.5 115,-474.5 195,-474.5 195,-431.5 115,-431.5"/>
<text text-anchor="middle" x="155" y="-464.1" font-family="Times,serif" font-size="8.00">&lt;&lt;datatype&gt;&gt;</text>
<text text-anchor="middle" x="155" y="-455.1" font-family="Times,serif" font-size="8.00">BinnedCoordinate</text>
<polyline fill="none" stroke="black" points="115,-448.5 195,-448.5"/>
<text text-anchor="start" x="123" y="-438.1" font-family="Times,serif" font-size="8.00">+cval : ivoa:integer</text>
</a>
</g>
</g>
<!-- coords:BinnedCoordinate&#45;&gt;coords:Coordinate -->
<g id="edge1" class="edge">
<title>coords:BinnedCoordinate&#45;&gt;coords:Coordinate</title>
<path fill="none" stroke="red" d="M184.09,-431.59C190.42,-427.9 197.25,-424.45 204,-422 286.35,-392.08 312.15,-404.6 399,-393 466.43,-384 487.84,-400.28 551,-375 555.23,-373.31 559.41,-371.05 563.38,-368.52"/>
<polygon fill="none" stroke="red" points="565.37,-371.4 571.49,-362.76 561.31,-365.7 565.37,-371.4"/>
</g>
<!-- coords:PixelIndex -->
<g id="node6" class="node">
<title>coords:PixelIndex</title>
<g id="a_node6"><a xlink:href="../coords/PixelIndex" xlink:title="{&amp;lt;&amp;lt;datatype&amp;gt;&amp;gt;\nPixelIndex}">
<polygon fill="#8dd3c7" stroke="black" points="128,-529.5 128,-565.5 190,-565.5 190,-529.5 128,-529.5"/>
<text text-anchor="middle" x="159" y="-550.1" font-family="Times,serif" font-size="8.00">&lt;&lt;datatype&gt;&gt;</text>
<text text-anchor="middle" x="159" y="-541.1" font-family="Times,serif" font-size="8.00">PixelIndex</text>
</a>
</g>
</g>
<!-- coords:PixelIndex&#45;&gt;coords:BinnedCoordinate -->
<g id="edge2" class="edge">
<title>coords:PixelIndex&#45;&gt;coords:BinnedCoordinate</title>
<path fill="none" stroke="red" d="M158.27,-529.53C157.74,-517.27 157,-500.34 156.37,-485.61"/>
<polygon fill="none" stroke="red" points="159.88,-485.76 155.95,-475.92 152.88,-486.06 159.88,-485.76"/>
</g>
<!-- coords:PhysicalCoordinate -->
<g id="node7" class="node">
<title>coords:PhysicalCoordinate</title>
<g id="a_node7"><a xlink:href="../coords/PhysicalCoordinate" xlink:title="{&amp;lt;&amp;lt;datatype&amp;gt;&amp;gt;\nPhysicalCoordinate|+cval : ivoa:Quantity\l}">
<polygon fill="#8dd3c7" stroke="black" points="213.5,-431.5 213.5,-474.5 298.5,-474.5 298.5,-431.5 213.5,-431.5"/>
<text text-anchor="middle" x="256" y="-464.1" font-family="Times,serif" font-size="8.00">&lt;&lt;datatype&gt;&gt;</text>
<text text-anchor="middle" x="256" y="-455.1" font-family="Times,serif" font-size="8.00">PhysicalCoordinate</text>
<polyline fill="none" stroke="black" points="213.5,-448.5 298.5,-448.5"/>
<text text-anchor="start" x="221.5" y="-438.1" font-family="Times,serif" font-size="8.00">+cval : ivoa:Quantity</text>
</a>
</g>
</g>
<!-- coords:PhysicalCoordinate&#45;&gt;coords:Coordinate -->
<g id="edge3" class="edge">
<title>coords:PhysicalCoordinate&#45;&gt;coords:Coordinate</title>
<path fill="none" stroke="red" d="M287.64,-431.54C294.18,-427.95 301.16,-424.55 308,-422 320.88,-417.19 538.43,-380.57 551,-375 555.08,-373.19 559.13,-370.9 563.01,-368.39"/>
<polygon fill="none" stroke="red" points="564.83,-371.39 570.95,-362.74 560.77,-365.69 564.83,-371.39"/>
</g>
<!-- coords:Point -->
<g id="node8" class="node">
<title>coords:Point</title>
<g id="a_node8"><a xlink:href="../coords/Point" xlink:title="{&amp;lt;&amp;lt;datatype&amp;gt;&amp;gt;\nPoint|+axis1 : ivoa:Quantity\l+axis2 : ivoa:Quantity\l+axis3 : ivoa:Quantity\l}">
<polygon fill="#8dd3c7" stroke="black" points="317,-422.5 317,-483.5 405,-483.5 405,-422.5 317,-422.5"/>
<text text-anchor="middle" x="361" y="-473.1" font-family="Times,serif" font-size="8.00">&lt;&lt;datatype&gt;&gt;</text>
<text text-anchor="middle" x="361" y="-464.1" font-family="Times,serif" font-size="8.00">Point</text>
<polyline fill="none" stroke="black" points="317,-457.5 405,-457.5"/>
<text text-anchor="start" x="325" y="-447.1" font-family="Times,serif" font-size="8.00">+axis1 : ivoa:Quantity</text>
<text text-anchor="start" x="325" y="-438.1" font-family="Times,serif" font-size="8.00">+axis2 : ivoa:Quantity</text>
<text text-anchor="start" x="325" y="-429.1" font-family="Times,serif" font-size="8.00">+axis3 : ivoa:Quantity</text>
</a>
</g>
</g>
<!-- coords:Point&#45;&gt;coords:Coordinate -->
<g id="edge4" class="edge">
<title>coords:Point&#45;&gt;coords:Coordinate</title>
<path fill="none" stroke="red" d="M404.93,-426.33C407.97,-424.8 411.01,-423.34 414,-422 472.7,-395.59 494.11,-405.12 551,-375 554.67,-373.06 558.36,-370.79 561.94,-368.4"/>
<polygon fill="none" stroke="red" points="563.74,-371.42 569.83,-362.75 559.66,-365.72 563.74,-371.42"/>
</g>
<!-- coords:SphericalPoint -->
<g id="node9" class="node">
<title>coords:SphericalPoint</title>
<g id="a_node9"><a xlink:href="../coords/SphericalPoint" xlink:title="{&amp;lt;&amp;lt;datatype&amp;gt;&amp;gt;\nSphericalPoint|+r : ivoa:RealQuantity\l+theta : ivoa:RealQuantity\l+phi : ivoa:RealQuantity\l}">
<polygon fill="#8dd3c7" stroke="black" points="423,-422.5 423,-483.5 525,-483.5 525,-422.5 423,-422.5"/>
<text text-anchor="middle" x="474" y="-473.1" font-family="Times,serif" font-size="8.00">&lt;&lt;datatype&gt;&gt;</text>
<text text-anchor="middle" x="474" y="-464.1" font-family="Times,serif" font-size="8.00">SphericalPoint</text>
<polyline fill="none" stroke="black" points="423,-457.5 525,-457.5"/>
<text text-anchor="start" x="431" y="-447.1" font-family="Times,serif" font-size="8.00">+r : ivoa:RealQuantity</text>
<text text-anchor="start" x="431" y="-438.1" font-family="Times,serif" font-size="8.00">+theta : ivoa:RealQuantity</text>
<text text-anchor="start" x="431" y="-429.1" font-family="Times,serif" font-size="8.00">+phi : ivoa:RealQuantity</text>
</a>
</g>
</g>
<!-- coords:SphericalPoint&#45;&gt;coords:Coordinate -->
<g id="edge5" class="edge">
<title>coords:SphericalPoint&#45;&gt;coords:Coordinate</title>
<path fill="none" stroke="red" d="M505.97,-422.76C524.34,-405.96 547.15,-385.1 564.51,-369.22"/>
<polygon fill="none" stroke="red" points="566.42,-372.22 571.44,-362.89 561.7,-367.05 566.42,-372.22"/>
</g>
<!-- coords:EquatorialPoint -->
<g id="node10" class="node">
<title>coords:EquatorialPoint</title>
<g id="a_node10"><a xlink:href="../coords/EquatorialPoint" xlink:title="{&amp;lt;&amp;lt;datatype&amp;gt;&amp;gt;\nEquatorialPoint|+lon : ivoa:RealQuantity\l+lat : ivoa:RealQuantity\l}">
<polygon fill="#8dd3c7" stroke="black" points="543,-427 543,-479 639,-479 639,-427 543,-427"/>
<text text-anchor="middle" x="591" y="-468.6" font-family="Times,serif" font-size="8.00">&lt;&lt;datatype&gt;&gt;</text>
<text text-anchor="middle" x="591" y="-459.6" font-family="Times,serif" font-size="8.00">EquatorialPoint</text>
<polyline fill="none" stroke="black" points="543,-453 639,-453"/>
<text text-anchor="start" x="551" y="-442.6" font-family="Times,serif" font-size="8.00">+lon : ivoa:RealQuantity</text>
<text text-anchor="start" x="551" y="-433.6" font-family="Times,serif" font-size="8.00">+lat : ivoa:RealQuantity</text>
</a>
</g>
</g>
<!-- coords:EquatorialPoint&#45;&gt;coords:Coordinate -->
<g id="edge6" class="edge">
<title>coords:EquatorialPoint&#45;&gt;coords:Coordinate</title>
<path fill="none" stroke="red" d="M591,-427.18C591,-410.99 591,-389.81 591,-373.01"/>
<polygon fill="none" stroke="red" points="594.5,-373.2 591,-363.2 587.5,-373.2 594.5,-373.2"/>
</g>
<!-- coords:GeocentricPoint -->
<g id="node11" class="node">
<title>coords:GeocentricPoint</title>
<g id="a_node11"><a xlink:href="../coords/GeocentricPoint" xlink:title="{&amp;lt;&amp;lt;datatype&amp;gt;&amp;gt;\nGeocentricPoint|+x : ivoa:RealQuantity\l+y : ivoa:RealQuantity\l+z : ivoa:RealQuantity\l}">
<polygon fill="#8dd3c7" stroke="black" points="657,-422.5 657,-483.5 747,-483.5 747,-422.5 657,-422.5"/>
<text text-anchor="middle" x="702" y="-473.1" font-family="Times,serif" font-size="8.00">&lt;&lt;datatype&gt;&gt;</text>
<text text-anchor="middle" x="702" y="-464.1" font-family="Times,serif" font-size="8.00">GeocentricPoint</text>
<polyline fill="none" stroke="black" points="657,-457.5 747,-457.5"/>
<text text-anchor="start" x="665" y="-447.1" font-family="Times,serif" font-size="8.00">+x : ivoa:RealQuantity</text>
<text text-anchor="start" x="665" y="-438.1" font-family="Times,serif" font-size="8.00">+y : ivoa:RealQuantity</text>
<text text-anchor="start" x="665" y="-429.1" font-family="Times,serif" font-size="8.00">+z : ivoa:RealQuantity</text>
</a>
</g>
</g>
<!-- coords:GeocentricPoint&#45;&gt;coords:Coordinate -->
<g id="edge7" class="edge">
<title>coords:GeocentricPoint&#45;&gt;coords:Coordinate</title>
<path fill="none" stroke="red" d="M671.67,-422.76C654.4,-406.11 633,-385.48 616.58,-369.66"/>
<polygon fill="none" stroke="red" points="619.21,-367.34 609.59,-362.92 614.36,-372.38 619.21,-367.34"/>
</g>
<!-- coords:TimeStamp -->
<g id="node12" class="node">
<title>coords:TimeStamp</title>
<g id="a_node12"><a xlink:href="../coords/TimeStamp" xlink:title="{&amp;lt;&amp;lt;datatype&amp;gt;&amp;gt;\nTimeStamp}">
<polygon fill="#8dd3c7" stroke="black" points="765,-435 765,-471 827,-471 827,-435 765,-435"/>
<text text-anchor="middle" x="796" y="-455.6" font-family="Times,serif" font-size="8.00">&lt;&lt;datatype&gt;&gt;</text>
<text text-anchor="middle" x="796" y="-446.6" font-family="Times,serif" font-size="8.00">TimeStamp</text>
</a>
</g>
</g>
<!-- coords:TimeStamp&#45;&gt;coords:Coordinate -->
<g id="edge8" class="edge">
<title>coords:TimeStamp&#45;&gt;coords:Coordinate</title>
<path fill="none" stroke="red" d="M775.39,-435.27C769.33,-430.7 762.55,-425.93 756,-422 715.63,-397.8 666.41,-375.7 632.29,-361.45"/>
<polygon fill="none" stroke="red" points="633.74,-358.27 623.17,-357.68 631.07,-364.74 633.74,-358.27"/>
</g>
<!-- coords:TimeOffset -->
<g id="node13" class="node">
<title>coords:TimeOffset</title>
<g id="a_node13"><a xlink:href="../coords/TimeOffset" xlink:title="{&amp;lt;&amp;lt;datatype&amp;gt;&amp;gt;\nTimeOffset|+time : ivoa:RealQuantity\l+time0 : coords:TimeInstant\l}">
<polygon fill="#8dd3c7" stroke="black" points="793.5,-521.5 793.5,-573.5 900.5,-573.5 900.5,-521.5 793.5,-521.5"/>
<text text-anchor="middle" x="847" y="-563.1" font-family="Times,serif" font-size="8.00">&lt;&lt;datatype&gt;&gt;</text>
<text text-anchor="middle" x="847" y="-554.1" font-family="Times,serif" font-size="8.00">TimeOffset</text>
<polyline fill="none" stroke="black" points="793.5,-547.5 900.5,-547.5"/>
<text text-anchor="start" x="801.5" y="-537.1" font-family="Times,serif" font-size="8.00">+time : ivoa:RealQuantity</text>
<text text-anchor="start" x="801.5" y="-528.1" font-family="Times,serif" font-size="8.00">+time0 : coords:TimeInstant</text>
</a>
</g>
</g>
<!-- coords:TimeOffset&#45;&gt;coords:TimeStamp -->
<g id="edge9" class="edge">
<title>coords:TimeOffset&#45;&gt;coords:TimeStamp</title>
<path fill="none" stroke="red" d="M833.33,-521.71C826.35,-509.04 817.84,-493.62 810.71,-480.69"/>
<polygon fill="none" stroke="red" points="813.97,-479.35 806.08,-472.28 807.84,-482.73 813.97,-479.35"/>
</g>
<!-- coords:TimeInstant -->
<g id="node14" class="node">
<title>coords:TimeInstant</title>
<g id="a_node14"><a xlink:href="../coords/TimeInstant" xlink:title="{&amp;lt;&amp;lt;datatype&amp;gt;&amp;gt;\nTimeInstant}">
<polygon fill="#8dd3c7" stroke="black" points="713,-529.5 713,-565.5 775,-565.5 775,-529.5 713,-529.5"/>
<text text-anchor="middle" x="744" y="-550.1" font-family="Times,serif" font-size="8.00">&lt;&lt;datatype&gt;&gt;</text>
<text text-anchor="middle" x="744" y="-541.1" font-family="Times,serif" font-size="8.00">TimeInstant</text>
</a>
</g>
</g>
<!-- coords:TimeInstant&#45;&gt;coords:TimeStamp -->
<g id="edge10" class="edge">
<title>coords:TimeInstant&#45;&gt;coords:TimeStamp</title>
<path fill="none" stroke="red" d="M753.54,-529.53C761.23,-515.84 772.2,-496.34 781.06,-480.58"/>
<polygon fill="none" stroke="red" points="783.93,-482.61 785.78,-472.18 777.83,-479.18 783.93,-482.61"/>
</g>
<!-- coords:JD -->
<g id="node15" class="node">
<title>coords:JD</title>
<g id="a_node15"><a xlink:href="../coords/JD" xlink:title="{&amp;lt;&amp;lt;datatype&amp;gt;&amp;gt;\nJD|+date : ivoa:real\l}">
<polygon fill="#8dd3c7" stroke="black" points="621,-674.5 621,-717.5 691,-717.5 691,-674.5 621,-674.5"/>
<text text-anchor="middle" x="656" y="-707.1" font-family="Times,serif" font-size="8.00">&lt;&lt;datatype&gt;&gt;</text>
<text text-anchor="middle" x="656" y="-698.1" font-family="Times,serif" font-size="8.00">JD</text>
<polyline fill="none" stroke="black" points="621,-691.5 691,-691.5"/>
<text text-anchor="start" x="629" y="-681.1" font-family="Times,serif" font-size="8.00">+date : ivoa:real</text>
</a>
</g>
</g>
<!-- coords:JD&#45;&gt;coords:TimeInstant -->
<g id="edge11" class="edge">
<title>coords:JD&#45;&gt;coords:TimeInstant</title>
<path fill="none" stroke="red" d="M665.77,-674.56C674.24,-657.29 687.14,-632.08 700,-611 707.54,-598.65 716.64,-585.48 724.6,-574.43"/>
<polygon fill="none" stroke="red" points="727.28,-576.7 730.35,-566.56 721.62,-572.57 727.28,-576.7"/>
</g>
<!-- coords:MJD -->
<g id="node16" class="node">
<title>coords:MJD</title>
<g id="a_node16"><a xlink:href="../coords/MJD" xlink:title="{&amp;lt;&amp;lt;datatype&amp;gt;&amp;gt;\nMJD|+date : ivoa:real\l}">
<polygon fill="#8dd3c7" stroke="black" points="709,-674.5 709,-717.5 779,-717.5 779,-674.5 709,-674.5"/>
<text text-anchor="middle" x="744" y="-707.1" font-family="Times,serif" font-size="8.00">&lt;&lt;datatype&gt;&gt;</text>
<text text-anchor="middle" x="744" y="-698.1" font-family="Times,serif" font-size="8.00">MJD</text>
<polyline fill="none" stroke="black" points="709,-691.5 779,-691.5"/>
<text text-anchor="start" x="717" y="-681.1" font-family="Times,serif" font-size="8.00">+date : ivoa:real</text>
</a>
</g>
</g>
<!-- coords:MJD&#45;&gt;coords:TimeInstant -->
<g id="edge12" class="edge">
<title>coords:MJD&#45;&gt;coords:TimeInstant</title>
<path fill="none" stroke="red" d="M744,-674.63C744,-649.04 744,-605.01 744,-576.33"/>
<polygon fill="none" stroke="red" points="747.5,-576.59 744,-566.59 740.5,-576.59 747.5,-576.59"/>
</g>
<!-- coords:ISOTime -->
<g id="node17" class="node">
<title>coords:ISOTime</title>
<g id="a_node17"><a xlink:href="../coords/ISOTime" xlink:title="{&amp;lt;&amp;lt;datatype&amp;gt;&amp;gt;\nISOTime|+date : ivoa:datetime\l}">
<polygon fill="#8dd3c7" stroke="black" points="797.5,-674.5 797.5,-717.5 882.5,-717.5 882.5,-674.5 797.5,-674.5"/>
<text text-anchor="middle" x="840" y="-707.1" font-family="Times,serif" font-size="8.00">&lt;&lt;datatype&gt;&gt;</text>
<text text-anchor="middle" x="840" y="-698.1" font-family="Times,serif" font-size="8.00">ISOTime</text>
<polyline fill="none" stroke="black" points="797.5,-691.5 882.5,-691.5"/>
<text text-anchor="start" x="805.5" y="-681.1" font-family="Times,serif" font-size="8.00">+date : ivoa:datetime</text>
</a>
</g>
</g>
<!-- coords:ISOTime&#45;&gt;coords:TimeInstant -->
<g id="edge13" class="edge">
<title>coords:ISOTime&#45;&gt;coords:TimeInstant</title>
<path fill="none" stroke="red" d="M827.93,-674.76C817.6,-657.62 802.18,-632.47 788,-611 779.97,-598.84 770.73,-585.61 762.8,-574.47"/>
<polygon fill="none" stroke="red" points="765.77,-572.61 757.11,-566.52 760.08,-576.69 765.77,-572.61"/>
</g>
<!-- coords:PolCoordinate -->
<g id="node18" class="node">
<title>coords:PolCoordinate</title>
<g id="a_node18"><a xlink:href="../coords/PolCoordinate" xlink:title="{&amp;lt;&amp;lt;datatype&amp;gt;&amp;gt;\nPolCoordinate}">
<polygon fill="#8dd3c7" stroke="black" points="31,-435 31,-471 93,-471 93,-435 31,-435"/>
<text text-anchor="middle" x="62" y="-455.6" font-family="Times,serif" font-size="8.00">&lt;&lt;datatype&gt;&gt;</text>
<text text-anchor="middle" x="62" y="-446.6" font-family="Times,serif" font-size="8.00">PolCoordinate</text>
</a>
</g>
</g>
<!-- coords:PolCoordinate&#45;&gt;coords:Coordinate -->
<g id="edge14" class="edge">
<title>coords:PolCoordinate&#45;&gt;coords:Coordinate</title>
<path fill="none" stroke="red" d="M82.89,-435.1C89.88,-430.19 97.95,-425.28 106,-422 174.55,-394.08 196.51,-401.82 270,-393 332.13,-385.54 492.3,-396.68 551,-375 555.49,-373.34 559.9,-371.01 564.06,-368.36"/>
<polygon fill="none" stroke="red" points="565.89,-371.36 571.99,-362.69 561.82,-365.66 565.89,-371.36"/>
</g>
<!-- coords:PolState -->
<g id="node19" class="node">
<title>coords:PolState</title>
<g id="a_node19"><a xlink:href="../coords/PolState" xlink:title="{&amp;lt;&amp;lt;datatype&amp;gt;&amp;gt;\nPolState|+cval : coords:PolStateEnum\l}">
<polygon fill="#8dd3c7" stroke="black" points="0,-526 0,-569 110,-569 110,-526 0,-526"/>
<text text-anchor="middle" x="55" y="-558.6" font-family="Times,serif" font-size="8.00">&lt;&lt;datatype&gt;&gt;</text>
<text text-anchor="middle" x="55" y="-549.6" font-family="Times,serif" font-size="8.00">PolState</text>
<polyline fill="none" stroke="black" points="0,-543 110,-543"/>
<text text-anchor="start" x="8" y="-532.6" font-family="Times,serif" font-size="8.00">+cval : coords:PolStateEnum</text>
</a>
</g>
</g>
<!-- coords:PolState&#45;&gt;coords:PolCoordinate -->
<g id="edge15" class="edge">
<title>coords:PolState&#45;&gt;coords:PolCoordinate</title>
<path fill="none" stroke="red" d="M56.52,-526.43C57.5,-513.48 58.79,-496.44 59.87,-482.15"/>
<polygon fill="none" stroke="red" points="63.34,-482.68 60.6,-472.44 56.36,-482.15 63.34,-482.68"/>
</g>
<!-- coords:RefLocation -->
<g id="node20" class="node">
<title>coords:RefLocation</title>
<g id="a_node20"><a xlink:href="../coords/RefLocation" xlink:title="{&amp;lt;&amp;lt;datatype&amp;gt;&amp;gt;\nRefLocation}">
<polygon fill="#8dd3c7" stroke="black" points="970,-529.5 970,-565.5 1032,-565.5 1032,-529.5 970,-529.5"/>
<text text-anchor="middle" x="1001" y="-550.1" font-family="Times,serif" font-size="8.00">&lt;&lt;datatype&gt;&gt;</text>
<text text-anchor="middle" x="1001" y="-541.1" font-family="Times,serif" font-size="8.00">RefLocation</text>
</a>
</g>
</g>
<!-- coords:StdRefLocation -->
<g id="node21" class="node">
<title>coords:StdRefLocation</title>
<g id="a_node21"><a xlink:href="../coords/StdRefLocation" xlink:title="{&amp;lt;&amp;lt;datatype&amp;gt;&amp;gt;\nStdRefLocation|+position : ivoa:string\l}">
<polygon fill="#8dd3c7" stroke="black" points="901,-674.5 901,-717.5 987,-717.5 987,-674.5 901,-674.5"/>
<text text-anchor="middle" x="944" y="-707.1" font-family="Times,serif" font-size="8.00">&lt;&lt;datatype&gt;&gt;</text>
<text text-anchor="middle" x="944" y="-698.1" font-family="Times,serif" font-size="8.00">StdRefLocation</text>
<polyline fill="none" stroke="black" points="901,-691.5 987,-691.5"/>
<text text-anchor="start" x="909" y="-681.1" font-family="Times,serif" font-size="8.00">+position : ivoa:string</text>
</a>
</g>
</g>
<!-- coords:StdRefLocation&#45;&gt;coords:RefLocation -->
<g id="edge16" class="edge">
<title>coords:StdRefLocation&#45;&gt;coords:RefLocation</title>
<path fill="none" stroke="red" d="M951.93,-674.63C961.97,-648.81 979.32,-604.22 990.47,-575.56"/>
<polygon fill="none" stroke="red" points="993.64,-577.07 994,-566.48 987.11,-574.53 993.64,-577.07"/>
</g>
<!-- coords:CustomRefLocation -->
<g id="node22" class="node">
<title>coords:CustomRefLocation</title>
<g id="a_node22"><a xlink:href="../coords/CustomRefLocation" xlink:title="{&amp;lt;&amp;lt;datatype&amp;gt;&amp;gt;\nCustomRefLocation|+epoch : coords:Epoch\l+position : coords:Point\l+velocity : coords:Point\l}">
<polygon fill="#8dd3c7" stroke="black" points="1005.5,-665.5 1005.5,-726.5 1098.5,-726.5 1098.5,-665.5 1005.5,-665.5"/>
<text text-anchor="middle" x="1052" y="-716.1" font-family="Times,serif" font-size="8.00">&lt;&lt;datatype&gt;&gt;</text>
<text text-anchor="middle" x="1052" y="-707.1" font-family="Times,serif" font-size="8.00">CustomRefLocation</text>
<polyline fill="none" stroke="black" points="1005.5,-700.5 1098.5,-700.5"/>
<text text-anchor="start" x="1013.5" y="-690.1" font-family="Times,serif" font-size="8.00">+epoch : coords:Epoch</text>
<text text-anchor="start" x="1013.5" y="-681.1" font-family="Times,serif" font-size="8.00">+position : coords:Point</text>
<text text-anchor="start" x="1013.5" y="-672.1" font-family="Times,serif" font-size="8.00">+velocity : coords:Point</text>
</a>
</g>
</g>
<!-- coords:CustomRefLocation&#45;&gt;coords:RefLocation -->
<g id="edge17" class="edge">
<title>coords:CustomRefLocation&#45;&gt;coords:RefLocation</title>
<path fill="none" stroke="red" d="M1041.8,-665.71C1032.73,-639.64 1019.55,-601.78 1010.65,-576.21"/>
<polygon fill="none" stroke="red" points="1013.98,-575.13 1007.38,-566.84 1007.37,-577.43 1013.98,-575.13"/>
</g>
<!-- coords:CoordSpace -->
<g id="node23" class="node">
<title>coords:CoordSpace</title>
<g id="a_node23"><a xlink:href="../coords/CoordSpace" xlink:title="{CoordSpace}">
<polygon fill="#8dd3c7" stroke="black" points="974,-147.5 974,-183.5 1030,-183.5 1030,-147.5 974,-147.5"/>
<text text-anchor="middle" x="1002" y="-163.6" font-family="Times,serif" font-size="8.00">CoordSpace</text>
</a>
</g>
</g>
<!-- coords:Axis -->
<g id="node24" class="node">
<title>coords:Axis</title>
<g id="a_node24"><a xlink:href="../coords/Axis" xlink:title="{Axis|+name : ivoa:string\l}">
<polygon fill="#8dd3c7" stroke="black" points="1130.5,-55.5 1130.5,-91.5 1209.5,-91.5 1209.5,-55.5 1130.5,-55.5"/>
<text text-anchor="middle" x="1170" y="-80.6" font-family="Times,serif" font-size="8.00">Axis</text>
<polyline fill="none" stroke="black" points="1130.5,-73.5 1209.5,-73.5"/>
<text text-anchor="start" x="1138.5" y="-62.6" font-family="Times,serif" font-size="8.00">+name : ivoa:string</text>
</a>
</g>
</g>
<!-- coords:CoordSpace&#45;&gt;coords:Axis -->
<g id="edge35" class="edge">
<title>coords:CoordSpace&#45;&gt;coords:Axis</title>
<path fill="none" stroke="blue" d="M1036.49,-140.5C1037.33,-139.99 1038.17,-139.49 1039,-139 1066.07,-123.12 1097.59,-107.52 1122.93,-95.63"/>
<polygon fill="blue" stroke="blue" points="1036.41,-140.55 1033.52,-147.16 1026.31,-147.03 1029.2,-140.42 1036.41,-140.55"/>
<polygon fill="blue" stroke="blue" points="1131.97,-91.43 1124.8,-99.73 1127.44,-93.54 1122.9,-95.65 1122.9,-95.65 1122.9,-95.65 1127.44,-93.54 1121,-91.57 1131.97,-91.43 1131.97,-91.43"/>
<text text-anchor="middle" x="1099.5" y="-113" font-family="Times,serif" font-size="10.00">axis</text>
<text text-anchor="middle" x="1123.97" y="-94.43" font-family="Times,serif" font-size="10.00">1..*</text>
</g>
<!-- coords:ContinuousAxis -->
<g id="node25" class="node">
<title>coords:ContinuousAxis</title>
<g id="a_node25"><a xlink:href="../coords/ContinuousAxis" xlink:title="{ContinuousAxis|+domainMin : ivoa:Quantity\l+domainMax : ivoa:Quantity\l+cyclic : ivoa:boolean\l}">
<polygon fill="#8dd3c7" stroke="black" points="1048.5,-139.5 1048.5,-191.5 1157.5,-191.5 1157.5,-139.5 1048.5,-139.5"/>
<text text-anchor="middle" x="1103" y="-181.1" font-family="Times,serif" font-size="8.00">ContinuousAxis</text>
<polyline fill="none" stroke="black" points="1048.5,-174.5 1157.5,-174.5"/>
<text text-anchor="start" x="1056.5" y="-164.1" font-family="Times,serif" font-size="8.00">+domainMin : ivoa:Quantity</text>
<text text-anchor="start" x="1056.5" y="-155.1" font-family="Times,serif" font-size="8.00">+domainMax : ivoa:Quantity</text>
<text text-anchor="start" x="1056.5" y="-146.1" font-family="Times,serif" font-size="8.00">+cyclic : ivoa:boolean</text>
</a>
</g>
</g>
<!-- coords:ContinuousAxis&#45;&gt;coords:Axis -->
<g id="edge18" class="edge">
<title>coords:ContinuousAxis&#45;&gt;coords:Axis</title>
<path fill="none" stroke="red" d="M1121.31,-139.91C1130.45,-127.63 1141.5,-112.78 1150.76,-100.34"/>
<polygon fill="none" stroke="red" points="1153.37,-102.7 1156.53,-92.59 1147.75,-98.52 1153.37,-102.7"/>
</g>
<!-- coords:BinnedAxis -->
<g id="node26" class="node">
<title>coords:BinnedAxis</title>
<g id="a_node26"><a xlink:href="../coords/BinnedAxis" xlink:title="{BinnedAxis|+length : ivoa:nonnegativeInteger\l}">
<polygon fill="#8dd3c7" stroke="black" points="1175.5,-147.5 1175.5,-183.5 1300.5,-183.5 1300.5,-147.5 1175.5,-147.5"/>
<text text-anchor="middle" x="1238" y="-172.6" font-family="Times,serif" font-size="8.00">BinnedAxis</text>
<polyline fill="none" stroke="black" points="1175.5,-165.5 1300.5,-165.5"/>
<text text-anchor="start" x="1183.5" y="-154.6" font-family="Times,serif" font-size="8.00">+length : ivoa:nonnegativeInteger</text>
</a>
</g>
</g>
<!-- coords:BinnedAxis&#45;&gt;coords:Axis -->
<g id="edge19" class="edge">
<title>coords:BinnedAxis&#45;&gt;coords:Axis</title>
<path fill="none" stroke="red" d="M1225.21,-147.57C1215.14,-134.25 1200.94,-115.45 1189.47,-100.26"/>
<polygon fill="none" stroke="red" points="1192.47,-98.43 1183.65,-92.56 1186.88,-102.65 1192.47,-98.43"/>
</g>
<!-- coords:DiscreteSetAxis -->
<g id="node27" class="node">
<title>coords:DiscreteSetAxis</title>
<g id="a_node27"><a xlink:href="../coords/DiscreteSetAxis" xlink:title="{DiscreteSetAxis}">
<polygon fill="#8dd3c7" stroke="black" points="1319,-147.5 1319,-183.5 1389,-183.5 1389,-147.5 1319,-147.5"/>
<text text-anchor="middle" x="1354" y="-163.6" font-family="Times,serif" font-size="8.00">DiscreteSetAxis</text>
</a>
</g>
</g>
<!-- coords:DiscreteSetAxis&#45;&gt;coords:Axis -->
<g id="edge20" class="edge">
<title>coords:DiscreteSetAxis&#45;&gt;coords:Axis</title>
<path fill="none" stroke="red" d="M1325.81,-147.64C1320.6,-144.68 1315.17,-141.68 1310,-139 1280.53,-123.72 1246.76,-108.1 1219.76,-96.06"/>
<polygon fill="none" stroke="red" points="1221.34,-92.94 1210.78,-92.08 1218.5,-99.34 1221.34,-92.94"/>
</g>
<!-- coords:CoordFrame -->
<g id="node28" class="node">
<title>coords:CoordFrame</title>
<g id="a_node28"><a xlink:href="../coords/CoordFrame" xlink:title="{CoordFrame}">
<polygon fill="#8dd3c7" stroke="black" points="1099.5,-229.5 1099.5,-265.5 1156.5,-265.5 1156.5,-229.5 1099.5,-229.5"/>
<text text-anchor="middle" x="1128" y="-245.6" font-family="Times,serif" font-size="8.00">CoordFrame</text>
</a>
</g>
</g>
<!-- coords:GenericFrame -->
<g id="node29" class="node">
<title>coords:GenericFrame</title>
<g id="a_node29"><a xlink:href="../coords/GenericFrame" xlink:title="{GenericFrame|+refPosition : coords:RefLocation\l+planetaryEphem : ivoa:string\l}">
<polygon fill="#8dd3c7" stroke="black" points="1283.5,-322.5 1283.5,-365.5 1410.5,-365.5 1410.5,-322.5 1283.5,-322.5"/>
<text text-anchor="middle" x="1347" y="-355.1" font-family="Times,serif" font-size="8.00">GenericFrame</text>
<polyline fill="none" stroke="black" points="1283.5,-348.5 1410.5,-348.5"/>
<text text-anchor="start" x="1291.5" y="-338.1" font-family="Times,serif" font-size="8.00">+refPosition : coords:RefLocation</text>
<text text-anchor="start" x="1291.5" y="-329.1" font-family="Times,serif" font-size="8.00">+planetaryEphem : ivoa:string</text>
</a>
</g>
</g>
<!-- coords:GenericFrame&#45;&gt;coords:CoordFrame -->
<g id="edge21" class="edge">
<title>coords:GenericFrame&#45;&gt;coords:CoordFrame</title>
<path fill="none" stroke="red" d="M1299.75,-322.61C1260.04,-305.48 1203.97,-281.28 1166.83,-265.26"/>
<polygon fill="none" stroke="red" points="1168.38,-262.11 1157.81,-261.36 1165.61,-268.54 1168.38,-262.11"/>
</g>
<!-- coords:SpaceFrame -->
<g id="node30" class="node">
<title>coords:SpaceFrame</title>
<g id="a_node30"><a xlink:href="../coords/SpaceFrame" xlink:title="{SpaceFrame|+refPosition : coords:RefLocation\l+spaceRefFrame : ivoa:string\l+equinox : coords:Epoch\l+planetaryEphem : ivoa:string\l}">
<polygon fill="#8dd3c7" stroke="black" points="1138.5,-313.5 1138.5,-374.5 1265.5,-374.5 1265.5,-313.5 1138.5,-313.5"/>
<text text-anchor="middle" x="1202" y="-364.1" font-family="Times,serif" font-size="8.00">SpaceFrame</text>
<polyline fill="none" stroke="black" points="1138.5,-357.5 1265.5,-357.5"/>
<text text-anchor="start" x="1146.5" y="-347.1" font-family="Times,serif" font-size="8.00">+refPosition : coords:RefLocation</text>
<text text-anchor="start" x="1146.5" y="-338.1" font-family="Times,serif" font-size="8.00">+spaceRefFrame : ivoa:string</text>
<text text-anchor="start" x="1146.5" y="-329.1" font-family="Times,serif" font-size="8.00">+equinox : coords:Epoch</text>
<text text-anchor="start" x="1146.5" y="-320.1" font-family="Times,serif" font-size="8.00">+planetaryEphem : ivoa:string</text>
</a>
</g>
</g>
<!-- coords:SpaceFrame&#45;&gt;coords:CoordFrame -->
<g id="edge22" class="edge">
<title>coords:SpaceFrame&#45;&gt;coords:CoordFrame</title>
<path fill="none" stroke="red" d="M1178.99,-313.62C1169.12,-301.01 1157.69,-286.41 1148.15,-274.24"/>
<polygon fill="none" stroke="red" points="1151.15,-272.38 1142.22,-266.66 1145.63,-276.7 1151.15,-272.38"/>
</g>
<!-- coords:TimeFrame -->
<g id="node31" class="node">
<title>coords:TimeFrame</title>
<g id="a_node31"><a xlink:href="../coords/TimeFrame" xlink:title="{TimeFrame|+refPosition : coords:RefLocation\l+timescale : ivoa:string\l+refDirection : coords:RefLocation\l}">
<polygon fill="#8dd3c7" stroke="black" points="988,-318 988,-370 1120,-370 1120,-318 988,-318"/>
<text text-anchor="middle" x="1054" y="-359.6" font-family="Times,serif" font-size="8.00">TimeFrame</text>
<polyline fill="none" stroke="black" points="988,-353 1120,-353"/>
<text text-anchor="start" x="996" y="-342.6" font-family="Times,serif" font-size="8.00">+refPosition : coords:RefLocation</text>
<text text-anchor="start" x="996" y="-333.6" font-family="Times,serif" font-size="8.00">+timescale : ivoa:string</text>
<text text-anchor="start" x="996" y="-324.6" font-family="Times,serif" font-size="8.00">+refDirection : coords:RefLocation</text>
</a>
</g>
</g>
<!-- coords:TimeFrame&#45;&gt;coords:CoordFrame -->
<g id="edge23" class="edge">
<title>coords:TimeFrame&#45;&gt;coords:CoordFrame</title>
<path fill="none" stroke="red" d="M1073.44,-318.17C1084.02,-304.66 1097.09,-287.97 1107.78,-274.32"/>
<polygon fill="none" stroke="red" points="1110.41,-276.64 1113.82,-266.61 1104.89,-272.33 1110.41,-276.64"/>
</g>
<!-- coords:AstroCoordSystem -->
<g id="node32" class="node">
<title>coords:AstroCoordSystem</title>
<g id="a_node32"><a xlink:href="../coords/AstroCoordSystem" xlink:title="{AstroCoordSystem}">
<polygon fill="#8dd3c7" stroke="black" points="845.5,-435 845.5,-471 922.5,-471 922.5,-435 845.5,-435"/>
<text text-anchor="middle" x="884" y="-451.1" font-family="Times,serif" font-size="8.00">AstroCoordSystem</text>
</a>
</g>
</g>
<!-- coords:AstroCoordSystem&#45;&gt;coords:CoordSys -->
<g id="edge24" class="edge">
<title>coords:AstroCoordSystem&#45;&gt;coords:CoordSys</title>
<path fill="none" stroke="red" d="M874.34,-435.35C853.95,-400.17 806.31,-318.02 781.56,-275.33"/>
<polygon fill="none" stroke="red" points="784.59,-273.59 776.55,-266.69 778.54,-277.1 784.59,-273.59"/>
</g>
<!-- coords:PhysicalCoordSys -->
<g id="node36" class="node">
<title>coords:PhysicalCoordSys</title>
<g id="a_node36"><a xlink:href="../coords/PhysicalCoordSys" xlink:title="{PhysicalCoordSys}">
<polygon fill="#8dd3c7" stroke="black" points="896,-326 896,-362 970,-362 970,-326 896,-326"/>
<text text-anchor="middle" x="933" y="-342.1" font-family="Times,serif" font-size="8.00">PhysicalCoordSys</text>
</a>
</g>
</g>
<!-- coords:AstroCoordSystem&#45;&gt;coords:PhysicalCoordSys -->
<g id="edge36" class="edge">
<title>coords:AstroCoordSystem&#45;&gt;coords:PhysicalCoordSys</title>
<path fill="none" stroke="blue" d="M895.11,-423.15C898.99,-413.49 903.51,-402.7 908,-393 911.44,-385.56 915.44,-377.63 919.21,-370.39"/>
<polygon fill="blue" stroke="blue" points="895.15,-423.04 896.67,-430.09 890.74,-434.2 889.23,-427.15 895.15,-423.04"/>
<polygon fill="blue" stroke="blue" points="923.82,-361.69 923.11,-372.63 921.48,-366.11 919.14,-370.53 919.14,-370.53 919.14,-370.53 921.48,-366.11 915.16,-368.42 923.82,-361.69 923.82,-361.69"/>
<text text-anchor="middle" x="927" y="-396" font-family="Times,serif" font-size="10.00">coordSys</text>
<text text-anchor="middle" x="915.82" y="-364.69" font-family="Times,serif" font-size="10.00">1..*</text>
</g>
<!-- coords:PixelCoordSystem -->
<g id="node33" class="node">
<title>coords:PixelCoordSystem</title>
<g id="a_node33"><a xlink:href="../coords/PixelCoordSystem" xlink:title="{PixelCoordSystem}">
<polygon fill="#8dd3c7" stroke="black" points="466,-326 466,-362 542,-362 542,-326 466,-326"/>
<text text-anchor="middle" x="504" y="-342.1" font-family="Times,serif" font-size="8.00">PixelCoordSystem</text>
</a>
</g>
</g>
<!-- coords:PixelSpace -->
<g id="node34" class="node">
<title>coords:PixelSpace</title>
<g id="a_node34"><a xlink:href="../coords/PixelSpace" xlink:title="{PixelSpace|+handedness : coords:Handedness\l}">
<polygon fill="#8dd3c7" stroke="black" points="576.5,-229.5 576.5,-265.5 701.5,-265.5 701.5,-229.5 576.5,-229.5"/>
<text text-anchor="middle" x="639" y="-254.6" font-family="Times,serif" font-size="8.00">PixelSpace</text>
<polyline fill="none" stroke="black" points="576.5,-247.5 701.5,-247.5"/>
<text text-anchor="start" x="584.5" y="-236.6" font-family="Times,serif" font-size="8.00">+handedness : coords:Handedness</text>
</a>
</g>
</g>
<!-- coords:PixelCoordSystem&#45;&gt;coords:PixelSpace -->
<g id="edge37" class="edge">
<title>coords:PixelCoordSystem&#45;&gt;coords:PixelSpace</title>
<path fill="none" stroke="blue" d="M538.57,-318.8C559.63,-304.06 586.36,-285.35 606.94,-270.94"/>
<polygon fill="blue" stroke="blue" points="538.7,-318.71 536.08,-325.42 528.87,-325.59 531.5,-318.87 538.7,-318.71"/>
<polygon fill="blue" stroke="blue" points="615.07,-265.25 609.46,-274.67 610.98,-268.12 606.88,-270.98 606.88,-270.98 606.88,-270.98 610.98,-268.12 604.3,-267.3 615.07,-265.25 615.07,-265.25"/>
<text text-anchor="middle" x="611" y="-287" font-family="Times,serif" font-size="10.00">pixelSpace</text>
<text text-anchor="middle" x="612.07" y="-268.25" font-family="Times,serif" font-size="10.00">1</text>
</g>
<!-- coords:PixelCoordSystem&#45;&gt;coords:CoordSys -->
<g id="edge25" class="edge">
<title>coords:PixelCoordSystem&#45;&gt;coords:CoordSys</title>
<path fill="none" stroke="red" d="M526.52,-326.28C533.99,-321.38 542.57,-316.43 551,-313 587.58,-298.13 600.01,-305.77 638,-295 669.11,-286.18 703.51,-273.51 728.81,-263.63"/>
<polygon fill="none" stroke="red" points="729.98,-266.93 737.99,-260 727.41,-260.42 729.98,-266.93"/>
</g>
<!-- coords:PixelSpace&#45;&gt;coords:CoordSpace -->
<g id="edge26" class="edge">
<title>coords:PixelSpace&#45;&gt;coords:CoordSpace</title>
<path fill="none" stroke="red" d="M701.4,-232.75C776.59,-216.18 900.6,-188.85 963.23,-175.04"/>
<polygon fill="none" stroke="red" points="963.7,-178.53 972.71,-172.96 962.19,-171.69 963.7,-178.53"/>
</g>
<!-- coords:PhysicalCoordSys&#45;&gt;coords:CoordFrame -->
<g id="edge39" class="edge">
<title>coords:PhysicalCoordSys&#45;&gt;coords:CoordFrame</title>
<path fill="none" stroke="blue" d="M929.75,-313.05C930.24,-302.66 932.8,-291.71 940,-284 959.89,-262.69 1040.88,-253.92 1089.84,-250.5"/>
<polygon fill="blue" stroke="blue" points="929.76,-313.15 933.91,-319.04 930.07,-325.15 925.92,-319.25 929.76,-313.15"/>
<polygon fill="blue" stroke="blue" points="1099.76,-249.85 1090.08,-255 1094.77,-250.18 1089.78,-250.51 1089.78,-250.51 1089.78,-250.51 1094.77,-250.18 1089.49,-246.02 1099.76,-249.85 1099.76,-249.85"/>
<text text-anchor="middle" x="951.5" y="-287" font-family="Times,serif" font-size="10.00">frame</text>
<text text-anchor="middle" x="1091.76" y="-252.85" font-family="Times,serif" font-size="10.00">0..1</text>
</g>
<!-- coords:PhysicalCoordSys&#45;&gt;coords:CoordSys -->
<g id="edge27" class="edge">
<title>coords:PhysicalCoordSys&#45;&gt;coords:CoordSys</title>
<path fill="none" stroke="red" d="M903.14,-326.11C874.99,-310.17 832.73,-286.26 802.57,-269.19"/>
<polygon fill="none" stroke="red" points="804.58,-266.31 794.16,-264.43 801.14,-272.4 804.58,-266.31"/>
</g>
<!-- coords:PhysicalCoordSpace -->
<g id="node40" class="node">
<title>coords:PhysicalCoordSpace</title>
<g id="a_node40"><a xlink:href="../coords/PhysicalCoordSpace" xlink:title="{PhysicalCoordSpace}">
<polygon fill="#8dd3c7" stroke="black" points="1428.5,-229.5 1428.5,-265.5 1511.5,-265.5 1511.5,-229.5 1428.5,-229.5"/>
<text text-anchor="middle" x="1470" y="-245.6" font-family="Times,serif" font-size="8.00">PhysicalCoordSpace</text>
</a>
</g>
</g>
<!-- coords:PhysicalCoordSys&#45;&gt;coords:PhysicalCoordSpace -->
<g id="edge38" class="edge">
<title>coords:PhysicalCoordSys&#45;&gt;coords:PhysicalCoordSpace</title>
<path fill="none" stroke="blue" d="M965.48,-319.34C969.87,-316.89 974.44,-314.69 979,-313 1131.92,-256.44 1327.72,-248.28 1418.95,-247.85"/>
<polygon fill="blue" stroke="blue" points="965.35,-319.42 962.36,-325.98 955.15,-325.74 958.15,-319.18 965.35,-319.42"/>
<polygon fill="blue" stroke="blue" points="1428.77,-247.84 1418.77,-252.35 1423.77,-247.85 1418.77,-247.85 1418.77,-247.85 1418.77,-247.85 1423.77,-247.85 1418.76,-243.35 1428.77,-247.84 1428.77,-247.84"/>
<text text-anchor="middle" x="1093" y="-287" font-family="Times,serif" font-size="10.00">coordSpace</text>
<text text-anchor="middle" x="1420.77" y="-250.84" font-family="Times,serif" font-size="10.00">0..1</text>
</g>
<!-- coords:GenericSys -->
<g id="node37" class="node">
<title>coords:GenericSys</title>
<g id="a_node37"><a xlink:href="../coords/GenericSys" xlink:title="{GenericSys}">
<polygon fill="#8dd3c7" stroke="black" points="941,-435 941,-471 995,-471 995,-435 941,-435"/>
<text text-anchor="middle" x="968" y="-451.1" font-family="Times,serif" font-size="8.00">GenericSys</text>
</a>
</g>
</g>
<!-- coords:GenericSys&#45;&gt;coords:PhysicalCoordSys -->
<g id="edge28" class="edge">
<title>coords:GenericSys&#45;&gt;coords:PhysicalCoordSys</title>
<path fill="none" stroke="red" d="M962.53,-435.28C957.07,-418.58 948.57,-392.6 942.09,-372.79"/>
<polygon fill="none" stroke="red" points="945.45,-371.81 939.02,-363.39 938.8,-373.99 945.45,-371.81"/>
</g>
<!-- coords:SpaceSys -->
<g id="node38" class="node">
<title>coords:SpaceSys</title>
<g id="a_node38"><a xlink:href="../coords/SpaceSys" xlink:title="{SpaceSys}">
<polygon fill="#8dd3c7" stroke="black" points="1013,-435 1013,-471 1067,-471 1067,-435 1013,-435"/>
<text text-anchor="middle" x="1040" y="-451.1" font-family="Times,serif" font-size="8.00">SpaceSys</text>
</a>
</g>
</g>
<!-- coords:SpaceSys&#45;&gt;coords:PhysicalCoordSys -->
<g id="edge29" class="edge">
<title>coords:SpaceSys&#45;&gt;coords:PhysicalCoordSys</title>
<path fill="none" stroke="red" d="M1023.28,-435.28C1005.8,-417.8 978.15,-390.15 958.05,-370.05"/>
<polygon fill="none" stroke="red" points="960.57,-367.62 951.02,-363.02 955.62,-372.57 960.57,-367.62"/>
</g>
<!-- coords:TimeSys -->
<g id="node39" class="node">
<title>coords:TimeSys</title>
<g id="a_node39"><a xlink:href="../coords/TimeSys" xlink:title="{TimeSys}">
<polygon fill="#8dd3c7" stroke="black" points="1085,-435 1085,-471 1139,-471 1139,-435 1085,-435"/>
<text text-anchor="middle" x="1112" y="-451.1" font-family="Times,serif" font-size="8.00">TimeSys</text>
</a>
</g>
</g>
<!-- coords:TimeSys&#45;&gt;coords:PhysicalCoordSys -->
<g id="edge30" class="edge">
<title>coords:TimeSys&#45;&gt;coords:PhysicalCoordSys</title>
<path fill="none" stroke="red" d="M1093.61,-435.21C1088.15,-430.64 1082.02,-425.88 1076,-422 1035.75,-396.03 1020.7,-398.58 979,-375 975.1,-372.79 971.07,-370.38 967.11,-367.92"/>
<polygon fill="none" stroke="red" points="969.06,-365.02 958.75,-362.59 965.3,-370.92 969.06,-365.02"/>
</g>
<!-- coords:PhysicalCoordSpace&#45;&gt;coords:CoordSpace -->
<g id="edge31" class="edge">
<title>coords:PhysicalCoordSpace&#45;&gt;coords:CoordSpace</title>
<path fill="none" stroke="red" d="M1428.67,-243.78C1335.13,-237.21 1109.82,-219.03 1039,-192 1036.92,-191.21 1034.85,-190.27 1032.8,-189.24"/>
<polygon fill="none" stroke="red" points="1034.64,-186.26 1024.24,-184.22 1031.1,-192.3 1034.64,-186.26"/>
</g>
<!-- coords:GenericCoordSpace -->
<g id="node41" class="node">
<title>coords:GenericCoordSpace</title>
<g id="a_node41"><a xlink:href="../coords/GenericCoordSpace" xlink:title="{GenericCoordSpace}">
<polygon fill="#8dd3c7" stroke="black" points="1429,-326 1429,-362 1511,-362 1511,-326 1429,-326"/>
<text text-anchor="middle" x="1470" y="-342.1" font-family="Times,serif" font-size="8.00">GenericCoordSpace</text>
</a>
</g>
</g>
<!-- coords:GenericCoordSpace&#45;&gt;coords:PhysicalCoordSpace -->
<g id="edge32" class="edge">
<title>coords:GenericCoordSpace&#45;&gt;coords:PhysicalCoordSpace</title>
<path fill="none" stroke="red" d="M1470,-326.11C1470,-312.4 1470,-292.78 1470,-276.7"/>
<polygon fill="none" stroke="red" points="1473.5,-276.76 1470,-266.76 1466.5,-276.76 1473.5,-276.76"/>
</g>
<!-- coords:SphericalCoordSpace -->
<g id="node42" class="node">
<title>coords:SphericalCoordSpace</title>
<g id="a_node42"><a xlink:href="../coords/SphericalCoordSpace" xlink:title="{SphericalCoordSpace}">
<polygon fill="#8dd3c7" stroke="black" points="1529,-326 1529,-362 1615,-362 1615,-326 1529,-326"/>
<text text-anchor="middle" x="1572" y="-342.1" font-family="Times,serif" font-size="8.00">SphericalCoordSpace</text>
</a>
</g>
</g>
<!-- coords:SphericalCoordSpace&#45;&gt;coords:PhysicalCoordSpace -->
<g id="edge33" class="edge">
<title>coords:SphericalCoordSpace&#45;&gt;coords:PhysicalCoordSpace</title>
<path fill="none" stroke="red" d="M1553.76,-326.11C1537.81,-311.32 1514.43,-289.67 1496.43,-272.99"/>
<polygon fill="none" stroke="red" points="1498.9,-270.51 1489.19,-266.28 1494.14,-275.64 1498.9,-270.51"/>
</g>
<!-- coords:CartesianCoordSpace -->
<g id="node43" class="node">
<title>coords:CartesianCoordSpace</title>
<g id="a_node43"><a xlink:href="../coords/CartesianCoordSpace" xlink:title="{CartesianCoordSpace}">
<polygon fill="#8dd3c7" stroke="black" points="1633,-326 1633,-362 1719,-362 1719,-326 1633,-326"/>
<text text-anchor="middle" x="1676" y="-342.1" font-family="Times,serif" font-size="8.00">CartesianCoordSpace</text>
</a>
</g>
</g>
<!-- coords:CartesianCoordSpace&#45;&gt;coords:PhysicalCoordSpace -->
<g id="edge34" class="edge">
<title>coords:CartesianCoordSpace&#45;&gt;coords:PhysicalCoordSpace</title>
<path fill="none" stroke="red" d="M1648.29,-326.15C1640.54,-321.67 1632.03,-316.98 1624,-313 1590.66,-296.48 1552.03,-280.31 1521.81,-268.29"/>
<polygon fill="none" stroke="red" points="1523.48,-265.19 1512.9,-264.78 1520.91,-271.7 1523.48,-265.19"/>
</g>
</g>
</svg>
